<svg width="500" height="500" viewBox="0 0 500 500" fill="none" xmlns="http://www.w3.org/2000/svg">
<rect width="500" height="500" rx="100" fill="#11366A"/>
<path d="M449.5 313H439V242.059C439 233.725 435.653 225.719 429.747 219.812L364.188 154.253C358.281 148.347 350.275 145 341.941 145H313V113.5C313 96.1094 298.891 82 281.5 82H113.5C96.1094 82 82 96.1094 82 113.5V145H45.25C42.3625 145 40 147.362 40 150.25V160.75C40 163.638 42.3625 166 45.25 166H223.75C226.638 166 229 168.362 229 171.25V181.75C229 184.638 226.638 187 223.75 187H66.25C63.3625 187 61 189.362 61 192.25V202.75C61 205.638 63.3625 208 66.25 208H202.75C205.638 208 208 210.362 208 213.25V223.75C208 226.638 205.638 229 202.75 229H45.25C42.3625 229 40 231.362 40 234.25V244.75C40 247.638 42.3625 250 45.25 250H181.75C184.638 250 187 252.362 187 255.25V265.75C187 268.638 184.638 271 181.75 271H82V355C82 389.781 110.219 418 145 418C179.781 418 208 389.781 208 355H292C292 389.781 320.219 418 355 418C389.781 418 418 389.781 418 355H449.5C455.275 355 460 350.275 460 344.5V323.5C460 317.725 455.275 313 449.5 313ZM145 386.5C127.609 386.5 113.5 372.391 113.5 355C113.5 337.609 127.609 323.5 145 323.5C162.391 323.5 176.5 337.609 176.5 355C176.5 372.391 162.391 386.5 145 386.5ZM355 386.5C337.609 386.5 323.5 372.391 323.5 355C323.5 337.609 337.609 323.5 355 323.5C372.391 323.5 386.5 337.609 386.5 355C386.5 372.391 372.391 386.5 355 386.5ZM407.5 250H313V176.5H341.941L407.5 242.059V250Z" fill="white"/>
</svg>
