<svg width="2667" height="488" viewBox="0 0 2667 488" fill="none" xmlns="http://www.w3.org/2000/svg">
<path d="M18.6992 16.1001H19.6992" stroke="#D5D6D6" stroke-width="2" stroke-miterlimit="10"/>
<path d="M21.6992 16.1001H2646.1" stroke="#D5D6D6" stroke-width="2" stroke-miterlimit="10" stroke-dasharray="2 2"/>
<path d="M2647.1 16.1001H2648.1" stroke="#D5D6D6" stroke-width="2" stroke-miterlimit="10"/>
<path d="M18.4004 16.1001V17.1001" stroke="#F6F6F6" stroke-width="2" stroke-miterlimit="10"/>
<path d="M18.4004 19.1001V469.6" stroke="#F6F6F6" stroke-width="2" stroke-miterlimit="10" stroke-dasharray="2 2"/>
<path d="M18.4004 470.6V471.6" stroke="#F6F6F6" stroke-width="2" stroke-miterlimit="10"/>
<path d="M69 16.1001V17.1001" stroke="#F6F6F6" stroke-width="2" stroke-miterlimit="10"/>
<path d="M69 19.1001V469.6" stroke="#F6F6F6" stroke-width="2" stroke-miterlimit="10" stroke-dasharray="2 2"/>
<path d="M69 470.6V471.6" stroke="#F6F6F6" stroke-width="2" stroke-miterlimit="10"/>
<path d="M119.5 16.1001V17.1001" stroke="#F6F6F6" stroke-width="2" stroke-miterlimit="10"/>
<path d="M119.5 19.1001V469.6" stroke="#F6F6F6" stroke-width="2" stroke-miterlimit="10" stroke-dasharray="2 2"/>
<path d="M119.5 470.6V471.6" stroke="#F6F6F6" stroke-width="2" stroke-miterlimit="10"/>
<path d="M170.1 16.1001V17.1001" stroke="#F6F6F6" stroke-width="2" stroke-miterlimit="10"/>
<path d="M170.1 19.1001V469.6" stroke="#F6F6F6" stroke-width="2" stroke-miterlimit="10" stroke-dasharray="2 2"/>
<path d="M170.1 470.6V471.6" stroke="#F6F6F6" stroke-width="2" stroke-miterlimit="10"/>
<path d="M220.699 16.1001V17.1001" stroke="#F6F6F6" stroke-width="2" stroke-miterlimit="10"/>
<path d="M220.699 19.1001V469.6" stroke="#F6F6F6" stroke-width="2" stroke-miterlimit="10" stroke-dasharray="2 2"/>
<path d="M220.699 470.6V471.6" stroke="#F6F6F6" stroke-width="2" stroke-miterlimit="10"/>
<path d="M271.199 16.1001V17.1001" stroke="#EAEAEA" stroke-width="2" stroke-miterlimit="10"/>
<path d="M271.199 19.1001V469.6" stroke="#EAEAEA" stroke-width="2" stroke-miterlimit="10" stroke-dasharray="2 2"/>
<path d="M271.199 470.6V471.6" stroke="#EAEAEA" stroke-width="2" stroke-miterlimit="10"/>
<path d="M321.801 16.1001V17.1001" stroke="#EAEAEA" stroke-width="2" stroke-miterlimit="10"/>
<path d="M321.801 19.1001V469.6" stroke="#EAEAEA" stroke-width="2" stroke-miterlimit="10" stroke-dasharray="2 2"/>
<path d="M321.801 470.6V471.6" stroke="#EAEAEA" stroke-width="2" stroke-miterlimit="10"/>
<path d="M372.4 16.1001V17.1001" stroke="#EAEAEA" stroke-width="2" stroke-miterlimit="10"/>
<path d="M372.4 19.1001V469.6" stroke="#EAEAEA" stroke-width="2" stroke-miterlimit="10" stroke-dasharray="2 2"/>
<path d="M372.4 470.6V471.6" stroke="#EAEAEA" stroke-width="2" stroke-miterlimit="10"/>
<path d="M423 16.1001V17.1001" stroke="#EAEAEA" stroke-width="2" stroke-miterlimit="10"/>
<path d="M423 19.1001V469.6" stroke="#EAEAEA" stroke-width="2" stroke-miterlimit="10" stroke-dasharray="2 2"/>
<path d="M423 470.6V471.6" stroke="#EAEAEA" stroke-width="2" stroke-miterlimit="10"/>
<path d="M473.5 16.1001V17.1001" stroke="#EAEAEA" stroke-width="2" stroke-miterlimit="10"/>
<path d="M473.5 19.1001V469.6" stroke="#EAEAEA" stroke-width="2" stroke-miterlimit="10" stroke-dasharray="2 2"/>
<path d="M473.5 470.6V471.6" stroke="#EAEAEA" stroke-width="2" stroke-miterlimit="10"/>
<path d="M524.1 16.1001V17.1001" stroke="#EAEAEA" stroke-width="2" stroke-miterlimit="10"/>
<path d="M524.1 19.1001V469.6" stroke="#EAEAEA" stroke-width="2" stroke-miterlimit="10" stroke-dasharray="2 2"/>
<path d="M524.1 470.6V471.6" stroke="#EAEAEA" stroke-width="2" stroke-miterlimit="10"/>
<path d="M574.699 16.1001V17.1001" stroke="#EAEAEA" stroke-width="2" stroke-miterlimit="10"/>
<path d="M574.699 19.1001V469.6" stroke="#EAEAEA" stroke-width="2" stroke-miterlimit="10" stroke-dasharray="2 2"/>
<path d="M574.699 470.6V471.6" stroke="#EAEAEA" stroke-width="2" stroke-miterlimit="10"/>
<path d="M625.301 16.1001V17.1001" stroke="#EAEAEA" stroke-width="2" stroke-miterlimit="10"/>
<path d="M625.301 19.1001V469.6" stroke="#EAEAEA" stroke-width="2" stroke-miterlimit="10" stroke-dasharray="2 2"/>
<path d="M625.301 470.6V471.6" stroke="#EAEAEA" stroke-width="2" stroke-miterlimit="10"/>
<path d="M675.801 16.1001V17.1001" stroke="#EAEAEA" stroke-width="2" stroke-miterlimit="10"/>
<path d="M675.801 19.1001V469.6" stroke="#EAEAEA" stroke-width="2" stroke-miterlimit="10" stroke-dasharray="2 2"/>
<path d="M675.801 470.6V471.6" stroke="#EAEAEA" stroke-width="2" stroke-miterlimit="10"/>
<path d="M726.4 16.1001V17.1001" stroke="#EAEAEA" stroke-width="2" stroke-miterlimit="10"/>
<path d="M726.4 19.1001V469.6" stroke="#EAEAEA" stroke-width="2" stroke-miterlimit="10" stroke-dasharray="2 2"/>
<path d="M726.4 470.6V471.6" stroke="#EAEAEA" stroke-width="2" stroke-miterlimit="10"/>
<path d="M777 16.1001V17.1001" stroke="#EAEAEA" stroke-width="2" stroke-miterlimit="10"/>
<path d="M777 19.1001V469.6" stroke="#EAEAEA" stroke-width="2" stroke-miterlimit="10" stroke-dasharray="2 2"/>
<path d="M777 470.6V471.6" stroke="#EAEAEA" stroke-width="2" stroke-miterlimit="10"/>
<path d="M827.5 16.1001V17.1001" stroke="#EAEAEA" stroke-width="2" stroke-miterlimit="10"/>
<path d="M827.5 19.1001V469.6" stroke="#EAEAEA" stroke-width="2" stroke-miterlimit="10" stroke-dasharray="2 2"/>
<path d="M827.5 470.6V471.6" stroke="#EAEAEA" stroke-width="2" stroke-miterlimit="10"/>
<path d="M878.1 16.1001V17.1001" stroke="#EAEAEA" stroke-width="2" stroke-miterlimit="10"/>
<path d="M878.1 19.1001V469.6" stroke="#EAEAEA" stroke-width="2" stroke-miterlimit="10" stroke-dasharray="2 2"/>
<path d="M878.1 470.6V471.6" stroke="#EAEAEA" stroke-width="2" stroke-miterlimit="10"/>
<path d="M928.699 16.1001V17.1001" stroke="#EAEAEA" stroke-width="2" stroke-miterlimit="10"/>
<path d="M928.699 19.1001V469.6" stroke="#EAEAEA" stroke-width="2" stroke-miterlimit="10" stroke-dasharray="2 2"/>
<path d="M928.699 470.6V471.6" stroke="#EAEAEA" stroke-width="2" stroke-miterlimit="10"/>
<path d="M979.301 16.1001V17.1001" stroke="#EAEAEA" stroke-width="2" stroke-miterlimit="10"/>
<path d="M979.301 19.1001V469.6" stroke="#EAEAEA" stroke-width="2" stroke-miterlimit="10" stroke-dasharray="2 2"/>
<path d="M979.301 470.6V471.6" stroke="#EAEAEA" stroke-width="2" stroke-miterlimit="10"/>
<path d="M1029.8 16.1001V17.1001" stroke="#EAEAEA" stroke-width="2" stroke-miterlimit="10"/>
<path d="M1029.8 19.1001V469.6" stroke="#EAEAEA" stroke-width="2" stroke-miterlimit="10" stroke-dasharray="2 2"/>
<path d="M1029.8 470.6V471.6" stroke="#EAEAEA" stroke-width="2" stroke-miterlimit="10"/>
<path d="M1080.4 16.1001V17.1001" stroke="#EAEAEA" stroke-width="2" stroke-miterlimit="10"/>
<path d="M1080.4 19.1001V469.6" stroke="#EAEAEA" stroke-width="2" stroke-miterlimit="10" stroke-dasharray="2 2"/>
<path d="M1080.4 470.6V471.6" stroke="#EAEAEA" stroke-width="2" stroke-miterlimit="10"/>
<path d="M1131 16.1001V17.1001" stroke="#EAEAEA" stroke-width="2" stroke-miterlimit="10"/>
<path d="M1131 19.1001V469.6" stroke="#EAEAEA" stroke-width="2" stroke-miterlimit="10" stroke-dasharray="2 2"/>
<path d="M1131 470.6V471.6" stroke="#EAEAEA" stroke-width="2" stroke-miterlimit="10"/>
<path d="M1181.5 16.1001V17.1001" stroke="#EAEAEA" stroke-width="2" stroke-miterlimit="10"/>
<path d="M1181.5 19.1001V469.6" stroke="#EAEAEA" stroke-width="2" stroke-miterlimit="10" stroke-dasharray="2 2"/>
<path d="M1181.5 470.6V471.6" stroke="#EAEAEA" stroke-width="2" stroke-miterlimit="10"/>
<path d="M1232.1 16.1001V17.1001" stroke="#EAEAEA" stroke-width="2" stroke-miterlimit="10"/>
<path d="M1232.1 19.1001V469.6" stroke="#EAEAEA" stroke-width="2" stroke-miterlimit="10" stroke-dasharray="2 2"/>
<path d="M1232.1 470.6V471.6" stroke="#EAEAEA" stroke-width="2" stroke-miterlimit="10"/>
<path d="M1282.7 16.1001V17.1001" stroke="#EAEAEA" stroke-width="2" stroke-miterlimit="10"/>
<path d="M1282.7 19.1001V469.6" stroke="#EAEAEA" stroke-width="2" stroke-miterlimit="10" stroke-dasharray="2 2"/>
<path d="M1282.7 470.6V471.6" stroke="#EAEAEA" stroke-width="2" stroke-miterlimit="10"/>
<path d="M1333.3 16.1001V17.1001" stroke="#EAEAEA" stroke-width="2" stroke-miterlimit="10"/>
<path d="M1333.3 19.1001V469.6" stroke="#EAEAEA" stroke-width="2" stroke-miterlimit="10" stroke-dasharray="2 2"/>
<path d="M1333.3 470.6V471.6" stroke="#EAEAEA" stroke-width="2" stroke-miterlimit="10"/>
<path d="M1383.8 16.1001V17.1001" stroke="#EAEAEA" stroke-width="2" stroke-miterlimit="10"/>
<path d="M1383.8 19.1001V469.6" stroke="#EAEAEA" stroke-width="2" stroke-miterlimit="10" stroke-dasharray="2 2"/>
<path d="M1383.8 470.6V471.6" stroke="#EAEAEA" stroke-width="2" stroke-miterlimit="10"/>
<path d="M1434.4 16.1001V17.1001" stroke="#EAEAEA" stroke-width="2" stroke-miterlimit="10"/>
<path d="M1434.4 19.1001V469.6" stroke="#EAEAEA" stroke-width="2" stroke-miterlimit="10" stroke-dasharray="2 2"/>
<path d="M1434.4 470.6V471.6" stroke="#EAEAEA" stroke-width="2" stroke-miterlimit="10"/>
<path d="M1485 16.1001V17.1001" stroke="#EAEAEA" stroke-width="2" stroke-miterlimit="10"/>
<path d="M1485 19.1001V469.6" stroke="#EAEAEA" stroke-width="2" stroke-miterlimit="10" stroke-dasharray="2 2"/>
<path d="M1485 470.6V471.6" stroke="#EAEAEA" stroke-width="2" stroke-miterlimit="10"/>
<path d="M1535.5 16.1001V17.1001" stroke="#EAEAEA" stroke-width="2" stroke-miterlimit="10"/>
<path d="M1535.5 19.1001V469.6" stroke="#EAEAEA" stroke-width="2" stroke-miterlimit="10" stroke-dasharray="2 2"/>
<path d="M1535.5 470.6V471.6" stroke="#EAEAEA" stroke-width="2" stroke-miterlimit="10"/>
<path d="M1586.1 16.1001V17.1001" stroke="#EAEAEA" stroke-width="2" stroke-miterlimit="10"/>
<path d="M1586.1 19.1001V469.6" stroke="#EAEAEA" stroke-width="2" stroke-miterlimit="10" stroke-dasharray="2 2"/>
<path d="M1586.1 470.6V471.6" stroke="#EAEAEA" stroke-width="2" stroke-miterlimit="10"/>
<path d="M1636.7 16.1001V17.1001" stroke="#EAEAEA" stroke-width="2" stroke-miterlimit="10"/>
<path d="M1636.7 19.1001V469.6" stroke="#EAEAEA" stroke-width="2" stroke-miterlimit="10" stroke-dasharray="2 2"/>
<path d="M1636.7 470.6V471.6" stroke="#EAEAEA" stroke-width="2" stroke-miterlimit="10"/>
<path d="M1687.3 16.1001V17.1001" stroke="#EAEAEA" stroke-width="2" stroke-miterlimit="10"/>
<path d="M1687.3 19.1001V469.6" stroke="#EAEAEA" stroke-width="2" stroke-miterlimit="10" stroke-dasharray="2 2"/>
<path d="M1687.3 470.6V471.6" stroke="#EAEAEA" stroke-width="2" stroke-miterlimit="10"/>
<path d="M1737.8 16.1001V17.1001" stroke="#EAEAEA" stroke-width="2" stroke-miterlimit="10"/>
<path d="M1737.8 19.1001V469.6" stroke="#EAEAEA" stroke-width="2" stroke-miterlimit="10" stroke-dasharray="2 2"/>
<path d="M1737.8 470.6V471.6" stroke="#EAEAEA" stroke-width="2" stroke-miterlimit="10"/>
<path d="M1788.4 16.1001V17.1001" stroke="#EAEAEA" stroke-width="2" stroke-miterlimit="10"/>
<path d="M1788.4 19.1001V469.6" stroke="#EAEAEA" stroke-width="2" stroke-miterlimit="10" stroke-dasharray="2 2"/>
<path d="M1788.4 470.6V471.6" stroke="#EAEAEA" stroke-width="2" stroke-miterlimit="10"/>
<path d="M1839 16.1001V17.1001" stroke="#EAEAEA" stroke-width="2" stroke-miterlimit="10"/>
<path d="M1839 19.1001V469.6" stroke="#EAEAEA" stroke-width="2" stroke-miterlimit="10" stroke-dasharray="2 2"/>
<path d="M1839 470.6V471.6" stroke="#EAEAEA" stroke-width="2" stroke-miterlimit="10"/>
<path d="M1889.6 16.1001V17.1001" stroke="#EAEAEA" stroke-width="2" stroke-miterlimit="10"/>
<path d="M1889.6 19.1001V469.6" stroke="#EAEAEA" stroke-width="2" stroke-miterlimit="10" stroke-dasharray="2 2"/>
<path d="M1889.6 470.6V471.6" stroke="#EAEAEA" stroke-width="2" stroke-miterlimit="10"/>
<path d="M1940.1 16.1001V17.1001" stroke="#EAEAEA" stroke-width="2" stroke-miterlimit="10"/>
<path d="M1940.1 19.1001V469.6" stroke="#EAEAEA" stroke-width="2" stroke-miterlimit="10" stroke-dasharray="2 2"/>
<path d="M1940.1 470.6V471.6" stroke="#EAEAEA" stroke-width="2" stroke-miterlimit="10"/>
<path d="M1990.7 16.1001V17.1001" stroke="#EAEAEA" stroke-width="2" stroke-miterlimit="10"/>
<path d="M1990.7 19.1001V469.6" stroke="#EAEAEA" stroke-width="2" stroke-miterlimit="10" stroke-dasharray="2 2"/>
<path d="M1990.7 470.6V471.6" stroke="#EAEAEA" stroke-width="2" stroke-miterlimit="10"/>
<path d="M2041.3 16.1001V17.1001" stroke="#EAEAEA" stroke-width="2" stroke-miterlimit="10"/>
<path d="M2041.3 19.1001V469.6" stroke="#EAEAEA" stroke-width="2" stroke-miterlimit="10" stroke-dasharray="2 2"/>
<path d="M2041.3 470.6V471.6" stroke="#EAEAEA" stroke-width="2" stroke-miterlimit="10"/>
<path d="M2091.8 16.1001V17.1001" stroke="#EAEAEA" stroke-width="2" stroke-miterlimit="10"/>
<path d="M2091.8 19.1001V469.6" stroke="#EAEAEA" stroke-width="2" stroke-miterlimit="10" stroke-dasharray="2 2"/>
<path d="M2091.8 470.6V471.6" stroke="#EAEAEA" stroke-width="2" stroke-miterlimit="10"/>
<path d="M2142.4 16.1001V17.1001" stroke="#EAEAEA" stroke-width="2" stroke-miterlimit="10"/>
<path d="M2142.4 19.1001V469.6" stroke="#EAEAEA" stroke-width="2" stroke-miterlimit="10" stroke-dasharray="2 2"/>
<path d="M2142.4 470.6V471.6" stroke="#EAEAEA" stroke-width="2" stroke-miterlimit="10"/>
<path d="M2193 16.1001V17.1001" stroke="#EAEAEA" stroke-width="2" stroke-miterlimit="10"/>
<path d="M2193 19.1001V469.6" stroke="#EAEAEA" stroke-width="2" stroke-miterlimit="10" stroke-dasharray="2 2"/>
<path d="M2193 470.6V471.6" stroke="#EAEAEA" stroke-width="2" stroke-miterlimit="10"/>
<path d="M2243.6 16.1001V17.1001" stroke="#EAEAEA" stroke-width="2" stroke-miterlimit="10"/>
<path d="M2243.6 19.1001V469.6" stroke="#EAEAEA" stroke-width="2" stroke-miterlimit="10" stroke-dasharray="2 2"/>
<path d="M2243.6 470.6V471.6" stroke="#EAEAEA" stroke-width="2" stroke-miterlimit="10"/>
<path d="M2294.1 16.1001V17.1001" stroke="#EAEAEA" stroke-width="2" stroke-miterlimit="10"/>
<path d="M2294.1 19.1001V469.6" stroke="#EAEAEA" stroke-width="2" stroke-miterlimit="10" stroke-dasharray="2 2"/>
<path d="M2294.1 470.6V471.6" stroke="#EAEAEA" stroke-width="2" stroke-miterlimit="10"/>
<path d="M2344.7 16.1001V17.1001" stroke="#EAEAEA" stroke-width="2" stroke-miterlimit="10"/>
<path d="M2344.7 19.1001V469.6" stroke="#EAEAEA" stroke-width="2" stroke-miterlimit="10" stroke-dasharray="2 2"/>
<path d="M2344.7 470.6V471.6" stroke="#EAEAEA" stroke-width="2" stroke-miterlimit="10"/>
<path d="M2395.3 16.1001V17.1001" stroke="#EAEAEA" stroke-width="2" stroke-miterlimit="10"/>
<path d="M2395.3 19.1001V469.6" stroke="#EAEAEA" stroke-width="2" stroke-miterlimit="10" stroke-dasharray="2 2"/>
<path d="M2395.3 470.6V471.6" stroke="#EAEAEA" stroke-width="2" stroke-miterlimit="10"/>
<path d="M2445.8 16.1001V17.1001" stroke="#EAEAEA" stroke-width="2" stroke-miterlimit="10"/>
<path d="M2445.8 19.1001V469.6" stroke="#EAEAEA" stroke-width="2" stroke-miterlimit="10" stroke-dasharray="2 2"/>
<path d="M2445.8 470.6V471.6" stroke="#EAEAEA" stroke-width="2" stroke-miterlimit="10"/>
<path d="M2496.4 16.1001V17.1001" stroke="#EAEAEA" stroke-width="2" stroke-miterlimit="10"/>
<path d="M2496.4 19.1001V469.6" stroke="#EAEAEA" stroke-width="2" stroke-miterlimit="10" stroke-dasharray="2 2"/>
<path d="M2496.4 470.6V471.6" stroke="#EAEAEA" stroke-width="2" stroke-miterlimit="10"/>
<path d="M2547 16.1001V17.1001" stroke="#EAEAEA" stroke-width="2" stroke-miterlimit="10"/>
<path d="M2547 19.1001V469.6" stroke="#EAEAEA" stroke-width="2" stroke-miterlimit="10" stroke-dasharray="2 2"/>
<path d="M2547 470.6V471.6" stroke="#EAEAEA" stroke-width="2" stroke-miterlimit="10"/>
<path d="M2597.6 16.1001V17.1001" stroke="#EAEAEA" stroke-width="2" stroke-miterlimit="10"/>
<path d="M2597.6 19.1001V469.6" stroke="#EAEAEA" stroke-width="2" stroke-miterlimit="10" stroke-dasharray="2 2"/>
<path d="M2597.6 470.6V471.6" stroke="#EAEAEA" stroke-width="2" stroke-miterlimit="10"/>
<path d="M2648.1 16.1001V17.1001" stroke="#EAEAEA" stroke-width="2" stroke-miterlimit="10"/>
<path d="M2648.1 19.1001V469.6" stroke="#EAEAEA" stroke-width="2" stroke-miterlimit="10" stroke-dasharray="2 2"/>
<path d="M2648.1 470.6V471.6" stroke="#EAEAEA" stroke-width="2" stroke-miterlimit="10"/>
<path d="M18.6992 66.7H19.6992" stroke="#EAEAEA" stroke-width="2" stroke-miterlimit="10"/>
<path d="M21.6992 66.7H2646.1" stroke="#EAEAEA" stroke-width="2" stroke-miterlimit="10" stroke-dasharray="2 2"/>
<path d="M2647.1 66.7H2648.1" stroke="#EAEAEA" stroke-width="2" stroke-miterlimit="10"/>
<path d="M18.6992 117.3H19.6992" stroke="#EAEAEA" stroke-width="2" stroke-miterlimit="10"/>
<path d="M21.6992 117.3H2646.1" stroke="#EAEAEA" stroke-width="2" stroke-miterlimit="10" stroke-dasharray="2 2"/>
<path d="M2647.1 117.3H2648.1" stroke="#EAEAEA" stroke-width="2" stroke-miterlimit="10"/>
<path d="M18.6992 167.8H19.6992" stroke="#EAEAEA" stroke-width="2" stroke-miterlimit="10"/>
<path d="M21.6992 167.8H2646.1" stroke="#EAEAEA" stroke-width="2" stroke-miterlimit="10" stroke-dasharray="2 2"/>
<path d="M2647.1 167.8H2648.1" stroke="#EAEAEA" stroke-width="2" stroke-miterlimit="10"/>
<path d="M18.6992 218.4H19.6992" stroke="#EAEAEA" stroke-width="2" stroke-miterlimit="10"/>
<path d="M21.6992 218.4H2646.1" stroke="#EAEAEA" stroke-width="2" stroke-miterlimit="10" stroke-dasharray="2 2"/>
<path d="M2647.1 218.4H2648.1" stroke="#EAEAEA" stroke-width="2" stroke-miterlimit="10"/>
<path d="M18.6992 269H19.6992" stroke="#EAEAEA" stroke-width="2" stroke-miterlimit="10"/>
<path d="M21.6992 269H2646.1" stroke="#EAEAEA" stroke-width="2" stroke-miterlimit="10" stroke-dasharray="2 2"/>
<path d="M2647.1 269H2648.1" stroke="#EAEAEA" stroke-width="2" stroke-miterlimit="10"/>
<path d="M18.6992 319.5H19.6992" stroke="#EAEAEA" stroke-width="2" stroke-miterlimit="10"/>
<path d="M21.6992 319.5H2646.1" stroke="#EAEAEA" stroke-width="2" stroke-miterlimit="10" stroke-dasharray="2 2"/>
<path d="M2647.1 319.5H2648.1" stroke="#EAEAEA" stroke-width="2" stroke-miterlimit="10"/>
<path d="M18.6992 370.1H19.6992" stroke="#EAEAEA" stroke-width="2" stroke-miterlimit="10"/>
<path d="M21.6992 370.1H2646.1" stroke="#EAEAEA" stroke-width="2" stroke-miterlimit="10" stroke-dasharray="2 2"/>
<path d="M2647.1 370.1H2648.1" stroke="#EAEAEA" stroke-width="2" stroke-miterlimit="10"/>
<path d="M18.6992 420.7H19.6992" stroke="#EAEAEA" stroke-width="2" stroke-miterlimit="10"/>
<path d="M21.6992 420.7H2646.1" stroke="#EAEAEA" stroke-width="2" stroke-miterlimit="10" stroke-dasharray="2 2"/>
<path d="M2647.1 420.7H2648.1" stroke="#EAEAEA" stroke-width="2" stroke-miterlimit="10"/>
<path d="M18.6992 471.3H19.6992" stroke="#D5D6D6" stroke-width="2" stroke-miterlimit="10"/>
<path d="M21.6992 471.3H2646.1" stroke="#D5D6D6" stroke-width="2" stroke-miterlimit="10" stroke-dasharray="2 2"/>
<path d="M2647.1 471.3H2648.1" stroke="#D5D6D6" stroke-width="2" stroke-miterlimit="10"/>
<rect x="9" y="9" width="2649" height="108" fill="url(#paint0_linear_712_179)"/>
<rect width="2649" height="108" transform="matrix(1 0 0 -1 8 478)" fill="url(#paint1_linear_712_179)"/>
<defs>
<linearGradient id="paint0_linear_712_179" x1="1333.5" y1="9" x2="1333.5" y2="117" gradientUnits="userSpaceOnUse">
<stop stop-color="white"/>
<stop offset="1" stop-color="white" stop-opacity="0"/>
</linearGradient>
<linearGradient id="paint1_linear_712_179" x1="1324.5" y1="0" x2="1324.5" y2="108" gradientUnits="userSpaceOnUse">
<stop stop-color="white"/>
<stop offset="1" stop-color="white" stop-opacity="0"/>
</linearGradient>
</defs>
</svg>
