<svg width="933" height="160" viewBox="0 0 933 160" fill="none" xmlns="http://www.w3.org/2000/svg">
<path d="M117 128L117 0" stroke="#11366A" stroke-width="3"/>
<path d="M350 128V-5.48363e-06" stroke="#CDC1A0" stroke-width="3"/>
<path d="M583 128V-5.48363e-06" stroke="#EF233C" stroke-width="3"/>
<path d="M816 128V-5.48363e-06" stroke="#EF233C" stroke-width="3"/>
<path d="M0 128H222.222L250 144L222.222 160H0L27.7778 144L0 128Z" fill="#11366A"/>
<path d="M231 128H453.222L481 144L453.222 160H231L258.778 144L231 128Z" fill="#CDC1A0"/>
<path d="M462 128H684.222L712 144L684.222 160H462L489.778 144L462 128Z" fill="#EF233C"/>
<path d="M683.908 128H906.13L933.908 144L906.13 160H683.908L711.686 144L683.908 128Z" fill="#EF233C"/>
<circle cx="117" cy="144" r="8" fill="white"/>
<circle cx="350" cy="144" r="8" fill="white"/>
<circle cx="583" cy="144" r="8" fill="white"/>
<circle cx="816" cy="144" r="8" fill="white"/>
</svg>
