<svg width="398" height="238" viewBox="0 0 398 238" fill="none" xmlns="http://www.w3.org/2000/svg">
<path d="M198.57 98.9456L198.511 35.1653L198.452 20.9815L205.956 35.1555L206.073 96.2955V98.9456H198.57ZM218.601 49.3291L193.728 0.833344V11.3938L193.647 35.1653L193.567 98.9456H178.56V35.1653H173.557V98.9456H166.054V35.1653H161.052V146.052H166.054V116.454H173.557V146.052H178.56V116.454H193.567V146.052H198.57V111.452H166.054V103.948H206.073V146.052H211.075V45.2142L218.601 59.4725L226.383 43.6314V96.2955H231.662V34.4608L238.749 20.1482V96.2955H243.752V10.5605V0L218.601 49.3291Z" fill="#11366A"/>
<path d="M230.439 122.886C230.44 122.819 230.441 122.746 230.443 122.688C230.447 122.511 230.45 122.336 230.439 122.171C230.415 121.846 230.422 121.52 230.428 121.195L230.442 117.015C230.448 113.809 230.454 110.603 230.475 107.397C230.503 112.226 230.485 117.04 230.459 122.272C230.458 122.419 230.47 122.578 230.485 122.742C230.489 122.785 230.493 122.836 230.497 122.887C230.477 122.888 230.456 122.886 230.439 122.886ZM331.148 141.389V113.871C331.148 113.576 331.026 113.294 330.812 113.093C330.597 112.891 330.308 112.782 330.014 112.804C329.686 112.824 329.358 112.839 329.029 112.854C328.283 112.888 327.511 112.924 326.742 113.016C325.468 113.17 325.075 112.942 324.966 112.836C324.78 112.655 324.708 112.192 324.766 111.533C324.879 110.235 324.849 108.936 324.82 107.68C324.805 107.002 324.789 106.323 324.796 105.646C324.799 105.361 324.687 105.086 324.487 104.883C324.286 104.68 324.013 104.566 323.728 104.566H308.718C308.425 104.566 308.144 104.687 307.943 104.9C307.741 105.113 307.636 105.399 307.651 105.692C307.651 105.693 307.657 105.803 307.657 105.804L307.648 107.726C307.632 111.367 307.615 115.131 307.664 118.836C307.671 119.35 307.592 119.466 307.593 119.467C307.592 119.469 307.433 119.611 306.767 119.585C306.124 119.581 305.969 119.459 305.968 119.459C305.964 119.454 305.885 119.337 305.904 118.802C305.938 117.825 305.93 116.846 305.921 115.868C305.911 114.821 305.901 113.738 305.95 112.692C305.984 111.964 305.939 111.042 305.281 110.367C304.576 109.644 303.516 109.584 302.779 109.597C298.107 109.696 293.461 109.707 288.969 109.631C288.156 109.625 287.125 109.693 286.431 110.407C286.314 110.528 286.217 110.657 286.136 110.792C286.128 107.868 286.132 104.896 286.187 101.965C286.195 101.463 286.176 101.066 286.123 100.714C286.046 100.19 285.596 99.8021 285.066 99.8021H269.279C268.691 99.8021 268.213 100.277 268.21 100.865C268.209 101.079 268.221 101.3 268.233 101.522C268.243 101.696 268.254 101.87 268.254 102.038C268.23 109.014 268.223 115.99 268.216 122.968V123.08C268.216 123.237 268.217 123.458 268.199 123.584C268.136 123.6 268.023 123.618 267.839 123.62H267.806C267.539 123.62 267.41 123.595 267.392 123.594C267.377 123.545 267.35 123.409 267.352 123.066C267.357 122.506 267.338 121.947 267.319 121.387C267.288 120.49 267.26 119.643 267.327 118.809C267.398 117.93 266.774 116.961 265.572 115.183C264.646 113.812 263.378 111.935 263.392 111.012C263.395 110.799 263.415 110.585 263.434 110.372C263.467 109.999 263.505 109.578 263.474 109.141C263.458 108.934 263.448 108.72 263.438 108.505C263.365 106.995 263.275 105.116 261.595 103.931C260.441 103.116 260.372 102.729 260.724 101.726C261.36 99.913 260.646 98.2039 258.815 97.153C257.22 96.2367 256.004 96.9314 255.111 97.4424C254.168 97.9794 252.738 99.2723 253.747 101.898C253.987 102.521 254.05 102.822 254.05 102.967C250.56 104.954 250.787 107.902 250.987 110.506L250.995 110.618C251.208 113.392 249.945 115.011 248.849 115.881C247.286 117.119 247.405 118.625 247.493 119.724C247.514 119.987 247.538 120.249 247.531 120.508C247.483 122.362 247.49 124.241 247.497 126.058C247.502 127.444 247.506 128.831 247.488 130.218C247.485 130.433 247.502 130.659 247.519 130.887C247.536 131.102 247.564 131.463 247.573 131.508C247.572 131.509 247.402 131.612 246.801 131.59C246.482 131.578 246.31 131.535 246.228 131.507C246.227 131.375 246.262 131.149 246.284 131.003C246.325 130.734 246.36 130.469 246.358 130.233C246.326 125.326 246.324 120.418 246.323 115.51C246.321 111.827 246.32 108.144 246.306 104.46C246.305 104.192 246.303 103.928 246.289 103.667C246.261 103.098 245.792 102.652 245.222 102.652H231.539C230.976 102.652 230.51 103.089 230.473 103.649C230.456 103.904 230.448 104.162 230.451 104.424C230.454 104.794 230.458 105.162 230.461 105.531C230.418 105.335 230.32 105.154 230.177 105.01C229.976 104.808 229.703 104.694 229.418 104.694H214.322V106.831H228.341C228.317 110.225 228.311 113.618 228.305 117.011L228.292 121.155C228.284 121.545 228.279 121.936 228.307 122.325C228.314 122.423 228.309 122.527 228.307 122.631C228.294 123.114 228.275 123.842 228.823 124.415C229.198 124.807 229.744 125.012 230.446 125.024C231.18 125.02 231.773 124.831 232.159 124.416C232.724 123.81 232.655 123.025 232.614 122.555C232.606 122.46 232.596 122.367 232.596 122.283C232.626 116.109 232.647 110.518 232.592 104.79H244.169C244.183 108.364 244.184 111.937 244.186 115.512C244.188 120.423 244.19 125.335 244.221 130.246C244.222 130.38 244.194 130.528 244.171 130.68C244.082 131.264 243.948 132.144 244.548 132.871C244.992 133.408 245.703 133.688 246.721 133.725C247.812 133.768 248.592 133.53 249.097 133.004C249.773 132.299 249.702 131.386 249.65 130.72C249.637 130.558 249.623 130.399 249.625 130.247C249.644 128.848 249.639 127.448 249.633 126.05C249.627 124.248 249.62 122.385 249.667 120.563C249.676 120.23 249.651 119.893 249.624 119.554C249.542 118.537 249.534 118.065 250.176 117.556C252.301 115.871 253.349 113.349 253.126 110.454L253.118 110.342C252.91 107.64 252.902 106.05 255.168 104.79C256.8 103.883 256.031 101.884 255.742 101.131C255.279 99.9278 255.68 99.5779 256.169 99.2991C256.169 99.2991 256.262 99.2463 256.262 99.2458C257.018 98.8133 257.236 98.7115 257.751 99.0062C258.682 99.5404 258.994 100.199 258.708 101.018C258.01 103.005 258.49 104.354 260.363 105.676C261.135 106.221 261.233 107.147 261.303 108.607C261.314 108.84 261.326 109.069 261.341 109.295C261.361 109.56 261.334 109.862 261.305 110.182C261.282 110.448 261.259 110.713 261.255 110.979C261.231 112.574 262.537 114.509 263.802 116.38C264.364 117.212 265.135 118.352 265.197 118.637C265.12 119.594 265.152 120.542 265.183 121.46C265.201 121.99 265.219 122.52 265.215 123.049C265.212 123.499 265.205 124.435 265.865 125.093C266.321 125.549 266.979 125.746 267.862 125.757C270.359 125.729 270.354 123.801 270.353 122.97C270.36 115.995 270.367 109.019 270.39 102.046C270.39 102.011 270.39 101.975 270.39 101.939H284.049C283.978 105.76 283.993 109.639 284.008 113.39C284.013 114.85 284.019 116.309 284.02 117.768L284.019 118.113C284.016 118.53 284.014 118.949 284.041 119.365L284.047 119.52C284.084 120.78 284.657 121.465 285.752 121.555C286.393 121.605 286.913 121.451 287.301 121.097C287.901 120.55 287.909 119.768 287.914 119.281L287.935 117.842C287.962 116.123 287.99 114.345 287.905 112.584C287.879 112.027 287.965 111.896 287.965 111.896C287.966 111.894 288.128 111.739 288.933 111.768C293.453 111.844 298.127 111.834 302.825 111.734C303.575 111.716 303.749 111.858 303.75 111.858C303.753 111.863 303.844 111.988 303.815 112.591C303.764 113.699 303.774 114.811 303.784 115.888C303.793 116.834 303.802 117.781 303.768 118.727C303.744 119.412 303.797 120.283 304.424 120.937C305.093 121.633 306.075 121.718 306.755 121.723C307.454 121.734 308.436 121.653 309.108 120.973C309.739 120.338 309.81 119.483 309.801 118.808C309.752 115.122 309.769 111.367 309.785 107.736L309.79 106.704H322.663C322.668 107.045 322.675 107.388 322.683 107.729C322.712 108.982 322.74 110.167 322.637 111.347C322.517 112.718 322.793 113.707 323.48 114.372C324.459 115.32 325.956 115.264 326.997 115.138C327.652 115.059 328.313 115.026 329.011 114.994V142.458C329.011 143.048 329.489 143.526 330.079 143.526H392.871V141.389H331.148Z" fill="#11366A"/>
<path d="M158.273 58.242L153.303 66.9625H151.492C150.988 66.9625 150.553 67.3147 150.447 67.807C150.341 68.2993 150.355 68.7991 150.368 69.2816C150.372 69.4292 150.376 69.5768 150.376 69.723L150.373 74.4097C150.361 89.7683 150.348 105.65 150.276 121.271C150.274 121.584 150.333 121.886 150.39 122.18C150.425 122.361 150.48 122.645 150.478 122.798C150.395 122.827 150.22 122.869 149.891 122.875C149.861 122.876 149.832 122.876 149.805 122.876C149.372 122.876 149.199 122.812 149.17 122.824C149.142 122.682 149.205 122.309 149.245 122.082C149.296 121.777 149.35 121.462 149.345 121.141C149.283 117.356 149.286 113.502 149.289 109.775C149.291 107.784 149.292 105.793 149.285 103.802C149.28 102.477 149.274 101.107 148.156 100.853C147.038 100.598 147.065 100.396 147.219 99.2775C147.282 98.8218 147.353 98.3046 147.278 97.7838C147.253 97.6063 147.244 97.4269 147.236 97.2521C147.189 96.3411 147.083 94.4418 144.201 94.5212C142.858 94.5562 141.589 94.5892 140.824 95.5293C140.346 96.1152 140.203 96.8968 140.388 97.9247C140.4 97.9941 140.419 98.0969 140.43 98.1886C140.061 98.2426 139.64 98.2529 139.198 98.2644C137.846 98.2993 135.689 98.3547 134.922 100.47C134.197 100.518 133.642 100.736 133.238 101.131C132.479 101.874 132.564 102.908 132.625 103.663C132.64 103.85 132.657 104.036 132.656 104.211C132.63 108.273 132.62 112.334 132.61 116.395C132.604 119.056 132.598 121.714 132.587 124.374L132.59 124.63C132.592 124.702 132.593 124.791 132.592 124.871C132.554 124.874 132.517 124.87 132.469 124.868C132.462 124.867 132.455 124.867 132.448 124.866C132.447 124.81 132.446 124.752 132.446 124.703C132.445 124.591 132.444 124.48 132.438 124.372C132.419 124.013 132.422 123.653 132.423 123.293L132.424 122.895L132.416 114.782C132.412 106.565 132.407 98.0687 132.308 89.7099C132.305 89.4684 132.363 89.1313 132.422 88.774C132.589 87.7933 132.815 86.4512 131.932 85.4686C131.331 84.7997 130.363 84.4527 128.981 84.4877C128.955 83.8724 128.715 83.3432 128.3 82.9949C128.002 82.7444 127.478 82.4693 126.675 82.589C125.472 82.7662 125.156 82.5459 125.104 82.4995C124.897 82.3145 124.924 81.5365 124.944 80.9682C124.952 80.7543 124.959 80.5399 124.96 80.3297C124.967 78.2635 124.965 76.1971 124.964 74.131L124.962 71.5043C124.962 71.2175 124.847 70.9424 124.643 70.7414C124.437 70.5407 124.136 70.439 123.874 70.4359L123.123 70.4499C122.541 70.4608 122.074 70.9363 122.074 71.5186L122.08 74.5279C122.086 76.9074 122.092 79.287 122.063 81.6659C122.042 83.3225 120.059 84.2257 119.207 84.5372C117.807 85.0496 116.569 85.673 116.804 87.6541C116.847 88.0111 116.846 88.4942 116.597 88.7667C116.364 89.0228 115.864 89.1547 115.187 89.1377C114.466 89.1192 113.657 89.1793 113.08 89.7672C112.817 90.035 112.512 90.5198 112.549 91.3087C112.549 91.3159 112.549 91.3232 112.549 91.3299C111.462 91.234 110.673 91.4314 110.14 91.941C109.41 92.6365 109.451 93.6093 109.48 94.3194C109.486 94.4527 109.491 94.5858 109.491 94.7158L109.489 106.742C109.488 112.431 109.488 118.119 109.48 123.808C109.48 123.969 109.489 124.137 109.499 124.307C109.509 124.466 109.523 124.714 109.508 124.851C109.434 124.869 109.294 124.893 109.037 124.885C108.903 124.881 108.808 124.87 108.743 124.857C108.748 124.75 108.766 124.608 108.778 124.503C108.805 124.279 108.828 124.061 108.827 123.864C108.781 118.565 108.791 113.174 108.801 107.96L108.809 106.655C108.829 105.801 108.854 104.739 108.047 103.999C107.458 103.458 106.582 103.256 105.376 103.391C105.374 103.391 105.372 103.391 105.37 103.391C105.37 103.384 105.37 103.377 105.371 103.369C105.39 102.792 105.379 102.21 105.368 101.626C105.336 99.9216 105.306 98.3119 106.058 96.7931C106.222 96.4616 106.203 96.0694 106.008 95.7552C105.813 95.441 105.47 95.25 105.1 95.25H92.9097C92.5292 95.25 92.1772 95.4527 91.986 95.7814C91.7945 96.1105 91.7926 96.5161 91.9807 96.8468C92.4677 97.7036 92.6947 98.4584 92.6955 99.223C92.7028 107.387 92.7098 115.553 92.6737 123.718C92.6732 123.883 92.6821 124.054 92.6913 124.227C92.7036 124.434 92.7229 124.78 92.7129 124.839C92.712 124.84 92.5616 124.943 92.0151 124.945H92.0003C91.5005 124.945 91.3386 124.868 91.3291 124.871C91.2863 124.763 91.2995 124.412 91.3073 124.2C91.3132 124.05 91.3182 123.9 91.3176 123.753C91.2964 119.421 91.297 115.088 91.2975 110.756V106.66C91.2975 105.37 91.1376 104.474 90.7792 103.755C90.5986 103.392 90.2282 103.163 89.8229 103.163H75.075C74.5746 103.163 74.1553 103.506 74.0382 103.971H74.0376C73.7407 104.932 73.6063 105.756 73.6381 106.417C73.8249 110.275 73.7634 114.225 73.7044 118.044L73.6731 120.129C73.6703 120.342 73.7008 120.586 73.7371 120.839C73.7508 120.929 73.769 121.053 73.779 121.159C73.7402 121.162 73.6949 121.164 73.6412 121.164C73.5979 121.164 73.5462 121.162 73.5059 121.16C73.5118 121.064 73.5238 120.954 73.5333 120.867C73.5562 120.648 73.5755 120.434 73.5708 120.243C73.5087 117.525 73.4794 114.806 73.4509 112.087C73.3891 106.384 73.3262 100.487 72.9451 94.6881C72.6086 89.5729 73.3824 86.4579 78.4212 84.6476C78.8473 84.4955 79.0295 84.162 79.1173 84.0018C79.1374 83.9655 79.1626 83.9182 79.1998 83.8609C79.4078 83.5417 79.4298 83.1358 79.2576 82.7956C79.0857 82.4554 78.7452 82.2331 78.3648 82.211C77.8082 82.1797 77.4752 82.1068 77.2863 82.0461C77.364 81.9332 77.4928 81.7733 77.7042 81.5642C77.9698 81.3 78.0782 80.9165 77.9902 80.553C77.9021 80.1888 77.6295 79.8975 77.2723 79.7854L77.052 79.7113C76.9055 79.6596 76.7395 79.6006 76.5192 79.5945C75.687 79.569 74.855 79.5458 74.022 79.5302C73.3684 78.8137 72.26 75.1234 71.6835 59.1379C71.6506 58.2358 71.6257 57.5481 71.6036 57.1593C71.5723 56.6198 71.1429 56.1884 70.6034 56.1546C70.0448 56.1275 69.5839 56.4956 69.4857 57.0274C68.9406 59.9847 68.7231 62.9641 68.5135 65.8454L68.4377 66.9016C67.8381 76.3168 66.2296 79.5126 65.5883 79.5246C65.2031 79.5318 64.8187 79.5548 64.3314 79.585L63.4998 79.6336C63.0754 79.6565 62.705 79.9285 62.5563 80.326C62.4076 80.7241 62.5082 81.1722 62.8135 81.468C63.081 81.7274 63.2278 81.9147 63.3077 82.0363C63.1134 82.1213 62.7195 82.2465 61.9603 82.3458C61.5105 82.4053 61.1471 82.7419 61.054 83.1864C60.9606 83.6303 61.1583 84.0854 61.5466 84.3202C62.0444 84.6207 62.4984 84.9112 62.9284 85.1868C63.833 85.7658 64.6876 86.3134 65.621 86.7406C67.2443 87.4836 67.7718 88.3695 67.7112 90.2509C67.4473 98.4872 67.284 106.897 67.2262 115.255V141.389H5.41797V143.526H68.2946C68.8847 143.526 69.3633 143.048 69.3633 142.458V115.263C69.4212 106.93 69.5839 98.5378 69.8475 90.3199C69.9347 87.5968 68.9057 85.8938 66.5108 84.7977C65.8863 84.5117 65.2861 84.1522 64.6339 83.7399C65.0065 83.4942 65.2973 83.1671 65.4432 82.7271C65.5659 82.3567 65.5533 81.9977 65.465 81.6654C65.5198 81.6637 65.574 81.6628 65.6285 81.6617C66.5194 81.6444 69.0446 81.5969 70.2226 71.078C70.9939 79.6722 72.1618 81.6352 73.8213 81.6642C74.2512 81.6718 74.6811 81.6816 75.1111 81.6925C74.9987 82.0897 75.0119 82.471 75.1497 82.8347C75.2595 83.1257 75.4345 83.3597 75.6478 83.5478C70.7188 86.2424 70.5435 90.7395 70.8122 94.8279C71.1899 100.568 71.2525 106.436 71.3134 112.11C71.3428 114.837 71.3721 117.565 71.4342 120.292C71.4367 120.398 71.4208 120.518 71.4076 120.641C71.3512 121.174 71.2656 121.979 71.8328 122.623C72.2152 123.056 72.7908 123.285 73.5448 123.3C74.4139 123.296 75.0412 123.096 75.4605 122.62C76.0585 121.943 75.9344 121.092 75.8519 120.529C75.8326 120.396 75.8086 120.269 75.8102 120.158L75.841 118.077C75.9011 114.224 75.9632 110.241 75.7731 106.314C75.765 106.146 75.7759 105.823 75.8922 105.3H89.055C89.1251 105.658 89.1604 106.109 89.1604 106.66V110.756C89.1595 115.092 89.1592 119.428 89.1805 123.764C89.1811 123.881 89.1763 124 89.1718 124.12C89.1478 124.767 89.1142 125.651 89.7754 126.335C90.2649 126.841 91.0098 127.075 92.0232 127.082C93.0444 127.078 93.7751 126.828 94.2579 126.314C94.9107 125.621 94.8615 124.747 94.8257 124.107C94.8181 123.979 94.8103 123.85 94.8109 123.726C94.8469 115.558 94.8402 107.39 94.833 99.2207C94.8324 98.6099 94.7374 98.0019 94.5453 97.3872H103.568C103.179 98.866 103.206 100.332 103.231 101.666C103.242 102.213 103.253 102.757 103.235 103.297C103.204 104.195 103.566 104.725 103.874 105.012C104.18 105.295 104.733 105.612 105.608 105.515C106.399 105.428 106.599 105.57 106.599 105.57C106.694 105.698 106.679 106.288 106.672 106.604L106.664 107.956C106.654 113.175 106.644 118.572 106.689 123.883C106.691 123.995 106.672 124.118 106.657 124.245C106.591 124.786 106.491 125.605 107.067 126.273C107.48 126.752 108.105 126.997 108.978 127.022C109.923 127.049 110.605 126.828 111.071 126.348C111.72 125.679 111.667 124.778 111.633 124.182C111.625 124.056 111.618 123.931 111.618 123.811C111.625 118.121 111.625 112.431 111.626 106.742L111.629 94.7169C111.629 94.5579 111.622 94.394 111.616 94.2305C111.605 93.9828 111.588 93.5685 111.597 93.5017C111.599 93.5012 111.766 93.4061 112.359 93.459C113.239 93.5397 113.778 93.2169 114.075 92.9334C114.359 92.6611 114.687 92.1702 114.689 91.2857C114.779 91.2754 114.919 91.269 115.133 91.2737C116.464 91.3042 117.5 90.9486 118.177 90.2056C118.614 89.7256 119.099 88.8495 118.926 87.4011C118.893 87.118 118.924 87.0321 118.924 87.0321C118.965 86.9743 119.151 86.8334 119.941 86.5438C121.595 85.9397 122.819 85.035 123.52 83.9367C123.57 83.9904 123.623 84.0426 123.68 84.0932C124.369 84.7094 125.362 84.9134 126.851 84.7261C126.877 85.2296 126.986 85.8228 127.448 86.246C127.753 86.5261 128.161 86.6628 128.591 86.6388C129.963 86.5547 130.291 86.8398 130.343 86.8971C130.536 87.1121 130.409 87.8671 130.316 88.4181C130.242 88.8526 130.166 89.3021 130.171 89.7351C130.27 98.0824 130.274 106.573 130.279 114.784L130.287 122.9L130.286 123.283C130.284 123.685 130.283 124.085 130.304 124.486C130.309 124.561 130.309 124.638 130.309 124.716C130.312 125.252 130.321 126.882 132.344 127.001C133.133 127.047 133.725 126.871 134.15 126.464C134.753 125.882 134.737 125.102 134.727 124.586L134.724 124.383C134.735 121.722 134.741 119.061 134.748 116.4C134.757 112.342 134.767 108.283 134.793 104.225C134.795 103.991 134.776 103.741 134.756 103.489C134.733 103.215 134.695 102.757 134.721 102.668C134.724 102.667 134.925 102.546 135.647 102.62C136.229 102.686 136.737 102.271 136.815 101.701C136.967 100.574 137.413 100.448 139.253 100.401C139.809 100.386 140.384 100.372 140.946 100.27C141.682 100.135 142.861 99.6034 142.49 97.5401C142.412 97.1087 142.459 96.9131 142.48 96.8795C142.651 96.6998 143.656 96.6735 144.267 96.6573C144.31 96.6564 144.351 96.6559 144.39 96.6559C144.858 96.6559 145.033 96.7498 145.026 96.7266C145.073 96.8216 145.09 97.1459 145.101 97.3612C145.114 97.6007 145.128 97.8465 145.163 98.0891C145.194 98.3114 145.15 98.639 145.102 98.9862C144.966 99.973 144.693 101.955 147.112 102.777C147.131 102.985 147.145 103.308 147.148 103.81C147.155 105.798 147.154 107.785 147.152 109.773C147.149 113.51 147.145 117.373 147.207 121.177C147.211 121.339 147.171 121.527 147.138 121.723C147.023 122.394 146.851 123.407 147.526 124.192C148.019 124.764 148.812 125.045 149.933 125.012C150.983 124.991 151.714 124.708 152.168 124.147C152.797 123.37 152.611 122.41 152.488 121.774C152.454 121.596 152.412 121.427 152.413 121.28C152.485 105.656 152.498 89.772 152.51 74.4111L152.513 69.7253C152.513 69.5592 152.509 69.3912 152.504 69.2238C152.504 69.1827 152.502 69.1407 152.501 69.0996H153.924C154.308 69.0996 154.662 68.8936 154.852 68.5601L158.273 62.5577V58.242Z" fill="#11366A"/>
<path d="M12.9578 159.445V173.431H29.4121V179.807H12.9578V194.41H31.4689V200.786H5.14198V153.068H31.4689V159.445H12.9578ZM38.4904 181.726C38.4904 177.933 39.2674 174.573 40.8214 171.648C42.4211 168.723 44.5693 166.46 47.266 164.861C50.0084 163.215 53.025 162.393 56.3159 162.393C59.2868 162.393 61.8692 162.987 64.0631 164.175C66.3028 165.318 68.0853 166.758 69.4108 168.494V163.01H77.2952V200.786H69.4108V195.164C68.0853 196.947 66.2799 198.432 63.9946 199.62C61.7093 200.809 59.104 201.403 56.1788 201.403C52.9336 201.403 49.9627 200.58 47.266 198.935C44.5693 197.244 42.4211 194.913 40.8214 191.942C39.2674 188.925 38.4904 185.52 38.4904 181.726ZM69.4108 181.864C69.4108 179.258 68.8623 176.996 67.7654 175.076C66.7141 173.156 65.3201 171.694 63.5832 170.688C61.8464 169.683 59.9724 169.18 57.9613 169.18C55.9502 169.18 54.0763 169.683 52.3394 170.688C50.6026 171.648 49.1857 173.088 48.0887 175.008C47.0375 176.882 46.5119 179.121 46.5119 181.726C46.5119 184.332 47.0375 186.617 48.0887 188.582C49.1857 190.548 50.6026 192.056 52.3394 193.107C54.122 194.113 55.996 194.616 57.9613 194.616C59.9724 194.616 61.8464 194.113 63.5832 193.107C65.3201 192.102 66.7141 190.639 67.7654 188.72C68.8623 186.754 69.4108 184.469 69.4108 181.864ZM101.273 201.403C98.3019 201.403 95.6281 200.877 93.2514 199.826C90.9203 198.729 89.0692 197.267 87.698 195.438C86.3268 193.564 85.5955 191.485 85.5041 189.199H93.5942C93.7313 190.799 94.4854 192.147 95.8566 193.244C97.2735 194.296 99.0332 194.821 101.136 194.821C103.33 194.821 105.021 194.41 106.209 193.587C107.443 192.719 108.06 191.622 108.06 190.296C108.06 188.879 107.375 187.828 106.003 187.143C104.678 186.457 102.553 185.703 99.6274 184.88C96.7936 184.103 94.4854 183.349 92.7029 182.618C90.9203 181.886 89.3663 180.767 88.0408 179.258C86.761 177.75 86.1212 175.762 86.1212 173.294C86.1212 171.282 86.7153 169.454 87.9037 167.809C89.0921 166.118 90.7832 164.792 92.9771 163.832C95.2167 162.872 97.7763 162.393 100.656 162.393C104.952 162.393 108.403 163.49 111.008 165.683C113.659 167.832 115.076 170.78 115.259 174.528H107.443C107.306 172.837 106.621 171.488 105.386 170.483C104.152 169.477 102.484 168.974 100.382 168.974C98.3248 168.974 96.7479 169.363 95.651 170.14C94.554 170.917 94.0055 171.945 94.0055 173.225C94.0055 174.231 94.3712 175.076 95.1025 175.762C95.8338 176.447 96.7251 176.996 97.7763 177.407C98.8276 177.773 100.382 178.253 102.438 178.847C105.181 179.578 107.42 180.332 109.157 181.109C110.94 181.841 112.471 182.938 113.751 184.4C115.03 185.863 115.693 187.805 115.739 190.228C115.739 192.376 115.145 194.296 113.956 195.987C112.768 197.678 111.077 199.003 108.883 199.963C106.735 200.923 104.198 201.403 101.273 201.403ZM158.19 163.01L135.017 218.543H126.926L134.605 200.169L119.728 163.01H128.435L139.062 191.805L150.1 163.01H158.19ZM198.299 163.01V200.786H190.483V196.33C189.249 197.884 187.627 199.118 185.616 200.032C183.65 200.9 181.548 201.334 179.308 201.334C176.337 201.334 173.663 200.717 171.287 199.483C168.956 198.249 167.105 196.421 165.733 193.999C164.408 191.576 163.745 188.651 163.745 185.223V163.01H171.492V184.057C171.492 187.44 172.338 190.045 174.029 191.873C175.72 193.656 178.028 194.547 180.954 194.547C183.879 194.547 186.187 193.656 187.878 191.873C189.615 190.045 190.483 187.44 190.483 184.057V163.01H198.299ZM254.341 162.393C257.312 162.393 259.963 163.01 262.294 164.244C264.671 165.478 266.522 167.306 267.847 169.728C269.218 172.151 269.904 175.076 269.904 178.504V200.786H262.157V179.67C262.157 176.287 261.311 173.705 259.62 171.922C257.929 170.094 255.621 169.18 252.695 169.18C249.77 169.18 247.439 170.094 245.702 171.922C244.011 173.705 243.166 176.287 243.166 179.67V200.786H235.418V179.67C235.418 176.287 234.573 173.705 232.882 171.922C231.191 170.094 228.882 169.18 225.957 169.18C223.032 169.18 220.701 170.094 218.964 171.922C217.273 173.705 216.427 176.287 216.427 179.67V200.786H208.612V163.01H216.427V167.329C217.707 165.775 219.33 164.564 221.295 163.695C223.261 162.827 225.363 162.393 227.603 162.393C230.619 162.393 233.316 163.032 235.693 164.312C238.069 165.592 239.898 167.443 241.177 169.866C242.32 167.58 244.103 165.775 246.525 164.449C248.948 163.078 251.553 162.393 254.341 162.393ZM286.774 194.41H303.914V200.786H277.724V194.41L294.933 169.386H277.724V163.01H303.914V169.386L286.774 194.41ZM346.332 163.01V200.786H338.516V196.33C337.282 197.884 335.66 199.118 333.648 200.032C331.683 200.9 329.581 201.334 327.341 201.334C324.37 201.334 321.696 200.717 319.319 199.483C316.988 198.249 315.137 196.421 313.766 193.999C312.441 191.576 311.778 188.651 311.778 185.223V163.01H319.525V184.057C319.525 187.44 320.371 190.045 322.062 191.873C323.753 193.656 326.061 194.547 328.986 194.547C331.912 194.547 334.22 193.656 335.911 191.873C337.648 190.045 338.516 187.44 338.516 184.057V163.01H346.332ZM371.865 162.393C374.79 162.393 377.372 162.987 379.612 164.175C381.897 165.318 383.68 166.758 384.959 168.494V163.01H392.844V201.403C392.844 204.877 392.113 207.962 390.65 210.659C389.187 213.401 387.062 215.549 384.274 217.103C381.531 218.657 378.241 219.434 374.401 219.434C369.282 219.434 365.031 218.223 361.649 215.801C358.267 213.424 356.347 210.179 355.89 206.065H363.637C364.232 208.03 365.488 209.607 367.408 210.796C369.374 212.03 371.705 212.647 374.401 212.647C377.555 212.647 380.092 211.687 382.011 209.767C383.977 207.848 384.959 205.06 384.959 201.403V195.096C383.634 196.878 381.829 198.386 379.543 199.62C377.304 200.809 374.744 201.403 371.865 201.403C368.574 201.403 365.557 200.58 362.815 198.935C360.118 197.244 357.97 194.913 356.37 191.942C354.816 188.925 354.039 185.52 354.039 181.726C354.039 177.933 354.816 174.573 356.37 171.648C357.97 168.723 360.118 166.46 362.815 164.861C365.557 163.215 368.574 162.393 371.865 162.393ZM384.959 181.864C384.959 179.258 384.411 176.996 383.314 175.076C382.263 173.156 380.869 171.694 379.132 170.688C377.395 169.683 375.521 169.18 373.51 169.18C371.499 169.18 369.625 169.683 367.888 170.688C366.151 171.648 364.734 173.088 363.637 175.008C362.586 176.882 362.061 179.121 362.061 181.726C362.061 184.332 362.586 186.617 363.637 188.582C364.734 190.548 366.151 192.056 367.888 193.107C369.671 194.113 371.545 194.616 373.51 194.616C375.521 194.616 377.395 194.113 379.132 193.107C380.869 192.102 382.263 190.639 383.314 188.72C384.411 186.754 384.959 184.469 384.959 181.864Z" fill="#11366A"/>
<path d="M155.809 212.624V222.74C155.809 223.848 156.098 224.699 156.675 225.292C157.253 225.87 158.065 226.158 159.111 226.158C160.172 226.158 160.992 225.87 161.569 225.292C162.147 224.699 162.436 223.848 162.436 222.74V212.624H165.737V222.716C165.737 224.106 165.433 225.284 164.824 226.252C164.231 227.204 163.427 227.922 162.412 228.406C161.413 228.89 160.297 229.132 159.064 229.132C157.846 229.132 156.738 228.89 155.739 228.406C154.755 227.922 153.975 227.204 153.397 226.252C152.82 225.284 152.531 224.106 152.531 222.716V212.624H155.809ZM185.015 215.809C186.607 215.809 187.887 216.3 188.855 217.284C189.838 218.252 190.33 219.61 190.33 221.358V228.968H187.052V221.803C187.052 220.788 186.794 220.016 186.279 219.485C185.764 218.938 185.061 218.665 184.172 218.665C183.282 218.665 182.572 218.938 182.041 219.485C181.526 220.016 181.268 220.788 181.268 221.803V228.968H177.99V221.803C177.99 220.788 177.732 220.016 177.217 219.485C176.702 218.938 176 218.665 175.11 218.665C174.204 218.665 173.486 218.938 172.956 219.485C172.44 220.016 172.183 220.788 172.183 221.803V228.968H168.905V215.996H172.183V217.565C172.604 217.018 173.143 216.589 173.798 216.277C174.47 215.965 175.203 215.809 176 215.809C177.014 215.809 177.92 216.027 178.716 216.464C179.512 216.886 180.129 217.494 180.566 218.291C180.987 217.541 181.596 216.94 182.392 216.488C183.204 216.035 184.078 215.809 185.015 215.809ZM196.438 226.275H202.222V228.968H192.715V226.322L198.382 218.689H192.738V215.996H202.151V218.642L196.438 226.275ZM217.006 215.996V228.968H213.705V227.329C213.283 227.891 212.729 228.336 212.042 228.664C211.371 228.976 210.637 229.132 209.841 229.132C208.827 229.132 207.929 228.921 207.148 228.5C206.368 228.063 205.751 227.431 205.299 226.603C204.861 225.76 204.643 224.761 204.643 223.606V215.996H207.921V223.138C207.921 224.168 208.179 224.964 208.694 225.526C209.209 226.072 209.911 226.346 210.801 226.346C211.707 226.346 212.417 226.072 212.932 225.526C213.447 224.964 213.705 224.168 213.705 223.138V215.996H217.006ZM208.717 214.45C208.28 214.45 207.913 214.302 207.617 214.006C207.32 213.709 207.172 213.342 207.172 212.905C207.172 212.468 207.32 212.101 207.617 211.804C207.913 211.492 208.28 211.336 208.717 211.336C209.154 211.336 209.521 211.492 209.818 211.804C210.13 212.101 210.286 212.468 210.286 212.905C210.286 213.342 210.13 213.709 209.818 214.006C209.521 214.302 209.154 214.45 208.717 214.45ZM213.049 214.45C212.612 214.45 212.245 214.302 211.949 214.006C211.652 213.709 211.504 213.342 211.504 212.905C211.504 212.468 211.652 212.101 211.949 211.804C212.245 211.492 212.612 211.336 213.049 211.336C213.486 211.336 213.853 211.492 214.15 211.804C214.462 212.101 214.618 212.468 214.618 212.905C214.618 213.342 214.462 213.709 214.15 214.006C213.853 214.302 213.486 214.45 213.049 214.45ZM225.322 215.785C226.29 215.785 227.141 215.98 227.874 216.371C228.608 216.745 229.186 217.237 229.607 217.846V215.996H232.909V229.062C232.909 230.264 232.667 231.333 232.183 232.27C231.699 233.222 230.973 233.971 230.005 234.518C229.037 235.08 227.867 235.361 226.493 235.361C224.651 235.361 223.137 234.931 221.95 234.073C220.779 233.214 220.116 232.043 219.96 230.56H223.215C223.386 231.154 223.753 231.622 224.315 231.965C224.893 232.324 225.587 232.504 226.399 232.504C227.351 232.504 228.124 232.215 228.717 231.638C229.311 231.076 229.607 230.217 229.607 229.062V227.048C229.186 227.657 228.6 228.164 227.851 228.57C227.117 228.976 226.274 229.179 225.322 229.179C224.229 229.179 223.23 228.898 222.325 228.336C221.419 227.774 220.701 226.986 220.171 225.971C219.656 224.941 219.398 223.762 219.398 222.435C219.398 221.124 219.656 219.961 220.171 218.946C220.701 217.932 221.412 217.151 222.301 216.605C223.207 216.058 224.214 215.785 225.322 215.785ZM229.607 222.482C229.607 221.686 229.451 221.007 229.139 220.445C228.827 219.867 228.405 219.43 227.874 219.134C227.344 218.821 226.774 218.665 226.165 218.665C225.556 218.665 224.994 218.814 224.479 219.11C223.964 219.407 223.543 219.844 223.215 220.421C222.902 220.983 222.746 221.655 222.746 222.435C222.746 223.216 222.902 223.903 223.215 224.496C223.543 225.073 223.964 225.518 224.479 225.83C225.01 226.143 225.572 226.299 226.165 226.299C226.774 226.299 227.344 226.15 227.874 225.854C228.405 225.542 228.827 225.105 229.139 224.543C229.451 223.965 229.607 223.278 229.607 222.482ZM248.17 222.201C248.17 222.669 248.138 223.091 248.076 223.465H238.593C238.671 224.402 238.999 225.136 239.576 225.667C240.154 226.197 240.864 226.463 241.707 226.463C242.925 226.463 243.791 225.94 244.306 224.894H247.842C247.467 226.143 246.749 227.173 245.688 227.985C244.626 228.781 243.323 229.179 241.777 229.179C240.528 229.179 239.404 228.906 238.405 228.359C237.422 227.797 236.649 227.009 236.087 225.994C235.541 224.98 235.268 223.809 235.268 222.482C235.268 221.14 235.541 219.961 236.087 218.946C236.634 217.932 237.398 217.151 238.382 216.605C239.365 216.058 240.497 215.785 241.777 215.785C243.01 215.785 244.111 216.05 245.079 216.581C246.062 217.112 246.819 217.869 247.35 218.853C247.896 219.82 248.17 220.937 248.17 222.201ZM244.774 221.264C244.759 220.421 244.454 219.75 243.861 219.251C243.268 218.736 242.542 218.478 241.684 218.478C240.872 218.478 240.185 218.728 239.623 219.227C239.077 219.711 238.741 220.39 238.616 221.264H244.774ZM252.014 229.132C251.421 229.132 250.929 228.953 250.539 228.594C250.164 228.219 249.977 227.758 249.977 227.212C249.977 226.666 250.164 226.213 250.539 225.854C250.929 225.479 251.421 225.292 252.014 225.292C252.592 225.292 253.068 225.479 253.443 225.854C253.817 226.213 254.005 226.666 254.005 227.212C254.005 227.758 253.817 228.219 253.443 228.594C253.068 228.953 252.592 229.132 252.014 229.132ZM265.503 226.369H270.888V228.968H262.225V212.624H265.503V226.369ZM278.732 229.179C277.484 229.179 276.36 228.906 275.36 228.359C274.361 227.797 273.573 227.009 272.995 225.994C272.434 224.98 272.153 223.809 272.153 222.482C272.153 221.155 272.441 219.984 273.019 218.97C273.612 217.955 274.416 217.174 275.431 216.628C276.445 216.066 277.577 215.785 278.826 215.785C280.075 215.785 281.207 216.066 282.221 216.628C283.236 217.174 284.032 217.955 284.61 218.97C285.203 219.984 285.5 221.155 285.5 222.482C285.5 223.809 285.195 224.98 284.586 225.994C283.993 227.009 283.181 227.797 282.151 228.359C281.136 228.906 279.997 229.179 278.732 229.179ZM278.732 226.322C279.326 226.322 279.88 226.182 280.395 225.901C280.926 225.604 281.347 225.167 281.659 224.589C281.972 224.012 282.128 223.309 282.128 222.482C282.128 221.249 281.8 220.304 281.144 219.649C280.504 218.977 279.716 218.642 278.779 218.642C277.843 218.642 277.054 218.977 276.414 219.649C275.79 220.304 275.478 221.249 275.478 222.482C275.478 223.715 275.782 224.667 276.391 225.339C277.015 225.994 277.796 226.322 278.732 226.322ZM292.985 215.785C293.953 215.785 294.804 215.98 295.538 216.371C296.271 216.745 296.849 217.237 297.271 217.846V215.996H300.572V229.062C300.572 230.264 300.33 231.333 299.846 232.27C299.362 233.222 298.636 233.971 297.669 234.518C296.701 235.08 295.53 235.361 294.156 235.361C292.314 235.361 290.8 234.931 289.614 234.073C288.443 233.214 287.779 232.043 287.623 230.56H290.878C291.05 231.154 291.417 231.622 291.979 231.965C292.556 232.324 293.251 232.504 294.063 232.504C295.015 232.504 295.788 232.215 296.381 231.638C296.974 231.076 297.271 230.217 297.271 229.062V227.048C296.849 227.657 296.264 228.164 295.514 228.57C294.781 228.976 293.938 229.179 292.985 229.179C291.893 229.179 290.894 228.898 289.988 228.336C289.083 227.774 288.365 226.986 287.834 225.971C287.319 224.941 287.061 223.762 287.061 222.435C287.061 221.124 287.319 219.961 287.834 218.946C288.365 217.932 289.075 217.151 289.965 216.605C290.87 216.058 291.877 215.785 292.985 215.785ZM297.271 222.482C297.271 221.686 297.114 221.007 296.802 220.445C296.49 219.867 296.068 219.43 295.538 219.134C295.007 218.821 294.437 218.665 293.828 218.665C293.22 218.665 292.658 218.814 292.142 219.11C291.627 219.407 291.206 219.844 290.878 220.421C290.566 220.983 290.41 221.655 290.41 222.435C290.41 223.216 290.566 223.903 290.878 224.496C291.206 225.073 291.627 225.518 292.142 225.83C292.673 226.143 293.235 226.299 293.828 226.299C294.437 226.299 295.007 226.15 295.538 225.854C296.068 225.542 296.49 225.105 296.802 224.543C297.114 223.965 297.271 223.278 297.271 222.482ZM305.436 214.45C304.859 214.45 304.375 214.271 303.985 213.912C303.61 213.537 303.423 213.077 303.423 212.53C303.423 211.984 303.61 211.531 303.985 211.172C304.375 210.798 304.859 210.61 305.436 210.61C306.014 210.61 306.49 210.798 306.865 211.172C307.255 211.531 307.45 211.984 307.45 212.53C307.45 213.077 307.255 213.537 306.865 213.912C306.49 214.271 306.014 214.45 305.436 214.45ZM307.052 215.996V228.968H303.774V215.996H307.052ZM315.255 229.179C314.194 229.179 313.241 228.992 312.398 228.617C311.555 228.227 310.884 227.704 310.385 227.048C309.901 226.392 309.635 225.667 309.588 224.87H312.89C312.953 225.37 313.194 225.784 313.616 226.111C314.053 226.439 314.592 226.603 315.232 226.603C315.856 226.603 316.34 226.478 316.683 226.229C317.042 225.979 317.222 225.659 317.222 225.268C317.222 224.847 317.003 224.535 316.566 224.332C316.145 224.113 315.466 223.879 314.529 223.629C313.561 223.395 312.765 223.153 312.141 222.904C311.532 222.654 311.001 222.271 310.549 221.756C310.111 221.241 309.893 220.546 309.893 219.672C309.893 218.954 310.096 218.298 310.502 217.705C310.923 217.112 311.516 216.644 312.281 216.3C313.062 215.957 313.975 215.785 315.021 215.785C316.566 215.785 317.8 216.175 318.721 216.956C319.642 217.721 320.149 218.759 320.243 220.07H317.105C317.058 219.555 316.84 219.149 316.449 218.853C316.075 218.54 315.567 218.384 314.927 218.384C314.334 218.384 313.874 218.494 313.546 218.712C313.234 218.931 313.077 219.235 313.077 219.625C313.077 220.062 313.296 220.398 313.733 220.632C314.17 220.851 314.849 221.077 315.77 221.311C316.707 221.545 317.48 221.787 318.088 222.037C318.697 222.287 319.22 222.677 319.657 223.208C320.11 223.723 320.344 224.41 320.36 225.268C320.36 226.018 320.149 226.689 319.727 227.282C319.322 227.875 318.728 228.344 317.948 228.687C317.183 229.015 316.285 229.179 315.255 229.179ZM326.867 218.689V224.964C326.867 225.401 326.969 225.721 327.172 225.924C327.39 226.111 327.749 226.205 328.249 226.205H329.771V228.968H327.71C324.947 228.968 323.566 227.626 323.566 224.941V218.689H322.02V215.996H323.566V212.788H326.867V215.996H329.771V218.689H326.867ZM333.791 214.45C333.214 214.45 332.73 214.271 332.34 213.912C331.965 213.537 331.778 213.077 331.778 212.53C331.778 211.984 331.965 211.531 332.34 211.172C332.73 210.798 333.214 210.61 333.791 210.61C334.369 210.61 334.845 210.798 335.22 211.172C335.61 211.531 335.805 211.984 335.805 212.53C335.805 213.077 335.61 213.537 335.22 213.912C334.845 214.271 334.369 214.45 333.791 214.45ZM335.407 215.996V228.968H332.129V215.996H335.407ZM346.326 228.968L341.924 223.442V228.968H338.646V211.641H341.924V221.499L346.279 215.996H350.541L344.828 222.505L350.588 228.968H346.326ZM353.772 229.132C353.179 229.132 352.687 228.953 352.297 228.594C351.922 228.219 351.735 227.758 351.735 227.212C351.735 226.666 351.922 226.213 352.297 225.854C352.687 225.479 353.179 225.292 353.772 225.292C354.35 225.292 354.826 225.479 355.201 225.854C355.575 226.213 355.762 226.666 355.762 227.212C355.762 227.758 355.575 228.219 355.201 228.594C354.826 228.953 354.35 229.132 353.772 229.132Z" fill="#11366A"/>
</svg>
