<svg width="225" height="115" viewBox="0 0 225 115" fill="none" xmlns="http://www.w3.org/2000/svg">
<path d="M130.069 55.7292C130.069 55.6915 130.07 55.6502 130.071 55.6172C130.073 55.5175 130.075 55.4185 130.068 55.3253C130.055 55.1412 130.059 54.9574 130.062 54.7733L130.07 52.4117C130.074 50.6001 130.077 48.7884 130.089 46.9764C130.105 49.7055 130.094 52.4254 130.08 55.3825C130.079 55.4651 130.086 55.5553 130.095 55.6479C130.097 55.672 130.099 55.7009 130.101 55.7298C130.09 55.7303 130.078 55.7292 130.069 55.7292ZM186.978 66.185V50.6347C186.978 50.468 186.909 50.3088 186.788 50.1951C186.667 50.0809 186.503 50.0196 186.337 50.032C186.152 50.0431 185.966 50.0518 185.781 50.0603C185.359 50.0794 184.923 50.0995 184.488 50.1519C183.768 50.2387 183.546 50.1098 183.485 50.0502C183.379 49.9479 183.339 49.6864 183.371 49.3138C183.435 48.5802 183.419 47.8462 183.402 47.1365C183.393 46.7532 183.384 46.3697 183.388 45.9871C183.39 45.826 183.327 45.6707 183.214 45.556C183.1 45.4415 182.946 45.377 182.785 45.377H174.303C174.137 45.377 173.979 45.4451 173.865 45.5653C173.751 45.6857 173.691 45.8474 173.7 46.0132L173.703 46.0763L173.698 47.1627C173.689 49.2199 173.679 51.347 173.707 53.4407C173.711 53.7309 173.667 53.7974 173.667 53.7974C173.667 53.7974 173.577 53.8783 173.2 53.8641C172.837 53.8617 172.749 53.7927 172.749 53.7927C172.747 53.7898 172.702 53.7238 172.713 53.4213C172.732 52.8692 172.727 52.3161 172.722 51.7632C172.717 51.1718 172.711 50.56 172.739 49.9685C172.758 49.5572 172.733 49.0362 172.361 48.6547C171.962 48.246 171.363 48.2122 170.947 48.2198C168.307 48.2759 165.681 48.2821 163.143 48.2388C162.684 48.2358 162.101 48.2742 161.709 48.6775C161.643 48.7459 161.588 48.819 161.542 48.895C161.538 47.2426 161.54 45.5633 161.571 43.9071C161.576 43.6236 161.565 43.3988 161.535 43.1999C161.491 42.9038 161.237 42.6847 160.938 42.6847H152.016C151.684 42.6847 151.414 42.953 151.412 43.2853C151.412 43.4062 151.419 43.5315 151.426 43.6566C151.431 43.755 151.437 43.8532 151.437 43.9482C151.424 47.8905 151.42 51.8326 151.416 55.7753V55.8388C151.416 55.9273 151.416 56.0524 151.406 56.1238C151.371 56.1327 151.307 56.1426 151.203 56.1439H151.184C151.033 56.1439 150.96 56.1297 150.95 56.129C150.942 56.1014 150.926 56.0246 150.928 55.8308C150.93 55.5145 150.92 55.1986 150.909 54.8819C150.891 54.3753 150.875 53.8964 150.913 53.4254C150.954 52.9287 150.601 52.3812 149.922 51.3762C149.399 50.6018 148.682 49.5411 148.69 49.0191C148.692 48.8988 148.703 48.7779 148.714 48.6574C148.732 48.4471 148.754 48.2089 148.736 47.9623C148.727 47.8448 148.722 47.7243 148.716 47.6025C148.675 46.7491 148.623 45.6874 147.674 45.0178C147.022 44.5573 146.983 44.3385 147.182 43.7719C147.541 42.7475 147.138 41.7816 146.103 41.1878C145.202 40.67 144.515 41.0626 144.01 41.3513C143.477 41.6548 142.669 42.3854 143.24 43.8692C143.375 44.2215 143.411 44.3913 143.411 44.473C141.439 45.5958 141.567 47.2621 141.68 48.7335L141.685 48.7966C141.805 50.3643 141.091 51.2792 140.472 51.7707C139.588 52.4703 139.656 53.3216 139.706 53.9424C139.718 54.0911 139.731 54.2391 139.727 54.3854C139.7 55.4332 139.704 56.4947 139.708 57.5214C139.71 58.3051 139.713 59.0887 139.703 59.8724C139.701 59.9939 139.71 60.1219 139.721 60.2504C139.73 60.3719 139.746 60.5759 139.751 60.6013C139.751 60.6013 139.654 60.6602 139.314 60.6479C139.134 60.6408 139.037 60.6166 138.991 60.6007C138.99 60.5264 139.01 60.3985 139.022 60.3158C139.046 60.1637 139.065 60.0144 139.064 59.8806C139.046 57.108 139.045 54.3347 139.044 51.5613C139.043 49.4799 139.043 47.3984 139.035 45.3168C139.034 45.1652 139.033 45.0164 139.025 44.8687C139.009 44.5472 138.744 44.2954 138.422 44.2954H130.69C130.372 44.2954 130.108 44.542 130.088 44.8589C130.078 45.0025 130.074 45.1484 130.075 45.2968C130.077 45.5054 130.079 45.7136 130.081 45.9218C130.057 45.8116 130.001 45.7092 129.92 45.6279C129.807 45.5135 129.653 45.4492 129.492 45.4492H125.226H120.316C120.046 45.4492 119.827 45.668 119.827 45.9379V60.6479L114.171 60.6007V61.8543H120.561C120.83 61.8543 121.049 61.6355 121.049 61.3656V46.6569H128.883C128.87 48.5745 128.866 50.4919 128.863 52.4095L128.855 54.7509C128.851 54.9714 128.848 55.1926 128.864 55.412C128.868 55.4675 128.865 55.5264 128.864 55.5853C128.856 55.8578 128.845 56.2693 129.156 56.5931C129.368 56.8149 129.676 56.9304 130.073 56.9375C130.487 56.9351 130.822 56.8284 131.041 56.5938C131.36 56.2511 131.321 55.8077 131.298 55.5423C131.293 55.4886 131.287 55.4362 131.288 55.3885C131.305 51.8996 131.316 48.7402 131.285 45.5032H137.827C137.835 47.5229 137.836 49.5422 137.837 51.562C137.838 54.3375 137.839 57.1132 137.857 59.8884C137.857 59.9639 137.841 60.0475 137.828 60.1335C137.778 60.4632 137.702 60.961 138.041 61.3714C138.292 61.675 138.694 61.8331 139.269 61.8543C139.886 61.8785 140.326 61.744 140.612 61.4469C140.994 61.0482 140.954 60.5323 140.924 60.156C140.917 60.0647 140.909 59.9745 140.91 59.8888C140.921 59.0981 140.918 58.3073 140.915 57.5171C140.911 56.4988 140.907 55.4461 140.934 54.4165C140.939 54.2285 140.925 54.038 140.91 53.8464C140.864 53.2714 140.859 53.0049 141.222 52.7171C142.422 51.7653 143.014 50.3401 142.889 48.704L142.884 48.6408C142.766 47.1139 142.762 46.2152 144.043 45.5032C144.965 44.9906 144.531 43.8611 144.367 43.4357C144.105 42.7558 144.332 42.5581 144.608 42.4006L144.661 42.3704C145.088 42.126 145.211 42.0685 145.502 42.235C146.028 42.5369 146.205 42.9091 146.043 43.3721C145.648 44.4944 145.92 45.2573 146.978 46.0043C147.414 46.3122 147.47 46.8352 147.51 47.6605C147.516 47.7917 147.522 47.9214 147.531 48.0489C147.542 48.199 147.527 48.3696 147.511 48.5503C147.497 48.7004 147.485 48.8506 147.482 49.0005C147.468 49.9022 148.207 50.9955 148.921 52.0526C149.239 52.5227 149.675 53.1669 149.71 53.3281C149.666 53.8688 149.684 54.4048 149.702 54.9231C149.712 55.2226 149.722 55.5223 149.72 55.8213C149.718 56.0753 149.714 56.6044 150.087 56.9765C150.345 57.2342 150.717 57.3455 151.216 57.3515C152.627 57.3354 152.624 56.2464 152.623 55.7764C152.627 51.835 152.631 47.8933 152.645 43.9526C152.645 43.9329 152.645 43.9128 152.644 43.8924H160.363C160.323 46.0512 160.331 48.2434 160.34 50.3633C160.343 51.1881 160.346 52.0127 160.347 52.8368L160.346 53.0319C160.344 53.2679 160.343 53.5044 160.358 53.7396L160.362 53.8269C160.382 54.5392 160.707 54.9261 161.325 54.9768C161.687 55.0051 161.982 54.9184 162.201 54.7185C162.539 54.4089 162.544 53.9672 162.547 53.6919L162.559 52.8787C162.574 51.9075 162.59 50.9029 162.542 49.9077C162.527 49.5929 162.575 49.5186 162.575 49.5186C162.576 49.5175 162.668 49.4302 163.123 49.4465C165.677 49.4894 168.318 49.4839 170.973 49.4275C171.396 49.4171 171.496 49.4972 171.496 49.4972C171.498 49.5 171.549 49.5711 171.532 49.9117C171.503 50.5375 171.509 51.1663 171.515 51.7744C171.52 52.3093 171.525 52.8444 171.506 53.3788C171.492 53.7661 171.522 54.258 171.876 54.6277C172.254 55.021 172.809 55.0694 173.194 55.0717C173.589 55.0782 174.144 55.0322 174.523 54.6484C174.88 54.2892 174.92 53.8062 174.915 53.4248C174.887 51.3418 174.897 49.2199 174.906 47.1684L174.909 46.5847H182.183C182.186 46.7777 182.19 46.9712 182.195 47.1643C182.211 47.8724 182.226 48.5416 182.168 49.2087C182.101 49.9832 182.257 50.5423 182.645 50.9179C183.198 51.4535 184.044 51.4222 184.632 51.3508C185.002 51.3062 185.376 51.2877 185.77 51.2697V66.7889C185.77 67.1226 186.041 67.3927 186.374 67.3927H221.857V66.185H186.978Z" fill="black"/>
<path d="M89.2884 19.1996L86.4798 24.1275H85.4565C85.1715 24.1275 84.9257 24.3265 84.8659 24.6047C84.8063 24.8829 84.8139 25.1653 84.8216 25.438C84.8237 25.5214 84.8261 25.6048 84.8261 25.6874L84.824 28.3358C84.8172 37.0148 84.8101 45.9893 84.7692 54.8163C84.7682 54.9932 84.8016 55.1641 84.8338 55.33C84.8536 55.4325 84.8845 55.593 84.8836 55.6796C84.837 55.6956 84.7379 55.7193 84.5521 55.7227C84.5351 55.7234 84.5187 55.7234 84.503 55.7234C84.2585 55.7234 84.1607 55.6873 84.1444 55.6943C84.1288 55.6136 84.1643 55.403 84.1866 55.2746C84.2157 55.1024 84.2462 54.9242 84.2432 54.7432C84.2081 52.6044 84.2098 50.4263 84.2116 48.32C84.2128 47.1952 84.2136 46.0702 84.2094 44.945C84.2064 44.1964 84.2033 43.422 83.5715 43.2784C82.9394 43.1346 82.9549 43.0204 83.042 42.3882C83.0773 42.1307 83.1176 41.8385 83.0753 41.5442C83.0609 41.4439 83.0563 41.3425 83.0514 41.2437C83.0249 40.7289 82.9653 39.6557 81.3367 39.7006C80.5776 39.7203 79.8606 39.7389 79.4281 40.2702C79.1583 40.6013 79.0776 41.043 79.1817 41.6238C79.1886 41.663 79.1992 41.7211 79.2057 41.7729C78.997 41.8034 78.7594 41.8093 78.5094 41.8158C77.7454 41.8355 76.5265 41.8668 76.0931 43.0621C75.6833 43.089 75.3696 43.2124 75.1416 43.4356C74.7129 43.8558 74.7604 44.4396 74.7952 44.8663C74.8037 44.9723 74.8132 45.0773 74.8126 45.1761C74.7979 47.4712 74.7922 49.7662 74.7868 52.0613C74.7833 53.5646 74.7799 55.067 74.7737 56.5701L74.7754 56.7145C74.7762 56.7552 74.7772 56.8054 74.7765 56.8508C74.7551 56.8525 74.7339 56.8502 74.7072 56.8489C74.7031 56.8484 74.699 56.8484 74.6949 56.8478C74.6944 56.8165 74.6941 56.7835 74.6941 56.7558C74.6935 56.6928 74.6928 56.6296 74.6895 56.569C74.6787 56.366 74.6802 56.1625 74.6811 55.9592L74.6816 55.7344L74.6772 51.1497C74.6745 46.5065 74.672 41.7052 74.6162 36.9817C74.6145 36.8453 74.6469 36.6547 74.6807 36.4529C74.7745 35.8987 74.9028 35.1403 74.4036 34.585C74.0639 34.207 73.5171 34.011 72.7357 34.0307C72.7212 33.683 72.5854 33.384 72.3509 33.1872C72.1825 33.0456 71.8868 32.8902 71.4328 32.9578C70.7532 33.0579 70.5742 32.9335 70.5453 32.9072C70.4283 32.8027 70.4436 32.363 70.4548 32.0419C70.4591 31.921 70.4633 31.7999 70.4637 31.6811C70.4675 30.5135 70.4665 29.3458 70.4657 28.1783L70.4651 26.694C70.4651 26.5319 70.4 26.3765 70.2844 26.2629C70.1684 26.1495 69.9978 26.092 69.85 26.0902L69.4258 26.0981C69.0968 26.1043 68.8331 26.373 68.8331 26.7021L68.8361 28.4026C68.8396 29.7472 68.8431 31.0919 68.8266 32.4362C68.8148 33.3723 67.6945 33.8827 67.213 34.0587C66.4216 34.3482 65.7219 34.7005 65.8549 35.82C65.8791 36.0218 65.8785 36.2947 65.738 36.4488C65.6061 36.5935 65.3238 36.668 64.9414 36.6584C64.5337 36.648 64.0763 36.6819 63.7503 37.0141C63.602 37.1655 63.4298 37.4394 63.4501 37.8852C63.4505 37.8893 63.4505 37.8934 63.4506 37.8972C62.8363 37.843 62.3905 37.9545 62.0891 38.2425C61.6766 38.6355 61.6997 39.1853 61.7161 39.5865C61.7194 39.6618 61.7226 39.737 61.7226 39.8105L61.7212 46.6062C61.7209 49.8208 61.7209 53.0354 61.7164 56.2499C61.7161 56.3413 61.7215 56.4363 61.727 56.5318C61.7324 56.6219 61.7403 56.7623 61.7321 56.8396C61.6902 56.8495 61.6111 56.8631 61.4661 56.8585C61.3904 56.8566 61.3364 56.8502 61.2999 56.843C61.3027 56.7824 61.3125 56.7021 61.3196 56.6426C61.3349 56.5164 61.3479 56.3931 61.3471 56.2818C61.321 53.2873 61.327 50.2409 61.3326 47.2946L61.337 46.5572C61.3485 46.0748 61.3626 45.4745 60.9065 45.0562C60.5734 44.7503 60.0788 44.6365 59.3968 44.7126C59.3957 44.7126 59.3946 44.7129 59.3937 44.7129C59.3937 44.7086 59.3937 44.7047 59.394 44.7003C59.4049 44.3741 59.399 44.0453 59.3927 43.7152C59.3745 42.7522 59.3573 41.8426 59.7823 40.9844C59.8752 40.797 59.8646 40.5754 59.7543 40.3978C59.6442 40.2203 59.4501 40.1124 59.2412 40.1124H52.3525C52.1375 40.1124 51.9386 40.2269 51.8306 40.4127C51.7224 40.5986 51.7213 40.8278 51.8276 41.0147C52.1027 41.4989 52.231 41.9254 52.2315 42.3574C52.2356 46.9711 52.2396 51.5852 52.2192 56.1992C52.2189 56.2924 52.2239 56.389 52.2291 56.487C52.2361 56.6037 52.247 56.7994 52.2413 56.8325C52.2408 56.8331 52.1558 56.8915 51.847 56.8926H51.8386C51.5562 56.8926 51.4647 56.8489 51.4593 56.8508C51.4352 56.7895 51.4426 56.5914 51.447 56.4717C51.4503 56.3867 51.4532 56.3023 51.4529 56.2192C51.4409 53.7709 51.4412 51.3228 51.4415 48.8746V46.5597C51.4415 45.8309 51.3511 45.3247 51.1486 44.9184C51.0466 44.7132 50.8373 44.5837 50.6082 44.5837H42.2744C41.9916 44.5837 41.7547 44.778 41.6885 45.0402H41.6882C41.5204 45.5838 41.4444 46.0492 41.4624 46.4228C41.5679 48.6031 41.5332 50.8347 41.4999 52.993L41.4822 54.1712C41.4806 54.2915 41.4978 54.4296 41.5183 54.5722C41.5261 54.6229 41.5364 54.6931 41.542 54.7533C41.5201 54.755 41.4945 54.7561 41.4642 54.7561C41.4397 54.7561 41.4105 54.755 41.3877 54.7537C41.391 54.6996 41.3978 54.6372 41.4032 54.588C41.4161 54.4643 41.427 54.3435 41.4244 54.2354C41.3893 52.6997 41.3727 51.1633 41.3566 49.6269C41.3217 46.4041 41.2861 43.0718 41.0708 39.7949C40.8806 36.9043 41.3179 35.1441 44.1653 34.1211C44.406 34.0351 44.509 33.8467 44.5586 33.7562C44.57 33.7356 44.5842 33.7089 44.6052 33.6766C44.7228 33.4962 44.7352 33.2668 44.6379 33.0745C44.5408 32.8823 44.3484 32.7567 44.1334 32.7442C43.8189 32.7265 43.6307 32.6853 43.5239 32.651C43.5678 32.5872 43.6407 32.4968 43.7601 32.3787C43.9102 32.2294 43.9714 32.0127 43.9217 31.8073C43.8719 31.6015 43.7179 31.4369 43.516 31.3735L43.3915 31.3317C43.3088 31.3024 43.2149 31.2691 43.0905 31.2656C42.6202 31.2513 42.1501 31.2381 41.6793 31.2293C41.31 30.8244 40.6836 28.7391 40.3579 19.7059C40.3393 19.1962 40.3252 18.8076 40.3127 18.5878C40.295 18.2829 40.0524 18.0392 39.7475 18.0201C39.4319 18.0047 39.1714 18.2128 39.116 18.5133C38.8079 20.1844 38.685 21.868 38.5665 23.4962L38.5237 24.093C38.1849 29.4134 37.2759 31.2193 36.9135 31.2261C36.6959 31.2302 36.4787 31.2432 36.2033 31.2603L35.7334 31.2877C35.4936 31.3007 35.2843 31.4544 35.2002 31.679C35.1162 31.904 35.173 32.1572 35.3455 32.3243C35.4967 32.4709 35.5797 32.5768 35.6248 32.6455C35.515 32.6935 35.2925 32.7643 34.8634 32.8204C34.6093 32.854 34.4039 33.0442 34.3513 33.2954C34.2985 33.5462 34.4102 33.8034 34.6296 33.9361C34.911 34.1059 35.1675 34.27 35.4105 34.4258C35.9217 34.753 36.4046 35.0624 36.932 35.3038C37.8494 35.7237 38.1474 36.2243 38.1132 37.2874C37.964 41.9417 37.8718 46.694 37.8391 51.4171V66.185H2.91211V67.3927H38.4428C38.7763 67.3927 39.0468 67.1226 39.0468 66.7888V51.4212C39.0795 46.7123 39.1714 41.9702 39.3204 37.3264C39.3696 35.7877 38.7882 34.8253 37.4348 34.2059C37.0819 34.0443 36.7428 33.8412 36.3742 33.6082C36.5848 33.4693 36.7491 33.2845 36.8316 33.0358C36.9009 32.8265 36.8938 32.6237 36.8439 32.4359C36.8748 32.4349 36.9055 32.4344 36.9363 32.4338C37.4397 32.424 38.8667 32.3972 39.5324 26.4531C39.9682 31.3095 40.6282 32.4188 41.5659 32.4352C41.8088 32.4395 42.0518 32.445 42.2948 32.4512C42.2313 32.6757 42.2387 32.8911 42.3166 33.0966C42.3786 33.2611 42.4775 33.3933 42.5981 33.4996C39.8128 35.0223 39.7137 37.5635 39.8655 39.8738C40.0789 43.1177 40.1143 46.4332 40.1488 49.6398C40.1653 51.181 40.1819 52.7223 40.217 54.2633C40.2184 54.3234 40.2094 54.3912 40.202 54.4607C40.1701 54.7615 40.1217 55.2168 40.4423 55.5806C40.6584 55.8254 40.9836 55.9545 41.4097 55.9633C41.9008 55.9609 42.2553 55.8477 42.4922 55.5788C42.8301 55.1961 42.76 54.7155 42.7134 54.397C42.7025 54.3222 42.6889 54.2503 42.6898 54.1877L42.7072 53.0118C42.7412 50.8344 42.7763 48.5833 42.6688 46.3643C42.6643 46.2697 42.6704 46.0872 42.7361 45.7914H50.1743C50.2139 45.9937 50.2338 46.2485 50.2338 46.56V48.8746C50.2333 51.3249 50.2332 53.775 50.2452 56.2251C50.2455 56.2911 50.2428 56.3589 50.2403 56.4262C50.2267 56.7919 50.2078 57.2918 50.5814 57.6781C50.858 57.9642 51.2789 58.0962 51.8516 58.1003C52.4286 58.098 52.8416 57.9564 53.1144 57.6662C53.4832 57.2748 53.4554 56.7806 53.4352 56.4191C53.431 56.3465 53.4265 56.274 53.4269 56.2039C53.4472 51.588 53.4434 46.9723 53.4393 42.3562C53.439 42.011 53.3853 41.6674 53.2768 41.32H58.3752C58.1553 42.1557 58.171 42.9843 58.185 43.7378C58.191 44.0471 58.1972 44.3546 58.1869 44.6595C58.1697 45.1672 58.3741 45.4667 58.5484 45.6287C58.7213 45.7885 59.034 45.968 59.5281 45.9132C59.9751 45.8637 60.0879 45.9441 60.0883 45.9441C60.1416 46.0162 60.1336 46.3496 60.1296 46.5286L60.1249 47.2924C60.1194 50.2415 60.1134 53.2914 60.1393 56.2924C60.1399 56.356 60.1296 56.4255 60.1208 56.4969C60.0837 56.8029 60.0273 57.2653 60.3528 57.6433C60.586 57.9139 60.9392 58.052 61.4323 58.0662C61.9665 58.0815 62.3518 57.9564 62.6151 57.6852C62.9819 57.3072 62.9521 56.7983 62.9326 56.4615C62.9285 56.3903 62.9241 56.3194 62.9241 56.2516C62.9285 53.0366 62.9285 49.8213 62.9289 46.6062L62.9304 39.8111C62.9304 39.7212 62.9268 39.6287 62.923 39.5363C62.917 39.3963 62.9074 39.1622 62.9123 39.1244C62.9138 39.1241 63.0082 39.0704 63.3431 39.1003C63.8405 39.1459 64.1451 38.9635 64.3125 38.8033C64.4733 38.6494 64.6586 38.372 64.6596 37.8722C64.7106 37.8664 64.7896 37.8627 64.9106 37.8654C65.663 37.8826 66.2481 37.6817 66.6309 37.2618C66.8779 36.9906 67.1518 36.4955 67.0542 35.6771C67.0351 35.5171 67.0531 35.4686 67.0528 35.4686C67.0759 35.4359 67.1811 35.3562 67.6278 35.1926C68.562 34.8512 69.2538 34.34 69.6501 33.7194C69.6784 33.7497 69.7084 33.7792 69.7406 33.8078C70.1296 34.156 70.6908 34.2713 71.5322 34.1655C71.5472 34.45 71.6085 34.7852 71.8698 35.0243C72.0423 35.1826 72.2724 35.2599 72.5154 35.2463C73.2908 35.1987 73.476 35.3599 73.5055 35.3923C73.6145 35.5137 73.5426 35.9404 73.4902 36.2518C73.4486 36.4973 73.4055 36.7513 73.4085 36.996C73.4643 41.7129 73.4668 46.5106 73.4695 51.1506L73.4739 55.7368L73.4734 55.9534C73.4725 56.1804 73.4717 56.4067 73.4837 56.6331C73.4861 56.6756 73.4861 56.7192 73.4864 56.763C73.4878 57.0661 73.4932 57.9871 74.6363 58.0544C75.0824 58.0803 75.4165 57.9812 75.6567 57.7507C75.9978 57.4222 75.9886 56.9816 75.9828 56.6898L75.9814 56.5748C75.9875 55.0711 75.991 53.5679 75.9946 52.0642C75.9999 49.7706 76.0055 47.4774 76.0202 45.1838C76.0212 45.0516 76.0106 44.9104 75.9991 44.7682C75.9863 44.6135 75.9651 44.3543 75.9798 44.3042C75.9811 44.3035 76.0946 44.2352 76.5028 44.2771C76.8317 44.3142 77.1189 44.0801 77.1628 43.7577C77.2489 43.1207 77.5006 43.0497 78.5403 43.0233C78.8547 43.0149 79.1795 43.0067 79.4973 42.9489C79.9131 42.873 80.5792 42.5724 80.3698 41.4065C80.3258 41.1627 80.3521 41.0521 80.3639 41.0332C80.4606 40.9316 81.0288 40.9168 81.3736 40.9076C81.3981 40.9071 81.4215 40.9068 81.4433 40.9068C81.7078 40.9068 81.8068 40.9599 81.803 40.9468C81.8295 41.0005 81.839 41.1837 81.8452 41.3054C81.8523 41.4407 81.8602 41.5796 81.8801 41.7167C81.8979 41.8423 81.8727 42.0274 81.8455 42.2236C81.7687 42.7813 81.6145 43.9013 82.9818 44.3659C82.9922 44.4835 83.0004 44.666 83.0017 44.9497C83.0059 46.0727 83.0051 47.1959 83.0039 48.3192C83.0022 50.4306 83.0004 52.6137 83.0355 54.7632C83.0372 54.8552 83.0149 54.9613 82.996 55.0717C82.9314 55.4509 82.8338 56.0233 83.2152 56.4669C83.4939 56.7906 83.9424 56.9492 84.5755 56.9304C85.1687 56.9186 85.5821 56.7587 85.8386 56.4415C86.1939 56.0028 86.0889 55.4602 86.0194 55.1005C85.9999 55.0003 85.9765 54.9048 85.9769 54.8217C86.0178 45.9928 86.0249 37.0168 86.0317 28.3366L86.0337 25.6887C86.0337 25.5949 86.0314 25.4999 86.0287 25.4053C86.0282 25.3821 86.0276 25.3584 86.0269 25.3352H86.8307C87.0477 25.3352 87.2479 25.2187 87.3553 25.0303L89.2884 21.6384V19.1996Z" fill="black"/>
<path d="M21.7868 88.6109C21.7868 89.2654 21.749 89.9577 21.6735 90.6877H5.13518C5.26104 92.7266 5.95328 94.3251 7.21191 95.483C8.4957 96.6158 10.0438 97.1822 11.8562 97.1822C13.3414 97.1822 14.5748 96.8423 15.5566 96.1627C16.5635 95.4579 17.2683 94.5265 17.6711 93.3685H21.3714C20.8176 95.3572 19.71 96.9808 18.0486 98.2394C16.3873 99.4729 14.3231 100.09 11.8562 100.09C9.89277 100.09 8.1307 99.6491 6.57001 98.768C5.03449 97.887 3.82621 96.641 2.94518 95.0299C2.06414 93.3937 1.62362 91.5058 1.62362 89.3661C1.62362 87.2265 2.05155 85.3511 2.90742 83.7401C3.76328 82.129 4.95897 80.8956 6.49449 80.0397C8.05518 79.1587 9.84243 78.7182 11.8562 78.7182C13.8197 78.7182 15.5566 79.1461 17.0669 80.002C18.5773 80.8578 19.7352 82.0409 20.5407 83.5513C21.3714 85.0365 21.7868 86.723 21.7868 88.6109ZM18.2374 87.8935C18.2374 86.5846 17.948 85.4644 17.369 84.533C16.79 83.5765 15.9971 82.859 14.9902 82.3808C14.0085 81.8773 12.9135 81.6256 11.7052 81.6256C9.96829 81.6256 8.48311 82.1794 7.24966 83.287C6.04139 84.3946 5.34914 85.9301 5.17294 87.8935H18.2374ZM25.0384 89.3284C25.0384 87.2139 25.4664 85.3637 26.3222 83.7778C27.1781 82.1668 28.3486 80.9208 29.8338 80.0397C31.3441 79.1587 33.0181 78.7182 34.8557 78.7182C36.6681 78.7182 38.2414 79.1083 39.5755 79.8887C40.9096 80.669 41.904 81.6508 42.5584 82.8339V79.058H46.0322V99.7498H42.5584V95.8984C41.8788 97.1066 40.8593 98.1135 39.5 98.9191C38.1659 99.6994 36.6052 100.09 34.8179 100.09C32.9803 100.09 31.3189 99.6365 29.8338 98.7303C28.3486 97.8241 27.1781 96.5529 26.3222 94.9166C25.4664 93.2804 25.0384 91.4177 25.0384 89.3284ZM42.5584 89.3661C42.5584 87.8054 42.2438 86.4461 41.6145 85.2882C40.9852 84.1303 40.1293 83.2492 39.0469 82.6451C37.9896 82.0158 36.8191 81.7011 35.5353 81.7011C34.2515 81.7011 33.081 82.0032 32.0238 82.6073C30.9665 83.2115 30.1233 84.0925 29.4939 85.2504C28.8646 86.4084 28.55 87.7677 28.55 89.3284C28.55 90.9142 28.8646 92.2987 29.4939 93.4818C30.1233 94.6397 30.9665 95.5334 32.0238 96.1627C33.081 96.7668 34.2515 97.0689 35.5353 97.0689C36.8191 97.0689 37.9896 96.7668 39.0469 96.1627C40.1293 95.5334 40.9852 94.6397 41.6145 93.4818C42.2438 92.2987 42.5584 90.9268 42.5584 89.3661ZM59.164 100.09C57.5781 100.09 56.1559 99.8253 54.8973 99.2967C53.6386 98.7429 52.6443 97.9877 51.9143 97.0311C51.1843 96.0494 50.7816 94.9292 50.7061 93.6706H54.2554C54.3561 94.7027 54.8343 95.546 55.6902 96.2004C56.5712 96.8549 57.7166 97.1822 59.1262 97.1822C60.4352 97.1822 61.4673 96.8927 62.2224 96.3137C62.9776 95.7348 63.3552 95.0047 63.3552 94.1237C63.3552 93.2175 62.9524 92.5504 62.1469 92.1225C61.3414 91.6694 60.0954 91.2289 58.4088 90.801C56.8733 90.3982 55.6147 89.9954 54.633 89.5927C53.6764 89.1647 52.8457 88.548 52.1409 87.7425C51.4612 86.9118 51.1214 85.8294 51.1214 84.4953C51.1214 83.438 51.4361 82.4689 52.0654 81.5878C52.6947 80.7068 53.5883 80.0146 54.7462 79.5111C55.9042 78.9825 57.2257 78.7182 58.7109 78.7182C61.0016 78.7182 62.8518 79.2971 64.2614 80.4551C65.6711 81.613 66.4262 83.1989 66.5269 85.2127H63.0909C63.0154 84.1303 62.5749 83.2618 61.7693 82.6073C60.989 81.9528 59.9318 81.6256 58.5976 81.6256C57.3642 81.6256 56.3824 81.8899 55.6524 82.4185C54.9224 82.9471 54.5574 83.6394 54.5574 84.4953C54.5574 85.1749 54.7714 85.7413 55.1993 86.1944C55.6524 86.6223 56.2062 86.9747 56.8607 87.2516C57.5404 87.5034 58.4718 87.7928 59.6549 88.1201C61.14 88.5228 62.3483 88.9256 63.2797 89.3284C64.2111 89.7059 65.004 90.2849 65.6585 91.0653C66.3381 91.8456 66.6906 92.8651 66.7157 94.1237C66.7157 95.2565 66.4011 96.276 65.7718 97.1822C65.1425 98.0884 64.2488 98.8058 63.0909 99.3344C61.9581 99.8379 60.6492 100.09 59.164 100.09ZM89.3883 79.058L76.928 109.491H73.3787L77.4566 99.5232L69.1119 79.058H72.9256L79.42 95.8229L85.839 79.058H89.3883ZM97.751 73.3942V89.706C97.751 91.4932 98.2167 92.8651 99.1481 93.8216C100.079 94.753 101.388 95.2187 103.075 95.2187C104.787 95.2187 106.108 94.753 107.04 93.8216C107.971 92.8651 108.437 91.4932 108.437 89.706V73.3942H113.761V89.6682C113.761 91.9085 113.27 93.8091 112.288 95.3698C111.332 96.9053 110.035 98.0632 108.399 98.8435C106.788 99.6239 104.988 100.014 102.999 100.014C101.036 100.014 99.2488 99.6239 97.6377 98.8435C96.0519 98.0632 94.7932 96.9053 93.8619 95.3698C92.9305 93.8091 92.4648 91.9085 92.4648 89.6682V73.3942H97.751ZM144.846 78.5294C147.414 78.5294 149.478 79.3223 151.039 80.9082C152.624 82.4689 153.417 84.6589 153.417 87.4782V99.7498H148.131V88.1956C148.131 86.5594 147.716 85.3134 146.885 84.4575C146.054 83.5765 144.922 83.1359 143.487 83.1359C142.052 83.1359 140.907 83.5765 140.051 84.4575C139.22 85.3134 138.805 86.5594 138.805 88.1956V99.7498H133.518V88.1956C133.518 86.5594 133.103 85.3134 132.272 84.4575C131.442 83.5765 130.309 83.1359 128.874 83.1359C127.414 83.1359 126.256 83.5765 125.4 84.4575C124.57 85.3134 124.154 86.5594 124.154 88.1956V99.7498H118.868V78.8315H124.154V81.3613C124.834 80.4802 125.702 79.788 126.76 79.2846C127.842 78.7811 129.025 78.5294 130.309 78.5294C131.945 78.5294 133.405 78.8818 134.689 79.5866C135.973 80.2663 136.967 81.248 137.672 82.5318C138.352 81.3235 139.333 80.3544 140.617 79.6244C141.926 78.8944 143.336 78.5294 144.846 78.5294ZM163.267 95.4075H172.593V99.7498H157.263V95.483L166.401 83.1737H157.301V78.8315H172.48V83.0982L163.267 95.4075ZM196.434 78.8315V99.7498H191.11V97.1066C190.43 98.0129 189.537 98.7303 188.429 99.2589C187.347 99.7623 186.164 100.014 184.88 100.014C183.244 100.014 181.796 99.6742 180.537 98.9946C179.279 98.2898 178.285 97.2703 177.555 95.9361C176.85 94.5768 176.497 92.9658 176.497 91.103V78.8315H181.784V90.3478C181.784 92.0092 182.199 93.293 183.03 94.1992C183.86 95.0803 184.993 95.5208 186.428 95.5208C187.888 95.5208 189.033 95.0803 189.864 94.1992C190.695 93.293 191.11 92.0092 191.11 90.3478V78.8315H196.434ZM209.843 78.4916C211.404 78.4916 212.776 78.8063 213.959 79.4356C215.142 80.0397 216.073 80.8327 216.753 81.8144V78.8315H222.077V99.9008C222.077 101.839 221.687 103.563 220.906 105.074C220.126 106.609 218.956 107.818 217.395 108.699C215.834 109.605 213.946 110.058 211.731 110.058C208.761 110.058 206.319 109.366 204.406 107.981C202.518 106.597 201.448 104.709 201.196 102.317H206.445C206.722 103.274 207.313 104.029 208.22 104.583C209.151 105.162 210.271 105.451 211.58 105.451C213.116 105.451 214.362 104.986 215.318 104.054C216.275 103.148 216.753 101.764 216.753 99.9008V96.6535C216.073 97.6353 215.129 98.4534 213.921 99.1079C212.738 99.7623 211.379 100.09 209.843 100.09C208.081 100.09 206.47 99.6365 205.01 98.7303C203.55 97.8241 202.392 96.5529 201.536 94.9166C200.706 93.2553 200.29 91.3547 200.29 89.2151C200.29 87.1006 200.706 85.2253 201.536 83.589C202.392 81.9528 203.538 80.6942 204.972 79.8132C206.432 78.9321 208.056 78.4916 209.843 78.4916ZM216.753 89.2906C216.753 88.0068 216.501 86.9118 215.998 86.0056C215.494 85.0742 214.815 84.3694 213.959 83.8911C213.103 83.3877 212.184 83.1359 211.203 83.1359C210.221 83.1359 209.315 83.3751 208.484 83.8534C207.653 84.3316 206.974 85.0365 206.445 85.9678C205.941 86.874 205.69 87.9565 205.69 89.2151C205.69 90.4737 205.941 91.5813 206.445 92.5378C206.974 93.4692 207.653 94.1866 208.484 94.6901C209.34 95.1935 210.246 95.4453 211.203 95.4453C212.184 95.4453 213.103 95.2061 213.959 94.7279C214.815 94.2244 215.494 93.5196 215.998 92.6134C216.501 91.682 216.753 90.5744 216.753 89.2906Z" fill="black"/>
<path d="M112.899 27.7316V27.0034H112.17H107.104H106.376V27.7316V42.5083H99.7901V16.7153V15.9871H99.062H93.9326H93.2045V16.7153V67.3113V68.0395H93.9326H99.062H99.7901V67.3113V51.7453H106.376V67.3113V68.0395H107.104H112.17H112.899V67.3113V27.7316Z" fill="white" stroke="black" stroke-width="1.45631"/>
<path d="M131.135 2V1.27184H130.407H124.521H123.929L123.808 1.85144L118.806 25.85L113.753 1.84998L113.632 1.27184H113.041H107.125H106.397V2V41.5798V42.308H107.125H112.133H112.861V41.5798V25.3454L116.045 41.7188L116.16 42.308H116.76H120.801H121.402L121.516 41.7183L124.671 25.4313V41.5798V42.308H125.399H130.407H131.135V41.5798V2Z" fill="white" stroke="black" stroke-width="1.45631"/>
<path d="M107.116 40.4242C107.116 40.3555 107.172 40.2998 107.241 40.2998H112.031C112.1 40.2998 112.156 40.3555 112.156 40.4242V47.4322C112.156 47.5009 112.1 47.5566 112.031 47.5566H103.532C103.463 47.5566 103.407 47.5009 103.407 47.4322V43.4479C103.407 43.3792 103.463 43.3235 103.532 43.3235H106.992C107.061 43.3235 107.116 43.2678 107.116 43.1991V40.4242Z" fill="white"/>
</svg>
