<svg width="465" height="279" viewBox="0 0 465 279" fill="none" xmlns="http://www.w3.org/2000/svg">
<path d="M232.002 116.464L231.933 41.9448L231.864 25.373L240.632 41.9333L240.768 113.367V116.464H232.002ZM255.406 58.4934L226.345 1.83246V14.171L226.251 41.9448L226.156 116.464H208.623V41.9448H202.778V116.464H194.011V41.9448H188.167V171.501H194.011V136.92H202.778V171.501H208.623V136.92H226.156V171.501H232.002V131.076H194.011V122.309H240.768V171.501H246.613V53.6856L255.406 70.3447L264.497 51.8363V113.367H270.666V41.1217L278.946 24.3993V113.367H284.791V13.1974V0.858826L255.406 58.4934Z" fill="white"/>
<path d="M269.239 144.435C269.239 144.357 269.241 144.272 269.243 144.203C269.248 143.997 269.252 143.793 269.238 143.6C269.21 143.219 269.219 142.839 269.226 142.459L269.242 137.576C269.249 133.83 269.256 130.084 269.28 126.338C269.314 131.98 269.292 137.604 269.262 143.718C269.261 143.889 269.275 144.075 269.292 144.267C269.297 144.317 269.302 144.376 269.307 144.436C269.283 144.437 269.259 144.435 269.239 144.435ZM386.903 166.053V133.902C386.903 133.557 386.761 133.228 386.511 132.993C386.26 132.756 385.922 132.63 385.579 132.656C385.196 132.678 384.812 132.696 384.428 132.714C383.556 132.754 382.655 132.795 381.756 132.903C380.267 133.083 379.808 132.816 379.681 132.693C379.464 132.481 379.38 131.941 379.447 131.17C379.579 129.654 379.545 128.136 379.51 126.669C379.492 125.876 379.474 125.083 379.482 124.292C379.486 123.959 379.355 123.638 379.121 123.401C378.886 123.164 378.567 123.031 378.234 123.031H360.697C360.355 123.031 360.027 123.172 359.791 123.42C359.555 123.669 359.432 124.004 359.451 124.346C359.451 124.347 359.457 124.475 359.457 124.477L359.447 126.723C359.428 130.976 359.408 135.374 359.465 139.703C359.473 140.303 359.382 140.439 359.382 140.441C359.381 140.442 359.196 140.608 358.417 140.579C357.666 140.574 357.485 140.431 357.484 140.431C357.48 140.425 357.387 140.289 357.409 139.663C357.45 138.522 357.439 137.378 357.429 136.235C357.418 135.012 357.406 133.747 357.463 132.524C357.503 131.674 357.451 130.597 356.682 129.808C355.858 128.963 354.619 128.893 353.759 128.909C348.3 129.025 342.871 129.037 337.623 128.948C336.673 128.942 335.468 129.021 334.658 129.855C334.521 129.996 334.408 130.147 334.313 130.305C334.304 126.888 334.308 123.416 334.372 119.992C334.382 119.405 334.36 118.941 334.298 118.529C334.208 117.917 333.682 117.464 333.063 117.464H314.618C313.93 117.464 313.373 118.019 313.369 118.706C313.368 118.956 313.382 119.215 313.396 119.474C313.408 119.677 313.421 119.88 313.42 120.077C313.392 128.228 313.384 136.378 313.376 144.53V144.662C313.376 144.845 313.377 145.103 313.356 145.251C313.283 145.269 313.151 145.29 312.936 145.292H312.897C312.585 145.292 312.434 145.263 312.414 145.262C312.396 145.204 312.364 145.046 312.367 144.645C312.372 143.991 312.35 143.338 312.328 142.683C312.292 141.636 312.258 140.646 312.337 139.672C312.42 138.645 311.691 137.513 310.287 135.435C309.205 133.834 307.723 131.64 307.74 130.561C307.744 130.312 307.766 130.063 307.789 129.813C307.828 129.379 307.871 128.886 307.835 128.376C307.817 128.133 307.806 127.884 307.794 127.632C307.708 125.868 307.603 123.673 305.64 122.288C304.292 121.336 304.211 120.884 304.623 119.712C305.365 117.594 304.531 115.597 302.392 114.369C300.528 113.299 299.108 114.11 298.064 114.707C296.962 115.335 295.291 116.845 296.471 119.913C296.751 120.642 296.825 120.993 296.825 121.162C292.747 123.483 293.012 126.928 293.246 129.971L293.256 130.101C293.504 133.342 292.029 135.234 290.748 136.25C288.921 137.697 289.062 139.457 289.164 140.741C289.189 141.048 289.216 141.354 289.208 141.656C289.152 143.823 289.16 146.018 289.168 148.14C289.174 149.761 289.179 151.381 289.158 153.001C289.155 153.253 289.174 153.517 289.195 153.783C289.214 154.034 289.247 154.456 289.258 154.508C289.256 154.509 289.058 154.63 288.355 154.605C287.983 154.59 287.782 154.54 287.686 154.507C287.685 154.354 287.725 154.089 287.751 153.918C287.799 153.604 287.84 153.295 287.838 153.018C287.801 147.286 287.799 141.552 287.797 135.818C287.795 131.514 287.793 127.21 287.777 122.906C287.775 122.593 287.774 122.285 287.758 121.98C287.724 121.315 287.176 120.795 286.511 120.795H270.523C269.866 120.795 269.321 121.304 269.278 121.96C269.258 122.256 269.249 122.558 269.252 122.865C269.257 123.296 269.26 123.727 269.264 124.157C269.214 123.929 269.099 123.718 268.932 123.55C268.698 123.313 268.379 123.18 268.046 123.18H250.408V125.677H266.787C266.76 129.642 266.752 133.606 266.745 137.571L266.73 142.412C266.721 142.868 266.714 143.325 266.747 143.779C266.756 143.894 266.75 144.016 266.747 144.137C266.732 144.701 266.71 145.552 267.351 146.221C267.789 146.68 268.427 146.919 269.247 146.933C270.104 146.928 270.797 146.708 271.249 146.223C271.908 145.514 271.828 144.597 271.78 144.049C271.77 143.938 271.758 143.829 271.759 143.73C271.794 136.517 271.818 129.985 271.754 123.292H285.281C285.296 127.468 285.298 131.643 285.3 135.819C285.302 141.557 285.304 147.296 285.341 153.034C285.342 153.191 285.309 153.363 285.283 153.541C285.178 154.223 285.022 155.252 285.723 156.101C286.242 156.728 287.073 157.055 288.262 157.099C289.537 157.149 290.447 156.871 291.038 156.257C291.828 155.432 291.744 154.366 291.684 153.588C291.669 153.399 291.653 153.212 291.655 153.035C291.676 151.4 291.671 149.765 291.665 148.132C291.657 146.026 291.649 143.85 291.704 141.721C291.714 141.332 291.685 140.938 291.653 140.542C291.558 139.353 291.548 138.802 292.299 138.207C294.781 136.239 296.005 133.292 295.745 129.91L295.736 129.779C295.493 126.622 295.484 124.764 298.132 123.292C300.038 122.232 299.14 119.897 298.802 119.017C298.261 117.611 298.729 117.202 299.3 116.877C299.301 116.877 299.409 116.815 299.409 116.814C300.293 116.309 300.547 116.19 301.149 116.534C302.236 117.159 302.602 117.928 302.267 118.885C301.451 121.206 302.012 122.783 304.2 124.328C305.102 124.964 305.217 126.046 305.3 127.752C305.312 128.024 305.326 128.292 305.344 128.555C305.367 128.866 305.335 129.218 305.302 129.592C305.274 129.902 305.248 130.213 305.243 130.523C305.214 132.387 306.741 134.648 308.219 136.833C308.875 137.805 309.776 139.137 309.848 139.47C309.759 140.588 309.796 141.697 309.832 142.768C309.854 143.388 309.875 144.007 309.87 144.625C309.866 145.151 309.857 146.244 310.629 147.014C311.162 147.547 311.93 147.777 312.962 147.789C315.88 147.756 315.874 145.504 315.873 144.533C315.881 136.383 315.889 128.234 315.917 120.086C315.917 120.045 315.917 120.003 315.916 119.961H331.875C331.792 124.425 331.809 128.957 331.827 133.34C331.833 135.046 331.84 136.751 331.841 138.455L331.839 138.858C331.836 139.346 331.834 139.835 331.865 140.321L331.872 140.502C331.915 141.975 332.585 142.774 333.864 142.879C334.613 142.938 335.221 142.758 335.675 142.345C336.375 141.705 336.385 140.792 336.391 140.223L336.415 138.541C336.446 136.533 336.479 134.456 336.38 132.399C336.349 131.748 336.45 131.594 336.45 131.594C336.451 131.592 336.64 131.411 337.581 131.445C342.862 131.534 348.323 131.522 353.812 131.406C354.688 131.384 354.892 131.55 354.893 131.55C354.897 131.556 355.002 131.703 354.969 132.407C354.909 133.701 354.921 135.001 354.932 136.258C354.943 137.364 354.953 138.47 354.914 139.575C354.886 140.376 354.947 141.393 355.68 142.157C356.461 142.971 357.609 143.071 358.403 143.076C359.22 143.089 360.368 142.994 361.153 142.2C361.89 141.458 361.973 140.459 361.962 139.67C361.905 135.364 361.925 130.976 361.944 126.735L361.95 125.528H376.99C376.996 125.927 377.004 126.327 377.014 126.726C377.048 128.19 377.08 129.574 376.96 130.953C376.82 132.555 377.142 133.711 377.945 134.487C379.089 135.594 380.837 135.53 382.054 135.382C382.819 135.29 383.592 135.252 384.407 135.215V167.302C384.407 167.992 384.966 168.55 385.655 168.55H459.019V166.053H386.903Z" fill="white"/>
<path d="M184.921 68.9069L179.114 79.0957H176.998C176.409 79.0957 175.901 79.5072 175.777 80.0824C175.654 80.6576 175.669 81.2415 175.686 81.8053C175.69 81.9777 175.695 82.1502 175.695 82.321L175.69 87.7967C175.676 105.741 175.662 124.297 175.577 142.548C175.575 142.913 175.644 143.267 175.711 143.61C175.751 143.822 175.816 144.154 175.814 144.333C175.717 144.366 175.512 144.415 175.128 144.422C175.093 144.423 175.059 144.423 175.027 144.423C174.521 144.423 174.319 144.349 174.285 144.363C174.253 144.196 174.326 143.761 174.372 143.495C174.433 143.139 174.496 142.771 174.489 142.396C174.417 137.974 174.421 133.471 174.424 129.116C174.427 126.79 174.428 124.464 174.42 122.138C174.413 120.59 174.407 118.989 173.101 118.692C171.794 118.395 171.826 118.159 172.006 116.851C172.079 116.319 172.162 115.715 172.075 115.106C172.045 114.899 172.036 114.689 172.025 114.485C171.971 113.421 171.847 111.202 168.48 111.294C166.911 111.335 165.428 111.374 164.534 112.472C163.976 113.157 163.809 114.07 164.024 115.271C164.039 115.352 164.061 115.472 164.074 115.579C163.643 115.642 163.151 115.654 162.634 115.668C161.055 115.709 158.535 115.773 157.638 118.245C156.791 118.3 156.142 118.555 155.671 119.017C154.785 119.886 154.883 121.093 154.955 121.975C154.973 122.194 154.992 122.411 154.991 122.616C154.96 127.361 154.949 132.106 154.938 136.851C154.93 139.96 154.923 143.066 154.91 146.174L154.914 146.472C154.916 146.557 154.918 146.66 154.916 146.754C154.872 146.758 154.828 146.753 154.773 146.75C154.764 146.749 154.756 146.749 154.747 146.748C154.747 146.683 154.746 146.615 154.746 146.558C154.745 146.427 154.743 146.297 154.736 146.171C154.714 145.752 154.717 145.331 154.719 144.911L154.72 144.446L154.711 134.967C154.705 125.366 154.7 115.439 154.585 105.673C154.581 105.391 154.648 104.997 154.718 104.58C154.912 103.434 155.177 101.866 154.145 100.718C153.443 99.936 152.312 99.5307 150.697 99.5715C150.667 98.8527 150.386 98.2344 149.901 97.8274C149.553 97.5348 148.942 97.2134 148.003 97.3532C146.598 97.5602 146.228 97.3029 146.168 97.2487C145.926 97.0324 145.958 96.1235 145.981 95.4594C145.99 95.2096 145.998 94.9591 145.999 94.7135C146.007 92.2994 146.005 89.8851 146.003 87.4711L146.002 84.4022C146.002 84.0671 145.867 83.7457 145.628 83.5109C145.389 83.2764 145.036 83.1575 144.73 83.1539L143.853 83.1702C143.173 83.183 142.628 83.7385 142.628 84.4189L142.634 87.9349C142.641 90.715 142.648 93.4952 142.614 96.2747C142.59 98.2102 140.274 99.2655 139.278 99.6294C137.642 100.228 136.195 100.956 136.47 103.271C136.52 103.688 136.519 104.253 136.228 104.571C135.956 104.87 135.372 105.024 134.581 105.004C133.738 104.983 132.793 105.053 132.119 105.74C131.812 106.053 131.456 106.619 131.498 107.541C131.499 107.549 131.499 107.558 131.499 107.566C130.229 107.454 129.307 107.684 128.684 108.28C127.831 109.092 127.879 110.229 127.913 111.059C127.92 111.214 127.926 111.37 127.926 111.522L127.923 125.572C127.923 132.219 127.923 138.865 127.913 145.512C127.913 145.701 127.924 145.897 127.935 146.095C127.946 146.281 127.963 146.571 127.946 146.731C127.859 146.751 127.696 146.78 127.396 146.77C127.239 146.766 127.128 146.753 127.052 146.738C127.058 146.613 127.078 146.447 127.093 146.324C127.125 146.063 127.151 145.808 127.15 145.578C127.096 139.386 127.108 133.088 127.12 126.996L127.129 125.471C127.153 124.474 127.182 123.233 126.239 122.368C125.55 121.735 124.527 121.5 123.117 121.657C123.115 121.657 123.113 121.658 123.111 121.658C123.111 121.649 123.111 121.641 123.111 121.632C123.134 120.957 123.122 120.278 123.109 119.595C123.071 117.604 123.036 115.723 123.914 113.949C124.106 113.561 124.084 113.103 123.857 112.736C123.629 112.369 123.227 112.146 122.796 112.146H108.553C108.108 112.146 107.697 112.383 107.473 112.767C107.25 113.151 107.247 113.625 107.467 114.012C108.036 115.013 108.301 115.894 108.302 116.788C108.311 126.327 108.319 135.867 108.277 145.407C108.276 145.6 108.287 145.799 108.298 146.002C108.312 146.243 108.334 146.648 108.323 146.716C108.322 146.718 108.146 146.838 107.507 146.841H107.49C106.906 146.841 106.717 146.75 106.706 146.754C106.656 146.627 106.671 146.218 106.68 145.97C106.687 145.795 106.693 145.62 106.693 145.448C106.668 140.386 106.668 135.325 106.669 130.263V125.476C106.669 123.969 106.482 122.923 106.063 122.083C105.852 121.659 105.42 121.391 104.946 121.391H87.7152C87.1305 121.391 86.6406 121.793 86.5038 122.335H86.5031C86.1562 123.459 85.9991 124.421 86.0364 125.193C86.2546 129.701 86.1827 134.315 86.1138 138.778L86.0772 141.214C86.0739 141.463 86.1095 141.748 86.152 142.043C86.168 142.148 86.1892 142.293 86.201 142.417C86.1556 142.421 86.1027 142.423 86.04 142.423C85.9893 142.423 85.9289 142.421 85.8819 142.418C85.8887 142.306 85.9028 142.177 85.9139 142.076C85.9407 141.82 85.9632 141.57 85.9577 141.347C85.8851 138.171 85.8509 134.995 85.8175 131.818C85.7454 125.155 85.6719 118.265 85.2267 111.489C84.8334 105.513 85.7375 101.874 91.6248 99.7584C92.1225 99.5807 92.3355 99.191 92.438 99.0039C92.4616 98.9614 92.491 98.9062 92.5344 98.8393C92.7774 98.4663 92.8032 97.992 92.602 97.5945C92.4011 97.1971 92.0033 96.9374 91.5588 96.9116C90.9085 96.875 90.5195 96.7898 90.2987 96.7189C90.3895 96.5869 90.5401 96.4001 90.787 96.1558C91.0973 95.8472 91.224 95.399 91.1211 94.9744C91.0182 94.5489 90.6998 94.2085 90.2824 94.0775L90.025 93.991C89.8539 93.9306 89.6598 93.8616 89.4025 93.8545C88.4301 93.8247 87.4581 93.7976 86.4848 93.7793C85.7212 92.9422 84.4262 88.6306 83.7527 69.9537C83.7141 68.8997 83.6851 68.0963 83.6593 67.6419C83.6227 67.0116 83.121 66.5076 82.4906 66.4681C81.8381 66.4364 81.2995 66.8665 81.1848 67.4878C80.5479 70.943 80.2938 74.4241 80.0489 77.7905L79.9603 79.0245C79.2598 90.0249 77.3804 93.7588 76.6311 93.7728C76.1811 93.7813 75.732 93.8081 75.1627 93.8434L74.191 93.9002C73.6952 93.927 73.2624 94.2448 73.0887 94.7092C72.9149 95.1743 73.0325 95.6979 73.3892 96.0434C73.7017 96.3465 73.8732 96.5654 73.9666 96.7075C73.7396 96.8067 73.2794 96.9531 72.3923 97.069C71.8668 97.1386 71.4422 97.5318 71.3334 98.0511C71.2244 98.5698 71.4553 99.1015 71.9089 99.3759C72.4906 99.727 73.0211 100.066 73.5234 100.388C74.5803 101.065 75.5788 101.705 76.6694 102.204C78.566 103.072 79.1823 104.107 79.1115 106.305C78.8031 115.928 78.6124 125.754 78.5448 135.52V166.053H6.33008V168.55H79.7931C80.4826 168.55 81.0418 167.992 81.0418 167.302V135.528C81.1094 125.792 81.2995 115.987 81.6075 106.386C81.7094 103.204 80.5071 101.214 77.709 99.9338C76.9793 99.5996 76.2781 99.1796 75.5161 98.6978C75.9515 98.4108 76.2911 98.0286 76.4616 97.5145C76.605 97.0817 76.5903 96.6624 76.4871 96.274C76.5511 96.2721 76.6145 96.2711 76.6782 96.2698C77.7191 96.2495 80.6694 96.194 82.0458 83.9041C82.9469 93.9453 84.3115 96.2388 86.2503 96.2727C86.7526 96.2815 87.255 96.293 87.7573 96.3057C87.626 96.7698 87.6414 97.2153 87.8024 97.6403C87.9307 97.9803 88.1352 98.2537 88.3844 98.4735C82.6255 101.622 82.4207 106.876 82.7346 111.653C83.1759 118.36 83.249 125.215 83.3202 131.845C83.3545 135.031 83.3888 138.218 83.4613 141.404C83.4643 141.529 83.4457 141.669 83.4303 141.812C83.3643 142.434 83.2644 143.376 83.9271 144.128C84.3739 144.634 85.0464 144.901 85.9273 144.919C86.9427 144.914 87.6757 144.68 88.1656 144.124C88.8642 143.333 88.7192 142.339 88.6228 141.681C88.6003 141.526 88.5722 141.377 88.5742 141.248L88.6101 138.817C88.6803 134.315 88.7528 129.66 88.5307 125.072C88.5213 124.877 88.534 124.5 88.6699 123.888H104.049C104.131 124.306 104.172 124.833 104.172 125.477V130.263C104.171 135.329 104.171 140.395 104.196 145.46C104.196 145.597 104.191 145.737 104.185 145.876C104.157 146.632 104.118 147.666 104.891 148.465C105.462 149.056 106.333 149.329 107.517 149.338C108.71 149.333 109.564 149.04 110.128 148.44C110.891 147.631 110.833 146.609 110.791 145.861C110.782 145.712 110.773 145.562 110.774 145.417C110.816 135.873 110.808 126.33 110.8 116.785C110.799 116.072 110.688 115.361 110.464 114.643H121.005C120.551 116.371 120.583 118.084 120.612 119.642C120.624 120.281 120.637 120.917 120.616 121.548C120.58 122.597 121.003 123.217 121.363 123.551C121.721 123.882 122.367 124.253 123.389 124.14C124.313 124.037 124.546 124.204 124.547 124.204C124.657 124.353 124.641 125.042 124.633 125.412L124.623 126.991C124.611 133.089 124.599 139.395 124.652 145.6C124.654 145.731 124.633 145.875 124.614 146.022C124.537 146.655 124.421 147.611 125.094 148.393C125.576 148.952 126.306 149.238 127.326 149.267C128.43 149.299 129.227 149.04 129.772 148.479C130.53 147.698 130.468 146.646 130.428 145.949C130.42 145.802 130.41 145.655 130.41 145.515C130.42 138.868 130.42 132.22 130.42 125.572L130.423 111.523C130.423 111.337 130.416 111.146 130.408 110.955C130.396 110.665 130.376 110.181 130.386 110.103C130.389 110.103 130.584 109.992 131.277 110.053C132.305 110.148 132.935 109.77 133.281 109.439C133.613 109.121 133.997 108.548 133.999 107.514C134.104 107.502 134.267 107.495 134.518 107.5C136.073 107.536 137.283 107.12 138.074 106.252C138.585 105.691 139.152 104.668 138.95 102.976C138.91 102.645 138.947 102.544 138.947 102.544C138.994 102.477 139.212 102.312 140.136 101.974C142.067 101.268 143.498 100.211 144.317 98.9278C144.375 98.9905 144.438 99.0516 144.504 99.1107C145.308 99.8306 146.469 100.069 148.208 99.8501C148.239 100.438 148.366 101.131 148.906 101.626C149.263 101.953 149.739 102.113 150.241 102.085C151.845 101.987 152.227 102.32 152.288 102.387C152.514 102.638 152.365 103.52 152.257 104.164C152.171 104.671 152.082 105.197 152.088 105.702C152.203 115.455 152.208 125.375 152.214 134.969L152.223 144.451L152.222 144.899C152.22 145.368 152.218 145.836 152.243 146.304C152.248 146.392 152.248 146.482 152.249 146.573C152.252 147.199 152.263 149.103 154.626 149.243C155.549 149.296 156.239 149.091 156.736 148.615C157.441 147.935 157.422 147.025 157.41 146.421L157.407 146.184C157.42 143.074 157.427 139.966 157.435 136.857C157.446 132.115 157.457 127.374 157.488 122.632C157.49 122.358 157.468 122.066 157.444 121.772C157.418 121.453 157.374 120.917 157.404 120.813C157.407 120.811 157.642 120.67 158.486 120.757C159.166 120.834 159.759 120.35 159.85 119.683C160.028 118.366 160.549 118.219 162.698 118.164C163.348 118.147 164.02 118.13 164.677 118.011C165.537 117.854 166.914 117.232 166.481 114.822C166.39 114.318 166.444 114.089 166.469 114.05C166.669 113.84 167.843 113.809 168.556 113.79C168.607 113.789 168.655 113.788 168.701 113.788C169.247 113.788 169.452 113.898 169.444 113.871C169.499 113.982 169.519 114.361 169.531 114.613C169.546 114.892 169.562 115.18 169.604 115.463C169.641 115.723 169.588 116.105 169.532 116.511C169.373 117.664 169.055 119.98 171.881 120.94C171.903 121.184 171.92 121.561 171.923 122.148C171.931 124.469 171.93 126.792 171.927 129.114C171.924 133.48 171.92 137.994 171.992 142.438C171.996 142.628 171.95 142.847 171.911 143.076C171.777 143.86 171.575 145.043 172.364 145.96C172.94 146.63 173.868 146.958 175.177 146.919C176.403 146.894 177.258 146.564 177.788 145.908C178.523 145.001 178.306 143.879 178.162 143.135C178.122 142.928 178.073 142.731 178.074 142.559C178.159 124.304 178.173 105.746 178.187 87.7984L178.192 82.3236C178.192 82.1296 178.187 81.9333 178.181 81.7377C178.18 81.6897 178.179 81.6407 178.178 81.5927H179.839C180.288 81.5927 180.702 81.3519 180.924 80.9623L184.921 73.9492V68.9069Z" fill="white"/>
<path d="M15.1395 187.521V203.862H34.3642V211.312H15.1395V228.374H36.7673V235.823H6.00772V180.071H36.7673V187.521H15.1395ZM44.9709 213.554C44.9709 209.122 45.8788 205.197 47.6944 201.779C49.5635 198.362 52.0734 195.718 55.2241 193.849C58.4282 191.927 61.9528 190.965 65.7977 190.965C69.2688 190.965 72.286 191.66 74.8493 193.048C77.466 194.383 79.5487 196.065 81.0974 198.095V191.686H90.3092V235.823H81.0974V229.255C79.5487 231.337 77.4393 233.073 74.7692 234.461C72.0991 235.85 69.0552 236.544 65.6375 236.544C61.846 236.544 58.3748 235.583 55.2241 233.66C52.0734 231.684 49.5635 228.961 47.6944 225.49C45.8788 221.965 44.9709 217.987 44.9709 213.554ZM81.0974 213.715C81.0974 210.671 80.4565 208.027 79.1749 205.785C77.9467 203.542 76.3179 201.833 74.2886 200.658C72.2593 199.483 70.0699 198.896 67.7202 198.896C65.3705 198.896 63.181 199.483 61.1517 200.658C59.1225 201.779 57.467 203.462 56.1853 205.704C54.9571 207.894 54.343 210.511 54.343 213.554C54.343 216.598 54.9571 219.269 56.1853 221.565C57.467 223.861 59.1225 225.623 61.1517 226.852C63.2344 228.026 65.4239 228.614 67.7202 228.614C70.0699 228.614 72.2593 228.026 74.2886 226.852C76.3179 225.677 77.9467 223.968 79.1749 221.725C80.4565 219.429 81.0974 216.759 81.0974 213.715ZM118.324 236.544C114.853 236.544 111.729 235.93 108.952 234.702C106.228 233.42 104.066 231.711 102.464 229.575C100.862 227.386 100.007 224.956 99.9003 222.286H109.352C109.513 224.155 110.394 225.73 111.996 227.012C113.651 228.24 115.707 228.854 118.164 228.854C120.727 228.854 122.703 228.374 124.091 227.412C125.533 226.398 126.254 225.116 126.254 223.567C126.254 221.912 125.453 220.684 123.851 219.883C122.302 219.082 119.819 218.2 116.402 217.239C113.091 216.331 110.394 215.45 108.311 214.596C106.228 213.741 104.413 212.433 102.864 210.671C101.369 208.909 100.621 206.586 100.621 203.702C100.621 201.352 101.315 199.216 102.704 197.294C104.092 195.318 106.068 193.769 108.632 192.648C111.248 191.526 114.239 190.965 117.603 190.965C122.623 190.965 126.655 192.247 129.699 194.81C132.796 197.32 134.451 200.765 134.665 205.144H125.533C125.373 203.168 124.572 201.592 123.13 200.418C121.688 199.243 119.739 198.655 117.283 198.655C114.88 198.655 113.037 199.109 111.756 200.017C110.474 200.925 109.833 202.126 109.833 203.622C109.833 204.797 110.26 205.785 111.115 206.586C111.969 207.387 113.01 208.027 114.239 208.508C115.467 208.935 117.283 209.496 119.686 210.19C122.89 211.045 125.507 211.926 127.536 212.834C129.618 213.688 131.407 214.97 132.903 216.679C134.398 218.387 135.172 220.657 135.226 223.487C135.226 225.997 134.531 228.24 133.143 230.216C131.755 232.192 129.779 233.74 127.215 234.862C124.706 235.983 121.742 236.544 118.324 236.544ZM184.824 191.686L157.749 256.57H148.297L157.268 235.102L139.886 191.686H150.059L162.475 225.33L175.372 191.686H184.824ZM231.687 191.686V235.823H222.555V230.616C221.113 232.432 219.217 233.874 216.868 234.942C214.571 235.957 212.115 236.464 209.498 236.464C206.027 236.464 202.903 235.743 200.126 234.301C197.402 232.859 195.24 230.723 193.638 227.893C192.089 225.063 191.315 221.645 191.315 217.64V191.686H200.366V216.278C200.366 220.23 201.354 223.274 203.33 225.41C205.306 227.492 208.003 228.534 211.421 228.534C214.838 228.534 217.535 227.492 219.511 225.41C221.54 223.274 222.555 220.23 222.555 216.278V191.686H231.687ZM297.164 190.965C300.635 190.965 303.732 191.686 306.456 193.128C309.233 194.57 311.395 196.706 312.944 199.536C314.546 202.367 315.347 205.785 315.347 209.79V235.823H306.296V211.151C306.296 207.2 305.308 204.182 303.332 202.1C301.356 199.964 298.659 198.896 295.241 198.896C291.824 198.896 289.1 199.964 287.071 202.1C285.095 204.182 284.107 207.2 284.107 211.151V235.823H275.055V211.151C275.055 207.2 274.067 204.182 272.092 202.1C270.116 199.964 267.419 198.896 264.001 198.896C260.583 198.896 257.86 199.964 255.831 202.1C253.855 204.182 252.867 207.2 252.867 211.151V235.823H243.735V191.686H252.867V196.733C254.362 194.917 256.258 193.502 258.554 192.487C260.851 191.473 263.307 190.965 265.924 190.965C269.448 190.965 272.599 191.713 275.376 193.208C278.153 194.704 280.289 196.866 281.784 199.697C283.119 197.027 285.202 194.917 288.032 193.369C290.862 191.766 293.906 190.965 297.164 190.965ZM335.058 228.374H355.083V235.823H324.484V228.374L344.59 199.136H324.484V191.686H355.083V199.136L335.058 228.374ZM404.643 191.686V235.823H395.512V230.616C394.07 232.432 392.174 233.874 389.824 234.942C387.528 235.957 385.071 236.464 382.455 236.464C378.984 236.464 375.86 235.743 373.083 234.301C370.359 232.859 368.196 230.723 366.594 227.893C365.046 225.063 364.271 221.645 364.271 217.64V191.686H373.323V216.278C373.323 220.23 374.311 223.274 376.287 225.41C378.263 227.492 380.959 228.534 384.377 228.534C387.795 228.534 390.492 227.492 392.468 225.41C394.497 223.274 395.512 220.23 395.512 216.278V191.686H404.643ZM434.475 190.965C437.892 190.965 440.91 191.66 443.526 193.048C446.196 194.383 448.279 196.065 449.774 198.095V191.686H458.986V236.544C458.986 240.603 458.132 244.207 456.423 247.358C454.714 250.562 452.231 253.072 448.973 254.888C445.769 256.703 441.924 257.611 437.439 257.611C431.458 257.611 426.491 256.196 422.539 253.366C418.588 250.589 416.345 246.797 415.811 241.991H424.862C425.557 244.287 427.025 246.13 429.268 247.518C431.564 248.96 434.288 249.681 437.439 249.681C441.123 249.681 444.087 248.559 446.33 246.317C448.626 244.074 449.774 240.816 449.774 236.544V229.175C448.226 231.257 446.116 233.02 443.446 234.461C440.83 235.85 437.839 236.544 434.475 236.544C430.63 236.544 427.105 235.583 423.901 233.66C420.75 231.684 418.241 228.961 416.371 225.49C414.556 221.965 413.648 217.987 413.648 213.554C413.648 209.122 414.556 205.197 416.371 201.779C418.241 198.362 420.75 195.718 423.901 193.849C427.105 191.927 430.63 190.965 434.475 190.965ZM449.774 213.715C449.774 210.671 449.134 208.027 447.852 205.785C446.624 203.542 444.995 201.833 442.966 200.658C440.936 199.483 438.747 198.896 436.397 198.896C434.048 198.896 431.858 199.483 429.829 200.658C427.799 201.779 426.144 203.462 424.862 205.704C423.634 207.894 423.02 210.511 423.02 213.554C423.02 216.598 423.634 219.269 424.862 221.565C426.144 223.861 427.799 225.623 429.829 226.852C431.911 228.026 434.101 228.614 436.397 228.614C438.747 228.614 440.936 228.026 442.966 226.852C444.995 225.677 446.624 223.968 447.852 221.725C449.134 219.429 449.774 216.759 449.774 213.715Z" fill="white"/>
<path d="M182.042 248.904V260.723C182.042 262.018 182.379 263.012 183.054 263.705C183.729 264.38 184.678 264.717 185.9 264.717C187.14 264.717 188.097 264.38 188.772 263.705C189.447 263.012 189.784 262.018 189.784 260.723V248.904H193.642V260.696C193.642 262.319 193.286 263.696 192.575 264.827C191.882 265.939 190.943 266.778 189.757 267.344C188.59 267.909 187.286 268.192 185.845 268.192C184.422 268.192 183.127 267.909 181.96 267.344C180.811 266.778 179.899 265.939 179.224 264.827C178.549 263.696 178.212 262.319 178.212 260.696V248.904H182.042ZM216.165 252.625C218.025 252.625 219.521 253.2 220.652 254.349C221.801 255.479 222.375 257.066 222.375 259.109V268H218.545V259.629C218.545 258.443 218.244 257.54 217.642 256.92C217.04 256.282 216.22 255.963 215.18 255.963C214.141 255.963 213.311 256.282 212.691 256.92C212.089 257.54 211.788 258.443 211.788 259.629V268H207.958V259.629C207.958 258.443 207.657 257.54 207.055 256.92C206.453 256.282 205.632 255.963 204.593 255.963C203.535 255.963 202.696 256.282 202.076 256.92C201.474 257.54 201.173 258.443 201.173 259.629V268H197.343V252.844H201.173V254.677C201.665 254.038 202.294 253.537 203.06 253.172C203.845 252.807 204.702 252.625 205.632 252.625C206.818 252.625 207.875 252.88 208.806 253.391C209.736 253.883 210.456 254.595 210.967 255.525C211.459 254.649 212.171 253.947 213.101 253.418C214.049 252.889 215.071 252.625 216.165 252.625ZM229.512 264.854H236.269V268H225.162V264.909L231.783 255.99H225.189V252.844H236.187V255.935L229.512 264.854ZM253.543 252.844V268H249.686V266.085C249.193 266.742 248.546 267.262 247.743 267.645C246.959 268.009 246.102 268.192 245.172 268.192C243.986 268.192 242.937 267.946 242.025 267.453C241.113 266.942 240.393 266.204 239.864 265.237C239.353 264.252 239.098 263.085 239.098 261.735V252.844H242.928V261.188C242.928 262.392 243.229 263.322 243.831 263.979C244.433 264.617 245.254 264.936 246.293 264.936C247.351 264.936 248.181 264.617 248.783 263.979C249.385 263.322 249.686 262.392 249.686 261.188V252.844H253.543ZM243.858 251.038C243.348 251.038 242.919 250.865 242.573 250.518C242.226 250.172 242.053 249.743 242.053 249.233C242.053 248.722 242.226 248.293 242.573 247.947C242.919 247.582 243.348 247.4 243.858 247.4C244.369 247.4 244.798 247.582 245.144 247.947C245.509 248.293 245.691 248.722 245.691 249.233C245.691 249.743 245.509 250.172 245.144 250.518C244.798 250.865 244.369 251.038 243.858 251.038ZM248.92 251.038C248.409 251.038 247.98 250.865 247.634 250.518C247.287 250.172 247.114 249.743 247.114 249.233C247.114 248.722 247.287 248.293 247.634 247.947C247.98 247.582 248.409 247.4 248.92 247.4C249.43 247.4 249.859 247.582 250.205 247.947C250.57 248.293 250.753 248.722 250.753 249.233C250.753 249.743 250.57 250.172 250.205 250.518C249.859 250.865 249.43 251.038 248.92 251.038ZM263.259 252.598C264.39 252.598 265.384 252.826 266.241 253.282C267.098 253.719 267.773 254.294 268.266 255.005V252.844H272.123V268.11C272.123 269.514 271.84 270.763 271.275 271.858C270.71 272.97 269.861 273.846 268.731 274.484C267.6 275.141 266.232 275.469 264.627 275.469C262.475 275.469 260.706 274.968 259.319 273.964C257.952 272.961 257.176 271.593 256.994 269.861H260.797C260.997 270.554 261.426 271.101 262.083 271.502C262.757 271.922 263.569 272.131 264.517 272.131C265.63 272.131 266.533 271.794 267.226 271.119C267.919 270.463 268.266 269.459 268.266 268.11V265.757C267.773 266.468 267.089 267.061 266.214 267.535C265.356 268.009 264.372 268.247 263.259 268.247C261.982 268.247 260.815 267.918 259.757 267.262C258.699 266.605 257.86 265.684 257.24 264.498C256.638 263.295 256.337 261.918 256.337 260.367C256.337 258.835 256.638 257.477 257.24 256.291C257.86 255.105 258.69 254.194 259.73 253.555C260.788 252.917 261.964 252.598 263.259 252.598ZM268.266 260.422C268.266 259.492 268.083 258.699 267.718 258.042C267.354 257.367 266.861 256.856 266.241 256.51C265.621 256.145 264.955 255.963 264.244 255.963C263.533 255.963 262.876 256.136 262.274 256.482C261.672 256.829 261.18 257.34 260.797 258.015C260.432 258.671 260.25 259.455 260.25 260.367C260.25 261.279 260.432 262.082 260.797 262.775C261.18 263.45 261.672 263.97 262.274 264.334C262.894 264.699 263.551 264.881 264.244 264.881C264.955 264.881 265.621 264.708 266.241 264.362C266.861 263.997 267.354 263.486 267.718 262.83C268.083 262.155 268.266 261.352 268.266 260.422ZM289.953 260.094C289.953 260.641 289.917 261.133 289.844 261.571H278.764C278.855 262.665 279.238 263.523 279.913 264.143C280.588 264.763 281.418 265.073 282.402 265.073C283.825 265.073 284.837 264.462 285.439 263.24H289.57C289.133 264.699 288.294 265.903 287.053 266.851C285.813 267.781 284.29 268.247 282.485 268.247C281.025 268.247 279.712 267.927 278.545 267.289C277.396 266.632 276.493 265.711 275.837 264.526C275.198 263.34 274.879 261.972 274.879 260.422C274.879 258.854 275.198 257.477 275.837 256.291C276.475 255.105 277.369 254.194 278.518 253.555C279.667 252.917 280.989 252.598 282.485 252.598C283.925 252.598 285.211 252.908 286.342 253.528C287.491 254.148 288.376 255.033 288.996 256.182C289.634 257.312 289.953 258.616 289.953 260.094ZM285.986 258.999C285.968 258.015 285.613 257.23 284.919 256.647C284.226 256.045 283.378 255.744 282.375 255.744C281.427 255.744 280.624 256.036 279.968 256.619C279.329 257.185 278.937 257.978 278.791 258.999H285.986ZM294.445 268.192C293.752 268.192 293.178 267.982 292.722 267.563C292.284 267.125 292.065 266.587 292.065 265.948C292.065 265.31 292.284 264.781 292.722 264.362C293.178 263.924 293.752 263.705 294.445 263.705C295.12 263.705 295.676 263.924 296.114 264.362C296.552 264.781 296.771 265.31 296.771 265.948C296.771 266.587 296.552 267.125 296.114 267.563C295.676 267.982 295.12 268.192 294.445 268.192ZM310.205 264.964H316.497V268H306.375V248.904H310.205V264.964ZM325.662 268.247C324.203 268.247 322.89 267.927 321.722 267.289C320.555 266.632 319.634 265.711 318.959 264.526C318.302 263.34 317.974 261.972 317.974 260.422C317.974 258.872 318.312 257.504 318.986 256.318C319.68 255.133 320.619 254.221 321.804 253.583C322.99 252.926 324.312 252.598 325.771 252.598C327.23 252.598 328.553 252.926 329.738 253.583C330.924 254.221 331.854 255.133 332.529 256.318C333.222 257.504 333.568 258.872 333.568 260.422C333.568 261.972 333.213 263.34 332.501 264.526C331.808 265.711 330.86 266.632 329.656 267.289C328.471 267.927 327.139 268.247 325.662 268.247ZM325.662 264.909C326.355 264.909 327.002 264.745 327.604 264.416C328.224 264.07 328.717 263.559 329.082 262.884C329.446 262.209 329.629 261.389 329.629 260.422C329.629 258.981 329.246 257.878 328.48 257.112C327.732 256.327 326.811 255.935 325.717 255.935C324.622 255.935 323.701 256.327 322.953 257.112C322.224 257.878 321.859 258.981 321.859 260.422C321.859 261.863 322.215 262.976 322.926 263.76C323.656 264.526 324.568 264.909 325.662 264.909ZM342.315 252.598C343.445 252.598 344.439 252.826 345.297 253.282C346.154 253.719 346.829 254.294 347.321 255.005V252.844H351.179V268.11C351.179 269.514 350.896 270.763 350.331 271.858C349.765 272.97 348.917 273.846 347.786 274.484C346.655 275.141 345.288 275.469 343.683 275.469C341.53 275.469 339.761 274.968 338.375 273.964C337.007 272.961 336.232 271.593 336.05 269.861H339.852C340.053 270.554 340.482 271.101 341.138 271.502C341.813 271.922 342.625 272.131 343.573 272.131C344.686 272.131 345.589 271.794 346.282 271.119C346.975 270.463 347.321 269.459 347.321 268.11V265.757C346.829 266.468 346.145 267.061 345.269 267.535C344.412 268.009 343.427 268.247 342.315 268.247C341.038 268.247 339.871 267.918 338.813 267.262C337.755 266.605 336.916 265.684 336.296 264.498C335.694 263.295 335.393 261.918 335.393 260.367C335.393 258.835 335.694 257.477 336.296 256.291C336.916 255.105 337.746 254.194 338.785 253.555C339.843 252.917 341.02 252.598 342.315 252.598ZM347.321 260.422C347.321 259.492 347.139 258.699 346.774 258.042C346.409 257.367 345.917 256.856 345.297 256.51C344.677 256.145 344.011 255.963 343.3 255.963C342.588 255.963 341.932 256.136 341.33 256.482C340.728 256.829 340.235 257.34 339.852 258.015C339.488 258.671 339.305 259.455 339.305 260.367C339.305 261.279 339.488 262.082 339.852 262.775C340.235 263.45 340.728 263.97 341.33 264.334C341.95 264.699 342.606 264.881 343.3 264.881C344.011 264.881 344.677 264.708 345.297 264.362C345.917 263.997 346.409 263.486 346.774 262.83C347.139 262.155 347.321 261.352 347.321 260.422ZM356.862 251.038C356.187 251.038 355.622 250.828 355.166 250.409C354.728 249.971 354.509 249.433 354.509 248.795C354.509 248.156 354.728 247.628 355.166 247.208C355.622 246.77 356.187 246.551 356.862 246.551C357.537 246.551 358.093 246.77 358.531 247.208C358.987 247.628 359.215 248.156 359.215 248.795C359.215 249.433 358.987 249.971 358.531 250.409C358.093 250.828 357.537 251.038 356.862 251.038ZM358.75 252.844V268H354.92V252.844H358.75ZM368.334 268.247C367.094 268.247 365.981 268.028 364.996 267.59C364.011 267.134 363.227 266.523 362.643 265.757C362.078 264.991 361.768 264.143 361.713 263.213H365.571C365.644 263.796 365.926 264.28 366.419 264.663C366.929 265.046 367.559 265.237 368.306 265.237C369.036 265.237 369.601 265.091 370.003 264.799C370.422 264.508 370.632 264.134 370.632 263.678C370.632 263.185 370.377 262.82 369.866 262.583C369.373 262.328 368.58 262.054 367.486 261.763C366.355 261.489 365.425 261.206 364.695 260.915C363.984 260.623 363.364 260.176 362.835 259.574C362.324 258.972 362.069 258.16 362.069 257.139C362.069 256.3 362.306 255.534 362.78 254.841C363.273 254.148 363.966 253.601 364.859 253.2C365.771 252.798 366.838 252.598 368.06 252.598C369.866 252.598 371.307 253.054 372.383 253.966C373.459 254.859 374.052 256.072 374.161 257.604H370.495C370.44 257.002 370.185 256.528 369.729 256.182C369.291 255.817 368.699 255.634 367.951 255.634C367.258 255.634 366.72 255.762 366.337 256.017C365.972 256.273 365.79 256.628 365.79 257.084C365.79 257.595 366.045 257.987 366.556 258.261C367.066 258.516 367.86 258.781 368.936 259.054C370.03 259.328 370.933 259.61 371.644 259.902C372.355 260.194 372.966 260.65 373.477 261.27C374.006 261.872 374.28 262.675 374.298 263.678C374.298 264.553 374.052 265.337 373.559 266.031C373.085 266.724 372.392 267.271 371.48 267.672C370.586 268.055 369.538 268.247 368.334 268.247ZM381.901 255.99V263.322C381.901 263.833 382.02 264.207 382.257 264.444C382.512 264.663 382.932 264.772 383.516 264.772H385.294V268H382.886C379.658 268 378.044 266.432 378.044 263.295V255.99H376.238V252.844H378.044V249.096H381.901V252.844H385.294V255.99H381.901ZM389.991 251.038C389.316 251.038 388.751 250.828 388.295 250.409C387.857 249.971 387.638 249.433 387.638 248.795C387.638 248.156 387.857 247.628 388.295 247.208C388.751 246.77 389.316 246.551 389.991 246.551C390.666 246.551 391.222 246.77 391.66 247.208C392.116 247.628 392.344 248.156 392.344 248.795C392.344 249.433 392.116 249.971 391.66 250.409C391.222 250.828 390.666 251.038 389.991 251.038ZM391.879 252.844V268H388.049V252.844H391.879ZM404.636 268L399.493 261.544V268H395.663V247.755H399.493V259.273L404.582 252.844H409.561L402.886 260.449L409.616 268H404.636ZM413.336 268.192C412.643 268.192 412.068 267.982 411.612 267.563C411.175 267.125 410.956 266.587 410.956 265.948C410.956 265.31 411.175 264.781 411.612 264.362C412.068 263.924 412.643 263.705 413.336 263.705C414.011 263.705 414.567 263.924 415.005 264.362C415.443 264.781 415.661 265.31 415.661 265.948C415.661 266.587 415.443 267.125 415.005 267.563C414.567 267.982 414.011 268.192 413.336 268.192Z" fill="white"/>
</svg>
