<svg width="720" height="367" viewBox="0 0 720 367" fill="none" xmlns="http://www.w3.org/2000/svg">
<path d="M416.691 178.006C416.691 177.885 416.694 177.753 416.697 177.648C416.705 177.329 416.71 177.012 416.689 176.714C416.646 176.125 416.66 175.536 416.671 174.948L416.695 167.391C416.706 161.594 416.717 155.797 416.755 149.999C416.806 158.732 416.773 167.435 416.726 176.897C416.725 177.161 416.747 177.45 416.774 177.746C416.78 177.823 416.788 177.916 416.795 178.008C416.758 178.01 416.722 178.006 416.691 178.006ZM598.786 211.462V161.705C598.786 161.172 598.567 160.662 598.178 160.298C597.791 159.933 597.268 159.737 596.736 159.777C596.144 159.812 595.55 159.84 594.955 159.867C593.606 159.928 592.211 159.992 590.82 160.16C588.516 160.438 587.806 160.025 587.609 159.835C587.272 159.507 587.143 158.671 587.247 157.478C587.451 155.131 587.398 152.782 587.345 150.511C587.317 149.285 587.288 148.058 587.301 146.834C587.307 146.318 587.105 145.821 586.743 145.454C586.379 145.088 585.885 144.882 585.369 144.882H558.23C557.7 144.882 557.192 145.099 556.828 145.484C556.463 145.869 556.273 146.387 556.301 146.917L556.311 147.119L556.295 150.595C556.266 157.178 556.235 163.984 556.323 170.684C556.336 171.612 556.195 171.825 556.195 171.825C556.195 171.825 555.906 172.084 554.702 172.038C553.539 172.031 553.258 171.81 553.258 171.81C553.251 171.801 553.108 171.589 553.142 170.621C553.204 168.855 553.188 167.085 553.173 165.316C553.155 163.424 553.136 161.466 553.225 159.573C553.287 158.257 553.206 156.59 552.016 155.369C550.74 154.062 548.823 153.954 547.492 153.978C539.045 154.157 530.642 154.177 522.521 154.039C521.05 154.029 519.186 154.152 517.932 155.442C517.72 155.661 517.545 155.895 517.398 156.138C517.384 150.851 517.391 145.478 517.49 140.178C517.506 139.271 517.47 138.552 517.375 137.915C517.235 136.968 516.422 136.267 515.464 136.267H486.918C485.854 136.267 484.991 137.125 484.986 138.189C484.984 138.575 485.005 138.976 485.028 139.377C485.046 139.691 485.065 140.006 485.064 140.31C485.022 152.924 485.008 165.538 484.996 178.154V178.357C484.997 178.64 484.998 179.04 484.966 179.269C484.852 179.297 484.648 179.329 484.315 179.333H484.255C483.772 179.333 483.539 179.288 483.507 179.286C483.479 179.197 483.43 178.951 483.435 178.331C483.442 177.319 483.409 176.308 483.375 175.295C483.319 173.674 483.267 172.142 483.388 170.634C483.518 169.045 482.39 167.293 480.217 164.078C478.542 161.6 476.249 158.206 476.274 156.536C476.28 156.15 476.315 155.764 476.35 155.378C476.41 154.705 476.478 153.943 476.421 153.154C476.394 152.778 476.376 152.392 476.357 152.003C476.225 149.272 476.062 145.875 473.025 143.732C470.938 142.259 470.813 141.559 471.45 139.746C472.599 136.468 471.308 133.377 467.997 131.477C465.113 129.82 462.916 131.076 461.3 132C459.595 132.971 457.009 135.309 458.835 140.057C459.269 141.184 459.382 141.727 459.383 141.989C453.072 145.582 453.481 150.913 453.844 155.622L453.859 155.823C454.244 160.84 451.961 163.767 449.978 165.34C447.151 167.578 447.368 170.302 447.527 172.289C447.565 172.765 447.607 173.238 447.595 173.706C447.508 177.059 447.52 180.456 447.533 183.741C447.542 186.248 447.55 188.756 447.517 191.264C447.512 191.652 447.542 192.062 447.574 192.473C447.604 192.862 447.655 193.514 447.672 193.596C447.672 193.596 447.362 193.784 446.275 193.745C445.698 193.722 445.387 193.645 445.239 193.594C445.237 193.356 445.3 192.947 445.34 192.682C445.414 192.196 445.477 191.718 445.474 191.29C445.417 182.418 445.413 173.544 445.41 164.67C445.408 158.01 445.405 151.35 445.379 144.689C445.377 144.204 445.375 143.728 445.35 143.255C445.299 142.226 444.45 141.421 443.421 141.421H418.679C417.661 141.421 416.818 142.21 416.751 143.224C416.72 143.683 416.706 144.15 416.711 144.625C416.718 145.293 416.724 145.959 416.73 146.625C416.652 146.272 416.474 145.945 416.216 145.684C415.854 145.318 415.359 145.113 414.844 145.113H401.196H385.485C384.621 145.113 383.921 145.813 383.921 146.676V193.745L365.821 193.594V197.605H386.267C387.13 197.605 387.83 196.905 387.83 196.041V148.977H412.897C412.854 155.113 412.843 161.248 412.831 167.384L412.807 174.876C412.794 175.581 412.784 176.289 412.835 176.991C412.848 177.169 412.84 177.357 412.835 177.546C412.811 178.418 412.776 179.734 413.769 180.771C414.447 181.48 415.434 181.85 416.703 181.872C418.03 181.865 419.101 181.523 419.801 180.773C420.822 179.676 420.698 178.257 420.623 177.408C420.608 177.236 420.59 177.069 420.591 176.916C420.645 165.752 420.682 155.643 420.582 145.285H441.517C441.54 151.748 441.543 158.209 441.546 164.672C441.549 173.553 441.553 182.435 441.611 191.315C441.612 191.556 441.561 191.824 441.52 192.099C441.358 193.154 441.116 194.747 442.201 196.06C443.005 197.031 444.29 197.537 446.13 197.605C448.103 197.682 449.513 197.252 450.426 196.301C451.65 195.026 451.52 193.375 451.426 192.171C451.403 191.879 451.378 191.59 451.382 191.316C451.415 188.786 451.407 186.255 451.396 183.727C451.384 180.469 451.372 177.1 451.457 173.806C451.473 173.204 451.428 172.595 451.379 171.982C451.232 170.142 451.216 169.289 452.378 168.368C456.22 165.323 458.114 160.762 457.712 155.527L457.697 155.325C457.32 150.439 457.307 147.564 461.405 145.285C464.355 143.645 462.965 140.031 462.441 138.67C461.604 136.494 462.329 135.862 463.213 135.358L463.382 135.261C464.749 134.479 465.143 134.295 466.074 134.828C467.757 135.794 468.322 136.985 467.804 138.466C466.542 142.058 467.41 144.498 470.797 146.889C472.192 147.874 472.37 149.548 472.498 152.188C472.517 152.608 472.538 153.023 472.566 153.431C472.601 153.911 472.552 154.457 472.501 155.035C472.459 155.516 472.417 155.996 472.41 156.476C472.366 159.361 474.729 162.859 477.015 166.242C478.031 167.746 479.425 169.808 479.537 170.323C479.398 172.053 479.456 173.768 479.512 175.427C479.545 176.385 479.578 177.344 479.57 178.301C479.564 179.114 479.551 180.806 480.745 181.997C481.57 182.822 482.759 183.178 484.356 183.197C488.871 183.146 488.863 179.661 488.86 178.157C488.873 165.545 488.886 152.933 488.928 140.324C488.928 140.261 488.928 140.196 488.927 140.131H513.625C513.497 147.039 513.524 154.053 513.551 160.837C513.561 163.476 513.571 166.114 513.573 168.751L513.57 169.375C513.565 170.131 513.562 170.887 513.61 171.64L513.621 171.919C513.687 174.199 514.725 175.436 516.704 175.599C517.863 175.689 518.804 175.412 519.506 174.772C520.589 173.782 520.604 172.368 520.614 171.487L520.651 168.885C520.7 165.777 520.75 162.563 520.597 159.379C520.55 158.371 520.705 158.134 520.705 158.134C520.708 158.13 520.999 157.851 522.455 157.903C530.628 158.04 539.079 158.023 547.575 157.842C548.93 157.809 549.247 158.065 549.247 158.065C549.253 158.074 549.417 158.302 549.365 159.391C549.272 161.394 549.29 163.406 549.308 165.352C549.324 167.063 549.34 168.775 549.28 170.485C549.237 171.725 549.332 173.299 550.466 174.482C551.675 175.74 553.45 175.895 554.68 175.902C555.944 175.923 557.72 175.776 558.936 174.548C560.076 173.398 560.204 171.853 560.188 170.632C560.099 163.967 560.13 157.178 560.16 150.614L560.168 148.746H583.445C583.453 149.364 583.467 149.983 583.481 150.6C583.534 152.866 583.583 155.008 583.398 157.142C583.181 159.62 583.68 161.409 584.922 162.611C586.693 164.325 589.398 164.225 591.281 163.996C592.466 163.854 593.662 163.795 594.922 163.737V213.395C594.922 214.462 595.788 215.327 596.855 215.327H710.391V211.462H598.786Z" fill="#11366A"/>
<path d="M286.204 61.12L277.218 76.888H273.943C273.031 76.888 272.245 77.5249 272.053 78.415C271.863 79.3051 271.887 80.2089 271.912 81.0813C271.918 81.3482 271.926 81.6151 271.926 81.8795L271.919 90.3536C271.898 118.124 271.875 146.841 271.744 175.085C271.741 175.651 271.848 176.198 271.951 176.729C272.014 177.057 272.113 177.57 272.11 177.847C271.961 177.899 271.644 177.974 271.049 177.985C270.995 177.987 270.942 177.987 270.892 177.987C270.11 177.987 269.797 177.872 269.745 177.894C269.695 177.636 269.809 176.962 269.88 176.551C269.973 176.001 270.07 175.43 270.061 174.851C269.949 168.008 269.954 161.038 269.96 154.298C269.964 150.699 269.966 147.1 269.953 143.499C269.943 141.104 269.933 138.626 267.912 138.166C265.889 137.707 265.939 137.341 266.217 135.318C266.33 134.494 266.459 133.559 266.324 132.617C266.278 132.297 266.263 131.972 266.248 131.656C266.163 130.009 265.972 126.575 260.761 126.718C258.332 126.781 256.038 126.841 254.654 128.541C253.79 129.6 253.532 131.014 253.865 132.872C253.887 132.998 253.921 133.184 253.942 133.349C253.274 133.447 252.514 133.466 251.714 133.486C249.27 133.55 245.369 133.65 243.982 137.474C242.671 137.56 241.667 137.955 240.938 138.669C239.566 140.014 239.718 141.882 239.829 143.247C239.857 143.587 239.887 143.923 239.885 144.239C239.838 151.583 239.82 158.926 239.803 166.27C239.792 171.08 239.78 175.887 239.761 180.697L239.766 181.159C239.769 181.289 239.772 181.45 239.77 181.595C239.701 181.601 239.633 181.593 239.548 181.589C239.535 181.587 239.522 181.587 239.508 181.585C239.507 181.485 239.506 181.38 239.506 181.291C239.504 181.09 239.502 180.887 239.491 180.693C239.457 180.044 239.461 179.393 239.465 178.742L239.466 178.023L239.452 163.353C239.443 148.496 239.435 133.133 239.257 118.019C239.251 117.582 239.355 116.972 239.463 116.326C239.763 114.553 240.174 112.126 238.576 110.35C237.49 109.14 235.74 108.513 233.24 108.576C233.193 107.464 232.759 106.507 232.008 105.877C231.47 105.424 230.523 104.927 229.071 105.143C226.896 105.463 226.323 105.065 226.231 104.981C225.856 104.647 225.905 103.24 225.941 102.212C225.955 101.826 225.969 101.438 225.97 101.058C225.982 97.3219 225.979 93.5855 225.976 89.8496L225.974 85.1003C225.974 84.5817 225.766 84.0843 225.396 83.7209C225.025 83.358 224.479 83.174 224.006 83.1684L222.649 83.1937C221.596 83.2134 220.752 84.0732 220.752 85.1261L220.762 90.5674C220.773 94.8699 220.784 99.1724 220.731 103.474C220.694 106.469 217.109 108.102 215.568 108.666C213.036 109.592 210.797 110.719 211.223 114.301C211.3 114.947 211.298 115.82 210.849 116.313C210.427 116.776 209.523 117.015 208.3 116.984C206.995 116.951 205.532 117.059 204.488 118.122C204.014 118.607 203.463 119.483 203.528 120.909C203.529 120.923 203.529 120.936 203.53 120.948C201.564 120.774 200.137 121.131 199.173 122.053C197.853 123.31 197.927 125.069 197.98 126.353C197.99 126.594 198 126.835 198 127.07L197.996 148.815C197.995 159.101 197.995 169.386 197.981 179.672C197.98 179.965 197.997 180.269 198.014 180.574C198.032 180.863 198.057 181.312 198.031 181.559C197.897 181.591 197.643 181.634 197.179 181.62C196.937 181.614 196.764 181.593 196.648 181.57C196.657 181.376 196.688 181.119 196.711 180.929C196.76 180.525 196.801 180.131 196.799 179.774C196.715 170.193 196.735 160.445 196.752 151.017L196.766 148.658C196.803 147.114 196.848 145.193 195.389 143.855C194.323 142.876 192.74 142.512 190.558 142.756C190.555 142.756 190.551 142.757 190.548 142.757C190.548 142.743 190.548 142.73 190.549 142.716C190.584 141.672 190.565 140.621 190.545 139.564C190.487 136.483 190.432 133.572 191.792 130.826C192.089 130.227 192.055 129.517 191.702 128.949C191.35 128.381 190.729 128.036 190.06 128.036H168.018C167.33 128.036 166.694 128.402 166.348 128.997C166.002 129.592 165.998 130.325 166.338 130.923C167.219 132.472 167.629 133.837 167.631 135.22C167.644 149.982 167.657 164.746 167.591 179.51C167.59 179.808 167.607 180.118 167.623 180.431C167.646 180.804 167.68 181.431 167.662 181.536C167.661 181.538 167.389 181.725 166.401 181.729H166.374C165.47 181.729 165.177 181.589 165.16 181.595C165.083 181.399 165.107 180.765 165.121 180.382C165.131 180.11 165.14 179.84 165.139 179.574C165.101 171.74 165.102 163.907 165.103 156.073V148.666C165.103 146.334 164.814 144.714 164.166 143.414C163.839 142.758 163.17 142.343 162.437 142.343H135.77C134.866 142.343 134.107 142.965 133.896 143.804H133.895C133.358 145.543 133.115 147.032 133.172 148.228C133.51 155.204 133.399 162.345 133.292 169.251L133.236 173.021C133.231 173.406 133.286 173.848 133.351 174.304C133.376 174.466 133.409 174.691 133.427 174.883C133.357 174.889 133.275 174.893 133.178 174.893C133.1 174.893 133.006 174.889 132.933 174.885C132.944 174.712 132.966 174.512 132.983 174.355C133.024 173.959 133.059 173.572 133.051 173.227C132.938 168.312 132.885 163.396 132.834 158.48C132.722 148.168 132.608 137.505 131.919 127.02C131.311 117.771 132.71 112.139 141.821 108.865C142.591 108.59 142.921 107.987 143.079 107.698C143.116 107.632 143.161 107.546 143.229 107.443C143.605 106.866 143.645 106.132 143.333 105.517C143.022 104.901 142.407 104.5 141.719 104.46C140.712 104.403 140.11 104.271 139.769 104.161C139.909 103.957 140.142 103.668 140.524 103.29C141.005 102.812 141.201 102.119 141.041 101.462C140.882 100.803 140.389 100.276 139.743 100.074L139.345 99.9397C139.08 99.8462 138.78 99.7396 138.382 99.7284C136.877 99.6824 135.373 99.6405 133.866 99.6122C132.685 98.3167 130.68 91.644 129.638 62.74C129.579 61.1089 129.534 59.8655 129.494 59.1624C129.437 58.1868 128.661 57.4069 127.685 57.3457C126.675 57.2967 125.842 57.9624 125.664 58.9238C124.679 64.2711 124.285 69.6583 123.906 74.8682L123.769 76.7778C122.685 93.8019 119.777 99.5803 118.617 99.6021C117.92 99.6152 117.225 99.6566 116.344 99.7112L114.841 99.7992C114.073 99.8406 113.404 100.332 113.135 101.051C112.866 101.771 113.048 102.581 113.6 103.116C114.084 103.585 114.349 103.924 114.493 104.144C114.142 104.297 113.43 104.524 112.057 104.703C111.244 104.811 110.587 105.419 110.418 106.223C110.25 107.026 110.607 107.849 111.309 108.273C112.209 108.817 113.03 109.342 113.808 109.84C115.443 110.887 116.988 111.877 118.676 112.65C121.611 113.993 122.565 115.595 122.456 118.997C121.978 133.889 121.683 149.096 121.579 164.209V211.462H9.82031V215.327H123.51C124.577 215.327 125.443 214.462 125.443 213.394V164.222C125.547 149.154 125.842 133.981 126.318 119.122C126.476 114.198 124.615 111.119 120.285 109.137C119.156 108.62 118.071 107.97 116.891 107.224C117.565 106.78 118.091 106.188 118.355 105.393C118.577 104.723 118.554 104.074 118.394 103.473C118.493 103.47 118.591 103.468 118.69 103.466C120.301 103.435 124.867 103.349 126.997 84.3294C128.391 99.8689 130.503 103.418 133.503 103.471C134.281 103.485 135.058 103.502 135.836 103.522C135.632 104.24 135.656 104.93 135.905 105.587C136.104 106.113 136.42 106.537 136.806 106.877C127.894 111.749 127.577 119.88 128.063 127.273C128.746 137.652 128.859 148.261 128.969 158.522C129.022 163.453 129.075 168.385 129.187 173.315C129.192 173.508 129.163 173.725 129.139 173.947C129.037 174.91 128.882 176.366 129.908 177.531C130.6 178.314 131.64 178.727 133.004 178.755C134.575 178.748 135.709 178.385 136.468 177.525C137.549 176.3 137.324 174.763 137.175 173.744C137.14 173.504 137.097 173.274 137.1 173.074L137.155 169.311C137.264 162.344 137.376 155.141 137.033 148.041C137.018 147.738 137.038 147.154 137.248 146.207H161.048C161.175 146.855 161.239 147.67 161.239 148.667V156.073C161.237 163.913 161.237 171.753 161.275 179.593C161.276 179.804 161.268 180.021 161.26 180.236C161.216 181.406 161.155 183.006 162.351 184.242C163.236 185.157 164.583 185.58 166.415 185.593C168.262 185.586 169.583 185.133 170.456 184.204C171.636 182.952 171.547 181.371 171.483 180.214C171.469 179.982 171.455 179.75 171.456 179.525C171.521 164.755 171.509 149.986 171.496 135.216C171.495 134.111 171.323 133.012 170.976 131.9H187.289C186.586 134.574 186.636 137.225 186.681 139.636C186.7 140.626 186.72 141.61 186.687 142.586C186.632 144.21 187.286 145.169 187.843 145.687C188.397 146.198 189.397 146.773 190.978 146.597C192.409 146.439 192.77 146.696 192.771 146.696C192.942 146.927 192.916 147.994 192.903 148.566L192.888 151.01C192.87 160.447 192.851 170.206 192.934 179.808C192.936 180.012 192.903 180.234 192.875 180.463C192.756 181.442 192.576 182.921 193.617 184.131C194.363 184.997 195.494 185.439 197.071 185.484C198.781 185.533 200.013 185.133 200.856 184.265C202.03 183.055 201.934 181.427 201.872 180.35C201.859 180.122 201.845 179.895 201.845 179.678C201.859 169.391 201.859 159.102 201.86 148.815L201.865 127.072C201.865 126.784 201.853 126.488 201.841 126.193C201.822 125.745 201.791 124.996 201.807 124.875C201.812 124.874 202.114 124.702 203.185 124.797C204.777 124.944 205.752 124.36 206.287 123.847C206.802 123.355 207.395 122.467 207.398 120.868C207.561 120.849 207.814 120.838 208.201 120.846C210.609 120.901 212.481 120.258 213.706 118.915C214.496 118.047 215.373 116.463 215.06 113.844C214.999 113.332 215.057 113.177 215.056 113.177C215.129 113.072 215.466 112.817 216.896 112.294C219.885 111.201 222.098 109.566 223.366 107.58C223.457 107.677 223.553 107.771 223.656 107.863C224.901 108.977 226.696 109.346 229.389 109.007C229.437 109.918 229.633 110.99 230.469 111.755C231.021 112.262 231.757 112.509 232.535 112.466C235.016 112.313 235.608 112.829 235.703 112.933C236.052 113.321 235.822 114.687 235.654 115.683C235.521 116.468 235.383 117.281 235.392 118.064C235.571 133.157 235.579 148.509 235.588 163.356L235.602 178.03L235.6 178.723C235.597 179.45 235.595 180.174 235.633 180.898C235.641 181.034 235.641 181.174 235.642 181.314C235.646 182.284 235.663 185.231 239.321 185.446C240.748 185.529 241.817 185.212 242.586 184.475C243.678 183.423 243.648 182.014 243.63 181.08L243.625 180.712C243.645 175.9 243.656 171.09 243.667 166.279C243.684 158.94 243.702 151.602 243.749 144.263C243.752 143.84 243.718 143.388 243.682 142.934C243.641 142.439 243.573 141.609 243.62 141.449C243.624 141.446 243.987 141.228 245.294 141.362C246.346 141.481 247.265 140.732 247.405 139.7C247.681 137.662 248.486 137.435 251.813 137.35C252.819 137.323 253.858 137.297 254.875 137.112C256.206 136.869 258.337 135.908 257.667 132.177C257.526 131.397 257.61 131.043 257.648 130.982C257.957 130.657 259.776 130.61 260.879 130.58C260.957 130.579 261.032 130.578 261.102 130.578C261.948 130.578 262.265 130.748 262.253 130.706C262.338 130.878 262.368 131.464 262.388 131.853C262.411 132.286 262.436 132.731 262.5 133.169C262.557 133.571 262.476 134.164 262.389 134.791C262.143 136.576 261.65 140.16 266.025 141.646C266.058 142.023 266.084 142.606 266.088 143.514C266.102 147.108 266.099 150.701 266.095 154.296C266.09 161.052 266.084 168.037 266.197 174.915C266.202 175.209 266.131 175.549 266.07 175.902C265.863 177.116 265.551 178.947 266.772 180.367C267.663 181.402 269.098 181.91 271.124 181.85C273.022 181.812 274.345 181.3 275.166 180.285C276.303 178.882 275.967 177.145 275.744 175.994C275.682 175.674 275.607 175.368 275.608 175.102C275.739 146.852 275.762 118.131 275.784 90.3561L275.79 81.8835C275.79 81.5833 275.783 81.2795 275.774 80.9767C275.773 80.9024 275.771 80.8266 275.768 80.7523H278.34C279.035 80.7523 279.675 80.3798 280.019 79.7767L286.204 68.9234V61.12Z" fill="#11366A"/>
<path d="M23.8827 242.119V267.357H53.5751V278.863H23.8827V305.215H57.2866V316.721H9.77886V230.613H57.2866V242.119H23.8827ZM69.9571 282.327C69.9571 275.481 71.3593 269.419 74.1635 264.14C77.0503 258.862 80.9268 254.779 85.793 251.892C90.7418 248.923 96.1854 247.439 102.124 247.439C107.485 247.439 112.145 248.511 116.104 250.655C120.145 252.717 123.362 255.315 125.754 258.449V248.552H139.982V316.721H125.754V306.576C123.362 309.792 120.104 312.473 115.98 314.617C111.856 316.762 107.155 317.834 101.876 317.834C96.0204 317.834 90.6593 316.35 85.793 313.38C80.9268 310.329 77.0503 306.122 74.1635 300.761C71.3593 295.317 69.9571 289.173 69.9571 282.327ZM125.754 282.574C125.754 277.873 124.764 273.79 122.785 270.326C120.888 266.862 118.372 264.223 115.238 262.408C112.104 260.594 108.722 259.687 105.093 259.687C101.464 259.687 98.0824 260.594 94.9482 262.408C91.814 264.14 89.2572 266.739 87.2777 270.203C85.3807 273.584 84.4321 277.626 84.4321 282.327C84.4321 287.028 85.3807 291.152 87.2777 294.699C89.2572 298.245 91.814 300.967 94.9482 302.864C98.1649 304.679 101.546 305.586 105.093 305.586C108.722 305.586 112.104 304.679 115.238 302.864C118.372 301.05 120.888 298.41 122.785 294.946C124.764 291.4 125.754 287.276 125.754 282.574ZM183.25 317.834C177.889 317.834 173.064 316.886 168.775 314.989C164.569 313.009 161.228 310.37 158.754 307.071C156.28 303.689 154.96 299.936 154.795 295.812H169.394C169.641 298.699 171.002 301.132 173.476 303.112C176.033 305.009 179.209 305.957 183.003 305.957C186.962 305.957 190.013 305.215 192.158 303.73C194.385 302.163 195.498 300.184 195.498 297.792C195.498 295.235 194.261 293.338 191.787 292.101C189.395 290.864 185.56 289.503 180.281 288.018C175.167 286.616 171.002 285.255 167.785 283.935C164.569 282.616 161.764 280.595 159.372 277.873C157.063 275.151 155.908 271.564 155.908 267.11C155.908 263.481 156.981 260.181 159.125 257.212C161.27 254.161 164.321 251.769 168.28 250.037C172.322 248.305 176.94 247.439 182.137 247.439C189.89 247.439 196.117 249.418 200.818 253.377C205.602 257.254 208.159 262.573 208.489 269.337H194.385C194.137 266.285 192.9 263.852 190.673 262.037C188.446 260.223 185.436 259.315 181.642 259.315C177.93 259.315 175.085 260.017 173.105 261.419C171.126 262.821 170.136 264.677 170.136 266.986C170.136 268.801 170.796 270.326 172.115 271.564C173.435 272.801 175.043 273.79 176.94 274.533C178.837 275.193 181.642 276.059 185.353 277.131C190.302 278.451 194.343 279.811 197.478 281.214C200.694 282.533 203.457 284.513 205.767 287.152C208.076 289.791 209.272 293.297 209.355 297.668C209.355 301.545 208.282 305.009 206.138 308.06C203.994 311.112 200.942 313.504 196.983 315.236C193.106 316.968 188.529 317.834 183.25 317.834ZM285.958 248.552L244.142 348.764H229.543L243.399 315.607L216.553 248.552H232.265L251.441 300.514L271.36 248.552H285.958ZM358.337 248.552V316.721H344.234V308.679C342.007 311.483 339.079 313.71 335.45 315.36C331.903 316.927 328.109 317.71 324.067 317.71C318.706 317.71 313.881 316.597 309.592 314.37C305.386 312.143 302.046 308.844 299.571 304.473C297.179 300.101 295.983 294.823 295.983 288.637V248.552H309.964V286.533C309.964 292.637 311.489 297.338 314.541 300.637C317.593 303.854 321.758 305.462 327.037 305.462C332.315 305.462 336.481 303.854 339.532 300.637C342.666 297.338 344.234 292.637 344.234 286.533V248.552H358.337ZM459.466 247.439C464.827 247.439 469.611 248.552 473.818 250.779C478.107 253.006 481.447 256.305 483.839 260.676C486.313 265.048 487.55 270.326 487.55 276.512V316.721H473.57V278.616C473.57 272.512 472.044 267.852 468.993 264.635C465.941 261.336 461.776 259.687 456.497 259.687C451.218 259.687 447.012 261.336 443.878 264.635C440.826 267.852 439.3 272.512 439.3 278.616V316.721H425.32V278.616C425.32 272.512 423.794 267.852 420.743 264.635C417.691 261.336 413.526 259.687 408.247 259.687C402.968 259.687 398.762 261.336 395.628 264.635C392.576 267.852 391.05 272.512 391.05 278.616V316.721H376.946V248.552H391.05V256.346C393.36 253.542 396.288 251.356 399.834 249.789C403.381 248.222 407.175 247.439 411.216 247.439C416.66 247.439 421.526 248.593 425.815 250.903C430.104 253.212 433.403 256.552 435.712 260.924C437.774 256.8 440.991 253.542 445.362 251.15C449.734 248.676 454.435 247.439 459.466 247.439ZM517.993 305.215H548.922V316.721H501.662V305.215L532.715 260.058H501.662V248.552H548.922V260.058L517.993 305.215ZM625.467 248.552V316.721H611.363V308.679C609.136 311.483 606.208 313.71 602.579 315.36C599.033 316.927 595.239 317.71 591.197 317.71C585.836 317.71 581.011 316.597 576.722 314.37C572.516 312.143 569.175 308.844 566.701 304.473C564.309 300.101 563.113 294.823 563.113 288.637V248.552H577.093V286.533C577.093 292.637 578.619 297.338 581.671 300.637C584.723 303.854 588.888 305.462 594.166 305.462C599.445 305.462 603.61 303.854 606.662 300.637C609.796 297.338 611.363 292.637 611.363 286.533V248.552H625.467ZM671.542 247.439C676.82 247.439 681.48 248.511 685.522 250.655C689.646 252.717 692.862 255.315 695.172 258.449V248.552H709.399V317.834C709.399 324.103 708.08 329.67 705.44 334.536C702.801 339.485 698.966 343.361 693.935 346.166C688.986 348.97 683.047 350.372 676.119 350.372C666.881 350.372 659.211 348.186 653.108 343.815C647.004 339.526 643.54 333.67 642.715 326.247H656.695C657.768 329.794 660.036 332.639 663.5 334.784C667.046 337.01 671.253 338.124 676.119 338.124C681.81 338.124 686.388 336.392 689.852 332.928C693.398 329.464 695.172 324.432 695.172 317.834V306.452C692.78 309.669 689.522 312.391 685.398 314.617C681.357 316.762 676.738 317.834 671.542 317.834C665.603 317.834 660.159 316.35 655.211 313.38C650.344 310.329 646.468 306.122 643.581 300.761C640.777 295.317 639.375 289.173 639.375 282.327C639.375 275.481 640.777 269.419 643.581 264.14C646.468 258.862 650.344 254.779 655.211 251.892C660.159 248.923 665.603 247.439 671.542 247.439ZM695.172 282.574C695.172 277.873 694.182 273.79 692.202 270.326C690.305 266.862 687.79 264.223 684.656 262.408C681.521 260.594 678.14 259.687 674.511 259.687C670.882 259.687 667.5 260.594 664.366 262.408C661.232 264.14 658.675 266.739 656.695 270.203C654.798 273.584 653.85 277.626 653.85 282.327C653.85 287.028 654.798 291.152 656.695 294.699C658.675 298.245 661.232 300.967 664.366 302.864C667.583 304.679 670.964 305.586 674.511 305.586C678.14 305.586 681.521 304.679 684.656 302.864C687.79 301.05 690.305 298.41 692.202 294.946C694.182 291.4 695.172 287.276 695.172 282.574Z" fill="#11366A"/>
<path d="M297.452 50.0764H294.825V52.7039V215.268V217.896H297.452H313.878H316.505V215.268V165.479H336.855V215.268V217.896H339.482H355.666H358.294V215.268V83.6813L368.064 133.166L368.483 135.285H370.642H383.444H385.611L386.024 133.159L395.552 84.1136V132.657V135.285H398.179H414.363H416.991V132.657V6.08447V3.45696H414.363H395.522H393.389L392.951 5.54461L377.164 80.738L361.378 5.54461L360.939 3.45696H358.806H339.724H337.101L337.096 6.07966L336.859 135.344H316.505V52.7039V50.0764H313.878H297.452Z" stroke="#11366A" stroke-width="5.25502"/>
</svg>
