<svg width="309" height="157" viewBox="0 0 309 157" fill="none" xmlns="http://www.w3.org/2000/svg">
<path d="M178.628 75.7883C178.628 75.7364 178.629 75.6798 178.631 75.6345C178.634 75.4976 178.636 75.3616 178.627 75.2336C178.609 74.9808 178.615 74.7283 178.619 74.4756L178.63 71.2322C178.635 68.7443 178.639 66.2562 178.656 63.7678C178.678 67.5158 178.663 71.2511 178.643 75.3121C178.643 75.4256 178.652 75.5494 178.664 75.6766C178.666 75.7098 178.67 75.7495 178.673 75.7892C178.657 75.7898 178.641 75.7883 178.628 75.7883ZM256.783 90.1476V68.7918C256.783 68.563 256.689 68.3443 256.522 68.1881C256.356 68.0312 256.131 67.9471 255.903 67.9642C255.649 67.9794 255.394 67.9913 255.139 68.003C254.56 68.0293 253.961 68.0568 253.364 68.1289C252.375 68.248 252.07 68.0709 251.986 67.9891C251.841 67.8486 251.786 67.4895 251.83 66.9777C251.918 65.9703 251.895 64.9623 251.872 63.9876C251.86 63.4613 251.848 62.9346 251.854 62.4091C251.856 62.1878 251.769 61.9746 251.614 61.8171C251.458 61.6598 251.246 61.5713 251.024 61.5713H239.377C239.149 61.5713 238.931 61.6648 238.775 61.8299C238.618 61.9952 238.536 62.2173 238.548 62.4449L238.553 62.5317L238.546 64.0236C238.533 66.8489 238.52 69.77 238.558 72.6454C238.563 73.0439 238.503 73.1353 238.503 73.1353C238.503 73.1353 238.379 73.2464 237.862 73.2268C237.363 73.2236 237.242 73.1288 237.242 73.1288C237.239 73.1249 237.178 73.0342 237.193 72.6187C237.219 71.8605 237.212 71.101 237.206 70.3417C237.198 69.5294 237.19 68.6892 237.228 67.877C237.255 67.3121 237.22 66.5966 236.709 66.0727C236.162 65.5114 235.339 65.465 234.768 65.4754C231.142 65.5524 227.536 65.5609 224.05 65.5014C223.419 65.4973 222.619 65.55 222.081 66.1039C221.99 66.1978 221.914 66.2983 221.851 66.4026C221.845 64.1334 221.848 61.8271 221.891 59.5526C221.898 59.1632 221.882 58.8545 221.842 58.5813C221.781 58.1748 221.432 57.8739 221.021 57.8739H208.769C208.313 57.8739 207.942 58.2423 207.94 58.6987C207.939 58.8647 207.948 59.0367 207.958 59.2085C207.966 59.3437 207.974 59.4786 207.974 59.609C207.956 65.0231 207.95 70.4369 207.945 75.8516V75.9388C207.945 76.0603 207.945 76.2322 207.932 76.3302C207.883 76.3424 207.795 76.356 207.652 76.3578H207.626C207.419 76.3578 207.319 76.3382 207.305 76.3374C207.293 76.2994 207.272 76.194 207.274 75.9278C207.278 75.4935 207.263 75.0596 207.249 74.6246C207.224 73.9289 207.202 73.2713 207.254 72.6244C207.31 71.9423 206.826 71.1904 205.893 69.8102C205.174 68.7467 204.19 67.2899 204.201 66.5731C204.204 66.4078 204.219 66.2419 204.234 66.0763C204.259 65.7876 204.288 65.4604 204.264 65.1218C204.252 64.9604 204.245 64.7949 204.237 64.6276C204.18 63.4557 204.11 61.9976 202.806 61.0779C201.911 60.4456 201.857 60.1451 202.131 59.3669C202.624 57.96 202.07 56.6336 200.649 55.8181C199.411 55.107 198.468 55.6461 197.774 56.0427C197.042 56.4594 195.933 57.4628 196.716 59.5005C196.902 59.9843 196.951 60.2175 196.951 60.3297C194.243 61.8717 194.418 64.1601 194.574 66.1809L194.581 66.2675C194.746 68.4204 193.766 69.677 192.915 70.3519C191.701 71.3127 191.795 72.4818 191.863 73.3344C191.879 73.5386 191.897 73.7419 191.892 73.9427C191.855 75.3817 191.86 76.8396 191.865 78.2495C191.869 79.3258 191.873 80.402 191.859 81.4783C191.857 81.6451 191.869 81.8209 191.883 81.9974C191.896 82.1643 191.918 82.4444 191.925 82.4793C191.925 82.4793 191.792 82.5602 191.325 82.5433C191.078 82.5335 190.944 82.5003 190.881 82.4784C190.88 82.3765 190.907 82.2007 190.924 82.0873C190.956 81.8783 190.983 81.6733 190.982 81.4896C190.957 77.6818 190.956 73.8731 190.954 70.0644C190.953 67.206 190.952 64.3473 190.941 61.4886C190.94 61.2804 190.939 61.076 190.929 60.8731C190.906 60.4317 190.542 60.0859 190.1 60.0859H179.481C179.045 60.0859 178.682 60.4245 178.654 60.8597C178.641 61.0569 178.635 61.2574 178.637 61.4611C178.64 61.7477 178.642 62.0336 178.645 62.3195C178.611 62.1681 178.535 62.0275 178.424 61.9158C178.269 61.7587 178.057 61.6704 177.835 61.6704H171.978H165.234C164.864 61.6704 164.563 61.9709 164.563 62.3416V82.5433L156.795 82.4784V84.2001H165.57C165.941 84.2001 166.241 83.8996 166.241 83.5289V63.329H177C176.981 65.9624 176.976 68.5957 176.971 71.2292L176.961 74.4447C176.956 74.7476 176.951 75.0513 176.973 75.3527C176.979 75.4288 176.975 75.5097 176.973 75.5907C176.963 75.9649 176.948 76.53 177.374 76.9748C177.665 77.2793 178.089 77.4379 178.633 77.4477C179.203 77.4444 179.663 77.2978 179.963 76.9756C180.401 76.5051 180.348 75.8961 180.316 75.5316C180.309 75.4579 180.301 75.3859 180.302 75.3203C180.325 70.5289 180.341 66.19 180.298 61.7446H189.283C189.293 64.5182 189.295 67.2914 189.296 70.0653C189.297 73.877 189.299 77.6889 189.324 81.5002C189.324 81.6039 189.302 81.7187 189.285 81.8369C189.215 82.2897 189.111 82.9733 189.577 83.5369C189.922 83.9539 190.474 84.171 191.263 84.2001C192.11 84.2333 192.715 84.0487 193.107 83.6406C193.632 83.093 193.577 82.3845 193.536 81.8677C193.526 81.7423 193.516 81.6184 193.517 81.5009C193.531 80.4148 193.528 79.3288 193.524 78.2437C193.518 76.8452 193.513 75.3995 193.55 73.9855C193.557 73.7273 193.537 73.4657 193.516 73.2025C193.453 72.4129 193.446 72.0469 193.945 71.6516C195.594 70.3445 196.407 68.3872 196.234 66.1403L196.228 66.0536C196.066 63.9566 196.06 62.7224 197.819 61.7446C199.085 61.0406 198.489 59.4895 198.264 58.9052C197.905 57.9715 198.216 57.6999 198.595 57.4836L198.668 57.4422C199.254 57.1066 199.424 57.0276 199.823 57.2563C200.545 57.6708 200.788 58.182 200.566 58.8178C200.024 60.3592 200.396 61.4068 201.85 62.4328C202.449 62.8556 202.525 63.5739 202.58 64.7072C202.589 64.8875 202.598 65.0656 202.61 65.2407C202.625 65.4468 202.604 65.6811 202.582 65.9293C202.563 66.1353 202.546 66.3417 202.542 66.5475C202.524 67.7859 203.538 69.2873 204.519 70.7391C204.955 71.3848 205.553 72.2695 205.602 72.4907C205.542 73.2333 205.567 73.9694 205.591 74.6812C205.605 75.0925 205.619 75.5041 205.616 75.9148C205.613 76.2636 205.608 76.9902 206.12 77.5013C206.474 77.8551 206.984 78.0081 207.67 78.0163C209.608 77.9942 209.604 76.4986 209.603 75.8532C209.608 70.4402 209.614 65.027 209.632 59.6151C209.632 59.588 209.632 59.5604 209.632 59.5324H220.232C220.177 62.4972 220.188 65.5077 220.2 68.4191C220.204 69.5518 220.209 70.6842 220.209 71.816L220.208 72.084C220.206 72.4081 220.205 72.7328 220.225 73.0559L220.23 73.1758C220.259 74.154 220.704 74.6853 221.553 74.755C222.051 74.7938 222.455 74.6747 222.756 74.4003C223.221 73.9751 223.227 73.3685 223.232 72.9904L223.247 71.8735C223.268 70.5398 223.29 69.1602 223.224 67.7935C223.204 67.3611 223.271 67.2591 223.271 67.2591C223.272 67.2576 223.397 67.1376 224.022 67.16C227.53 67.219 231.157 67.2114 234.803 67.1339C235.385 67.1196 235.521 67.2296 235.521 67.2296C235.524 67.2335 235.594 67.3311 235.571 67.7989C235.531 68.6584 235.539 69.5218 235.547 70.3571C235.554 71.0917 235.561 71.8265 235.535 72.5604C235.516 73.0923 235.557 73.7679 236.044 74.2755C236.563 74.8157 237.325 74.8821 237.853 74.8854C238.395 74.8943 239.157 74.8311 239.679 74.304C240.169 73.8106 240.223 73.1474 240.217 72.6235C240.179 69.7629 240.192 66.8489 240.205 64.0314L240.208 63.2298H250.198C250.202 63.4949 250.208 63.7607 250.214 64.0258C250.237 64.9983 250.258 65.9173 250.178 66.8335C250.085 67.8972 250.299 68.6649 250.832 69.1808C251.592 69.9163 252.754 69.8733 253.562 69.7752C254.07 69.7141 254.583 69.6887 255.125 69.6639V90.977C255.125 91.4352 255.496 91.8062 255.954 91.8062H304.684V90.1476H256.783Z" fill="#11366A"/>
<path d="M122.623 25.621L118.766 32.3886H117.361C116.97 32.3886 116.632 32.6619 116.55 33.044C116.468 33.426 116.478 33.8139 116.489 34.1883C116.492 34.3029 116.495 34.4174 116.495 34.5309L116.492 38.168C116.483 50.0871 116.473 62.4122 116.417 74.5346C116.416 74.7775 116.462 75.0123 116.506 75.2401C116.533 75.3809 116.575 75.6013 116.574 75.7202C116.51 75.7421 116.374 75.7746 116.119 75.7794C116.096 75.7803 116.073 75.7803 116.052 75.7803C115.716 75.7803 115.581 75.7308 115.559 75.7403C115.538 75.6295 115.586 75.3403 115.617 75.1639C115.657 74.9275 115.699 74.6827 115.695 74.4341C115.646 71.4969 115.649 68.5057 115.651 65.6129C115.653 64.0683 115.654 62.5232 115.648 60.9779C115.644 59.9498 115.64 58.8864 114.772 58.6892C113.904 58.4918 113.925 58.3349 114.045 57.4667C114.094 57.1131 114.149 56.7117 114.091 56.3076C114.071 56.1698 114.065 56.0305 114.058 55.8949C114.022 55.1879 113.94 53.714 111.703 53.7756C110.661 53.8027 109.676 53.8283 109.082 54.5579C108.711 55.0126 108.601 55.6192 108.744 56.4169C108.753 56.4707 108.768 56.5505 108.776 56.6217C108.49 56.6636 108.164 56.6716 107.82 56.6805C106.771 56.7076 105.097 56.7506 104.502 58.3922C103.939 58.4291 103.508 58.5985 103.195 58.905C102.606 59.4821 102.672 60.2839 102.719 60.8699C102.731 61.0155 102.744 61.1597 102.743 61.2953C102.723 64.4473 102.715 67.5991 102.708 70.7511C102.703 72.8155 102.698 74.8789 102.69 76.9431L102.692 77.1414C102.693 77.1973 102.695 77.2663 102.694 77.3286C102.664 77.331 102.635 77.3277 102.599 77.326C102.593 77.3253 102.587 77.3253 102.582 77.3245C102.581 77.2815 102.581 77.2362 102.581 77.1982C102.58 77.1116 102.579 77.0249 102.574 76.9416C102.56 76.6628 102.561 76.3834 102.563 76.1042L102.563 75.7954L102.557 69.4991C102.554 63.1224 102.55 56.5286 102.474 50.0418C102.471 49.8543 102.516 49.5927 102.562 49.3154C102.691 48.5544 102.867 47.5128 102.182 46.7503C101.715 46.2311 100.964 45.9619 99.8911 45.989C99.8712 45.5115 99.6846 45.1009 99.3626 44.8305C99.1314 44.6362 98.7253 44.4227 98.1018 44.5155C97.1685 44.6531 96.9227 44.4821 96.883 44.4461C96.7222 44.3025 96.7433 43.6988 96.7587 43.2577C96.7645 43.0917 96.7704 42.9253 96.7708 42.7622C96.776 41.1588 96.7747 39.5551 96.7736 37.9517L96.7728 35.9133C96.7728 35.6907 96.6834 35.4772 96.5246 35.3212C96.3653 35.1655 96.131 35.0865 95.928 35.0841L95.3455 35.095C94.8936 35.1034 94.5315 35.4724 94.5315 35.9243L94.5356 38.2597C94.5404 40.1064 94.5452 41.953 94.5226 43.7992C94.5063 45.0848 92.9678 45.7858 92.3065 46.0274C91.2196 46.4251 90.2588 46.9089 90.4415 48.4464C90.4746 48.7234 90.4738 49.0983 90.2809 49.3098C90.0998 49.5085 89.7121 49.6109 89.1869 49.5977C88.6269 49.5834 87.9989 49.63 87.5511 50.0862C87.3474 50.2941 87.1109 50.6703 87.1389 51.2825C87.1393 51.2881 87.1393 51.2938 87.1396 51.299C86.2959 51.2246 85.6836 51.3777 85.2697 51.7732C84.7033 52.313 84.735 53.0679 84.7575 53.619C84.7621 53.7224 84.7664 53.8257 84.7664 53.9266L84.7645 63.2593C84.764 67.6741 84.764 72.0887 84.7579 76.5033C84.7575 76.6289 84.7649 76.7593 84.7725 76.8906C84.7799 77.0142 84.7907 77.2071 84.7794 77.3132C84.7219 77.3269 84.6132 77.3455 84.4141 77.3392C84.3102 77.3366 84.236 77.3277 84.1859 77.318C84.1898 77.2347 84.2032 77.1244 84.213 77.0427C84.234 76.8693 84.2518 76.7001 84.2507 76.5472C84.2149 72.4348 84.2232 68.251 84.2308 64.2048L84.2368 63.1921C84.2527 62.5295 84.272 61.7051 83.6457 61.1307C83.1881 60.7107 82.5089 60.5542 81.5723 60.6588C81.5708 60.6588 81.5693 60.6592 81.568 60.6592C81.568 60.6534 81.568 60.648 81.5684 60.6419C81.5834 60.1939 81.5754 59.7424 81.5667 59.289C81.5417 57.9665 81.5181 56.7174 82.1017 55.5387C82.2292 55.2814 82.2147 54.977 82.0633 54.7332C81.9121 54.4893 81.6454 54.3412 81.3586 54.3412H71.8981C71.6029 54.3412 71.3297 54.4985 71.1814 54.7536C71.0327 55.0089 71.0312 55.3237 71.1772 55.5804C71.5551 56.2453 71.7313 56.831 71.732 57.4244C71.7376 63.7605 71.743 70.0972 71.715 76.4337C71.7146 76.5617 71.7215 76.6945 71.7287 76.829C71.7382 76.9893 71.7532 77.2581 71.7454 77.3034C71.7448 77.3043 71.628 77.3846 71.2039 77.3861H71.1924C70.8045 77.3861 70.6789 77.326 70.6715 77.3286C70.6383 77.2444 70.6485 76.9724 70.6546 76.8079C70.6592 76.6912 70.6631 76.5754 70.6626 76.4612C70.6462 73.0988 70.6466 69.7368 70.647 66.3746V63.1955C70.647 62.1946 70.5229 61.4995 70.2448 60.9415C70.1047 60.6597 69.8172 60.4818 69.5026 60.4818H58.0575C57.6692 60.4818 57.3438 60.7486 57.2529 61.1088H57.2524C57.0221 61.8553 56.9177 62.4944 56.9424 63.0074C57.0874 66.0017 57.0396 69.0665 56.9938 72.0306L56.9695 73.6486C56.9674 73.8139 56.991 74.0035 57.0192 74.1994C57.0299 74.269 57.044 74.3653 57.0518 74.448C57.0216 74.4504 56.9865 74.4519 56.9448 74.4519C56.9112 74.4519 56.8711 74.4504 56.8398 74.4487C56.8444 74.3742 56.8537 74.2885 56.8611 74.2211C56.8789 74.0512 56.8938 73.8853 56.8901 73.7369C56.842 71.6277 56.8192 69.5177 56.7971 67.4077C56.7491 62.9818 56.7003 58.4054 56.4046 53.9051C56.1434 49.9355 56.7439 47.5181 60.6544 46.1131C60.985 45.9951 61.1264 45.7363 61.1945 45.612C61.2102 45.5838 61.2297 45.5471 61.2585 45.5026C61.4199 45.2549 61.4371 44.9399 61.3034 44.6759C61.17 44.4119 60.9058 44.2394 60.6105 44.2222C60.1786 44.1979 59.9202 44.1413 59.7736 44.0942C59.8339 44.0066 59.9339 43.8825 60.0979 43.7202C60.304 43.5152 60.3882 43.2176 60.3198 42.9355C60.2515 42.6529 60.04 42.4268 59.7627 42.3398L59.5918 42.2823C59.4781 42.2422 59.3492 42.1964 59.1783 42.1916C58.5324 42.1719 57.8868 42.1539 57.2403 42.1417C56.7331 41.5857 55.8729 38.7218 55.4256 26.3163C55.4 25.6162 55.3807 25.0825 55.3635 24.7808C55.3392 24.3621 55.006 24.0273 54.5873 24.0011C54.1538 23.98 53.7961 24.2658 53.7199 24.6784C53.2969 26.9734 53.1281 29.2856 52.9654 31.5217L52.9066 32.3413C52.4413 39.648 51.193 42.1281 50.6953 42.1374C50.3964 42.143 50.0981 42.1608 49.7199 42.1843L49.0745 42.222C48.7452 42.2398 48.4577 42.4509 48.3423 42.7594C48.2269 43.0683 48.305 43.4161 48.5419 43.6456C48.7495 43.8469 48.8634 43.9923 48.9255 44.0867C48.7747 44.1526 48.469 44.2498 47.8798 44.3268C47.5307 44.373 47.2487 44.6342 47.1765 44.9792C47.104 45.3237 47.2574 45.6769 47.5587 45.8591C47.9451 46.0923 48.2974 46.3177 48.6311 46.5316C49.3331 46.9809 49.9963 47.4059 50.7207 47.7374C51.9805 48.314 52.3899 49.0015 52.3428 50.4616C52.138 56.8534 52.0113 63.3799 51.9664 69.8664V90.1476H4V91.8062H52.7955C53.2535 91.8062 53.6249 91.4352 53.6249 90.9768V69.872C53.6698 63.4051 53.7961 56.8927 54.0007 50.5151C54.0684 48.4019 53.2698 47.0803 51.4112 46.2296C50.9266 46.0077 50.4608 45.7287 49.9547 45.4087C50.2438 45.218 50.4695 44.9642 50.5827 44.6227C50.6779 44.3353 50.6682 44.0567 50.5996 43.7988C50.6422 43.7975 50.6842 43.7968 50.7265 43.7959C51.4179 43.7825 53.3776 43.7456 54.2918 35.5824C54.8904 42.252 55.7967 43.7753 57.0845 43.7979C57.4182 43.8038 57.7519 43.8113 58.0855 43.8198C57.9983 44.1281 58.0085 44.424 58.1155 44.7062C58.2007 44.9321 58.3365 45.1137 58.502 45.2597C54.6769 47.3508 54.5409 50.8408 54.7493 54.0136C55.0424 58.4685 55.091 63.0218 55.1383 67.4255C55.1611 69.542 55.1839 71.6587 55.232 73.775C55.234 73.8577 55.2216 73.9508 55.2114 74.0462C55.1676 74.4593 55.1012 75.0845 55.5414 75.5841C55.8382 75.9204 56.2849 76.0976 56.87 76.1098C57.5445 76.1065 58.0313 75.951 58.3567 75.5818C58.8207 75.0561 58.7244 74.3962 58.6604 73.9588C58.6454 73.856 58.6268 73.7573 58.6281 73.6713L58.652 72.0564C58.6986 69.066 58.7468 65.9746 58.5992 62.9272C58.5929 62.7972 58.6014 62.5467 58.6917 62.1403H68.9067C68.9611 62.4182 68.9885 62.7682 68.9885 63.196V66.3746C68.9878 69.7397 68.9876 73.1045 69.0041 76.4693C69.0045 76.56 69.0008 76.653 68.9974 76.7454C68.9787 77.2477 68.9527 77.9343 69.4658 78.4647C69.8456 78.8576 70.4238 79.039 71.2102 79.0446C72.0027 79.0414 72.5698 78.847 72.9445 78.4485C73.451 77.9109 73.4128 77.2323 73.3851 76.7357C73.3792 76.6361 73.3731 76.5365 73.3736 76.4402C73.4016 70.1011 73.3964 63.7622 73.3907 57.4227C73.3903 56.9486 73.3165 56.4768 73.1675 55.9997H80.1694C79.8674 57.1473 79.8888 58.2852 79.9082 59.32C79.9164 59.7448 79.9249 60.1672 79.9108 60.5859C79.8871 61.2832 80.1678 61.6945 80.4071 61.9169C80.6447 62.1364 81.074 62.3829 81.7526 62.3076C82.3666 62.2397 82.5215 62.3501 82.5219 62.3501C82.5952 62.449 82.5842 62.907 82.5787 63.1528L82.5722 64.2017C82.5646 68.2519 82.5564 72.4404 82.592 76.5617C82.5928 76.6491 82.5787 76.7446 82.5666 76.8426C82.5156 77.2629 82.4382 77.8979 82.8853 78.417C83.2055 78.7886 83.6906 78.9782 84.3677 78.9978C85.1014 79.0188 85.6305 78.847 85.9921 78.4745C86.4959 77.9553 86.4549 77.2566 86.4282 76.794C86.4226 76.6962 86.4165 76.5988 86.4165 76.5057C86.4226 72.0905 86.4226 67.6748 86.423 63.2593L86.4252 53.9275C86.4252 53.804 86.4202 53.6769 86.415 53.55C86.4067 53.3578 86.3935 53.0363 86.4002 52.9844C86.4024 52.984 86.5319 52.9102 86.9918 52.9512C87.675 53.0139 88.0932 52.7633 88.3232 52.5434C88.5441 52.332 88.7985 51.9511 88.7998 51.2647C88.8699 51.2567 88.9784 51.2517 89.1446 51.2554C90.1779 51.279 90.9814 51.003 91.5071 50.4264C91.8464 50.0539 92.2226 49.374 92.0885 48.25C92.0622 48.0303 92.087 47.9637 92.0865 47.9637C92.1182 47.9188 92.2627 47.8094 92.8762 47.5847C94.1592 47.1158 95.1092 46.4138 95.6535 45.5614C95.6924 45.6031 95.7336 45.6437 95.7778 45.6829C96.312 46.1611 97.0828 46.3194 98.2382 46.1741C98.2588 46.5648 98.343 47.0252 98.7018 47.3536C98.9387 47.571 99.2548 47.6771 99.5885 47.6584C100.653 47.5931 100.908 47.8144 100.948 47.8589C101.098 48.0257 100.999 48.6117 100.927 49.0393C100.87 49.3764 100.811 49.7252 100.815 50.0613C100.892 56.5393 100.895 63.1281 100.899 69.5004L100.905 75.7987L100.904 76.0961C100.903 76.4079 100.902 76.7188 100.918 77.0296C100.922 77.088 100.922 77.1479 100.922 77.208C100.924 77.6243 100.931 78.8891 102.501 78.9815C103.114 79.0171 103.573 78.881 103.903 78.5645C104.371 78.1133 104.358 77.5082 104.35 77.1075L104.348 76.9496C104.357 74.8845 104.362 72.8201 104.367 70.755C104.374 67.6051 104.382 64.4558 104.402 61.306C104.403 61.1244 104.389 60.9304 104.373 60.7352C104.355 60.5228 104.326 60.1668 104.346 60.098C104.348 60.0969 104.504 60.0032 105.065 60.0607C105.516 60.1117 105.911 59.7902 105.971 59.3474C106.089 58.4727 106.435 58.375 107.863 58.3388C108.294 58.3273 108.74 58.316 109.177 58.2366C109.748 58.1325 110.663 57.7196 110.375 56.1184C110.315 55.7836 110.351 55.6318 110.367 55.6057C110.5 55.4662 111.28 55.4459 111.754 55.4333C111.787 55.4326 111.82 55.4322 111.85 55.4322C112.213 55.4322 112.349 55.5051 112.343 55.4871C112.38 55.5608 112.393 55.8125 112.401 55.9795C112.411 56.1655 112.422 56.3562 112.449 56.5445C112.474 56.7169 112.439 56.9712 112.402 57.2406C112.296 58.0064 112.085 59.5446 113.962 60.1826C113.977 60.3442 113.988 60.5948 113.99 60.9844C113.996 62.5267 113.994 64.0692 113.993 65.6119C113.99 68.5115 113.988 71.5097 114.036 74.4617C114.038 74.5879 114.008 74.7337 113.982 74.8854C113.893 75.406 113.759 76.1922 114.283 76.8014C114.666 77.2459 115.282 77.4637 116.151 77.4379C116.966 77.4217 117.533 77.2021 117.886 76.7665C118.374 76.164 118.229 75.4188 118.134 74.9248C118.107 74.7873 118.075 74.6561 118.076 74.5419C118.132 62.4169 118.142 50.0899 118.151 38.1691L118.154 34.5326C118.154 34.4038 118.15 34.2734 118.147 34.1434C118.146 34.1116 118.145 34.079 118.144 34.0471H119.248C119.546 34.0471 119.821 33.8872 119.969 33.6284L122.623 28.9702V25.621Z" fill="#11366A"/>
<path d="M29.9205 120.266C29.9205 121.165 29.8686 122.115 29.7649 123.118H7.05231C7.22516 125.918 8.17584 128.113 9.90435 129.703C11.6674 131.259 13.7935 132.037 16.2825 132.037C18.3222 132.037 20.0161 131.57 21.3644 130.637C22.7472 129.669 23.7151 128.39 24.2683 126.799H29.3501C28.5895 129.53 27.0684 131.76 24.7868 133.489C22.5052 135.183 19.6704 136.03 16.2825 136.03C13.5861 136.03 11.1662 135.425 9.02281 134.215C6.91403 133.005 5.25466 131.294 4.04471 129.081C2.83475 126.834 2.22978 124.241 2.22978 121.303C2.22978 118.364 2.81747 115.789 3.99285 113.576C5.16824 111.364 6.81032 109.67 8.9191 108.495C11.0625 107.285 13.5169 106.68 16.2825 106.68C18.979 106.68 21.3644 107.267 23.4386 108.443C25.5128 109.618 27.103 111.243 28.2093 113.317C29.3501 115.357 29.9205 117.673 29.9205 120.266ZM25.0461 119.28C25.0461 117.483 24.6485 115.944 23.8534 114.665C23.0583 113.352 21.9693 112.366 20.5865 111.71C19.2383 111.018 17.7345 110.672 16.0751 110.672C13.6898 110.672 11.6501 111.433 9.95621 112.954C8.29684 114.475 7.34616 116.584 7.10417 119.28H25.0461ZM34.3861 121.251C34.3861 118.347 34.9738 115.806 36.1492 113.628C37.3246 111.416 38.9321 109.705 40.9717 108.495C43.0459 107.285 45.3448 106.68 47.8685 106.68C50.3575 106.68 52.5182 107.215 54.3504 108.287C56.1826 109.359 57.5481 110.707 58.4469 112.332V107.146H63.2176V135.563H58.4469V130.274C57.5135 131.933 56.1134 133.316 54.2467 134.422C52.4144 135.494 50.2711 136.03 47.8166 136.03C45.293 136.03 43.0114 135.407 40.9717 134.163C38.9321 132.918 37.3246 131.173 36.1492 128.926C34.9738 126.678 34.3861 124.12 34.3861 121.251ZM58.4469 121.303C58.4469 119.159 58.0148 117.293 57.1506 115.702C56.2863 114.112 55.1109 112.902 53.6244 112.073C52.1724 111.208 50.5649 110.776 48.8019 110.776C47.0388 110.776 45.4313 111.191 43.9793 112.021C42.5274 112.85 41.3693 114.06 40.505 115.651C39.6408 117.241 39.2086 119.108 39.2086 121.251C39.2086 123.429 39.6408 125.33 40.505 126.955C41.3693 128.545 42.5274 129.772 43.9793 130.637C45.4313 131.466 47.0388 131.881 48.8019 131.881C50.5649 131.881 52.1724 131.466 53.6244 130.637C55.1109 129.772 56.2863 128.545 57.1506 126.955C58.0148 125.33 58.4469 123.446 58.4469 121.303ZM81.2519 136.03C79.074 136.03 77.1208 135.667 75.3923 134.941C73.6637 134.18 72.2982 133.143 71.2957 131.829C70.2932 130.481 69.74 128.943 69.6363 127.214H74.5107C74.649 128.632 75.3058 129.79 76.4812 130.689C77.6912 131.587 79.2641 132.037 81.2 132.037C82.9977 132.037 84.4151 131.639 85.4522 130.844C86.4893 130.049 87.0078 129.047 87.0078 127.837C87.0078 126.592 86.4547 125.676 85.3485 125.088C84.2422 124.466 82.531 123.861 80.2148 123.273C78.106 122.72 76.3775 122.167 75.0293 121.614C73.7156 121.026 72.5748 120.179 71.6068 119.073C70.6734 117.932 70.2067 116.446 70.2067 114.613C70.2067 113.162 70.6389 111.831 71.5031 110.621C72.3674 109.411 73.5946 108.46 75.1848 107.769C76.7751 107.043 78.59 106.68 80.6296 106.68C83.7755 106.68 86.3164 107.475 88.2524 109.065C90.1883 110.655 91.2254 112.833 91.3637 115.599H86.6448C86.5411 114.112 85.9362 112.92 84.8299 112.021C83.7582 111.122 82.3063 110.672 80.4741 110.672C78.7801 110.672 77.4319 111.035 76.4294 111.761C75.4268 112.487 74.9256 113.438 74.9256 114.613C74.9256 115.547 75.2194 116.325 75.8071 116.947C76.4294 117.535 77.1899 118.019 78.0887 118.399C79.0221 118.745 80.3012 119.142 81.926 119.592C83.9657 120.145 85.625 120.698 86.9041 121.251C88.1832 121.769 89.2722 122.565 90.171 123.636C91.1044 124.708 91.5884 126.108 91.6229 127.837C91.6229 129.392 91.1908 130.792 90.3266 132.037C89.4623 133.281 88.2351 134.267 86.6448 134.993C85.0892 135.684 83.2915 136.03 81.2519 136.03ZM122.76 107.146L105.648 148.942H100.773L106.374 135.252L94.9137 107.146H100.151L109.07 130.17L117.886 107.146H122.76ZM134.245 99.368V121.769C134.245 124.224 134.884 126.108 136.163 127.422C137.442 128.701 139.24 129.34 141.556 129.34C143.907 129.34 145.722 128.701 147.001 127.422C148.28 126.108 148.92 124.224 148.92 121.769V99.368H156.231V121.718C156.231 124.794 155.557 127.404 154.209 129.548C152.895 131.657 151.115 133.247 148.868 134.318C146.655 135.39 144.184 135.926 141.453 135.926C138.756 135.926 136.302 135.39 134.089 134.318C131.911 133.247 130.183 131.657 128.904 129.548C127.625 127.404 126.985 124.794 126.985 121.718V99.368H134.245ZM198.922 106.42C202.448 106.42 205.283 107.509 207.426 109.687C209.604 111.831 210.693 114.838 210.693 118.71V135.563H203.433V119.695C203.433 117.448 202.863 115.737 201.722 114.562C200.581 113.352 199.026 112.747 197.055 112.747C195.085 112.747 193.512 113.352 192.336 114.562C191.196 115.737 190.625 117.448 190.625 119.695V135.563H183.365V119.695C183.365 117.448 182.795 115.737 181.654 114.562C180.513 113.352 178.958 112.747 176.987 112.747C174.982 112.747 173.392 113.352 172.217 114.562C171.076 115.737 170.505 117.448 170.505 119.695V135.563H163.246V106.835H170.505V110.309C171.439 109.1 172.631 108.149 174.083 107.457C175.57 106.766 177.195 106.42 178.958 106.42C181.205 106.42 183.21 106.904 184.973 107.872C186.736 108.806 188.101 110.154 189.069 111.917C190.003 110.258 191.351 108.927 193.114 107.924C194.912 106.922 196.848 106.42 198.922 106.42ZM224.22 129.6H237.028V135.563H215.975V129.703L228.524 112.799H216.026V106.835H236.872V112.695L224.22 129.6ZM269.769 106.835V135.563H262.458V131.933C261.524 133.178 260.297 134.163 258.776 134.889C257.289 135.58 255.665 135.926 253.901 135.926C251.654 135.926 249.667 135.459 247.938 134.526C246.21 133.558 244.844 132.158 243.842 130.326C242.874 128.459 242.39 126.246 242.39 123.688V106.835H249.649V122.651C249.649 124.933 250.22 126.696 251.361 127.94C252.501 129.15 254.057 129.755 256.028 129.755C258.033 129.755 259.606 129.15 260.746 127.94C261.887 126.696 262.458 124.933 262.458 122.651V106.835H269.769ZM288.185 106.368C290.328 106.368 292.212 106.801 293.837 107.665C295.462 108.495 296.741 109.584 297.674 110.932V106.835H304.986V135.77C304.986 138.432 304.45 140.8 303.378 142.875C302.307 144.983 300.699 146.643 298.556 147.853C296.412 149.097 293.82 149.719 290.777 149.719C286.698 149.719 283.345 148.769 280.718 146.867C278.125 144.966 276.656 142.373 276.31 139.089H283.518C283.898 140.403 284.71 141.44 285.955 142.2C287.234 142.996 288.772 143.393 290.57 143.393C292.679 143.393 294.39 142.754 295.704 141.474C297.017 140.23 297.674 138.329 297.674 135.77V131.311C296.741 132.659 295.444 133.783 293.785 134.681C292.16 135.58 290.293 136.03 288.185 136.03C285.765 136.03 283.552 135.407 281.547 134.163C279.542 132.918 277.952 131.173 276.777 128.926C275.636 126.644 275.065 124.034 275.065 121.095C275.065 118.191 275.636 115.616 276.777 113.369C277.952 111.122 279.525 109.393 281.495 108.183C283.5 106.973 285.73 106.368 288.185 106.368ZM297.674 121.199C297.674 119.436 297.329 117.932 296.637 116.688C295.946 115.409 295.012 114.441 293.837 113.784C292.662 113.092 291.4 112.747 290.051 112.747C288.703 112.747 287.459 113.075 286.318 113.732C285.177 114.389 284.244 115.357 283.518 116.636C282.826 117.88 282.481 119.367 282.481 121.095C282.481 122.824 282.826 124.345 283.518 125.659C284.244 126.938 285.177 127.923 286.318 128.614C287.493 129.306 288.738 129.651 290.051 129.651C291.4 129.651 292.662 129.323 293.837 128.666C295.012 127.975 295.946 127.007 296.637 125.762C297.329 124.483 297.674 122.962 297.674 121.199Z" fill="#11366A"/>
<path d="M155.047 37.338V36.338H154.047H147.089H146.089V37.338V57.6314H137.044V22.209V21.209H136.044H129H128V22.209V91.6942V92.6942H129H136.044H137.044V91.6942V70.3168H146.089V91.6942V92.6942H147.089H154.047H155.047V91.6942V37.338Z" fill="white" stroke="#11366A" stroke-width="2"/>
<path d="M180.092 2V1H179.092H171.008H170.195L170.029 1.79597L163.161 34.7539L156.221 1.79397L156.054 1H155.242H147.118H146.118V2V56.3563V57.3563H147.118H153.996H154.996V56.3563V34.061L159.369 56.5472L159.526 57.3563H160.35H165.901H166.725L166.882 56.5465L171.215 34.179V56.3563V57.3563H172.215H179.092H180.092V56.3563V2Z" fill="white" stroke="#11366A" stroke-width="2"/>
<path d="M147.106 54.769C147.106 54.6746 147.182 54.5981 147.276 54.5981H153.856C153.95 54.5981 154.026 54.6746 154.026 54.769V64.3933C154.026 64.4877 153.95 64.5642 153.856 64.5642H142.183C142.088 64.5642 142.012 64.4877 142.012 64.3933V58.9215C142.012 58.8271 142.088 58.7507 142.183 58.7507H146.935C147.029 58.7507 147.106 58.6742 147.106 58.5798V54.769Z" fill="white"/>
</svg>
