<svg width="309" height="161" viewBox="0 0 309 161" fill="none" xmlns="http://www.w3.org/2000/svg">
<path d="M178.833 78.3122C178.833 78.2604 178.835 78.2037 178.836 78.1584C178.839 78.0215 178.842 77.8855 178.832 77.7575C178.814 77.5047 178.82 77.2522 178.824 76.9995L178.835 73.7562C178.84 71.2682 178.844 68.7801 178.861 66.2918C178.883 70.0397 178.868 73.775 178.848 77.836C178.848 77.9495 178.857 78.0734 178.869 78.2005C178.871 78.2337 178.875 78.2734 178.878 78.3131C178.862 78.3137 178.846 78.3122 178.833 78.3122ZM256.988 92.6715V71.3158C256.988 71.0869 256.894 70.8682 256.727 70.712C256.561 70.5552 256.336 70.471 256.108 70.4881C255.854 70.5033 255.599 70.5152 255.344 70.5269C254.765 70.5532 254.166 70.5808 253.569 70.6528C252.58 70.7719 252.275 70.5949 252.191 70.5131C252.046 70.3725 251.991 70.0134 252.035 69.5017C252.123 68.4942 252.1 67.4863 252.077 66.5115C252.065 65.9852 252.053 65.4585 252.059 64.933C252.061 64.7118 251.975 64.4985 251.819 64.341C251.663 64.1837 251.451 64.0952 251.23 64.0952H239.582C239.354 64.0952 239.136 64.1887 238.98 64.3538C238.823 64.5191 238.741 64.7413 238.754 64.9688L238.758 65.0556L238.751 66.5475C238.739 69.3728 238.725 72.294 238.763 75.1693C238.768 75.5679 238.708 75.6592 238.708 75.6592C238.708 75.6592 238.584 75.7703 238.067 75.7508C237.568 75.7475 237.447 75.6527 237.447 75.6527C237.444 75.6488 237.383 75.5581 237.398 75.1427C237.424 74.3844 237.418 73.6249 237.411 72.8656C237.403 72.0534 237.395 71.2131 237.433 70.4009C237.46 69.836 237.425 69.1205 236.914 68.5966C236.367 68.0353 235.544 67.9889 234.973 67.9993C231.347 68.0763 227.741 68.0848 224.255 68.0254C223.624 68.0212 222.824 68.074 222.286 68.6278C222.195 68.7218 222.119 68.8222 222.056 68.9265C222.051 66.6573 222.053 64.351 222.096 62.0765C222.103 61.6871 222.087 61.3784 222.047 61.1053C221.987 60.6987 221.637 60.3978 221.226 60.3978H208.974C208.518 60.3978 208.147 60.7662 208.145 61.2226C208.144 61.3886 208.154 61.5606 208.163 61.7325C208.171 61.8676 208.179 62.0026 208.179 62.1329C208.161 67.547 208.155 72.9608 208.15 78.3756V78.4628C208.15 78.5843 208.15 78.7561 208.137 78.8541C208.088 78.8663 208 78.88 207.857 78.8817H207.831C207.624 78.8817 207.524 78.8622 207.51 78.8613C207.499 78.8233 207.478 78.7179 207.479 78.4517C207.483 78.0174 207.468 77.5835 207.454 77.1485C207.43 76.4528 207.407 75.7952 207.46 75.1483C207.515 74.4662 207.031 73.7143 206.098 72.3341C205.379 71.2706 204.395 69.8139 204.406 69.0971C204.409 68.9318 204.424 68.7658 204.439 68.6003C204.464 68.3115 204.493 67.9844 204.469 67.6457C204.457 67.4843 204.45 67.3188 204.442 67.1515C204.385 65.9796 204.315 64.5215 203.011 63.6019C202.116 62.9695 202.062 62.669 202.336 61.8908C202.829 60.4839 202.275 59.1575 200.854 58.3421C199.616 57.6309 198.673 58.17 197.979 58.5666C197.248 58.9833 196.138 59.9867 196.921 62.0245C197.107 62.5083 197.156 62.7415 197.156 62.8536C194.448 64.3957 194.624 66.684 194.779 68.7048L194.786 68.7914C194.951 70.9443 193.971 72.2009 193.12 72.8758C191.907 73.8367 192 75.0058 192.068 75.8584C192.084 76.0625 192.102 76.2658 192.097 76.4667C192.06 77.9057 192.065 79.3635 192.07 80.7734C192.074 81.8497 192.078 82.926 192.064 84.0022C192.062 84.1691 192.074 84.3448 192.088 84.5214C192.101 84.6882 192.123 84.9683 192.13 85.0032C192.13 85.0032 191.997 85.0841 191.53 85.0672C191.283 85.0574 191.149 85.0243 191.086 85.0023C191.085 84.9004 191.112 84.7247 191.129 84.6112C191.161 84.4023 191.188 84.1973 191.187 84.0135C191.162 80.2057 191.161 76.397 191.159 72.5884C191.158 69.7299 191.157 66.8712 191.146 64.0125C191.145 63.8043 191.144 63.5999 191.134 63.3971C191.111 62.9556 190.747 62.6098 190.306 62.6098H179.686C179.25 62.6098 178.888 62.9484 178.859 63.3836C178.846 63.5808 178.84 63.7813 178.842 63.985C178.845 64.2716 178.847 64.5575 178.85 64.8434C178.816 64.692 178.74 64.5514 178.629 64.4397C178.474 64.2826 178.262 64.1943 178.041 64.1943H172.183H165.44C165.069 64.1943 164.768 64.4948 164.768 64.8655V85.0672L157 85.0023V86.724H165.775C166.146 86.724 166.446 86.4235 166.446 86.0529V65.8529H177.205C177.186 68.4864 177.181 71.1196 177.176 73.7531L177.166 76.9687C177.161 77.2715 177.156 77.5753 177.178 77.8766C177.184 77.9527 177.18 78.0337 177.178 78.1146C177.168 78.4888 177.153 79.0539 177.579 79.4987C177.87 79.8033 178.294 79.9619 178.838 79.9716C179.408 79.9684 179.868 79.8217 180.168 79.4995C180.606 79.029 180.553 78.42 180.521 78.0556C180.514 77.9818 180.507 77.9098 180.507 77.8443C180.53 73.0528 180.546 68.7139 180.503 64.2685H189.488C189.498 67.0422 189.5 69.8154 189.501 72.5892C189.502 76.4009 189.504 80.2129 189.529 84.0241C189.529 84.1278 189.507 84.2426 189.49 84.3608C189.42 84.8136 189.316 85.4972 189.782 86.0608C190.127 86.4778 190.679 86.6949 191.468 86.724C192.315 86.7572 192.92 86.5726 193.312 86.1645C193.837 85.6169 193.782 84.9084 193.741 84.3916C193.731 84.2662 193.721 84.1424 193.722 84.0248C193.736 82.9388 193.733 81.8527 193.729 80.7676C193.723 79.3692 193.718 77.9234 193.755 76.5094C193.762 76.2512 193.742 75.9896 193.721 75.7265C193.658 74.9368 193.651 74.5708 194.15 74.1755C195.799 72.8684 196.612 70.9112 196.439 68.6643L196.433 68.5775C196.271 66.4805 196.265 65.2463 198.024 64.2685C199.29 63.5646 198.694 62.0134 198.469 61.4292C198.11 60.4954 198.421 60.2238 198.8 60.0075L198.873 59.9661C199.459 59.6305 199.629 59.5515 200.028 59.7802C200.751 60.1948 200.993 60.7059 200.771 61.3417C200.229 62.8831 200.601 63.9308 202.055 64.9567C202.654 65.3795 202.731 66.0978 202.785 67.2311C202.794 67.4114 202.803 67.5895 202.815 67.7646C202.83 67.9707 202.809 68.205 202.787 68.4532C202.769 68.6593 202.751 68.8656 202.747 69.0715C202.729 70.3098 203.743 71.8113 204.724 73.2631C205.16 73.9087 205.758 74.7934 205.807 75.0147C205.747 75.7573 205.772 76.4934 205.796 77.2051C205.81 77.6165 205.824 78.028 205.821 78.4387C205.818 78.7875 205.813 79.5141 206.325 80.0252C206.679 80.379 207.189 80.532 207.875 80.5402C209.813 80.5181 209.809 79.0225 209.808 78.3771C209.813 72.9641 209.819 67.5509 209.837 62.139C209.837 62.1119 209.837 62.0843 209.837 62.0564H220.437C220.382 65.0211 220.394 68.0317 220.405 70.943C220.409 72.0757 220.414 73.2082 220.415 74.34L220.413 74.6079C220.411 74.932 220.41 75.2568 220.43 75.5798L220.435 75.6998C220.464 76.678 220.909 77.2093 221.759 77.2789C222.256 77.3177 222.66 77.1986 222.961 76.9242C223.426 76.499 223.432 75.8924 223.437 75.5143L223.452 74.3975C223.473 73.0637 223.495 71.6841 223.429 70.3174C223.409 69.885 223.476 69.783 223.476 69.783C223.477 69.7815 223.602 69.6616 224.227 69.6839C227.735 69.7429 231.362 69.7353 235.008 69.6579C235.59 69.6436 235.726 69.7535 235.726 69.7535C235.729 69.7574 235.799 69.8551 235.776 70.3228C235.736 71.1823 235.744 72.0458 235.752 72.881C235.759 73.6156 235.766 74.3504 235.74 75.0843C235.722 75.6162 235.762 76.2918 236.249 76.7995C236.768 77.3397 237.53 77.406 238.058 77.4093C238.6 77.4182 239.362 77.3551 239.884 76.8279C240.374 76.3345 240.429 75.6713 240.422 75.1474C240.384 72.2868 240.397 69.3728 240.41 66.5553L240.413 65.7537H250.403C250.407 66.0188 250.413 66.2846 250.419 66.5497C250.442 67.5223 250.463 68.4412 250.383 69.3574C250.29 70.4211 250.505 71.1888 251.038 71.7047C251.798 72.4402 252.959 72.3972 253.767 72.2992C254.275 72.238 254.789 72.2126 255.33 72.1879V93.5009C255.33 93.9591 255.701 94.3301 256.159 94.3301H304.889V92.6715H256.988Z" fill="#11366A"/>
<path d="M122.828 28.1449L118.971 34.9125H117.566C117.175 34.9125 116.837 35.1859 116.755 35.5679C116.673 35.9499 116.684 36.3378 116.694 36.7123C116.697 36.8268 116.7 36.9414 116.7 37.0548L116.697 40.6919C116.688 52.611 116.678 64.9361 116.622 77.0585C116.621 77.3015 116.667 77.5362 116.711 77.764C116.738 77.9048 116.781 78.1252 116.779 78.2441C116.715 78.266 116.579 78.2985 116.324 78.3033C116.301 78.3042 116.278 78.3042 116.257 78.3042C115.921 78.3042 115.786 78.2547 115.764 78.2643C115.743 78.1534 115.791 77.8642 115.822 77.6878C115.862 77.4514 115.904 77.2067 115.9 76.958C115.852 74.0208 115.854 71.0296 115.856 68.1369C115.858 66.5922 115.859 65.0472 115.853 63.5019C115.849 62.4738 115.845 61.4103 114.977 61.2131C114.109 61.0157 114.131 60.8588 114.25 59.9906C114.299 59.637 114.354 59.2356 114.296 58.8315C114.276 58.6937 114.27 58.5544 114.263 58.4189C114.227 57.7118 114.145 56.2379 111.908 56.2995C110.866 56.3266 109.881 56.3522 109.287 57.0818C108.916 57.5365 108.806 58.1431 108.949 58.9408C108.958 58.9946 108.973 59.0745 108.982 59.1456C108.695 59.1875 108.369 59.1955 108.025 59.2044C106.976 59.2315 105.302 59.2745 104.707 60.9161C104.144 60.953 103.713 61.1224 103.4 61.429C102.811 62.006 102.877 62.8079 102.924 63.3938C102.936 63.5394 102.949 63.6837 102.948 63.8192C102.928 66.9712 102.92 70.123 102.913 73.275C102.908 75.3394 102.903 77.4028 102.895 79.467L102.897 79.6653C102.898 79.7213 102.9 79.7903 102.899 79.8525C102.869 79.8549 102.84 79.8516 102.804 79.8499C102.798 79.8493 102.792 79.8493 102.787 79.8484C102.786 79.8054 102.786 79.7601 102.786 79.7221C102.785 79.6356 102.784 79.5488 102.779 79.4655C102.765 79.1867 102.767 78.9073 102.768 78.6281L102.769 78.3194L102.762 72.023C102.759 65.6464 102.755 59.0525 102.679 52.5657C102.676 52.3783 102.721 52.1166 102.767 51.8394C102.896 51.0783 103.072 50.0368 102.387 49.2742C101.92 48.7551 101.169 48.4858 100.096 48.513C100.076 48.0355 99.8897 47.6248 99.5677 47.3545C99.3364 47.1601 98.9303 46.9466 98.3068 47.0395C97.3735 47.177 97.1277 47.0061 97.088 46.9701C96.9273 46.8264 96.9483 46.2227 96.9637 45.7816C96.9696 45.6157 96.9754 45.4493 96.9759 45.2861C96.9811 43.6827 96.9798 42.079 96.9787 40.4756L96.9778 38.4372C96.9778 38.2146 96.8885 38.0011 96.7296 37.8452C96.5704 37.6894 96.3361 37.6104 96.1331 37.608L95.5506 37.6189C95.0987 37.6273 94.7366 37.9964 94.7366 38.4483L94.7407 40.7837C94.7455 42.6303 94.7502 44.4769 94.7277 46.3231C94.7114 47.6087 93.1728 48.3097 92.5116 48.5514C91.4247 48.949 90.4639 49.4328 90.6465 50.9703C90.6797 51.2473 90.6789 51.6222 90.486 51.8337C90.3048 52.0324 89.9172 52.1348 89.3919 52.1216C88.832 52.1073 88.204 52.1539 87.7562 52.6102C87.5525 52.818 87.316 53.1942 87.344 53.8064C87.3444 53.812 87.3444 53.8177 87.3446 53.8229C86.5009 53.7485 85.8887 53.9016 85.4748 54.2971C84.9084 54.8369 84.94 55.5919 84.9626 56.1429C84.9671 56.2464 84.9715 56.3496 84.9715 56.4505L84.9695 65.7832C84.9691 70.1981 84.9691 74.6127 84.963 79.0273C84.9626 79.1529 84.97 79.2833 84.9776 79.4145C84.9849 79.5382 84.9958 79.731 84.9845 79.8371C84.927 79.8508 84.8183 79.8694 84.6192 79.8631C84.5153 79.8605 84.4411 79.8516 84.3909 79.8419C84.3948 79.7586 84.4083 79.6484 84.4181 79.5666C84.4391 79.3932 84.4569 79.224 84.4558 79.0711C84.42 74.9587 84.4283 70.7749 84.4358 66.7287L84.4419 65.716C84.4578 65.0534 84.4771 64.2291 83.8508 63.6546C83.3932 63.2346 82.714 63.0782 81.7774 63.1827C81.7759 63.1827 81.7744 63.1832 81.7731 63.1832C81.7731 63.1773 81.7731 63.1719 81.7735 63.1658C81.7885 62.7178 81.7805 62.2664 81.7718 61.8129C81.7468 60.4905 81.7232 59.2413 82.3068 58.0626C82.4343 57.8053 82.4198 57.501 82.2684 57.2571C82.1171 57.0133 81.8505 56.8651 81.5637 56.8651H72.1032C71.808 56.8651 71.5348 57.0224 71.3864 57.2775C71.2378 57.5329 71.2363 57.8476 71.3823 58.1043C71.7602 58.7692 71.9364 59.355 71.937 59.9483C71.9427 66.2844 71.9481 72.6211 71.9201 78.9576C71.9197 79.0856 71.9266 79.2184 71.9338 79.3529C71.9433 79.5132 71.9583 79.782 71.9505 79.8274C71.9498 79.8282 71.8331 79.9085 71.409 79.91H71.3975C71.0096 79.91 70.884 79.8499 70.8766 79.8525C70.8434 79.7683 70.8536 79.4963 70.8597 79.3319C70.8642 79.2151 70.8682 79.0993 70.8677 78.9852C70.8512 75.6228 70.8517 72.2608 70.8521 68.8986V65.7195C70.8521 64.7185 70.728 64.0234 70.4499 63.4654C70.3097 63.1836 70.0223 63.0057 69.7077 63.0057H58.2626C57.8743 63.0057 57.5489 63.2725 57.458 63.6327H57.4575C57.2271 64.3792 57.1228 65.0183 57.1475 65.5314C57.2924 68.5256 57.2447 71.5904 57.1989 74.5545L57.1746 76.1725C57.1725 76.3378 57.1961 76.5274 57.2243 76.7233C57.2349 76.793 57.249 76.8893 57.2568 76.9719C57.2267 76.9743 57.1916 76.9758 57.1499 76.9758C57.1163 76.9758 57.0761 76.9743 57.0449 76.9726C57.0495 76.8982 57.0588 76.8125 57.0662 76.745C57.0839 76.5751 57.0989 76.4092 57.0952 76.2608C57.0471 74.1517 57.0243 72.0417 57.0022 69.9317C56.9542 65.5058 56.9054 60.9293 56.6097 56.429C56.3485 52.4594 56.949 50.042 60.8594 48.6371C61.1901 48.519 61.3315 48.2602 61.3996 48.1359C61.4152 48.1077 61.4348 48.071 61.4636 48.0266C61.625 47.7788 61.6422 47.4638 61.5085 47.1998C61.3751 46.9358 61.1109 46.7633 60.8156 46.7462C60.3837 46.7219 60.1253 46.6652 59.9786 46.6182C60.0389 46.5305 60.139 46.4064 60.303 46.2442C60.5091 46.0391 60.5932 45.7415 60.5249 45.4595C60.4566 45.1768 60.245 44.9507 59.9678 44.8637L59.7968 44.8063C59.6832 44.7661 59.5543 44.7203 59.3833 44.7156C58.7375 44.6958 58.0919 44.6778 57.4454 44.6657C56.9382 44.1096 56.078 41.2458 55.6306 28.8402C55.605 28.1402 55.5857 27.6065 55.5686 27.3047C55.5443 26.886 55.2111 26.5513 54.7924 26.525C54.3589 26.504 54.0012 26.7897 53.925 27.2023C53.502 29.4974 53.3332 31.8096 53.1705 34.0456L53.1117 34.8652C52.6464 42.1719 51.3981 44.652 50.9004 44.6613C50.6014 44.667 50.3031 44.6848 49.925 44.7082L49.2796 44.7459C48.9503 44.7637 48.6628 44.9748 48.5474 45.2833C48.432 45.5922 48.5101 45.94 48.747 46.1695C48.9546 46.3709 49.0685 46.5162 49.1305 46.6106C48.9798 46.6765 48.6741 46.7737 48.0849 46.8507C47.7358 46.8969 47.4538 47.1581 47.3815 47.5031C47.3091 47.8476 47.4625 48.2008 47.7638 48.383C48.1502 48.6162 48.5025 48.8416 48.8362 49.0555C49.5382 49.5048 50.2014 49.9298 50.9258 50.2613C52.1856 50.838 52.5949 51.5254 52.5479 52.9855C52.3431 59.3773 52.2164 65.9039 52.1715 72.3903V92.6715H4.20508V94.3301H53.0006C53.4586 94.3301 53.83 93.9591 53.83 93.5007V72.3959C53.8749 65.929 54.0012 59.4166 54.2057 53.0391C54.2734 50.9258 53.4749 49.6042 51.6163 48.7536C51.1316 48.5316 50.6659 48.2526 50.1597 47.9326C50.4489 47.7419 50.6745 47.4881 50.7878 47.1466C50.883 46.8592 50.8733 46.5806 50.8047 46.3227C50.8472 46.3214 50.8893 46.3207 50.9316 46.3199C51.623 46.3064 53.5827 46.2695 54.4969 38.1064C55.0954 44.7759 56.0018 46.2993 57.2896 46.3218C57.6233 46.3277 57.9569 46.3353 58.2906 46.3437C58.2034 46.652 58.2136 46.9479 58.3205 47.2302C58.4058 47.456 58.5416 47.6376 58.7071 47.7836C54.882 49.8747 54.7459 53.3647 54.9544 56.5375C55.2475 60.9925 55.2961 65.5457 55.3434 69.9494C55.3662 72.066 55.389 74.1827 55.4371 76.299C55.4391 76.3816 55.4267 76.4747 55.4165 76.5701C55.3727 76.9832 55.3063 77.6084 55.7465 78.1081C56.0433 78.4443 56.49 78.6216 57.0751 78.6337C57.7495 78.6305 58.2364 78.4749 58.5618 78.1057C59.0258 77.58 58.9295 76.9201 58.8655 76.4827C58.8505 76.3799 58.8319 76.2812 58.8332 76.1953L58.857 74.5803C58.9037 71.59 58.9518 68.4985 58.8043 65.4511C58.798 65.3212 58.8065 65.0706 58.8967 64.6642H69.1118C69.1662 64.9422 69.1936 65.2921 69.1936 65.7199V68.8986C69.1929 72.2636 69.1927 75.6284 69.2092 78.9932C69.2096 79.0839 69.2059 79.177 69.2025 79.2694C69.1838 79.7716 69.1578 80.4582 69.6708 80.9887C70.0507 81.3815 70.6289 81.5629 71.4153 81.5685C72.2078 81.5653 72.7749 81.3709 73.1495 80.9724C73.6561 80.4348 73.6179 79.7562 73.5901 79.2596C73.5843 79.16 73.5782 79.0605 73.5787 78.9641C73.6066 72.625 73.6014 66.2861 73.5958 59.9466C73.5954 59.4726 73.5216 59.0007 73.3726 58.5236H80.3744C80.0725 59.6713 80.0939 60.8091 80.1132 61.844C80.1215 62.2687 80.1299 62.6911 80.1158 63.1098C80.0922 63.8071 80.3729 64.2184 80.6122 64.4408C80.8498 64.6603 81.2791 64.9068 81.9577 64.8315C82.5716 64.7636 82.7265 64.874 82.727 64.874C82.8003 64.973 82.7892 65.4309 82.7838 65.6767L82.7773 66.7257C82.7697 70.7758 82.7615 74.9643 82.7971 79.0856C82.7979 79.173 82.7838 79.2685 82.7717 79.3666C82.7207 79.7868 82.6432 80.4218 83.0904 80.9409C83.4106 81.3126 83.8957 81.5022 84.5727 81.5217C85.3064 81.5427 85.8356 81.3709 86.1972 80.9984C86.701 80.4793 86.66 79.7805 86.6333 79.318C86.6276 79.2201 86.6216 79.1227 86.6216 79.0296C86.6276 74.6144 86.6276 70.1987 86.6281 65.7832L86.6302 56.4514C86.6302 56.3279 86.6253 56.2008 86.62 56.0739C86.6118 55.8817 86.5986 55.5602 86.6053 55.5083C86.6075 55.5079 86.737 55.4341 87.1969 55.4751C87.8801 55.5378 88.2983 55.2873 88.5283 55.0673C88.7491 54.856 89.0036 54.475 89.0049 53.7886C89.075 53.7806 89.1835 53.7756 89.3496 53.7793C90.3829 53.8029 91.1865 53.527 91.7122 52.9503C92.0515 52.5778 92.4276 51.8979 92.2936 50.774C92.2673 50.5542 92.2921 50.4876 92.2916 50.4876C92.3233 50.4427 92.4678 50.3333 93.0813 50.1086C94.3643 49.6398 95.3143 48.9377 95.8586 48.0854C95.8974 48.127 95.9387 48.1676 95.9829 48.2069C96.517 48.685 97.2878 48.8434 98.4433 48.698C98.4639 49.0887 98.5481 49.5491 98.9069 49.8775C99.1438 50.0949 99.4599 50.201 99.7935 50.1823C100.859 50.117 101.113 50.3383 101.153 50.3828C101.303 50.5496 101.204 51.1356 101.132 51.5632C101.075 51.9003 101.016 52.2492 101.02 52.5852C101.097 59.0632 101.1 65.652 101.104 72.0243L101.11 78.3226L101.109 78.6201C101.108 78.9318 101.107 79.2427 101.123 79.5536C101.127 79.6119 101.127 79.6718 101.127 79.7319C101.129 80.1482 101.136 81.413 102.706 81.5054C103.319 81.541 103.778 81.405 104.108 81.0884C104.576 80.6372 104.564 80.0321 104.555 79.6315L104.554 79.4735C104.562 77.4084 104.567 75.344 104.572 73.2789C104.579 70.1291 104.587 66.9797 104.607 63.8299C104.608 63.6483 104.594 63.4543 104.578 63.2591C104.56 63.0467 104.531 62.6907 104.551 62.6219C104.553 62.6208 104.709 62.5271 105.27 62.5846C105.721 62.6356 106.116 62.3141 106.176 61.8713C106.294 60.9966 106.64 60.899 108.068 60.8627C108.5 60.8512 108.946 60.84 109.382 60.7606C109.953 60.6564 110.868 60.2436 110.58 58.6423C110.52 58.3076 110.556 58.1557 110.572 58.1297C110.705 57.9902 111.485 57.9698 111.959 57.9572C111.993 57.9565 112.025 57.9561 112.055 57.9561C112.418 57.9561 112.554 58.029 112.549 58.011C112.585 58.0848 112.598 58.3364 112.606 58.5035C112.616 58.6894 112.627 58.8801 112.654 59.0684C112.679 59.2409 112.644 59.4951 112.607 59.7646C112.501 60.5304 112.29 62.0685 114.167 62.7065C114.182 62.8682 114.193 63.1187 114.195 63.5084C114.201 65.0506 114.2 66.5931 114.198 68.1358C114.195 71.0355 114.193 74.0336 114.241 76.9856C114.244 77.1119 114.213 77.2576 114.187 77.4093C114.098 77.93 113.964 78.7162 114.488 79.3253C114.871 79.7699 115.487 79.9877 116.356 79.9619C117.171 79.9456 117.739 79.726 118.091 79.2904C118.579 78.688 118.434 77.9428 118.339 77.4488C118.312 77.3112 118.28 77.18 118.281 77.0659C118.337 64.9408 118.347 52.6139 118.356 40.693L118.359 37.0566C118.359 36.9277 118.356 36.7973 118.352 36.6674C118.351 36.6355 118.35 36.6029 118.349 36.571H119.453C119.751 36.571 120.026 36.4112 120.174 36.1523L122.828 31.4941V28.1449Z" fill="#11366A"/>
<path d="M10.0559 107.48V118.334H22.8253V123.282H10.0559V134.615H24.4215V139.563H3.99044V102.532H24.4215V107.48H10.0559ZM29.8706 124.772C29.8706 121.828 30.4736 119.221 31.6796 116.95C32.921 114.68 34.5881 112.925 36.6809 111.683C38.8091 110.406 41.1502 109.768 43.7041 109.768C46.0097 109.768 48.0138 110.229 49.7164 111.151C51.4544 112.038 52.8378 113.155 53.8664 114.503V110.247H59.9851V139.563H53.8664V135.2C52.8378 136.583 51.4367 137.736 49.6632 138.658C47.8896 139.581 45.8678 140.042 43.5977 140.042C41.0793 140.042 38.7737 139.403 36.6809 138.126C34.5881 136.814 32.921 135.005 31.6796 132.699C30.4736 130.358 29.8706 127.716 29.8706 124.772ZM53.8664 124.878C53.8664 122.856 53.4408 121.101 52.5895 119.611C51.7737 118.121 50.6918 116.986 49.3439 116.206C47.996 115.425 46.5417 115.035 44.981 115.035C43.4203 115.035 41.966 115.425 40.6181 116.206C39.2703 116.95 38.1707 118.068 37.3194 119.558C36.5036 121.012 36.0956 122.75 36.0956 124.772C36.0956 126.794 36.5036 128.567 37.3194 130.092C38.1707 131.618 39.2703 132.788 40.6181 133.604C42.0015 134.384 43.4558 134.774 44.981 134.774C46.5417 134.774 47.996 134.384 49.3439 133.604C50.6918 132.824 51.7737 131.689 52.5895 130.199C53.4408 128.674 53.8664 126.9 53.8664 124.878ZM78.593 140.042C76.2874 140.042 74.2124 139.634 72.3679 138.818C70.5589 137.967 69.1224 136.832 68.0583 135.413C66.9941 133.959 66.4266 132.345 66.3557 130.571H72.634C72.7404 131.813 73.3257 132.859 74.3898 133.71C75.4894 134.526 76.855 134.934 78.4866 134.934C80.1892 134.934 81.5016 134.615 82.4239 133.976C83.3816 133.302 83.8604 132.451 83.8604 131.422C83.8604 130.323 83.3284 129.507 82.2642 128.975C81.2356 128.443 79.5862 127.858 77.3161 127.219C75.1169 126.616 73.3257 126.031 71.9423 125.463C70.5589 124.896 69.3529 124.027 68.3243 122.856C67.3311 121.686 66.8345 120.143 66.8345 118.227C66.8345 116.667 67.2956 115.248 68.2179 113.971C69.1401 112.659 70.4525 111.63 72.1551 110.885C73.8932 110.14 75.8795 109.768 78.1142 109.768C81.4484 109.768 84.1265 110.619 86.1483 112.322C88.2056 113.989 89.3052 116.277 89.447 119.185H83.3816C83.2752 117.873 82.7431 116.826 81.7854 116.046C80.8277 115.266 79.533 114.875 77.9014 114.875C76.3052 114.875 75.0814 115.177 74.2302 115.78C73.3789 116.383 72.9532 117.181 72.9532 118.174C72.9532 118.955 73.237 119.611 73.8045 120.143C74.372 120.675 75.0637 121.101 75.8795 121.42C76.6954 121.704 77.9014 122.076 79.4975 122.537C81.6258 123.105 83.3638 123.69 84.7117 124.293C86.0951 124.86 87.2833 125.712 88.2765 126.847C89.2697 127.982 89.784 129.489 89.8195 131.369C89.8195 133.036 89.3584 134.526 88.4361 135.839C87.5139 137.151 86.2015 138.18 84.4989 138.925C82.8318 139.669 80.8632 140.042 78.593 140.042ZM122.764 110.247L104.78 153.343H98.5016L104.461 139.084L92.915 110.247H99.6721L107.919 132.593L116.485 110.247H122.764ZM153.891 110.247V139.563H147.825V136.105C146.867 137.311 145.608 138.268 144.048 138.978C142.522 139.652 140.891 139.989 139.153 139.989C136.847 139.989 134.772 139.51 132.927 138.552C131.118 137.594 129.682 136.176 128.618 134.296C127.589 132.416 127.075 130.146 127.075 127.485V110.247H133.087V126.581C133.087 129.206 133.743 131.227 135.056 132.646C136.368 134.03 138.159 134.721 140.43 134.721C142.7 134.721 144.491 134.03 145.803 132.646C147.151 131.227 147.825 129.206 147.825 126.581V110.247H153.891ZM197.382 109.768C199.687 109.768 201.745 110.247 203.554 111.204C205.398 112.162 206.835 113.581 207.863 115.461C208.928 117.341 209.46 119.611 209.46 122.271V139.563H203.447V123.176C203.447 120.551 202.791 118.547 201.479 117.163C200.166 115.744 198.375 115.035 196.105 115.035C193.835 115.035 192.026 115.744 190.678 117.163C189.366 118.547 188.709 120.551 188.709 123.176V139.563H182.697V123.176C182.697 120.551 182.041 118.547 180.728 117.163C179.416 115.744 177.625 115.035 175.355 115.035C173.085 115.035 171.276 115.744 169.928 117.163C168.615 118.547 167.959 120.551 167.959 123.176V139.563H161.894V110.247H167.959V113.598C168.952 112.392 170.211 111.453 171.737 110.779C173.262 110.105 174.894 109.768 176.632 109.768C178.973 109.768 181.065 110.264 182.91 111.257C184.754 112.251 186.173 113.687 187.166 115.567C188.053 113.794 189.436 112.392 191.316 111.364C193.196 110.3 195.218 109.768 197.382 109.768ZM222.552 134.615H235.853V139.563H215.528V134.615L228.883 115.195H215.528V110.247H235.853V115.195L222.552 134.615ZM268.772 110.247V139.563H262.706V136.105C261.749 137.311 260.489 138.268 258.929 138.978C257.403 139.652 255.772 139.989 254.034 139.989C251.728 139.989 249.653 139.51 247.809 138.552C246 137.594 244.563 136.176 243.499 134.296C242.47 132.416 241.956 130.146 241.956 127.485V110.247H247.968V126.581C247.968 129.206 248.624 131.227 249.937 132.646C251.249 134.03 253.041 134.721 255.311 134.721C257.581 134.721 259.372 134.03 260.684 132.646C262.032 131.227 262.706 129.206 262.706 126.581V110.247H268.772ZM288.586 109.768C290.857 109.768 292.861 110.229 294.599 111.151C296.372 112.038 297.756 113.155 298.749 114.503V110.247H304.867V140.042C304.867 142.738 304.3 145.132 303.165 147.225C302.03 149.353 300.38 151.02 298.217 152.226C296.088 153.432 293.535 154.035 290.555 154.035C286.582 154.035 283.284 153.095 280.659 151.215C278.034 149.371 276.544 146.852 276.189 143.66H282.202C282.663 145.185 283.638 146.409 285.128 147.331C286.653 148.289 288.462 148.768 290.555 148.768C293.002 148.768 294.971 148.023 296.461 146.533C297.986 145.043 298.749 142.879 298.749 140.042V135.147C297.72 136.53 296.319 137.701 294.545 138.658C292.807 139.581 290.821 140.042 288.586 140.042C286.033 140.042 283.691 139.403 281.563 138.126C279.47 136.814 277.803 135.005 276.562 132.699C275.356 130.358 274.753 127.716 274.753 124.772C274.753 121.828 275.356 119.221 276.562 116.95C277.803 114.68 279.47 112.925 281.563 111.683C283.691 110.406 286.033 109.768 288.586 109.768ZM298.749 124.878C298.749 122.856 298.323 121.101 297.472 119.611C296.656 118.121 295.574 116.986 294.226 116.206C292.878 115.425 291.424 115.035 289.863 115.035C288.303 115.035 286.848 115.425 285.5 116.206C284.153 116.95 283.053 118.068 282.202 119.558C281.386 121.012 280.978 122.75 280.978 124.772C280.978 126.794 281.386 128.567 282.202 130.092C283.053 131.618 284.153 132.788 285.5 133.604C286.884 134.384 288.338 134.774 289.863 134.774C291.424 134.774 292.878 134.384 294.226 133.604C295.574 132.824 296.656 131.689 297.472 130.199C298.323 128.674 298.749 126.9 298.749 124.878Z" fill="#11366A"/>
<path d="M153.593 97.4853V39.7693C153.593 39.2537 153.175 38.8357 152.659 38.8357H148.369C147.854 38.8357 147.436 39.2537 147.436 39.7693V60.3162C147.436 60.5557 147.241 60.7499 147.002 60.7499H132.3C132.06 60.7499 131.866 60.5557 131.866 60.3162V28C131.866 27.3096 131.307 26.75 130.616 26.75H127C126.31 26.75 125.75 27.3096 125.75 28V97.4853C125.75 98.1756 126.31 98.7353 127 98.7353H130.616C131.307 98.7353 131.866 98.1756 131.866 97.4853V68.6835C131.866 68.444 132.06 68.2499 132.3 68.2499H147.002C147.241 68.2499 147.436 68.444 147.436 68.6835V97.4853C147.436 98.1756 147.995 98.7353 148.686 98.7353H152.343C153.033 98.7353 153.593 98.1756 153.593 97.4853Z" fill="#11366A" stroke="#11366A" stroke-width="0.5"/>
<path d="M153.339 59.7068H153.589V59.4568V21.3478L163.463 58.7757C163.608 59.3244 164.104 59.7068 164.672 59.7068H167.048C167.616 59.7068 168.112 59.3237 168.257 58.7743L178.082 21.3566V58.4568C178.082 59.1471 178.642 59.7068 179.332 59.7068H182.985C183.676 59.7068 184.235 59.1471 184.235 58.4568V2C184.235 1.30964 183.676 0.75 182.985 0.75H178.706C178.138 0.75 177.642 1.13291 177.498 1.6822L165.885 45.8588L154.223 1.68098C154.079 1.13228 153.582 0.75 153.015 0.75H148.686C147.995 0.75 147.436 1.30964 147.436 2V59.4568V59.7068H147.686H150.512H153.339Z" fill="#11366A" stroke="#11366A" stroke-width="0.5"/>
</svg>
