<svg width="309" height="157" viewBox="0 0 309 157" fill="none" xmlns="http://www.w3.org/2000/svg">
<path d="M178.833 75.7883C178.833 75.7364 178.835 75.6798 178.836 75.6345C178.839 75.4976 178.842 75.3616 178.832 75.2336C178.814 74.9808 178.82 74.7283 178.824 74.4756L178.835 71.2322C178.84 68.7443 178.844 66.2562 178.861 63.7678C178.883 67.5158 178.868 71.2511 178.848 75.3121C178.848 75.4256 178.857 75.5494 178.869 75.6766C178.871 75.7098 178.875 75.7495 178.878 75.7892C178.862 75.7898 178.846 75.7883 178.833 75.7883ZM256.988 90.1476V68.7918C256.988 68.563 256.894 68.3443 256.727 68.1881C256.561 68.0312 256.336 67.9471 256.108 67.9642C255.854 67.9794 255.599 67.9913 255.344 68.003C254.765 68.0293 254.166 68.0568 253.569 68.1289C252.58 68.248 252.275 68.0709 252.191 67.9891C252.046 67.8486 251.991 67.4895 252.035 66.9777C252.123 65.9703 252.1 64.9623 252.077 63.9876C252.065 63.4613 252.053 62.9346 252.059 62.4091C252.061 62.1878 251.975 61.9746 251.819 61.8171C251.663 61.6598 251.451 61.5713 251.23 61.5713H239.582C239.354 61.5713 239.136 61.6648 238.98 61.8299C238.823 61.9952 238.741 62.2173 238.754 62.4449L238.758 62.5317L238.751 64.0236C238.739 66.8489 238.725 69.77 238.763 72.6454C238.768 73.0439 238.708 73.1353 238.708 73.1353C238.708 73.1353 238.584 73.2464 238.067 73.2268C237.568 73.2236 237.447 73.1288 237.447 73.1288C237.444 73.1249 237.383 73.0342 237.398 72.6187C237.424 71.8605 237.418 71.101 237.411 70.3417C237.403 69.5294 237.395 68.6892 237.433 67.877C237.46 67.3121 237.425 66.5966 236.914 66.0727C236.367 65.5114 235.544 65.465 234.973 65.4754C231.347 65.5524 227.741 65.5609 224.255 65.5014C223.624 65.4973 222.824 65.55 222.286 66.1039C222.195 66.1978 222.119 66.2983 222.056 66.4026C222.051 64.1334 222.053 61.8271 222.096 59.5526C222.103 59.1632 222.087 58.8545 222.047 58.5813C221.987 58.1748 221.637 57.8739 221.226 57.8739H208.974C208.518 57.8739 208.147 58.2423 208.145 58.6987C208.144 58.8647 208.154 59.0367 208.163 59.2085C208.171 59.3437 208.179 59.4786 208.179 59.609C208.161 65.0231 208.155 70.4369 208.15 75.8516V75.9388C208.15 76.0603 208.15 76.2322 208.137 76.3302C208.088 76.3424 208 76.356 207.857 76.3578H207.831C207.624 76.3578 207.524 76.3382 207.51 76.3374C207.499 76.2994 207.478 76.194 207.479 75.9278C207.483 75.4935 207.468 75.0596 207.454 74.6246C207.43 73.9289 207.407 73.2713 207.46 72.6244C207.515 71.9423 207.031 71.1904 206.098 69.8102C205.379 68.7467 204.395 67.2899 204.406 66.5731C204.409 66.4078 204.424 66.2419 204.439 66.0763C204.464 65.7876 204.493 65.4604 204.469 65.1218C204.457 64.9604 204.45 64.7949 204.442 64.6276C204.385 63.4557 204.315 61.9976 203.011 61.0779C202.116 60.4456 202.062 60.1451 202.336 59.3669C202.829 57.96 202.275 56.6336 200.854 55.8181C199.616 55.107 198.673 55.6461 197.979 56.0427C197.248 56.4594 196.138 57.4628 196.921 59.5005C197.107 59.9843 197.156 60.2175 197.156 60.3297C194.448 61.8717 194.624 64.1601 194.779 66.1809L194.786 66.2675C194.951 68.4204 193.971 69.677 193.12 70.3519C191.907 71.3127 192 72.4818 192.068 73.3344C192.084 73.5386 192.102 73.7419 192.097 73.9427C192.06 75.3817 192.065 76.8396 192.07 78.2495C192.074 79.3258 192.078 80.402 192.064 81.4783C192.062 81.6451 192.074 81.8209 192.088 81.9974C192.101 82.1643 192.123 82.4444 192.13 82.4793C192.13 82.4793 191.997 82.5602 191.53 82.5433C191.283 82.5335 191.149 82.5003 191.086 82.4784C191.085 82.3765 191.112 82.2007 191.129 82.0873C191.161 81.8783 191.188 81.6733 191.187 81.4896C191.162 77.6818 191.161 73.8731 191.159 70.0644C191.158 67.206 191.157 64.3473 191.146 61.4886C191.145 61.2804 191.144 61.076 191.134 60.8731C191.111 60.4317 190.747 60.0859 190.306 60.0859H179.686C179.25 60.0859 178.888 60.4245 178.859 60.8597C178.846 61.0569 178.84 61.2574 178.842 61.4611C178.845 61.7477 178.847 62.0336 178.85 62.3195C178.816 62.1681 178.74 62.0275 178.629 61.9158C178.474 61.7587 178.262 61.6704 178.041 61.6704H172.183H165.44C165.069 61.6704 164.768 61.9709 164.768 62.3416V82.5433L157 82.4784V84.2001H165.775C166.146 84.2001 166.446 83.8996 166.446 83.5289V63.329H177.205C177.186 65.9624 177.181 68.5957 177.176 71.2292L177.166 74.4447C177.161 74.7476 177.156 75.0513 177.178 75.3527C177.184 75.4288 177.18 75.5097 177.178 75.5907C177.168 75.9649 177.153 76.53 177.579 76.9748C177.87 77.2793 178.294 77.4379 178.838 77.4477C179.408 77.4444 179.868 77.2978 180.168 76.9756C180.606 76.5051 180.553 75.8961 180.521 75.5316C180.514 75.4579 180.507 75.3859 180.507 75.3203C180.53 70.5289 180.546 66.19 180.503 61.7446H189.488C189.498 64.5182 189.5 67.2914 189.501 70.0653C189.502 73.877 189.504 77.6889 189.529 81.5002C189.529 81.6039 189.507 81.7187 189.49 81.8369C189.42 82.2897 189.316 82.9733 189.782 83.5369C190.127 83.9539 190.679 84.171 191.468 84.2001C192.315 84.2333 192.92 84.0487 193.312 83.6406C193.837 83.093 193.782 82.3845 193.741 81.8677C193.731 81.7423 193.721 81.6184 193.722 81.5009C193.736 80.4148 193.733 79.3288 193.729 78.2437C193.723 76.8452 193.718 75.3995 193.755 73.9855C193.762 73.7273 193.742 73.4657 193.721 73.2025C193.658 72.4129 193.651 72.0469 194.15 71.6516C195.799 70.3445 196.612 68.3872 196.439 66.1403L196.433 66.0536C196.271 63.9566 196.265 62.7224 198.024 61.7446C199.29 61.0406 198.694 59.4895 198.469 58.9052C198.11 57.9715 198.421 57.6999 198.8 57.4836L198.873 57.4422C199.459 57.1066 199.629 57.0276 200.028 57.2563C200.75 57.6708 200.993 58.182 200.771 58.8178C200.229 60.3592 200.601 61.4068 202.055 62.4328C202.654 62.8556 202.731 63.5739 202.785 64.7072C202.794 64.8875 202.803 65.0656 202.815 65.2407C202.83 65.4468 202.809 65.6811 202.787 65.9293C202.769 66.1353 202.751 66.3417 202.747 66.5475C202.729 67.7859 203.743 69.2873 204.724 70.7391C205.16 71.3848 205.758 72.2695 205.807 72.4907C205.747 73.2333 205.772 73.9694 205.796 74.6812C205.81 75.0925 205.824 75.5041 205.821 75.9148C205.818 76.2636 205.813 76.9902 206.325 77.5013C206.679 77.8551 207.189 78.0081 207.875 78.0163C209.813 77.9942 209.809 76.4986 209.808 75.8532C209.813 70.4402 209.819 65.027 209.837 59.6151C209.837 59.588 209.837 59.5604 209.837 59.5324H220.437C220.382 62.4972 220.394 65.5077 220.405 68.4191C220.409 69.5518 220.414 70.6842 220.415 71.816L220.413 72.084C220.411 72.4081 220.41 72.7328 220.43 73.0559L220.435 73.1758C220.464 74.154 220.909 74.6853 221.759 74.755C222.256 74.7938 222.66 74.6747 222.961 74.4003C223.426 73.9751 223.432 73.3685 223.437 72.9904L223.452 71.8735C223.473 70.5398 223.495 69.1602 223.429 67.7935C223.409 67.3611 223.476 67.2591 223.476 67.2591C223.477 67.2576 223.602 67.1376 224.227 67.16C227.735 67.219 231.362 67.2114 235.008 67.1339C235.59 67.1196 235.726 67.2296 235.726 67.2296C235.729 67.2335 235.799 67.3311 235.776 67.7989C235.736 68.6584 235.744 69.5218 235.752 70.3571C235.759 71.0917 235.766 71.8265 235.74 72.5604C235.722 73.0923 235.762 73.7679 236.249 74.2755C236.768 74.8157 237.53 74.8821 238.058 74.8854C238.6 74.8943 239.362 74.8311 239.884 74.304C240.374 73.8106 240.429 73.1474 240.422 72.6235C240.384 69.7629 240.397 66.8489 240.41 64.0314L240.413 63.2298H250.403C250.407 63.4949 250.413 63.7607 250.419 64.0258C250.442 64.9983 250.463 65.9173 250.383 66.8335C250.29 67.8972 250.505 68.6649 251.038 69.1808C251.798 69.9163 252.959 69.8733 253.767 69.7752C254.275 69.7141 254.789 69.6887 255.33 69.6639V90.977C255.33 91.4352 255.701 91.8062 256.159 91.8062H304.889V90.1476H256.988Z" fill="white"/>
<path d="M122.828 25.621L118.971 32.3886H117.566C117.175 32.3886 116.837 32.6619 116.755 33.044C116.673 33.426 116.684 33.8139 116.694 34.1884C116.697 34.3029 116.7 34.4174 116.7 34.5309L116.697 38.168C116.688 50.0871 116.678 62.4122 116.622 74.5346C116.621 74.7775 116.667 75.0123 116.711 75.2401C116.738 75.3809 116.781 75.6013 116.779 75.7202C116.715 75.7421 116.579 75.7746 116.324 75.7794C116.301 75.7803 116.278 75.7803 116.257 75.7803C115.921 75.7803 115.786 75.7308 115.764 75.7403C115.743 75.6295 115.791 75.3403 115.822 75.1639C115.862 74.9275 115.904 74.6827 115.9 74.4341C115.852 71.4969 115.854 68.5057 115.856 65.6129C115.858 64.0683 115.859 62.5232 115.853 60.9779C115.849 59.9498 115.845 58.8864 114.977 58.6892C114.109 58.4918 114.131 58.3349 114.25 57.4667C114.299 57.1131 114.354 56.7117 114.296 56.3076C114.276 56.1698 114.27 56.0305 114.263 55.8949C114.227 55.1879 114.145 53.714 111.908 53.7756C110.866 53.8027 109.881 53.8283 109.287 54.5579C108.916 55.0126 108.806 55.6192 108.949 56.4169C108.958 56.4707 108.973 56.5505 108.982 56.6217C108.695 56.6636 108.369 56.6716 108.025 56.6805C106.976 56.7076 105.302 56.7506 104.707 58.3922C104.144 58.4291 103.713 58.5985 103.4 58.905C102.811 59.4821 102.877 60.2839 102.924 60.8699C102.936 61.0155 102.949 61.1597 102.948 61.2953C102.928 64.4473 102.92 67.5991 102.913 70.7511C102.908 72.8155 102.903 74.8789 102.895 76.9431L102.897 77.1414C102.898 77.1973 102.9 77.2663 102.899 77.3286C102.869 77.331 102.84 77.3277 102.804 77.326C102.798 77.3253 102.792 77.3253 102.787 77.3245C102.786 77.2815 102.786 77.2362 102.786 77.1982C102.785 77.1116 102.784 77.0249 102.779 76.9416C102.765 76.6628 102.767 76.3834 102.768 76.1042L102.769 75.7954L102.762 69.4991C102.759 63.1224 102.755 56.5286 102.679 50.0418C102.676 49.8543 102.721 49.5927 102.767 49.3154C102.896 48.5544 103.072 47.5128 102.387 46.7503C101.92 46.2311 101.169 45.9619 100.096 45.989C100.076 45.5115 99.8897 45.1009 99.5677 44.8306C99.3364 44.6362 98.9303 44.4227 98.3068 44.5155C97.3735 44.6531 97.1277 44.4821 97.088 44.4461C96.9273 44.3025 96.9483 43.6987 96.9637 43.2577C96.9696 43.0917 96.9754 42.9253 96.9759 42.7622C96.9811 41.1588 96.9798 39.5551 96.9787 37.9517L96.9778 35.9133C96.9778 35.6907 96.8885 35.4772 96.7296 35.3212C96.5704 35.1655 96.3361 35.0865 96.133 35.0841L95.5506 35.095C95.0987 35.1034 94.7366 35.4724 94.7366 35.9243L94.7407 38.2597C94.7455 40.1064 94.7503 41.953 94.7277 43.7992C94.7114 45.0848 93.1728 45.7858 92.5116 46.0274C91.4247 46.4251 90.4639 46.9089 90.6465 48.4464C90.6797 48.7234 90.6789 49.0983 90.486 49.3098C90.3048 49.5085 89.9172 49.6109 89.3919 49.5977C88.832 49.5834 88.204 49.63 87.7562 50.0862C87.5525 50.2941 87.316 50.6703 87.344 51.2825C87.3444 51.2881 87.3444 51.2938 87.3446 51.299C86.5009 51.2246 85.8887 51.3777 85.4748 51.7732C84.9084 52.313 84.94 53.0679 84.9626 53.619C84.9671 53.7224 84.9715 53.8257 84.9715 53.9266L84.9695 63.2593C84.9691 67.6741 84.9691 72.0887 84.963 76.5033C84.9626 76.6289 84.97 76.7593 84.9776 76.8906C84.9849 77.0142 84.9958 77.2071 84.9845 77.3132C84.927 77.3269 84.8183 77.3455 84.6192 77.3392C84.5153 77.3366 84.4411 77.3277 84.3909 77.318C84.3948 77.2347 84.4083 77.1244 84.4181 77.0427C84.4391 76.8693 84.4569 76.7001 84.4558 76.5472C84.42 72.4348 84.4283 68.251 84.4358 64.2048L84.4419 63.1921C84.4578 62.5295 84.4771 61.7051 83.8508 61.1307C83.3932 60.7107 82.714 60.5542 81.7774 60.6588C81.7759 60.6588 81.7744 60.6592 81.7731 60.6592C81.7731 60.6534 81.7731 60.648 81.7735 60.6419C81.7885 60.1939 81.7804 59.7424 81.7718 59.289C81.7468 57.9665 81.7232 56.7174 82.3068 55.5387C82.4343 55.2814 82.4198 54.977 82.2684 54.7332C82.1171 54.4893 81.8505 54.3412 81.5637 54.3412H72.1032C71.808 54.3412 71.5348 54.4985 71.3864 54.7536C71.2378 55.0089 71.2363 55.3237 71.3823 55.5804C71.7602 56.2453 71.9364 56.831 71.937 57.4244C71.9427 63.7605 71.9481 70.0972 71.9201 76.4337C71.9197 76.5617 71.9266 76.6945 71.9338 76.829C71.9433 76.9893 71.9583 77.2581 71.9505 77.3034C71.9498 77.3043 71.8331 77.3846 71.409 77.3861H71.3975C71.0096 77.3861 70.884 77.326 70.8766 77.3286C70.8434 77.2444 70.8536 76.9724 70.8597 76.8079C70.8642 76.6912 70.8682 76.5754 70.8677 76.4612C70.8512 73.0988 70.8517 69.7368 70.8521 66.3746V63.1955C70.8521 62.1946 70.728 61.4995 70.4499 60.9415C70.3097 60.6597 70.0223 60.4818 69.7077 60.4818H58.2626C57.8743 60.4818 57.5489 60.7486 57.458 61.1087H57.4575C57.2271 61.8553 57.1228 62.4944 57.1475 63.0074C57.2924 66.0017 57.2447 69.0665 57.1989 72.0306L57.1746 73.6486C57.1725 73.8139 57.1961 74.0035 57.2243 74.1994C57.2349 74.269 57.249 74.3653 57.2568 74.448C57.2267 74.4504 57.1916 74.4519 57.1499 74.4519C57.1163 74.4519 57.0761 74.4504 57.0449 74.4487C57.0495 74.3742 57.0588 74.2885 57.0662 74.2211C57.0839 74.0512 57.0989 73.8853 57.0952 73.7369C57.0471 71.6277 57.0243 69.5177 57.0022 67.4077C56.9542 62.9818 56.9054 58.4054 56.6097 53.9051C56.3485 49.9355 56.949 47.5181 60.8594 46.1131C61.1901 45.9951 61.3315 45.7363 61.3996 45.612C61.4152 45.5838 61.4348 45.5471 61.4636 45.5026C61.625 45.2549 61.6422 44.9399 61.5085 44.6759C61.3751 44.4118 61.1109 44.2394 60.8156 44.2222C60.3837 44.1979 60.1253 44.1413 59.9786 44.0942C60.0389 44.0066 60.139 43.8825 60.303 43.7202C60.5091 43.5152 60.5932 43.2176 60.5249 42.9355C60.4566 42.6529 60.245 42.4268 59.9678 42.3398L59.7968 42.2823C59.6832 42.2422 59.5543 42.1964 59.3833 42.1916C58.7375 42.1719 58.0919 42.1539 57.4454 42.1417C56.9382 41.5857 56.078 38.7218 55.6306 26.3163C55.605 25.6162 55.5857 25.0826 55.5686 24.7808C55.5443 24.3621 55.2111 24.0273 54.7924 24.0011C54.3589 23.98 54.0012 24.2658 53.925 24.6784C53.502 26.9734 53.3332 29.2856 53.1705 31.5217L53.1117 32.3413C52.6464 39.648 51.3981 42.1281 50.9004 42.1374C50.6014 42.143 50.3031 42.1608 49.925 42.1843L49.2796 42.222C48.9503 42.2398 48.6628 42.4509 48.5474 42.7594C48.432 43.0683 48.5101 43.4161 48.747 43.6456C48.9546 43.8469 49.0685 43.9923 49.1305 44.0867C48.9798 44.1526 48.6741 44.2498 48.0849 44.3268C47.7358 44.373 47.4538 44.6342 47.3815 44.9792C47.3091 45.3237 47.4625 45.6769 47.7638 45.8591C48.1502 46.0923 48.5025 46.3177 48.8362 46.5316C49.5382 46.9809 50.2014 47.4059 50.9258 47.7374C52.1856 48.314 52.5949 49.0015 52.5479 50.4616C52.3431 56.8534 52.2164 63.3799 52.1715 69.8664V90.1476H4.20508V91.8062H53.0006C53.4586 91.8062 53.83 91.4352 53.83 90.9768V69.872C53.8749 63.4051 54.0012 56.8927 54.2057 50.5151C54.2734 48.4019 53.4749 47.0803 51.6163 46.2296C51.1316 46.0077 50.6659 45.7287 50.1597 45.4087C50.4489 45.218 50.6745 44.9642 50.7878 44.6227C50.883 44.3353 50.8733 44.0567 50.8047 43.7988C50.8472 43.7975 50.8893 43.7968 50.9316 43.7959C51.623 43.7825 53.5827 43.7456 54.4969 35.5824C55.0954 42.2519 56.0018 43.7753 57.2896 43.7979C57.6233 43.8038 57.9569 43.8113 58.2906 43.8198C58.2034 44.1281 58.2136 44.424 58.3205 44.7062C58.4058 44.9321 58.5416 45.1137 58.7071 45.2597C54.882 47.3508 54.7459 50.8408 54.9544 54.0136C55.2475 58.4685 55.2961 63.0218 55.3434 67.4255C55.3662 69.542 55.389 71.6588 55.4371 73.775C55.4391 73.8577 55.4267 73.9508 55.4165 74.0462C55.3727 74.4593 55.3063 75.0845 55.7465 75.5841C56.0433 75.9204 56.49 76.0976 57.0751 76.1098C57.7495 76.1065 58.2364 75.951 58.5618 75.5818C59.0258 75.0561 58.9295 74.3962 58.8655 73.9588C58.8505 73.856 58.8319 73.7573 58.8332 73.6713L58.857 72.0564C58.9037 69.066 58.9518 65.9746 58.8043 62.9272C58.798 62.7972 58.8065 62.5467 58.8967 62.1403H69.1118C69.1662 62.4182 69.1936 62.7682 69.1936 63.196V66.3746C69.1929 69.7397 69.1927 73.1045 69.2092 76.4693C69.2096 76.56 69.2059 76.653 69.2025 76.7454C69.1838 77.2477 69.1578 77.9343 69.6708 78.4647C70.0507 78.8576 70.6289 79.039 71.4153 79.0446C72.2078 79.0414 72.7749 78.847 73.1495 78.4485C73.6561 77.9109 73.6179 77.2323 73.5901 76.7357C73.5843 76.6361 73.5782 76.5365 73.5787 76.4402C73.6066 70.1011 73.6014 63.7622 73.5958 57.4226C73.5954 56.9486 73.5216 56.4768 73.3726 55.9997H80.3744C80.0724 57.1473 80.0939 58.2852 80.1132 59.32C80.1215 59.7448 80.1299 60.1672 80.1158 60.5859C80.0922 61.2832 80.3729 61.6945 80.6122 61.9169C80.8498 62.1364 81.2791 62.3829 81.9577 62.3076C82.5716 62.2397 82.7265 62.3501 82.727 62.3501C82.8003 62.449 82.7892 62.907 82.7838 63.1528L82.7773 64.2017C82.7697 68.2519 82.7615 72.4404 82.7971 76.5617C82.7979 76.6491 82.7838 76.7446 82.7717 76.8426C82.7207 77.2629 82.6432 77.8979 83.0904 78.417C83.4106 78.7886 83.8957 78.9782 84.5727 78.9978C85.3064 79.0188 85.8356 78.847 86.1972 78.4745C86.701 77.9553 86.66 77.2566 86.6333 76.794C86.6276 76.6962 86.6216 76.5988 86.6216 76.5057C86.6276 72.0905 86.6276 67.6748 86.6281 63.2593L86.6302 53.9275C86.6302 53.804 86.6253 53.6769 86.62 53.55C86.6118 53.3578 86.5986 53.0363 86.6053 52.9844C86.6075 52.984 86.737 52.9102 87.1969 52.9512C87.8801 53.0139 88.2983 52.7633 88.5283 52.5434C88.7491 52.3321 89.0036 51.9511 89.0049 51.2647C89.075 51.2567 89.1835 51.2517 89.3496 51.2554C90.3829 51.279 91.1865 51.0031 91.7122 50.4264C92.0515 50.0539 92.4276 49.374 92.2936 48.25C92.2673 48.0303 92.2921 47.9637 92.2916 47.9637C92.3233 47.9188 92.4678 47.8094 93.0813 47.5847C94.3643 47.1158 95.3143 46.4138 95.8586 45.5614C95.8974 45.6031 95.9387 45.6437 95.9829 45.6829C96.517 46.1611 97.2878 46.3194 98.4433 46.1741C98.4639 46.5648 98.5481 47.0252 98.9069 47.3536C99.1438 47.571 99.4599 47.6771 99.7935 47.6584C100.859 47.5931 101.113 47.8144 101.153 47.8589C101.303 48.0257 101.204 48.6117 101.132 49.0393C101.075 49.3764 101.016 49.7253 101.02 50.0613C101.097 56.5393 101.1 63.1281 101.104 69.5004L101.11 75.7987L101.109 76.0961C101.108 76.4079 101.107 76.7188 101.123 77.0296C101.127 77.088 101.127 77.1479 101.127 77.208C101.129 77.6243 101.136 78.8891 102.706 78.9815C103.319 79.0171 103.778 78.881 104.108 78.5645C104.576 78.1133 104.564 77.5082 104.555 77.1075L104.554 76.9496C104.562 74.8845 104.567 72.8201 104.572 70.755C104.579 67.6051 104.587 64.4558 104.607 61.306C104.608 61.1244 104.594 60.9304 104.578 60.7352C104.56 60.5228 104.531 60.1668 104.551 60.098C104.553 60.0969 104.709 60.0032 105.27 60.0607C105.721 60.1117 106.116 59.7902 106.176 59.3474C106.294 58.4727 106.64 58.375 108.068 58.3388C108.5 58.3273 108.946 58.316 109.382 58.2366C109.953 58.1325 110.868 57.7196 110.58 56.1184C110.52 55.7836 110.556 55.6318 110.572 55.6057C110.705 55.4662 111.485 55.4459 111.959 55.4333C111.993 55.4326 112.025 55.4322 112.055 55.4322C112.418 55.4322 112.554 55.5051 112.549 55.4871C112.585 55.5608 112.598 55.8125 112.606 55.9795C112.616 56.1655 112.627 56.3562 112.654 56.5445C112.679 56.7169 112.644 56.9712 112.607 57.2406C112.501 58.0064 112.29 59.5446 114.167 60.1826C114.182 60.3442 114.193 60.5948 114.195 60.9844C114.201 62.5267 114.2 64.0692 114.198 65.6119C114.195 68.5115 114.193 71.5097 114.241 74.4617C114.244 74.5879 114.213 74.7337 114.187 74.8854C114.098 75.406 113.964 76.1922 114.488 76.8014C114.871 77.2459 115.487 77.4637 116.356 77.4379C117.171 77.4217 117.739 77.2021 118.091 76.7665C118.579 76.164 118.434 75.4188 118.339 74.9248C118.312 74.7873 118.28 74.6561 118.281 74.5419C118.337 62.4169 118.347 50.0899 118.356 38.1691L118.359 34.5326C118.359 34.4038 118.356 34.2734 118.352 34.1434C118.351 34.1115 118.35 34.079 118.349 34.0471H119.453C119.751 34.0471 120.026 33.8872 120.174 33.6284L122.828 28.9702V25.621Z" fill="white"/>
<path d="M29.9205 120.266C29.9205 121.165 29.8686 122.115 29.7649 123.118H7.05231C7.22516 125.918 8.17584 128.113 9.90435 129.703C11.6674 131.259 13.7935 132.037 16.2825 132.037C18.3222 132.037 20.0161 131.57 21.3644 130.637C22.7472 129.669 23.7151 128.39 24.2683 126.799H29.3501C28.5895 129.53 27.0684 131.76 24.7868 133.489C22.5052 135.183 19.6704 136.03 16.2825 136.03C13.5861 136.03 11.1662 135.425 9.02281 134.215C6.91403 133.005 5.25466 131.294 4.04471 129.081C2.83475 126.834 2.22978 124.241 2.22978 121.303C2.22978 118.364 2.81747 115.789 3.99285 113.576C5.16824 111.364 6.81032 109.67 8.9191 108.495C11.0625 107.285 13.5169 106.68 16.2825 106.68C18.979 106.68 21.3644 107.267 23.4386 108.443C25.5128 109.618 27.103 111.243 28.2093 113.317C29.3501 115.357 29.9205 117.673 29.9205 120.266ZM25.0461 119.28C25.0461 117.483 24.6485 115.944 23.8534 114.665C23.0583 113.352 21.9693 112.366 20.5865 111.71C19.2383 111.018 17.7345 110.672 16.0751 110.672C13.6898 110.672 11.6501 111.433 9.95621 112.954C8.29684 114.475 7.34616 116.584 7.10417 119.28H25.0461ZM34.3861 121.251C34.3861 118.347 34.9738 115.806 36.1492 113.628C37.3246 111.416 38.9321 109.705 40.9717 108.495C43.0459 107.285 45.3448 106.68 47.8685 106.68C50.3575 106.68 52.5182 107.215 54.3504 108.287C56.1826 109.359 57.5481 110.707 58.4469 112.332V107.146H63.2176V135.563H58.4469V130.274C57.5135 131.933 56.1134 133.316 54.2467 134.422C52.4144 135.494 50.2711 136.03 47.8166 136.03C45.293 136.03 43.0114 135.407 40.9717 134.163C38.9321 132.918 37.3246 131.173 36.1492 128.926C34.9738 126.678 34.3861 124.12 34.3861 121.251ZM58.4469 121.303C58.4469 119.159 58.0148 117.293 57.1506 115.702C56.2863 114.112 55.1109 112.902 53.6244 112.073C52.1724 111.208 50.5649 110.776 48.8019 110.776C47.0388 110.776 45.4313 111.191 43.9793 112.021C42.5274 112.85 41.3693 114.06 40.505 115.651C39.6408 117.241 39.2086 119.108 39.2086 121.251C39.2086 123.429 39.6408 125.33 40.505 126.955C41.3693 128.545 42.5274 129.772 43.9793 130.637C45.4313 131.466 47.0388 131.881 48.8019 131.881C50.5649 131.881 52.1724 131.466 53.6244 130.637C55.1109 129.772 56.2863 128.545 57.1506 126.955C58.0148 125.33 58.4469 123.446 58.4469 121.303ZM81.2519 136.03C79.074 136.03 77.1208 135.667 75.3923 134.941C73.6637 134.18 72.2982 133.143 71.2957 131.829C70.2932 130.481 69.74 128.943 69.6363 127.214H74.5107C74.649 128.632 75.3058 129.79 76.4812 130.689C77.6912 131.587 79.2641 132.037 81.2 132.037C82.9977 132.037 84.4151 131.639 85.4522 130.844C86.4893 130.049 87.0078 129.047 87.0078 127.837C87.0078 126.592 86.4547 125.676 85.3485 125.088C84.2422 124.466 82.531 123.861 80.2148 123.273C78.106 122.72 76.3775 122.167 75.0293 121.614C73.7156 121.026 72.5748 120.179 71.6068 119.073C70.6734 117.932 70.2067 116.446 70.2067 114.613C70.2067 113.162 70.6389 111.831 71.5031 110.621C72.3674 109.411 73.5946 108.46 75.1848 107.769C76.7751 107.043 78.59 106.68 80.6296 106.68C83.7755 106.68 86.3164 107.475 88.2524 109.065C90.1883 110.655 91.2254 112.833 91.3637 115.599H86.6448C86.5411 114.112 85.9362 112.92 84.8299 112.021C83.7582 111.122 82.3063 110.672 80.4741 110.672C78.7801 110.672 77.4319 111.035 76.4294 111.761C75.4268 112.487 74.9256 113.438 74.9256 114.613C74.9256 115.547 75.2194 116.325 75.8071 116.947C76.4294 117.535 77.1899 118.019 78.0887 118.399C79.0221 118.745 80.3012 119.142 81.926 119.592C83.9657 120.145 85.625 120.698 86.9041 121.251C88.1832 121.769 89.2722 122.565 90.171 123.636C91.1044 124.708 91.5884 126.108 91.6229 127.837C91.6229 129.392 91.1908 130.792 90.3266 132.037C89.4623 133.281 88.2351 134.267 86.6448 134.993C85.0892 135.684 83.2915 136.03 81.2519 136.03ZM122.76 107.146L105.648 148.942H100.773L106.374 135.252L94.9137 107.146H100.151L109.07 130.17L117.886 107.146H122.76ZM134.245 99.368V121.769C134.245 124.224 134.884 126.108 136.163 127.422C137.442 128.701 139.24 129.34 141.556 129.34C143.907 129.34 145.722 128.701 147.001 127.422C148.28 126.108 148.92 124.224 148.92 121.769V99.368H156.231V121.718C156.231 124.794 155.557 127.404 154.209 129.548C152.895 131.657 151.115 133.247 148.868 134.318C146.655 135.39 144.184 135.926 141.453 135.926C138.756 135.926 136.302 135.39 134.089 134.318C131.911 133.247 130.183 131.657 128.904 129.548C127.625 127.404 126.985 124.794 126.985 121.718V99.368H134.245ZM198.922 106.42C202.448 106.42 205.283 107.509 207.426 109.687C209.604 111.831 210.693 114.838 210.693 118.71V135.563H203.433V119.695C203.433 117.448 202.863 115.737 201.722 114.562C200.581 113.352 199.026 112.747 197.055 112.747C195.085 112.747 193.512 113.352 192.336 114.562C191.196 115.737 190.625 117.448 190.625 119.695V135.563H183.365V119.695C183.365 117.448 182.795 115.737 181.654 114.562C180.513 113.352 178.958 112.747 176.987 112.747C174.982 112.747 173.392 113.352 172.217 114.562C171.076 115.737 170.505 117.448 170.505 119.695V135.563H163.246V106.835H170.505V110.309C171.439 109.1 172.631 108.149 174.083 107.457C175.57 106.766 177.195 106.42 178.958 106.42C181.205 106.42 183.21 106.904 184.973 107.872C186.736 108.806 188.101 110.154 189.069 111.917C190.003 110.258 191.351 108.927 193.114 107.924C194.912 106.922 196.848 106.42 198.922 106.42ZM224.22 129.6H237.028V135.563H215.975V129.703L228.524 112.799H216.026V106.835H236.872V112.695L224.22 129.6ZM269.769 106.835V135.563H262.458V131.933C261.524 133.178 260.297 134.163 258.776 134.889C257.289 135.58 255.665 135.926 253.901 135.926C251.654 135.926 249.667 135.459 247.938 134.526C246.21 133.558 244.844 132.158 243.842 130.326C242.874 128.459 242.39 126.246 242.39 123.688V106.835H249.649V122.651C249.649 124.933 250.22 126.696 251.361 127.94C252.501 129.15 254.057 129.755 256.028 129.755C258.033 129.755 259.606 129.15 260.746 127.94C261.887 126.696 262.458 124.933 262.458 122.651V106.835H269.769ZM288.185 106.368C290.328 106.368 292.212 106.801 293.837 107.665C295.462 108.495 296.741 109.584 297.674 110.932V106.835H304.986V135.77C304.986 138.432 304.45 140.8 303.378 142.875C302.307 144.983 300.699 146.643 298.556 147.853C296.412 149.097 293.82 149.719 290.777 149.719C286.698 149.719 283.345 148.769 280.718 146.867C278.125 144.966 276.656 142.373 276.31 139.089H283.518C283.898 140.403 284.71 141.44 285.955 142.2C287.234 142.996 288.772 143.393 290.57 143.393C292.679 143.393 294.39 142.754 295.704 141.474C297.017 140.23 297.674 138.329 297.674 135.77V131.311C296.741 132.659 295.444 133.783 293.785 134.681C292.16 135.58 290.293 136.03 288.185 136.03C285.765 136.03 283.552 135.407 281.547 134.163C279.542 132.918 277.952 131.173 276.777 128.926C275.636 126.644 275.065 124.034 275.065 121.095C275.065 118.191 275.636 115.616 276.777 113.369C277.952 111.122 279.525 109.393 281.495 108.183C283.5 106.973 285.73 106.368 288.185 106.368ZM297.674 121.199C297.674 119.436 297.329 117.932 296.637 116.688C295.946 115.409 295.012 114.441 293.837 113.784C292.662 113.092 291.4 112.747 290.051 112.747C288.703 112.747 287.459 113.075 286.318 113.732C285.177 114.389 284.244 115.357 283.518 116.636C282.826 117.88 282.481 119.367 282.481 121.095C282.481 122.824 282.826 124.345 283.518 125.659C284.244 126.938 285.177 127.923 286.318 128.614C287.493 129.306 288.738 129.651 290.051 129.651C291.4 129.651 292.662 129.323 293.837 128.666C295.012 127.975 295.946 127.007 296.637 125.762C297.329 124.483 297.674 122.962 297.674 121.199Z" fill="white"/>
<path d="M153.047 37.338V36.338H152.047H145.089H144.089V37.338V57.6314H135.044V22.209V21.209H134.044H127H126V22.209V91.6942V92.6942H127H134.044H135.044V91.6942V70.3168H144.089V91.6942V92.6942H145.089H152.047H153.047V91.6942V37.338Z" fill="#11366A" stroke="white" stroke-width="2"/>
<path d="M178.092 2V1H177.092H169.008H168.195L168.029 1.79597L161.161 34.7539L154.221 1.79397L154.054 1H153.242H145.118H144.118V2V56.3563V57.3563H145.118H151.996H152.996V56.3563V34.061L157.369 56.5472L157.526 57.3563H158.35H163.901H164.725L164.882 56.5465L169.215 34.179V56.3563V57.3563H170.215H177.092H178.092V56.3563V2Z" fill="#11366A" stroke="white" stroke-width="2"/>
<path d="M145.106 54.769C145.106 54.6746 145.182 54.5981 145.276 54.5981H151.856C151.95 54.5981 152.026 54.6746 152.026 54.769V64.3933C152.026 64.4877 151.95 64.5642 151.856 64.5642H140.183C140.088 64.5642 140.012 64.4877 140.012 64.3933V58.9215C140.012 58.8271 140.088 58.7507 140.183 58.7507H144.935C145.029 58.7507 145.106 58.6742 145.106 58.5798V54.769Z" fill="#11366A"/>
</svg>
