<svg width="719" height="367" viewBox="0 0 719 367" fill="none" xmlns="http://www.w3.org/2000/svg">
<path d="M416.191 177.922C416.191 177.801 416.194 177.669 416.197 177.563C416.205 177.244 416.21 176.927 416.189 176.629C416.146 176.04 416.16 175.452 416.171 174.863L416.195 167.306C416.206 161.51 416.217 155.713 416.255 149.915C416.306 158.647 416.273 167.35 416.226 176.812C416.225 177.077 416.247 177.365 416.274 177.661C416.28 177.739 416.288 177.831 416.295 177.924C416.258 177.925 416.222 177.922 416.191 177.922ZM598.286 211.378V161.62C598.286 161.087 598.067 160.578 597.678 160.214C597.291 159.848 596.768 159.652 596.236 159.692C595.644 159.728 595.05 159.755 594.455 159.783C593.106 159.844 591.711 159.908 590.32 160.076C588.016 160.353 587.306 159.941 587.109 159.75C586.772 159.423 586.643 158.586 586.747 157.394C586.951 155.046 586.898 152.698 586.845 150.427C586.817 149.201 586.788 147.973 586.801 146.749C586.807 146.234 586.605 145.737 586.243 145.37C585.879 145.003 585.385 144.797 584.869 144.797H557.73C557.2 144.797 556.692 145.015 556.328 145.4C555.963 145.785 555.773 146.302 555.801 146.833L555.811 147.035L555.795 150.511C555.766 157.094 555.735 163.9 555.823 170.599C555.836 171.528 555.695 171.74 555.695 171.74C555.695 171.74 555.406 171.999 554.202 171.954C553.039 171.946 552.758 171.725 552.758 171.725C552.751 171.716 552.608 171.505 552.642 170.537C552.704 168.77 552.688 167.001 552.673 165.232C552.655 163.339 552.636 161.381 552.725 159.489C552.787 158.173 552.706 156.506 551.516 155.285C550.24 153.977 548.323 153.869 546.992 153.893C538.545 154.073 530.142 154.093 522.021 153.954C520.55 153.945 518.686 154.067 517.432 155.358C517.22 155.577 517.045 155.811 516.898 156.054C516.884 150.767 516.891 145.393 516.99 140.094C517.006 139.186 516.97 138.467 516.875 137.831C516.735 136.884 515.922 136.182 514.964 136.182H486.418C485.354 136.182 484.491 137.041 484.486 138.104C484.484 138.491 484.505 138.892 484.528 139.292C484.546 139.607 484.565 139.921 484.564 140.225C484.522 152.84 484.508 165.453 484.496 178.069V178.273C484.497 178.556 484.498 178.956 484.466 179.184C484.352 179.213 484.148 179.245 483.815 179.249H483.755C483.272 179.249 483.039 179.203 483.007 179.201C482.979 179.113 482.93 178.867 482.935 178.247C482.942 177.235 482.909 176.224 482.875 175.21C482.819 173.589 482.767 172.057 482.888 170.55C483.018 168.961 481.89 167.209 479.717 163.993C478.042 161.515 475.749 158.121 475.774 156.451C475.78 156.066 475.815 155.679 475.85 155.294C475.91 154.621 475.978 153.859 475.921 153.07C475.894 152.693 475.876 152.308 475.857 151.918C475.725 149.188 475.562 145.79 472.525 143.648C470.438 142.174 470.313 141.474 470.95 139.661C472.099 136.383 470.808 133.293 467.497 131.393C464.613 129.736 462.416 130.992 460.8 131.916C459.095 132.887 456.509 135.225 458.335 139.972C458.769 141.1 458.882 141.643 458.883 141.904C452.572 145.497 452.981 150.829 453.344 155.537L453.359 155.739C453.744 160.755 451.461 163.683 449.478 165.255C446.651 167.494 446.868 170.218 447.027 172.204C447.065 172.68 447.107 173.154 447.095 173.622C447.008 176.974 447.02 180.371 447.033 183.656C447.042 186.164 447.05 188.671 447.017 191.179C447.012 191.568 447.042 191.977 447.074 192.389C447.104 192.777 447.155 193.43 447.172 193.511C447.172 193.511 446.862 193.7 445.775 193.66C445.198 193.638 444.887 193.56 444.739 193.509C444.737 193.272 444.8 192.862 444.84 192.598C444.914 192.111 444.977 191.633 444.974 191.205C444.917 182.333 444.913 173.459 444.91 164.586C444.908 157.926 444.905 151.265 444.879 144.605C444.877 144.119 444.875 143.643 444.85 143.171C444.799 142.142 443.95 141.336 442.921 141.336H418.179C417.161 141.336 416.318 142.125 416.251 143.139C416.22 143.599 416.206 144.066 416.211 144.54C416.218 145.208 416.224 145.874 416.23 146.54C416.152 146.188 415.974 145.86 415.716 145.6C415.354 145.234 414.859 145.028 414.344 145.028H400.696H384.985C384.121 145.028 383.421 145.728 383.421 146.592V193.66L365.321 193.509V197.521H385.767C386.63 197.521 387.33 196.82 387.33 195.957V148.892H412.397C412.354 155.028 412.343 161.164 412.331 167.299L412.307 174.791C412.294 175.497 412.284 176.205 412.335 176.907C412.348 177.084 412.34 177.273 412.335 177.461C412.311 178.333 412.276 179.65 413.269 180.686C413.947 181.396 414.934 181.765 416.203 181.788C417.53 181.78 418.601 181.439 419.301 180.688C420.322 179.592 420.198 178.173 420.123 177.324C420.108 177.152 420.09 176.984 420.091 176.831C420.145 165.668 420.182 155.558 420.082 145.201H441.017C441.04 151.663 441.043 158.125 441.046 164.588C441.049 173.469 441.053 182.35 441.111 191.23C441.112 191.472 441.061 191.739 441.02 192.015C440.858 193.069 440.616 194.662 441.701 195.975C442.505 196.947 443.79 197.453 445.63 197.521C447.603 197.598 449.013 197.168 449.926 196.217C451.15 194.941 451.02 193.29 450.926 192.086C450.903 191.794 450.878 191.506 450.882 191.232C450.915 188.701 450.907 186.171 450.896 183.643C450.884 180.384 450.872 177.016 450.957 173.721C450.973 173.12 450.928 172.51 450.879 171.897C450.732 170.057 450.716 169.204 451.878 168.284C455.72 165.238 457.614 160.678 457.212 155.443L457.197 155.241C456.82 150.355 456.807 147.479 460.905 145.201C463.855 143.561 462.465 139.947 461.941 138.585C461.104 136.41 461.829 135.777 462.713 135.273L462.882 135.177C464.249 134.395 464.643 134.211 465.574 134.743C467.257 135.709 467.822 136.9 467.304 138.382C466.042 141.973 466.91 144.414 470.297 146.804C471.692 147.789 471.87 149.463 471.998 152.104C472.017 152.524 472.038 152.939 472.066 153.347C472.101 153.827 472.052 154.373 472.001 154.951C471.959 155.431 471.917 155.912 471.91 156.391C471.866 159.277 474.229 162.775 476.515 166.158C477.531 167.662 478.925 169.723 479.037 170.239C478.898 171.969 478.956 173.684 479.012 175.342C479.045 176.301 479.078 177.26 479.07 178.216C479.064 179.029 479.051 180.722 480.245 181.913C481.07 182.737 482.259 183.094 483.856 183.113C488.371 183.061 488.363 179.577 488.36 178.073C488.373 165.461 488.386 152.849 488.428 140.239C488.428 140.176 488.428 140.112 488.427 140.047H513.125C512.997 146.954 513.024 153.969 513.051 160.752C513.061 163.391 513.071 166.03 513.073 168.667L513.07 169.291C513.065 170.046 513.062 170.803 513.11 171.555L513.121 171.835C513.187 174.114 514.225 175.352 516.204 175.514C517.363 175.605 518.304 175.327 519.006 174.688C520.089 173.697 520.104 172.284 520.114 171.403L520.151 168.801C520.2 165.693 520.25 162.479 520.097 159.294C520.05 158.287 520.205 158.049 520.205 158.049C520.208 158.046 520.499 157.766 521.955 157.818C530.128 157.956 538.579 157.938 547.075 157.758C548.43 157.724 548.747 157.981 548.747 157.981C548.753 157.99 548.917 158.217 548.865 159.307C548.772 161.31 548.79 163.321 548.808 165.267C548.824 166.979 548.84 168.691 548.78 170.401C548.737 171.64 548.832 173.214 549.966 174.397C551.175 175.656 552.95 175.81 554.18 175.818C555.444 175.839 557.22 175.692 558.436 174.463C559.576 173.314 559.704 171.769 559.688 170.548C559.599 163.883 559.63 157.094 559.66 150.529L559.668 148.661H582.945C582.953 149.279 582.967 149.898 582.981 150.516C583.034 152.782 583.083 154.923 582.898 157.058C582.681 159.536 583.18 161.325 584.422 162.527C586.193 164.24 588.898 164.14 590.781 163.912C591.966 163.769 593.162 163.71 594.422 163.652V213.31C594.422 214.378 595.288 215.242 596.355 215.242H709.891V211.378H598.286Z" fill="black"/>
<path d="M285.704 61.0356L276.718 76.8035H273.443C272.531 76.8035 271.745 77.4404 271.553 78.3305C271.363 79.2207 271.387 80.1244 271.412 80.9969C271.418 81.2637 271.426 81.5306 271.426 81.795L271.419 90.2691C271.398 118.04 271.375 146.756 271.244 175.001C271.241 175.567 271.348 176.114 271.451 176.644C271.514 176.972 271.613 177.486 271.61 177.763C271.461 177.814 271.144 177.89 270.549 177.901C270.495 177.903 270.442 177.903 270.392 177.903C269.61 177.903 269.297 177.788 269.245 177.81C269.195 177.552 269.309 176.878 269.38 176.467C269.473 175.916 269.57 175.346 269.561 174.767C269.449 167.923 269.454 160.954 269.46 154.214C269.464 150.615 269.466 147.015 269.453 143.415C269.443 141.019 269.433 138.541 267.412 138.082C265.389 137.622 265.439 137.257 265.717 135.234C265.83 134.41 265.959 133.475 265.824 132.533C265.778 132.212 265.763 131.888 265.748 131.572C265.663 129.924 265.472 126.49 260.261 126.634C257.832 126.697 255.538 126.757 254.154 128.456C253.29 129.516 253.032 130.929 253.365 132.788C253.387 132.913 253.421 133.099 253.442 133.265C252.774 133.362 252.014 133.381 251.214 133.402C248.77 133.465 244.869 133.565 243.482 137.39C242.171 137.476 241.167 137.871 240.438 138.585C239.066 139.929 239.218 141.798 239.329 143.163C239.357 143.502 239.387 143.838 239.385 144.154C239.338 151.498 239.32 158.841 239.303 166.185C239.292 170.995 239.28 175.803 239.261 180.612L239.266 181.074C239.269 181.205 239.272 181.365 239.27 181.511C239.201 181.516 239.133 181.508 239.048 181.504C239.035 181.503 239.022 181.503 239.008 181.501C239.007 181.401 239.006 181.295 239.006 181.207C239.004 181.005 239.002 180.803 238.991 180.609C238.957 179.959 238.961 179.308 238.965 178.658L238.966 177.938L238.952 163.268C238.943 148.411 238.935 133.048 238.757 117.934C238.751 117.497 238.855 116.888 238.963 116.242C239.263 114.469 239.674 112.042 238.076 110.265C236.99 109.056 235.24 108.428 232.74 108.492C232.693 107.379 232.259 106.422 231.508 105.792C230.97 105.34 230.023 104.842 228.571 105.058C226.396 105.379 225.823 104.981 225.731 104.897C225.356 104.562 225.405 103.155 225.441 102.128C225.455 101.741 225.469 101.353 225.47 100.973C225.482 97.2374 225.479 93.501 225.476 89.7652L225.474 85.0158C225.474 84.4972 225.266 83.9998 224.896 83.6364C224.525 83.2735 223.979 83.0895 223.506 83.0839L222.149 83.1092C221.096 83.1289 220.252 83.9887 220.252 85.0416L220.262 90.4829C220.273 94.7854 220.284 99.0879 220.231 103.389C220.194 106.385 216.609 108.018 215.068 108.581C212.536 109.508 210.297 110.635 210.723 114.217C210.8 114.862 210.798 115.736 210.349 116.229C209.927 116.692 209.023 116.93 207.8 116.899C206.495 116.866 205.032 116.975 203.988 118.038C203.514 118.522 202.963 119.399 203.028 120.825C203.029 120.838 203.029 120.851 203.03 120.863C201.064 120.69 199.637 121.047 198.673 121.968C197.353 123.226 197.427 124.985 197.48 126.269C197.49 126.51 197.5 126.751 197.5 126.986L197.496 148.73C197.495 159.016 197.495 169.302 197.481 179.588C197.48 179.88 197.497 180.184 197.514 180.49C197.532 180.778 197.557 181.227 197.531 181.475C197.397 181.506 197.143 181.55 196.679 181.535C196.437 181.529 196.264 181.508 196.148 181.486C196.157 181.292 196.188 181.035 196.211 180.844C196.26 180.44 196.301 180.046 196.299 179.69C196.215 170.108 196.235 160.36 196.252 150.933L196.266 148.573C196.303 147.03 196.348 145.109 194.889 143.771C193.823 142.792 192.24 142.427 190.058 142.671C190.055 142.671 190.051 142.672 190.048 142.672C190.048 142.658 190.048 142.646 190.049 142.632C190.084 141.588 190.065 140.536 190.045 139.48C189.987 136.398 189.932 133.488 191.292 130.742C191.589 130.142 191.555 129.433 191.202 128.865C190.85 128.297 190.229 127.951 189.56 127.951H167.518C166.83 127.951 166.194 128.318 165.848 128.912C165.502 129.507 165.498 130.241 165.838 130.839C166.719 132.388 167.129 133.753 167.131 135.135C167.144 149.898 167.157 164.662 167.091 179.425C167.09 179.724 167.107 180.033 167.123 180.346C167.146 180.72 167.18 181.346 167.162 181.452C167.161 181.454 166.889 181.641 165.901 181.644H165.874C164.97 181.644 164.677 181.504 164.66 181.511C164.583 181.314 164.607 180.681 164.621 180.297C164.631 180.025 164.64 179.756 164.639 179.49C164.601 171.655 164.602 163.822 164.603 155.989V148.582C164.603 146.249 164.314 144.63 163.666 143.33C163.339 142.673 162.67 142.259 161.937 142.259H135.27C134.366 142.259 133.607 142.88 133.396 143.719H133.395C132.858 145.459 132.615 146.948 132.672 148.143C133.01 155.12 132.899 162.26 132.792 169.167L132.736 172.936C132.731 173.321 132.786 173.763 132.851 174.22C132.876 174.382 132.909 174.606 132.927 174.799C132.857 174.805 132.775 174.808 132.678 174.808C132.6 174.808 132.506 174.805 132.433 174.8C132.444 174.627 132.466 174.427 132.483 174.27C132.524 173.874 132.559 173.488 132.551 173.142C132.438 168.228 132.385 163.312 132.334 158.396C132.222 148.084 132.108 137.421 131.419 126.936C130.811 117.687 132.21 112.054 141.321 108.781C142.091 108.506 142.421 107.903 142.579 107.613C142.616 107.547 142.661 107.462 142.729 107.358C143.105 106.781 143.145 106.047 142.833 105.432C142.522 104.817 141.907 104.415 141.219 104.375C140.212 104.318 139.61 104.187 139.269 104.077C139.409 103.873 139.642 103.584 140.024 103.205C140.505 102.728 140.701 102.034 140.541 101.377C140.382 100.719 139.889 100.192 139.243 99.9892L138.845 99.8552C138.58 99.7617 138.28 99.6551 137.882 99.644C136.377 99.598 134.873 99.556 133.366 99.5277C132.185 98.2322 130.18 91.5595 129.138 62.6556C129.079 61.0244 129.034 59.781 128.994 59.0779C128.937 58.1024 128.161 57.3224 127.185 57.2613C126.175 57.2122 125.342 57.8779 125.164 58.8393C124.179 64.1866 123.785 69.5739 123.406 74.7837L123.269 76.6933C122.185 93.7174 119.277 99.4959 118.117 99.5176C117.42 99.5307 116.725 99.5722 115.844 99.6268L114.341 99.7147C113.573 99.7562 112.904 100.248 112.635 100.967C112.366 101.687 112.548 102.497 113.1 103.032C113.584 103.501 113.849 103.839 113.993 104.059C113.642 104.213 112.93 104.439 111.557 104.619C110.744 104.726 110.087 105.335 109.918 106.139C109.75 106.941 110.107 107.764 110.809 108.189C111.709 108.732 112.53 109.257 113.308 109.756C114.943 110.803 116.488 111.793 118.176 112.565C121.111 113.909 122.065 115.51 121.956 118.912C121.478 133.805 121.183 149.011 121.079 164.124V211.378H9.32031V215.242H123.01C124.077 215.242 124.943 214.378 124.943 213.31V164.137C125.047 149.07 125.342 133.896 125.818 119.037C125.976 114.113 124.115 111.034 119.785 109.052C118.656 108.535 117.571 107.885 116.391 107.139C117.065 106.695 117.591 106.104 117.855 105.308C118.077 104.638 118.054 103.989 117.894 103.388C117.993 103.385 118.091 103.384 118.19 103.382C119.801 103.351 124.367 103.265 126.497 84.245C127.891 99.7845 130.003 103.334 133.003 103.386C133.781 103.4 134.558 103.418 135.336 103.437C135.132 104.156 135.156 104.845 135.405 105.503C135.604 106.029 135.92 106.452 136.306 106.792C127.394 111.664 127.077 119.796 127.563 127.188C128.246 137.568 128.359 148.177 128.469 158.437C128.522 163.368 128.575 168.3 128.687 173.231C128.692 173.424 128.663 173.64 128.639 173.863C128.537 174.825 128.382 176.282 129.408 177.446C130.1 178.23 131.14 178.643 132.504 178.671C134.075 178.663 135.209 178.301 135.968 177.441C137.049 176.216 136.824 174.678 136.675 173.659C136.64 173.42 136.597 173.19 136.6 172.989L136.655 169.227C136.764 162.259 136.876 155.057 136.533 147.956C136.518 147.653 136.538 147.07 136.748 146.123H160.548C160.675 146.77 160.739 147.586 160.739 148.583V155.989C160.737 163.829 160.737 171.669 160.775 179.508C160.776 179.72 160.768 179.936 160.76 180.152C160.716 181.322 160.655 182.922 161.851 184.158C162.736 185.073 164.083 185.496 165.915 185.509C167.762 185.501 169.083 185.048 169.956 184.12C171.136 182.867 171.047 181.286 170.983 180.129C170.969 179.897 170.955 179.665 170.956 179.441C171.021 164.671 171.009 149.902 170.996 135.131C170.995 134.027 170.823 132.927 170.476 131.816H186.789C186.086 134.49 186.136 137.141 186.181 139.552C186.2 140.542 186.22 141.526 186.187 142.501C186.132 144.126 186.786 145.084 187.343 145.602C187.897 146.114 188.897 146.688 190.478 146.513C191.909 146.354 192.27 146.612 192.271 146.612C192.442 146.842 192.416 147.909 192.403 148.482L192.388 150.926C192.37 160.362 192.351 170.121 192.434 179.724C192.436 179.927 192.403 180.15 192.375 180.378C192.256 181.357 192.076 182.837 193.117 184.046C193.863 184.912 194.994 185.354 196.571 185.4C198.281 185.449 199.513 185.048 200.356 184.18C201.53 182.971 201.434 181.343 201.372 180.265C201.359 180.037 201.345 179.81 201.345 179.593C201.359 169.306 201.359 159.018 201.36 148.73L201.365 126.988C201.365 126.7 201.353 126.404 201.341 126.108C201.322 125.66 201.291 124.911 201.307 124.79C201.312 124.789 201.614 124.617 202.685 124.713C204.277 124.859 205.252 124.275 205.787 123.763C206.302 123.27 206.895 122.383 206.898 120.783C207.061 120.765 207.314 120.753 207.701 120.762C210.109 120.817 211.981 120.174 213.206 118.83C213.996 117.962 214.873 116.378 214.56 113.76C214.499 113.248 214.557 113.092 214.556 113.092C214.629 112.988 214.966 112.733 216.396 112.209C219.385 111.117 221.598 109.481 222.866 107.495C222.957 107.592 223.053 107.687 223.156 107.778C224.401 108.892 226.196 109.261 228.889 108.923C228.937 109.833 229.133 110.906 229.969 111.671C230.521 112.177 231.257 112.425 232.035 112.381C234.516 112.229 235.108 112.745 235.203 112.848C235.552 113.237 235.322 114.602 235.154 115.598C235.021 116.384 234.883 117.197 234.892 117.98C235.071 133.073 235.079 148.424 235.088 163.271L235.102 177.946L235.1 178.639C235.097 179.365 235.095 180.09 235.133 180.814C235.141 180.95 235.141 181.089 235.142 181.229C235.146 182.199 235.163 185.146 238.821 185.362C240.248 185.445 241.317 185.128 242.086 184.39C243.178 183.339 243.148 181.929 243.13 180.995L243.125 180.627C243.145 175.816 243.156 171.006 243.167 166.194C243.184 158.856 243.202 151.518 243.249 144.179C243.252 143.756 243.218 143.304 243.182 142.849C243.141 142.354 243.073 141.525 243.12 141.364C243.124 141.362 243.487 141.144 244.794 141.278C245.846 141.396 246.765 140.647 246.905 139.616C247.181 137.578 247.986 137.35 251.313 137.266C252.319 137.239 253.358 137.213 254.375 137.028C255.706 136.785 257.837 135.823 257.167 132.092C257.026 131.312 257.11 130.958 257.148 130.898C257.457 130.573 259.276 130.525 260.379 130.496C260.457 130.494 260.532 130.493 260.602 130.493C261.448 130.493 261.765 130.663 261.753 130.621C261.838 130.793 261.868 131.38 261.888 131.769C261.911 132.202 261.936 132.646 262 133.085C262.057 133.487 261.976 134.079 261.889 134.707C261.643 136.491 261.15 140.075 265.525 141.562C265.558 141.938 265.584 142.522 265.588 143.43C265.602 147.023 265.599 150.617 265.595 154.211C265.59 160.967 265.584 167.953 265.697 174.831C265.702 175.125 265.631 175.465 265.57 175.818C265.363 177.031 265.051 178.863 266.272 180.282C267.163 181.318 268.598 181.825 270.624 181.765C272.522 181.727 273.845 181.216 274.666 180.201C275.803 178.797 275.467 177.061 275.244 175.91C275.182 175.589 275.107 175.284 275.108 175.018C275.239 146.767 275.262 118.046 275.284 90.2716L275.29 81.799C275.29 81.4988 275.283 81.195 275.274 80.8922C275.273 80.8179 275.271 80.7421 275.268 80.6678H277.84C278.535 80.6678 279.175 80.2953 279.519 79.6923L285.704 68.8389V61.0356Z" fill="black"/>
<path d="M23.3827 242.034V267.273H53.0751V278.778H23.3827V305.13H56.7866V316.636H9.27886V230.528H56.7866V242.034H23.3827ZM69.4571 282.243C69.4571 275.397 70.8593 269.335 73.6635 264.056C76.5503 258.777 80.4268 254.695 85.293 251.808C90.2418 248.839 95.6854 247.354 101.624 247.354C106.985 247.354 111.645 248.426 115.604 250.571C119.645 252.633 122.862 255.231 125.254 258.365V248.468H139.482V316.636H125.254V306.491C122.862 309.708 119.604 312.389 115.48 314.533C111.356 316.677 106.655 317.75 101.376 317.75C95.5204 317.75 90.1593 316.265 85.293 313.296C80.4268 310.244 76.5503 306.038 73.6635 300.677C70.8593 295.233 69.4571 289.088 69.4571 282.243ZM125.254 282.49C125.254 277.789 124.264 273.706 122.285 270.242C120.388 266.778 117.872 264.138 114.738 262.324C111.604 260.509 108.222 259.602 104.593 259.602C100.964 259.602 97.5824 260.509 94.4482 262.324C91.314 264.056 88.7572 266.654 86.7777 270.118C84.8807 273.5 83.9321 277.541 83.9321 282.243C83.9321 286.944 84.8807 291.068 86.7777 294.614C88.7572 298.161 91.314 300.883 94.4482 302.78C97.6649 304.594 101.046 305.502 104.593 305.502C108.222 305.502 111.604 304.594 114.738 302.78C117.872 300.965 120.388 298.326 122.285 294.862C124.264 291.315 125.254 287.191 125.254 282.49ZM182.75 317.75C177.389 317.75 172.564 316.801 168.275 314.904C164.069 312.925 160.728 310.285 158.254 306.986C155.78 303.605 154.46 299.852 154.295 295.728H168.894C169.141 298.615 170.502 301.048 172.976 303.027C175.533 304.924 178.709 305.873 182.503 305.873C186.462 305.873 189.513 305.13 191.658 303.646C193.885 302.079 194.998 300.099 194.998 297.707C194.998 295.151 193.761 293.253 191.287 292.016C188.895 290.779 185.06 289.418 179.781 287.934C174.667 286.531 170.502 285.171 167.285 283.851C164.069 282.531 161.264 280.511 158.872 277.789C156.563 275.067 155.408 271.479 155.408 267.025C155.408 263.396 156.481 260.097 158.625 257.128C160.77 254.076 163.821 251.684 167.78 249.952C171.822 248.22 176.44 247.354 181.637 247.354C189.39 247.354 195.617 249.334 200.318 253.293C205.102 257.169 207.659 262.489 207.989 269.252H193.885C193.637 266.2 192.4 263.767 190.173 261.953C187.946 260.138 184.936 259.231 181.142 259.231C177.43 259.231 174.585 259.932 172.605 261.334C170.626 262.736 169.636 264.592 169.636 266.902C169.636 268.716 170.296 270.242 171.615 271.479C172.935 272.716 174.543 273.706 176.44 274.448C178.337 275.108 181.142 275.974 184.853 277.046C189.802 278.366 193.843 279.727 196.978 281.129C200.194 282.449 202.957 284.428 205.267 287.068C207.576 289.707 208.772 293.212 208.855 297.584C208.855 301.46 207.782 304.924 205.638 307.976C203.494 311.028 200.442 313.42 196.483 315.152C192.606 316.884 188.029 317.75 182.75 317.75ZM285.458 248.468L243.642 348.679H229.043L242.899 315.523L216.053 248.468H231.765L250.941 300.429L270.86 248.468H285.458ZM357.837 248.468V316.636H343.734V308.595C341.507 311.399 338.579 313.626 334.95 315.275C331.403 316.842 327.609 317.626 323.567 317.626C318.206 317.626 313.381 316.513 309.092 314.286C304.886 312.059 301.546 308.76 299.071 304.388C296.679 300.017 295.483 294.738 295.483 288.552V248.468H309.464V286.449C309.464 292.552 310.989 297.254 314.041 300.553C317.093 303.77 321.258 305.378 326.537 305.378C331.815 305.378 335.981 303.77 339.032 300.553C342.166 297.254 343.734 292.552 343.734 286.449V248.468H357.837ZM458.966 247.354C464.327 247.354 469.111 248.468 473.318 250.694C477.607 252.921 480.947 256.221 483.339 260.592C485.813 264.963 487.05 270.242 487.05 276.428V316.636H473.07V278.531C473.07 272.428 471.544 267.768 468.493 264.551C465.441 261.252 461.276 259.602 455.997 259.602C450.718 259.602 446.512 261.252 443.378 264.551C440.326 267.768 438.8 272.428 438.8 278.531V316.636H424.82V278.531C424.82 272.428 423.294 267.768 420.243 264.551C417.191 261.252 413.026 259.602 407.747 259.602C402.468 259.602 398.262 261.252 395.128 264.551C392.076 267.768 390.55 272.428 390.55 278.531V316.636H376.446V248.468H390.55V256.262C392.86 253.457 395.788 251.272 399.334 249.705C402.881 248.138 406.675 247.354 410.716 247.354C416.16 247.354 421.026 248.509 425.315 250.818C429.604 253.128 432.903 256.468 435.212 260.839C437.274 256.715 440.491 253.457 444.862 251.066C449.234 248.591 453.935 247.354 458.966 247.354ZM517.493 305.13H548.422V316.636H501.162V305.13L532.215 259.973H501.162V248.468H548.422V259.973L517.493 305.13ZM624.967 248.468V316.636H610.863V308.595C608.636 311.399 605.708 313.626 602.079 315.275C598.533 316.842 594.739 317.626 590.697 317.626C585.336 317.626 580.511 316.513 576.222 314.286C572.016 312.059 568.675 308.76 566.201 304.388C563.809 300.017 562.613 294.738 562.613 288.552V248.468H576.593V286.449C576.593 292.552 578.119 297.254 581.171 300.553C584.223 303.77 588.388 305.378 593.666 305.378C598.945 305.378 603.11 303.77 606.162 300.553C609.296 297.254 610.863 292.552 610.863 286.449V248.468H624.967ZM671.042 247.354C676.32 247.354 680.98 248.426 685.022 250.571C689.146 252.633 692.362 255.231 694.672 258.365V248.468H708.899V317.75C708.899 324.018 707.58 329.585 704.94 334.452C702.301 339.4 698.466 343.277 693.435 346.081C688.486 348.885 682.547 350.288 675.619 350.288C666.381 350.288 658.711 348.102 652.608 343.731C646.504 339.442 643.04 333.586 642.215 326.163H656.195C657.268 329.709 659.536 332.555 663 334.699C666.546 336.926 670.753 338.039 675.619 338.039C681.31 338.039 685.888 336.307 689.352 332.843C692.898 329.379 694.672 324.348 694.672 317.75V306.368C692.28 309.584 689.022 312.306 684.898 314.533C680.857 316.677 676.238 317.75 671.042 317.75C665.103 317.75 659.659 316.265 654.711 313.296C649.844 310.244 645.968 306.038 643.081 300.677C640.277 295.233 638.875 289.088 638.875 282.243C638.875 275.397 640.277 269.335 643.081 264.056C645.968 258.777 649.844 254.695 654.711 251.808C659.659 248.839 665.103 247.354 671.042 247.354ZM694.672 282.49C694.672 277.789 693.682 273.706 691.702 270.242C689.805 266.778 687.29 264.138 684.156 262.324C681.021 260.509 677.64 259.602 674.011 259.602C670.382 259.602 667 260.509 663.866 262.324C660.732 264.056 658.175 266.654 656.195 270.118C654.298 273.5 653.35 277.541 653.35 282.243C653.35 286.944 654.298 291.068 656.195 294.614C658.175 298.161 660.732 300.883 663.866 302.78C667.083 304.594 670.464 305.502 674.011 305.502C677.64 305.502 681.021 304.594 684.156 302.78C687.29 300.965 689.805 298.326 691.702 294.862C693.682 291.315 694.672 287.191 694.672 282.49Z" fill="black"/>
<path d="M296.952 49.9919H294.325V52.6194V215.184V217.811H296.952H313.378H316.005V215.184V165.394H336.355V215.184V217.811H338.982H355.166H357.794V215.184V83.5969L367.564 133.082L367.983 135.2H370.142H382.944H385.111L385.524 133.074L395.052 84.0291V132.573V135.2H397.679H413.863H416.491V132.573V6V3.37249H413.863H395.022H392.889L392.451 5.46014L376.664 80.6535L360.878 5.46014L360.439 3.37249H358.306H339.224H336.601L336.596 5.99519L336.359 135.26H316.005V52.6194V49.9919H313.378H296.952Z" stroke="black" stroke-width="5.25502"/>
</svg>
