<svg width="358" height="609" viewBox="0 0 358 609" fill="none" xmlns="http://www.w3.org/2000/svg">
<path d="M178.5 0V57.3538C178.5 88.9431 208.487 111.92 238.989 103.701L285.011 91.2994C315.513 83.0804 345.5 106.057 345.5 137.646V281.743C345.5 319.264 304.384 342.277 272.401 322.658L242.072 304.052C232.042 297.899 220.101 295.645 208.517 297.718L151.071 307.998C138.54 310.24 125.631 307.413 115.184 300.137L95.6766 286.552C83.0082 277.729 66.8695 275.538 52.3074 280.664L45.0626 283.214C25.852 289.976 13 308.125 13 328.491V390V449.537C13 478.788 38.9402 501.238 67.8887 497.04L123.611 488.96C152.56 484.762 178.5 507.212 178.5 536.463V608.5" stroke="white" stroke-width="25"/>
<path d="M178.5 0V57.3538C178.5 88.9431 208.487 111.92 238.989 103.701L285.011 91.2994C315.513 83.0804 345.5 106.057 345.5 137.646V281.743C345.5 319.264 304.384 342.277 272.401 322.658L242.072 304.052C232.042 297.899 220.101 295.645 208.517 297.718L151.071 307.998C138.54 310.24 125.631 307.413 115.184 300.137L95.6766 286.552C83.0082 277.729 66.8695 275.538 52.3074 280.664L45.0626 283.214C25.852 289.976 13 308.125 13 328.491V390V449.537C13 478.788 38.9402 501.238 67.8887 497.04L123.611 488.96C152.56 484.762 178.5 507.212 178.5 536.463V608.5" stroke="#11366A" stroke-width="24"/>
<path d="M178.5 0V57.3538C178.5 88.9431 208.487 111.92 238.989 103.701L285.011 91.2994C315.513 83.0804 345.5 106.057 345.5 137.646V281.743C345.5 319.264 304.384 342.277 272.401 322.658L242.072 304.052C232.042 297.899 220.101 295.645 208.517 297.718L151.071 307.998C138.54 310.24 125.631 307.413 115.184 300.137L95.6766 286.552C83.0082 277.729 66.8695 275.538 52.3074 280.664L45.0626 283.214C25.852 289.976 13 308.125 13 328.491V390V449.537C13 478.788 38.9402 501.238 67.8887 497.04L123.611 488.96C152.56 484.762 178.5 507.212 178.5 536.463V608.5" stroke="white" stroke-width="4" stroke-dasharray="8 8"/>
<path d="M341.284 61.2117L339.289 61.0638L340.301 47.414C340.42 45.8104 339.898 44.2228 338.86 43.0032L327.342 29.466C326.304 28.2464 324.831 27.4897 323.248 27.3724L317.75 26.965L318.2 20.904C318.448 17.5579 315.969 14.6444 312.665 14.3996L280.753 12.0347C277.449 11.7899 274.568 14.306 274.32 17.6522L273.871 23.7132L266.89 23.1958C266.341 23.1552 265.859 23.5765 265.818 24.1321L265.668 26.1524C265.627 26.708 266.042 27.1958 266.591 27.2365L300.498 29.7492C301.046 29.7899 301.461 30.2777 301.42 30.8333L301.27 32.8536C301.229 33.4092 300.747 33.8305 300.198 33.7899L270.28 31.5727C269.732 31.5321 269.249 31.9534 269.208 32.509L269.058 34.5293C269.017 35.0849 269.432 35.5727 269.981 35.6134L295.91 37.5349C296.458 37.5756 296.873 38.0634 296.832 38.619L296.682 40.6393C296.641 41.1949 296.159 41.6162 295.61 41.5756L265.692 39.3584C265.144 39.3178 264.661 39.7391 264.62 40.2947L264.47 42.315C264.429 42.8706 264.844 43.3584 265.393 43.3991L291.322 45.3206C291.87 45.3612 292.285 45.8491 292.244 46.4046L292.094 48.425C292.053 48.9806 291.571 49.4019 291.022 49.3612L272.074 47.957L270.876 64.1196C270.38 70.8119 275.338 76.6388 281.945 77.1284C288.552 77.618 294.315 72.5856 294.811 65.8933L310.767 67.0758C310.271 73.7681 315.229 79.595 321.836 80.0846C328.443 80.5742 334.205 75.5418 334.701 68.8495L340.685 69.2929C341.782 69.3742 342.747 68.5316 342.829 67.4204L343.129 63.3798C343.211 62.2686 342.381 61.293 341.284 61.2117ZM282.394 71.0674C279.091 70.8226 276.612 67.9092 276.86 64.563C277.108 61.2169 279.989 58.7007 283.293 58.9455C286.596 59.1903 289.075 62.1037 288.827 65.4499C288.579 68.7961 285.698 71.3122 282.394 71.0674ZM322.285 74.0236C318.982 73.7788 316.503 70.8654 316.751 67.5192C316.999 64.1731 319.88 61.6569 323.183 61.9017C326.487 62.1465 328.966 65.0599 328.718 68.4061C328.47 71.7522 325.588 74.2684 322.285 74.0236ZM334.204 48.4985L316.253 47.1682L317.301 33.0259L322.799 33.4333L334.317 46.9706L334.204 48.4985Z" fill="#6D93B1"/>
<path d="M316.253 47.1682L334.204 48.4985L334.317 46.9706L322.799 33.4333L317.301 33.0259L316.253 47.1682Z" fill="#11366A"/>
<path d="M316.253 47.1682L334.204 48.4985L334.317 46.9706L322.799 33.4333L317.301 33.0259L316.253 47.1682Z" fill="white"/>
<path d="M316.751 67.5192C316.503 70.8654 318.982 73.7788 322.285 74.0236C325.588 74.2684 328.47 71.7522 328.718 68.4061C328.966 65.0599 326.487 62.1465 323.183 61.9017C319.88 61.6569 316.999 64.1731 316.751 67.5192Z" fill="white"/>
<path d="M341.284 61.2117L339.289 61.0638L340.301 47.414C340.42 45.8104 339.898 44.2228 338.86 43.0032L327.342 29.466C326.304 28.2464 324.831 27.4897 323.248 27.3724L317.75 26.965L318.2 20.904C318.448 17.5579 315.969 14.6444 312.665 14.3996L280.753 12.0347C277.449 11.7899 274.568 14.306 274.32 17.6522L273.871 23.7132L266.89 23.1958C266.341 23.1552 265.859 23.5765 265.818 24.1321L265.668 26.1524C265.627 26.708 266.042 27.1958 266.591 27.2365L300.498 29.7492C301.046 29.7899 301.461 30.2777 301.42 30.8333L301.27 32.8536C301.229 33.4092 300.747 33.8305 300.198 33.7899L270.28 31.5727C269.732 31.5321 269.249 31.9534 269.208 32.509L269.058 34.5293C269.017 35.0849 269.432 35.5727 269.981 35.6134L295.91 37.5349C296.458 37.5756 296.873 38.0634 296.832 38.619L296.682 40.6393C296.641 41.1949 296.159 41.6162 295.61 41.5756L265.692 39.3584C265.144 39.3178 264.661 39.7391 264.62 40.2947L264.47 42.315C264.429 42.8706 264.844 43.3584 265.393 43.3991L291.322 45.3206C291.87 45.3612 292.285 45.8491 292.244 46.4046L292.094 48.425C292.053 48.9806 291.571 49.4019 291.022 49.3612L272.074 47.957L270.876 64.1196C270.38 70.8119 275.338 76.6388 281.945 77.1284C288.552 77.618 294.315 72.5856 294.811 65.8933L310.767 67.0758C310.271 73.7681 315.229 79.595 321.836 80.0846C328.443 80.5742 334.205 75.5418 334.701 68.8495L340.685 69.2929C341.782 69.3742 342.747 68.5316 342.829 67.4204L343.129 63.3798C343.211 62.2686 342.381 61.293 341.284 61.2117ZM282.394 71.0674C279.091 70.8226 276.612 67.9092 276.86 64.563C277.108 61.2169 279.989 58.7007 283.293 58.9455C286.596 59.1903 289.075 62.1037 288.827 65.4499C288.579 68.7961 285.698 71.3122 282.394 71.0674ZM322.285 74.0236C318.982 73.7788 316.503 70.8654 316.751 67.5192C316.999 64.1731 319.88 61.6569 323.183 61.9017C326.487 62.1465 328.966 65.0599 328.718 68.4061C328.47 71.7522 325.588 74.2684 322.285 74.0236ZM334.204 48.4985L316.253 47.1682L317.301 33.0259L322.799 33.4333L334.317 46.9706L334.204 48.4985Z" fill="#6D93B1"/>
<path d="M316.253 47.1682L334.204 48.4985L334.317 46.9706L322.799 33.4333L317.301 33.0259L316.253 47.1682Z" fill="#11366A"/>
<path d="M316.253 47.1682L334.204 48.4985L334.317 46.9706L322.799 33.4333L317.301 33.0259L316.253 47.1682Z" fill="white"/>
<path d="M316.751 67.5192C316.503 70.8654 318.982 73.7788 322.285 74.0236C325.588 74.2684 328.47 71.7522 328.718 68.4061C328.966 65.0599 326.487 62.1465 323.183 61.9017C319.88 61.6569 316.999 64.1731 316.751 67.5192Z" fill="white"/>
<path d="M276.86 64.563C276.612 67.9092 279.091 70.8226 282.394 71.0674C285.698 71.3122 288.579 68.7961 288.827 65.4499C289.075 62.1037 286.596 59.1903 283.293 58.9455C279.989 58.7007 277.108 61.2169 276.86 64.563Z" fill="white"/>
</svg>
