<svg width="268" height="638" viewBox="0 0 268 638" fill="none" xmlns="http://www.w3.org/2000/svg">
<path d="M96.5 0V65.1366C96.5 106.059 138.547 133.489 176 117V117C213.453 100.511 255.5 127.942 255.5 168.863V299.203C255.5 322.408 232.986 338.95 210.842 332.016V332.016C207.631 331.011 204.586 329.54 201.803 327.65L115.95 269.361C73.4564 240.51 16 270.948 16 322.31V361V461.918C16 491.382 42.2993 513.891 71.4101 509.342L120.59 501.658C149.701 497.109 176 519.618 176 549.082V638" stroke="white" stroke-width="25"/>
<path d="M96.5 0V65.1366C96.5 106.059 138.547 133.489 176 117V117C213.453 100.511 255.5 127.942 255.5 168.863V299.203C255.5 322.408 232.986 338.95 210.842 332.016V332.016C207.631 331.011 204.586 329.54 201.803 327.65L115.95 269.361C73.4564 240.51 16 270.948 16 322.31V361V461.918C16 491.382 42.2993 513.891 71.4101 509.342L120.59 501.658C149.701 497.109 176 519.618 176 549.082V638" stroke="#11366A" stroke-width="24"/>
<path d="M96.5 0V65.1366C96.5 106.059 138.547 133.489 176 117V117C213.453 100.511 255.5 127.942 255.5 168.863V299.203C255.5 322.408 232.986 338.95 210.842 332.016V332.016C207.631 331.011 204.586 329.54 201.803 327.65L115.95 269.361C73.4564 240.51 16 270.948 16 322.31V361V461.918C16 491.382 42.2993 513.891 71.4101 509.342L120.59 501.658C149.701 497.109 176 519.618 176 549.082V638" stroke="white" stroke-width="4" stroke-dasharray="8 8"/>
<path d="M15.0714 240.614L16.9822 240.023L12.9406 226.946C12.4658 225.41 12.6187 223.746 13.357 222.325L21.5527 206.553C22.291 205.132 23.5574 204.064 25.0741 203.596L30.3408 201.968L28.5462 196.161C27.5554 192.956 29.3192 189.561 32.484 188.583L63.0571 179.134C66.2219 178.156 69.5934 179.963 70.5842 183.169L72.3788 188.975L79.0667 186.908C79.5921 186.746 80.1567 187.049 80.3212 187.581L80.9194 189.516C81.0839 190.049 80.7886 190.617 80.2631 190.78L47.7791 200.819C47.2537 200.982 46.9583 201.55 47.1228 202.082L47.721 204.018C47.8855 204.55 48.4501 204.853 48.9756 204.69L77.6378 195.832C78.1633 195.669 78.7278 195.972 78.8924 196.504L79.4906 198.44C79.6551 198.972 79.3597 199.54 78.8342 199.703L53.9936 207.38C53.4681 207.543 53.1728 208.111 53.3373 208.643L53.9355 210.579C54.1 211.111 54.6645 211.414 55.19 211.251L83.8523 202.393C84.3778 202.23 84.9423 202.533 85.1068 203.065L85.705 205.001C85.8695 205.533 85.5742 206.101 85.0487 206.264L60.208 213.941C59.6826 214.104 59.3872 214.672 59.5517 215.204L60.1499 217.14C60.3144 217.672 60.879 217.975 61.4045 217.812L79.5572 212.202L84.3429 227.686C86.3244 234.097 82.7968 240.886 76.4672 242.843C70.1376 244.799 63.3946 241.184 61.413 234.773L46.1265 239.497C48.108 245.909 44.5804 252.698 38.2508 254.654C31.9212 256.61 25.1782 252.996 23.1966 246.584L17.4642 248.356C16.4132 248.681 15.2842 248.075 14.9552 247.011L13.7587 243.14C13.4297 242.075 14.0204 240.939 15.0714 240.614ZM74.6726 237.036C77.8374 236.058 79.6012 232.663 78.6104 229.458C77.6196 226.252 74.2481 224.445 71.0833 225.423C67.9185 226.401 66.1547 229.795 67.1455 233.001C68.1363 236.207 71.5078 238.014 74.6726 237.036ZM36.4562 248.847C39.621 247.869 41.3848 244.475 40.394 241.269C39.4032 238.063 36.0317 236.256 32.8669 237.234C29.7022 238.212 27.9383 241.607 28.9291 244.812C29.9199 248.018 33.2914 249.825 36.4562 248.847ZM19.1254 226.638L36.3228 221.323L32.1354 207.774L26.8687 209.402L18.673 225.175L19.1254 226.638Z" fill="#6D93B1"/>
<path d="M36.3228 221.323L19.1254 226.638L18.673 225.175L26.8687 209.402L32.1354 207.774L36.3228 221.323Z" fill="#11366A"/>
<path d="M36.3228 221.323L19.1254 226.638L18.673 225.175L26.8687 209.402L32.1354 207.774L36.3228 221.323Z" fill="white"/>
<path d="M40.394 241.269C41.3848 244.475 39.621 247.869 36.4562 248.847C33.2914 249.825 29.9199 248.018 28.9291 244.812C27.9383 241.607 29.7022 238.212 32.8669 237.234C36.0317 236.256 39.4032 238.063 40.394 241.269Z" fill="white"/>
<path d="M15.0714 240.614L16.9822 240.023L12.9406 226.946C12.4658 225.41 12.6187 223.746 13.357 222.325L21.5527 206.553C22.291 205.132 23.5574 204.064 25.0741 203.596L30.3408 201.968L28.5462 196.161C27.5554 192.956 29.3192 189.561 32.484 188.583L63.0571 179.134C66.2219 178.156 69.5934 179.963 70.5842 183.169L72.3788 188.975L79.0667 186.908C79.5921 186.746 80.1567 187.049 80.3212 187.581L80.9194 189.516C81.0839 190.049 80.7886 190.617 80.2631 190.78L47.7791 200.819C47.2537 200.982 46.9583 201.55 47.1228 202.082L47.721 204.018C47.8855 204.55 48.4501 204.853 48.9756 204.69L77.6378 195.832C78.1633 195.669 78.7278 195.972 78.8924 196.504L79.4906 198.44C79.6551 198.972 79.3597 199.54 78.8342 199.703L53.9936 207.38C53.4681 207.543 53.1728 208.111 53.3373 208.643L53.9355 210.579C54.1 211.111 54.6645 211.414 55.19 211.251L83.8523 202.393C84.3778 202.23 84.9423 202.533 85.1068 203.065L85.705 205.001C85.8695 205.533 85.5742 206.101 85.0487 206.264L60.208 213.941C59.6826 214.104 59.3872 214.672 59.5517 215.204L60.1499 217.14C60.3144 217.672 60.879 217.975 61.4045 217.812L79.5572 212.202L84.3429 227.686C86.3244 234.097 82.7968 240.886 76.4672 242.843C70.1376 244.799 63.3946 241.184 61.413 234.773L46.1265 239.497C48.108 245.909 44.5804 252.698 38.2508 254.654C31.9212 256.61 25.1782 252.996 23.1966 246.584L17.4642 248.356C16.4132 248.681 15.2842 248.075 14.9552 247.011L13.7587 243.14C13.4297 242.075 14.0204 240.939 15.0714 240.614ZM74.6726 237.036C77.8374 236.058 79.6012 232.663 78.6104 229.458C77.6196 226.252 74.2481 224.445 71.0833 225.423C67.9185 226.401 66.1547 229.795 67.1455 233.001C68.1363 236.207 71.5078 238.014 74.6726 237.036ZM36.4562 248.847C39.621 247.869 41.3848 244.475 40.394 241.269C39.4032 238.063 36.0317 236.256 32.8669 237.234C29.7022 238.212 27.9383 241.607 28.9291 244.812C29.9199 248.018 33.2914 249.825 36.4562 248.847ZM19.1254 226.638L36.3228 221.323L32.1354 207.774L26.8687 209.402L18.673 225.175L19.1254 226.638Z" fill="#6D93B1"/>
<path d="M36.3228 221.323L19.1254 226.638L18.673 225.175L26.8687 209.402L32.1354 207.774L36.3228 221.323Z" fill="#11366A"/>
<path d="M36.3228 221.323L19.1254 226.638L18.673 225.175L26.8687 209.402L32.1354 207.774L36.3228 221.323Z" fill="white"/>
<path d="M40.394 241.269C41.3848 244.475 39.621 247.869 36.4562 248.847C33.2914 249.825 29.9199 248.018 28.9291 244.812C27.9383 241.607 29.7022 238.212 32.8669 237.234C36.0317 236.256 39.4032 238.063 40.394 241.269Z" fill="white"/>
<path d="M78.6104 229.458C79.6012 232.663 77.8374 236.058 74.6726 237.036C71.5078 238.014 68.1363 236.207 67.1455 233.001C66.1547 229.795 67.9185 226.401 71.0833 225.423C74.2481 224.445 77.6196 226.252 78.6104 229.458Z" fill="white"/>
</svg>
