<svg width="389" height="601" viewBox="0 0 389 601" fill="none" xmlns="http://www.w3.org/2000/svg">
<path d="M193 1L192.778 52.3863C192.639 84.4203 223.32 107.598 254.096 98.7092L314.681 81.2108C345.374 72.3457 376 95.3781 376 127.326V275.647C376 313.189 334.844 336.199 302.862 316.538L269.585 296.081C259.547 289.91 247.59 287.647 235.992 289.723L178.571 299.998C166.04 302.24 153.131 299.413 142.684 292.137L120.781 276.883C109.476 269.01 95.3337 266.374 81.9516 269.645L49.6022 277.553C28.1155 282.805 13 302.061 13 324.18V378.5V449.456C13 478.907 39.2771 501.412 68.3779 496.886L137.622 486.114C166.723 481.588 193 504.093 193 533.544V601" stroke="white" stroke-width="25"/>
<path d="M193 1L192.778 52.3863C192.639 84.4203 223.32 107.598 254.096 98.7092L314.681 81.2108C345.374 72.3457 376 95.3781 376 127.326V275.647C376 313.189 334.844 336.199 302.862 316.538L269.585 296.081C259.547 289.91 247.59 287.647 235.992 289.723L178.571 299.998C166.04 302.24 153.131 299.413 142.684 292.137L120.781 276.883C109.476 269.01 95.3337 266.374 81.9516 269.645L49.6022 277.553C28.1155 282.805 13 302.061 13 324.18V378.5V449.456C13 478.907 39.2771 501.412 68.3779 496.886L137.622 486.114C166.723 481.588 193 504.093 193 533.544V601" stroke="#11366A" stroke-width="24"/>
<path d="M193 1L192.778 52.3863C192.639 84.4203 223.32 107.598 254.096 98.7092L314.681 81.2108C345.374 72.3457 376 95.3781 376 127.326V275.647C376 313.189 334.844 336.199 302.862 316.538L269.585 296.081C259.547 289.91 247.59 287.647 235.992 289.723L178.571 299.998C166.04 302.24 153.131 299.413 142.684 292.137L120.781 276.883C109.476 269.01 95.3337 266.374 81.9516 269.645L49.6022 277.553C28.1155 282.805 13 302.061 13 324.18V378.5V449.456C13 478.907 39.2771 501.412 68.3779 496.886L137.622 486.114C166.723 481.588 193 504.093 193 533.544V601" stroke="white" stroke-width="4" stroke-dasharray="8 8"/>
</svg>
