<svg width="265" height="638" viewBox="0 0 265 638" fill="none" xmlns="http://www.w3.org/2000/svg">
<path class="path" d="M93.5 0V65.1366C93.5 106.059 135.547 133.489 173 117V117C210.453 100.511 252.5 127.942 252.5 168.863V299.203C252.5 322.408 229.986 338.95 207.842 332.016V332.016C204.631 331.011 201.586 329.54 198.803 327.65L112.95 269.361C70.4564 240.51 13 270.948 13 322.31V361V461.918C13 491.382 39.2993 513.891 68.4101 509.342L117.59 501.658C146.701 497.109 173 519.618 173 549.082V638" stroke="white" stroke-width="25" pathLength="1"/>
<path d="M93.5 0V65.1366C93.5 106.059 135.547 133.489 173 117V117C210.453 100.511 252.5 127.942 252.5 168.863V299.203C252.5 322.408 229.986 338.95 207.842 332.016V332.016C204.631 331.011 201.586 329.54 198.803 327.65L112.95 269.361C70.4564 240.51 13 270.948 13 322.31V361V461.918C13 491.382 39.2993 513.891 68.4101 509.342L117.59 501.658C146.701 497.109 173 519.618 173 549.082V638" stroke="#11366A" stroke-width="24"/>
<path d="M93.5 0V65.1366C93.5 106.059 135.547 133.489 173 117V117C210.453 100.511 252.5 127.942 252.5 168.863V299.203C252.5 322.408 229.986 338.95 207.842 332.016V332.016C204.631 331.011 201.586 329.54 198.803 327.65L112.95 269.361C70.4564 240.51 13 270.948 13 322.31V361V461.918C13 491.382 39.2993 513.891 68.4101 509.342L117.59 501.658C146.701 497.109 173 519.618 173 549.082V638" stroke="white" stroke-width="4" stroke-dasharray="8 8"/>
</svg>
