<svg width="139" height="202" viewBox="0 0 139 202" fill="none" xmlns="http://www.w3.org/2000/svg">
<rect x="62" width="78" height="200" fill="white"/>
<path d="M100 99H102.5V96.5H100V99ZM98.2322 200.768C99.2085 201.744 100.791 201.744 101.768 200.768L117.678 184.858C118.654 183.882 118.654 182.299 117.678 181.322C116.701 180.346 115.118 180.346 114.142 181.322L100 195.464L85.8579 181.322C84.8816 180.346 83.2986 180.346 82.3223 181.322C81.346 182.299 81.346 183.882 82.3223 184.858L98.2322 200.768ZM0 101.5H5V96.5H0V101.5ZM15 101.5H25V96.5H15V101.5ZM35 101.5H45V96.5H35V101.5ZM55 101.5H65V96.5H55V101.5ZM75 101.5H85V96.5H75V101.5ZM95 101.5H100V96.5H95V101.5ZM97.5 99V104H102.5V99H97.5ZM97.5 114V124H102.5V114H97.5ZM97.5 134V144H102.5V134H97.5ZM97.5 154V164H102.5V154H97.5ZM97.5 174V184H102.5V174H97.5ZM97.5 194V199H102.5V194H97.5Z" fill="#11366A"/>
</svg>
