<svg width="622" height="103" viewBox="0 0 622 103" fill="none" xmlns="http://www.w3.org/2000/svg">
<rect width="622" height="100" fill="white"/>
<path d="M467 50.7538V53.2538H469.5V50.7538H467ZM39 50.7538V48.2538H36.5V50.7538H39ZM37.2322 101.768C38.2085 102.744 39.7915 102.744 40.7678 101.768L56.6777 85.8579C57.654 84.8816 57.654 83.2986 56.6777 82.3223C55.7014 81.346 54.1184 81.346 53.1421 82.3223L39 96.4645L24.8579 82.3223C23.8816 81.346 22.2986 81.346 21.3223 82.3223C20.346 83.2986 20.346 84.8816 21.3223 85.8579L37.2322 101.768ZM41.5 100V93.8442H36.5V100H41.5ZM41.5 81.5327V69.2211H36.5V81.5327H41.5ZM41.5 56.9095V50.7538H36.5V56.9095H41.5ZM39 53.2538H44.0952V48.2538H39V53.2538ZM54.2857 53.2538H64.4762V48.2538H54.2857V53.2538ZM74.6667 53.2538H84.8571V48.2538H74.6667V53.2538ZM95.0476 53.2538H105.238V48.2538H95.0476V53.2538ZM115.429 53.2538H125.619V48.2538H115.429V53.2538ZM135.81 53.2538H146V48.2538H135.81V53.2538ZM156.19 53.2538H166.381V48.2538H156.19V53.2538ZM176.571 53.2538H186.762V48.2538H176.571V53.2538ZM196.952 53.2538H207.143V48.2538H196.952V53.2538ZM217.333 53.2538H227.524V48.2538H217.333V53.2538ZM237.714 53.2538H247.905V48.2538H237.714V53.2538ZM258.095 53.2538H268.286V48.2538H258.095V53.2538ZM278.476 53.2538H288.667V48.2538H278.476V53.2538ZM298.857 53.2538H309.048V48.2538H298.857V53.2538ZM319.238 53.2538H329.429V48.2538H319.238V53.2538ZM339.619 53.2538H349.81V48.2538H339.619V53.2538ZM360 53.2538H370.191V48.2538H360V53.2538ZM380.381 53.2538H390.572V48.2538H380.381V53.2538ZM400.762 53.2538H410.953V48.2538H400.762V53.2538ZM421.143 53.2538H431.334V48.2538H421.143V53.2538ZM441.524 53.2538H451.714V48.2538H441.524V53.2538ZM461.905 53.2538H467V48.2538H461.905V53.2538ZM469.5 50.7538V46.5243H464.5V50.7538H469.5ZM469.5 38.0653V29.6064H464.5V38.0653H469.5ZM469.5 21.1474V12.6884H464.5V21.1474H469.5ZM469.5 4.22948V0H464.5V4.22948H469.5Z" fill="#959595"/>
</svg>
