<svg width="200" height="200" viewBox="0 0 200 200" fill="none" xmlns="http://www.w3.org/2000/svg">
<circle cx="100" cy="100" r="97.5" fill="white" stroke="#959595" stroke-width="5" stroke-dasharray="10 10"/>
<path d="M109.934 98.128C109.934 98.1069 109.935 98.0838 109.935 98.0652C109.937 98.0094 109.938 97.9538 109.934 97.9015C109.926 97.7984 109.929 97.6952 109.931 97.5921L109.935 96.2678C109.937 95.252 109.939 94.236 109.945 93.22C109.954 94.7503 109.948 96.2755 109.94 97.9336C109.94 97.9799 109.944 98.0305 109.949 98.0824C109.95 98.096 109.951 98.1122 109.952 98.1284C109.946 98.1287 109.939 98.128 109.934 98.128ZM141.845 103.991V95.2714C141.845 95.1779 141.807 95.0886 141.739 95.0248C141.671 94.9608 141.579 94.9264 141.486 94.9334C141.382 94.9396 141.278 94.9445 141.174 94.9493C140.937 94.96 140.693 94.9713 140.449 95.0007C140.045 95.0493 139.921 94.977 139.886 94.9436C139.827 94.8862 139.805 94.7396 139.823 94.5307C139.859 94.1193 139.849 93.7078 139.84 93.3098C139.835 93.0949 139.83 92.8798 139.832 92.6653C139.833 92.5749 139.798 92.4878 139.735 92.4235C139.671 92.3593 139.584 92.3232 139.494 92.3232H134.738C134.645 92.3232 134.556 92.3614 134.492 92.4288C134.428 92.4963 134.395 92.587 134.4 92.6799L134.402 92.7153L134.399 93.3245C134.394 94.478 134.388 95.6708 134.404 96.8448C134.406 97.0075 134.381 97.0448 134.381 97.0448C134.381 97.0448 134.331 97.0902 134.12 97.0822C133.916 97.0809 133.867 97.0422 133.867 97.0422C133.865 97.0406 133.84 97.0035 133.846 96.8339C133.857 96.5243 133.854 96.2142 133.852 95.9042C133.848 95.5725 133.845 95.2295 133.861 94.8978C133.872 94.6672 133.857 94.375 133.649 94.1611C133.425 93.932 133.089 93.913 132.856 93.9173C131.376 93.9487 129.903 93.9522 128.48 93.9279C128.222 93.9262 127.896 93.9477 127.676 94.1739C127.639 94.2122 127.608 94.2532 127.582 94.2958C127.58 93.3693 127.581 92.4276 127.598 91.4989C127.601 91.3399 127.595 91.2139 127.578 91.1024C127.554 90.9364 127.411 90.8135 127.243 90.8135H122.241C122.055 90.8135 121.903 90.9639 121.902 91.1503C121.902 91.2181 121.906 91.2883 121.91 91.3585C121.913 91.4136 121.916 91.4687 121.916 91.522C121.909 93.7326 121.906 95.9431 121.904 98.1539V98.1895C121.904 98.2391 121.905 98.3093 121.899 98.3493C121.879 98.3543 121.843 98.3599 121.785 98.3606H121.774C121.69 98.3606 121.649 98.3526 121.643 98.3522C121.638 98.3367 121.63 98.2937 121.631 98.185C121.632 98.0077 121.626 97.8305 121.62 97.6529C121.61 97.3688 121.601 97.1003 121.622 96.8362C121.645 96.5577 121.447 96.2507 121.067 95.6872C120.773 95.2529 120.371 94.6581 120.376 94.3655C120.377 94.298 120.383 94.2302 120.389 94.1626C120.399 94.0447 120.411 93.9111 120.401 93.7729C120.397 93.707 120.394 93.6394 120.39 93.5711C120.367 93.0926 120.338 92.4972 119.806 92.1217C119.44 91.8635 119.419 91.7409 119.53 91.4231C119.732 90.8487 119.505 90.3071 118.925 89.9741C118.42 89.6838 118.035 89.9039 117.752 90.0658C117.453 90.236 117 90.6457 117.32 91.4777C117.396 91.6752 117.415 91.7704 117.416 91.8162C116.31 92.4459 116.381 93.3802 116.445 94.2053L116.448 94.2407C116.515 95.1197 116.115 95.6328 115.767 95.9083C115.272 96.3007 115.31 96.778 115.338 97.1261C115.344 97.2095 115.352 97.2925 115.35 97.3745C115.335 97.962 115.337 98.5573 115.339 99.133C115.341 99.5724 115.342 100.012 115.336 100.451C115.335 100.519 115.341 100.591 115.346 100.663C115.351 100.731 115.36 100.846 115.363 100.86C115.363 100.86 115.309 100.893 115.118 100.886C115.017 100.882 114.963 100.869 114.937 100.86C114.937 100.818 114.948 100.746 114.955 100.7C114.968 100.615 114.979 100.531 114.978 100.456C114.968 98.9012 114.967 97.3461 114.967 95.791C114.967 94.6238 114.966 93.4566 114.962 92.2894C114.961 92.2044 114.961 92.121 114.956 92.0381C114.947 91.8579 114.799 91.7167 114.618 91.7167H110.282C110.104 91.7167 109.956 91.8549 109.945 92.0326C109.939 92.1132 109.937 92.195 109.938 92.2782C109.939 92.3952 109.94 92.5119 109.941 92.6287C109.927 92.5669 109.896 92.5095 109.851 92.4638C109.787 92.3997 109.701 92.3637 109.61 92.3637H107.219H104.465C104.314 92.3637 104.191 92.4863 104.191 92.6377V100.886L101.02 100.86V101.563H104.602C104.754 101.563 104.876 101.44 104.876 101.289V93.0408H109.269C109.262 94.1161 109.26 95.1913 109.258 96.2666L109.254 97.5795C109.251 97.7031 109.249 97.8271 109.258 97.9502C109.261 97.9813 109.259 98.0143 109.258 98.0474C109.254 98.2002 109.248 98.4309 109.422 98.6125C109.541 98.7369 109.714 98.8016 109.936 98.8056C110.169 98.8043 110.357 98.7444 110.479 98.6128C110.658 98.4207 110.636 98.1721 110.623 98.0233C110.62 97.9931 110.617 97.9637 110.618 97.937C110.627 95.9806 110.633 94.209 110.616 92.394H114.285C114.289 93.5264 114.289 94.6587 114.29 95.7913C114.29 97.3477 114.291 98.9041 114.301 100.46C114.301 100.503 114.292 100.549 114.285 100.598C114.257 100.783 114.214 101.062 114.405 101.292C114.545 101.462 114.771 101.551 115.093 101.563C115.439 101.576 115.686 101.501 115.846 101.334C116.06 101.111 116.038 100.821 116.021 100.61C116.017 100.559 116.013 100.509 116.013 100.461C116.019 100.017 116.018 99.5737 116.016 99.1306C116.014 98.5596 116.012 97.9693 116.027 97.392C116.029 97.2865 116.022 97.1797 116.013 97.0723C115.987 96.7498 115.984 96.6004 116.188 96.439C116.861 95.9053 117.193 95.1062 117.123 94.1887L117.12 94.1533C117.054 93.2971 117.052 92.7932 117.77 92.394C118.287 92.1065 118.043 91.4732 117.952 91.2346C117.805 90.8534 117.932 90.7425 118.087 90.6542L118.116 90.6372C118.356 90.5002 118.425 90.468 118.588 90.5613C118.883 90.7306 118.982 90.9393 118.891 91.1989C118.67 91.8283 118.822 92.256 119.416 92.6749C119.66 92.8476 119.692 93.1409 119.714 93.6036C119.717 93.6772 119.721 93.7499 119.726 93.8214C119.732 93.9056 119.723 94.0012 119.714 94.1026C119.707 94.1867 119.7 94.2709 119.698 94.355C119.691 94.8606 120.105 95.4737 120.505 96.0665C120.684 96.3301 120.928 96.6913 120.947 96.7816C120.923 97.0848 120.933 97.3854 120.943 97.676C120.949 97.844 120.955 98.012 120.953 98.1797C120.952 98.3221 120.95 98.6188 121.159 98.8275C121.304 98.9719 121.512 99.0344 121.792 99.0378C122.583 99.0287 122.582 98.4181 122.581 98.1545C122.583 95.9444 122.586 93.7342 122.593 91.5245C122.593 91.5134 122.593 91.5021 122.593 91.4907H126.921C126.899 92.7012 126.903 93.9304 126.908 95.1192C126.91 95.5817 126.912 96.044 126.912 96.5062L126.912 96.6156C126.911 96.7479 126.91 96.8805 126.918 97.0124L126.92 97.0614C126.932 97.4608 127.114 97.6777 127.461 97.7061C127.664 97.722 127.829 97.6734 127.952 97.5613C128.142 97.3877 128.144 97.14 128.146 96.9856L128.152 96.5296C128.161 95.985 128.17 95.4218 128.143 94.8637C128.135 94.6872 128.162 94.6456 128.162 94.6456C128.162 94.6449 128.213 94.5959 128.469 94.6051C129.901 94.6292 131.382 94.6261 132.871 94.5944C133.108 94.5886 133.164 94.6335 133.164 94.6335C133.165 94.6351 133.193 94.675 133.184 94.8659C133.168 95.2169 133.171 95.5694 133.174 95.9105C133.177 96.2104 133.18 96.5104 133.169 96.8101C133.162 97.0273 133.179 97.3031 133.377 97.5104C133.589 97.7309 133.9 97.7581 134.116 97.7594C134.337 97.763 134.649 97.7372 134.862 97.522C135.061 97.3206 135.084 97.0498 135.081 96.8359C135.065 95.6678 135.071 94.478 135.076 93.3277L135.078 93.0004H139.157C139.158 93.1086 139.16 93.2171 139.163 93.3254C139.172 93.7225 139.181 94.0977 139.148 94.4718C139.11 94.9061 139.198 95.2195 139.415 95.4302C139.726 95.7305 140.2 95.7129 140.53 95.6729C140.737 95.6479 140.947 95.6376 141.168 95.6275V104.33C141.168 104.517 141.32 104.668 141.507 104.668H161.403V103.991H141.845Z" fill="#11366A"/>
<path d="M87.0673 77.6445L85.4924 80.4078H84.9186C84.7588 80.4078 84.621 80.5194 84.5874 80.6754C84.554 80.8313 84.5583 80.9897 84.5626 81.1426C84.5638 81.1894 84.5651 81.2361 84.5651 81.2825L84.5639 82.7675C84.5601 87.6341 84.5562 92.6665 84.5332 97.6161C84.5327 97.7154 84.5514 97.8112 84.5694 97.9042C84.5805 97.9617 84.5979 98.0517 84.5973 98.1002C84.5712 98.1092 84.5157 98.1225 84.4115 98.1244C84.4019 98.1248 84.3927 98.1248 84.384 98.1248C84.2468 98.1248 84.192 98.1046 84.1829 98.1085C84.1741 98.0632 84.194 97.9451 84.2065 97.8731C84.2228 97.7766 84.2399 97.6766 84.2382 97.5751C84.2186 96.3759 84.2195 95.1545 84.2205 93.9734C84.2212 93.3427 84.2217 92.7119 84.2193 92.0809C84.2176 91.6611 84.2159 91.2269 83.8616 91.1464C83.5072 91.0658 83.5159 91.0018 83.5647 90.6473C83.5845 90.5029 83.6071 90.339 83.5834 90.174C83.5753 90.1177 83.5727 90.0609 83.57 90.0055C83.5551 89.7168 83.5217 89.115 82.6085 89.1402C82.1828 89.1512 81.7808 89.1617 81.5382 89.4596C81.387 89.6452 81.3417 89.8929 81.4001 90.2186C81.404 90.2406 81.4099 90.2732 81.4135 90.3022C81.2965 90.3193 81.1633 90.3226 81.0231 90.3262C80.5947 90.3373 79.9112 90.3549 79.6682 91.0251C79.4384 91.0402 79.2625 91.1094 79.1346 91.2345C78.8942 91.4702 78.9209 91.7975 78.9404 92.0368C78.9452 92.0962 78.9505 92.1551 78.9501 92.2105C78.9419 93.4975 78.9387 94.7844 78.9357 96.0713C78.9338 96.9142 78.9318 97.7567 78.9283 98.5996L78.9293 98.6805C78.9298 98.7034 78.9303 98.7315 78.9299 98.757C78.9179 98.7579 78.906 98.7566 78.8911 98.7559C78.8888 98.7556 78.8864 98.7556 78.8841 98.7553C78.8839 98.7377 78.8837 98.7192 78.8837 98.7037C78.8834 98.6684 78.883 98.6329 78.8811 98.5989C78.8751 98.4851 78.8759 98.371 78.8764 98.257L78.8767 98.131L78.8742 95.5601C78.8727 92.9565 78.8713 90.2642 78.84 87.6156C78.8391 87.5391 78.8572 87.4323 78.8762 87.3191C78.9288 87.0083 79.0007 86.5831 78.7208 86.2717C78.5304 86.0597 78.2237 85.9498 77.7856 85.9609C77.7774 85.7659 77.7013 85.5982 77.5698 85.4879C77.4754 85.4085 77.3096 85.3213 77.055 85.3592C76.6739 85.4154 76.5736 85.3456 76.5573 85.3309C76.4917 85.2723 76.5003 85.0257 76.5066 84.8457C76.509 84.7779 76.5114 84.71 76.5116 84.6434C76.5137 83.9887 76.5131 83.3339 76.5127 82.6792L76.5123 81.8469C76.5123 81.756 76.4759 81.6689 76.411 81.6052C76.346 81.5416 76.2503 81.5093 76.1674 81.5084L75.9296 81.5128C75.7451 81.5162 75.5972 81.6669 75.5972 81.8514L75.5989 82.805C75.6009 83.559 75.6028 84.3129 75.5936 85.0668C75.587 85.5917 74.9588 85.8779 74.6888 85.9766C74.245 86.1389 73.8527 86.3365 73.9272 86.9642C73.9408 87.0773 73.9404 87.2304 73.8617 87.3168C73.7877 87.3979 73.6294 87.4397 73.415 87.4343C73.1864 87.4285 72.9299 87.4475 72.7471 87.6338C72.6639 87.7186 72.5674 87.8722 72.5788 88.1222C72.579 88.1245 72.579 88.1268 72.5791 88.1289C72.2346 88.0986 71.9846 88.1611 71.8156 88.3226C71.5843 88.543 71.5973 88.8512 71.6065 89.0762C71.6083 89.1185 71.6101 89.1606 71.6101 89.2018L71.6093 93.0124C71.6091 94.815 71.6091 96.6175 71.6066 98.42C71.6065 98.4713 71.6095 98.5245 71.6126 98.5781C71.6156 98.6286 71.62 98.7074 71.6154 98.7507C71.5919 98.7563 71.5476 98.7639 71.4662 98.7613C71.4238 98.7602 71.3935 98.7566 71.3731 98.7526C71.3747 98.7186 71.3801 98.6736 71.3841 98.6402C71.3927 98.5694 71.4 98.5003 71.3995 98.4379C71.3849 96.7588 71.3883 95.0505 71.3914 93.3984L71.3939 92.985C71.4003 92.7144 71.4082 92.3778 71.1525 92.1433C70.9657 91.9718 70.6883 91.9079 70.3059 91.9506C70.3053 91.9506 70.3047 91.9508 70.3042 91.9508C70.3042 91.9484 70.3042 91.9462 70.3044 91.9437C70.3105 91.7608 70.3072 91.5765 70.3036 91.3913C70.2935 90.8513 70.2838 90.3413 70.5221 89.8601C70.5742 89.755 70.5682 89.6307 70.5064 89.5312C70.4447 89.4316 70.3358 89.3711 70.2187 89.3711H66.3559C66.2354 89.3711 66.1239 89.4353 66.0633 89.5395C66.0026 89.6437 66.002 89.7723 66.0616 89.8771C66.2159 90.1486 66.2878 90.3877 66.2881 90.63C66.2904 93.217 66.2926 95.8043 66.2812 98.3916C66.281 98.4438 66.2838 98.498 66.2867 98.553C66.2906 98.6184 66.2968 98.7282 66.2936 98.7467C66.2933 98.747 66.2456 98.7798 66.0725 98.7804H66.0678C65.9094 98.7804 65.8581 98.7559 65.8551 98.757C65.8415 98.7226 65.8457 98.6115 65.8482 98.5444C65.8501 98.4967 65.8516 98.4494 65.8515 98.4028C65.8447 97.0299 65.8449 95.6572 65.8451 94.2844V92.9864C65.8451 92.5777 65.7944 92.2939 65.6809 92.066C65.6236 91.951 65.5063 91.8783 65.3778 91.8783H60.7047C60.5462 91.8783 60.4133 91.9873 60.3762 92.1343H60.376C60.282 92.4391 60.2393 92.7001 60.2494 92.9096C60.3086 94.1321 60.2891 95.3835 60.2704 96.5938L60.2605 97.2544C60.2596 97.3219 60.2693 97.3993 60.2808 97.4793C60.2851 97.5077 60.2909 97.5471 60.2941 97.5808C60.2818 97.5818 60.2674 97.5824 60.2504 97.5824C60.2367 97.5824 60.2203 97.5818 60.2075 97.5811C60.2094 97.5507 60.2132 97.5157 60.2162 97.4881C60.2235 97.4188 60.2296 97.351 60.2281 97.2904C60.2084 96.4293 60.1991 95.5678 60.1901 94.7062C60.1705 92.8991 60.1506 91.0305 60.0299 89.1931C59.9232 87.5722 60.1684 86.5852 61.765 86.0115C61.9 85.9634 61.9578 85.8577 61.9856 85.8069C61.992 85.7954 62 85.7804 62.0117 85.7623C62.0776 85.6611 62.0846 85.5325 62.0301 85.4247C61.9756 85.3169 61.8677 85.2465 61.7471 85.2395C61.5708 85.2296 61.4653 85.2065 61.4054 85.1872C61.43 85.1514 61.4709 85.1008 61.5378 85.0345C61.622 84.9508 61.6564 84.8293 61.6284 84.7141C61.6005 84.5987 61.5142 84.5064 61.401 84.4709L61.3312 84.4474C61.2848 84.431 61.2321 84.4123 61.1623 84.4104C60.8986 84.4023 60.635 84.395 60.3711 84.39C60.164 84.163 59.8127 82.9936 59.6301 77.9284C59.6196 77.6426 59.6118 77.4247 59.6048 77.3015C59.5948 77.1305 59.4588 76.9938 59.2878 76.9831C59.1108 76.9745 58.9648 77.0912 58.9337 77.2596C58.761 78.1967 58.692 79.1408 58.6256 80.0538L58.6016 80.3884C58.4116 83.3718 57.9019 84.3844 57.6987 84.3882C57.5767 84.3905 57.4549 84.3978 57.3005 84.4074L57.0369 84.4228C56.9025 84.4301 56.7851 84.5162 56.738 84.6422C56.6909 84.7683 56.7228 84.9103 56.8195 85.004C56.9042 85.0862 56.9508 85.1456 56.9761 85.1841C56.9145 85.2111 56.7897 85.2507 56.5491 85.2822C56.4066 85.3011 56.2915 85.4077 56.262 85.5485C56.2324 85.6892 56.295 85.8334 56.418 85.9078C56.5758 86.003 56.7196 86.0951 56.8559 86.1824C57.1425 86.3659 57.4133 86.5394 57.7091 86.6747C58.2235 86.9102 58.3906 87.1909 58.3714 87.787C58.2878 90.3968 58.236 93.0617 58.2177 95.7101V103.991H38.6328V104.668H58.5563C58.7432 104.668 58.8949 104.517 58.8949 104.33V95.7124C58.9132 93.0719 58.9648 90.4129 59.0483 87.8089C59.0759 86.9461 58.7499 86.4064 57.991 86.0591C57.7931 85.9685 57.603 85.8546 57.3963 85.7239C57.5144 85.6461 57.6065 85.5424 57.6527 85.403C57.6916 85.2856 57.6876 85.1719 57.6597 85.0666C57.677 85.0661 57.6942 85.0658 57.7115 85.0654C57.9938 85.0599 58.7939 85.0449 59.1672 81.7118C59.4116 84.435 59.7817 85.057 60.3075 85.0662C60.4437 85.0686 60.5799 85.0717 60.7162 85.0752C60.6806 85.201 60.6847 85.3219 60.7284 85.4371C60.7632 85.5293 60.8187 85.6035 60.8862 85.6631C59.3244 86.5169 59.2689 87.9419 59.354 89.2373C59.4737 91.0563 59.4935 92.9154 59.5128 94.7135C59.5221 95.5777 59.5314 96.4419 59.5511 97.306C59.5519 97.3398 59.5468 97.3778 59.5427 97.4168C59.5248 97.5854 59.4977 97.8407 59.6774 98.0447C59.7986 98.182 59.981 98.2544 60.2199 98.2593C60.4953 98.258 60.694 98.1945 60.8269 98.0437C61.0164 97.8291 60.977 97.5596 60.9509 97.3811C60.9448 97.3391 60.9372 97.2988 60.9377 97.2637L60.9475 96.6043C60.9665 95.3833 60.9862 94.1211 60.9259 92.8768C60.9234 92.8237 60.9268 92.7214 60.9637 92.5555H65.1345C65.1567 92.669 65.1679 92.8119 65.1679 92.9865V94.2844C65.1676 95.6584 65.1676 97.0322 65.1743 98.4061C65.1745 98.4431 65.173 98.4811 65.1715 98.5189C65.1639 98.7239 65.1533 99.0043 65.3628 99.2208C65.5179 99.3813 65.7539 99.4553 66.075 99.4576C66.3986 99.4563 66.6302 99.3769 66.7831 99.2142C66.99 98.9947 66.9744 98.7176 66.9631 98.5149C66.9607 98.4742 66.9582 98.4336 66.9584 98.3942C66.9698 95.8059 66.9677 93.2177 66.9654 90.6293C66.9652 90.4357 66.9351 90.2431 66.8742 90.0483H69.7331C69.6098 90.5169 69.6186 90.9815 69.6265 91.404C69.6298 91.5774 69.6333 91.7499 69.6275 91.9209C69.6179 92.2055 69.7325 92.3735 69.8302 92.4643C69.9272 92.5539 70.1025 92.6546 70.3796 92.6238C70.6302 92.5961 70.6935 92.6412 70.6937 92.6412C70.7236 92.6816 70.7191 92.8686 70.7169 92.9689L70.7142 93.3972C70.7111 95.0509 70.7077 96.7611 70.7223 98.4438C70.7226 98.4795 70.7169 98.5185 70.7119 98.5585C70.6911 98.7301 70.6595 98.9894 70.842 99.2014C70.9728 99.3531 71.1708 99.4305 71.4473 99.4385C71.7469 99.4471 71.9629 99.3769 72.1106 99.2248C72.3163 99.0129 72.2995 98.7276 72.2886 98.5387C72.2863 98.4988 72.2838 98.459 72.2838 98.421C72.2863 96.6182 72.2863 94.8153 72.2865 93.0124L72.2874 89.2022C72.2874 89.1518 72.2853 89.0999 72.2832 89.048C72.2799 88.9696 72.2744 88.8383 72.2772 88.8171C72.2781 88.8169 72.331 88.7868 72.5187 88.8036C72.7977 88.8292 72.9685 88.7269 73.0624 88.637C73.1525 88.5508 73.2564 88.3952 73.257 88.115C73.2856 88.1117 73.3299 88.1096 73.3977 88.1111C73.8196 88.1208 74.1477 88.0081 74.3623 87.7727C74.5009 87.6206 74.6545 87.343 74.5997 86.8841C74.589 86.7943 74.5991 86.7671 74.5989 86.7671C74.6119 86.7488 74.6709 86.7041 74.9214 86.6124C75.4452 86.421 75.8331 86.1343 76.0554 85.7863C76.0712 85.8033 76.0881 85.8199 76.1061 85.8359C76.3242 86.0311 76.6389 86.0958 77.1107 86.0364C77.1191 86.196 77.1535 86.3839 77.3 86.518C77.3967 86.6068 77.5258 86.6501 77.662 86.6425C78.0969 86.6158 78.2007 86.7062 78.2172 86.7243C78.2784 86.7925 78.238 87.0317 78.2086 87.2063C78.1853 87.344 78.1612 87.4864 78.1628 87.6236C78.1941 90.2686 78.1955 92.9588 78.197 95.5607L78.1995 98.1323L78.1993 98.2537C78.1987 98.381 78.1983 98.508 78.205 98.6349C78.2063 98.6587 78.2063 98.6832 78.2065 98.7077C78.2073 98.8777 78.2103 99.3941 78.8513 99.4318C79.1014 99.4464 79.2888 99.3908 79.4235 99.2616C79.6147 99.0774 79.6096 98.8303 79.6063 98.6667L79.6055 98.6022C79.609 97.759 79.6109 96.9161 79.613 96.0729C79.6159 94.7868 79.6191 93.5009 79.6273 92.2148C79.6279 92.1407 79.6219 92.0615 79.6155 91.9818C79.6083 91.8951 79.5964 91.7497 79.6047 91.7216C79.6054 91.7212 79.669 91.6829 79.8979 91.7064C80.0824 91.7272 80.2434 91.5959 80.268 91.4152C80.3163 91.058 80.4574 91.0181 81.0404 91.0033C81.2167 90.9987 81.3988 90.994 81.577 90.9616C81.8102 90.9191 82.1837 90.7505 82.0663 90.0967C82.0416 89.9601 82.0564 89.8981 82.063 89.8874C82.1172 89.8305 82.4358 89.8221 82.6292 89.817C82.6429 89.8167 82.656 89.8166 82.6683 89.8166C82.8165 89.8166 82.8721 89.8463 82.87 89.839C82.8848 89.8691 82.8901 89.9718 82.8936 90.04C82.8976 90.116 82.902 90.1938 82.9132 90.2707C82.9232 90.3411 82.909 90.4449 82.8938 90.555C82.8507 90.8676 82.7643 91.4957 83.5309 91.7562C83.5368 91.8222 83.5414 91.9245 83.5421 92.0836C83.5445 92.7133 83.544 93.3431 83.5433 93.973C83.5424 95.1569 83.5414 96.3811 83.561 97.5864C83.562 97.6379 83.5495 97.6975 83.5389 97.7594C83.5027 97.972 83.4479 98.293 83.6619 98.5417C83.8181 98.7232 84.0696 98.8121 84.4246 98.8016C84.7572 98.795 84.989 98.7053 85.1329 98.5275C85.3321 98.2815 85.2732 97.9772 85.2342 97.7755C85.2233 97.7193 85.2102 97.6658 85.2104 97.6192C85.2333 92.6685 85.2373 87.6353 85.2411 82.7679L85.2423 81.2832C85.2423 81.2306 85.241 81.1773 85.2394 81.1243C85.2392 81.1113 85.2388 81.098 85.2385 81.0849H85.6892C85.8109 81.0849 85.9231 81.0197 85.9833 80.914L87.0673 79.012V77.6445Z" fill="#11366A"/>
<path d="M41.0977 109.53V113.953H46.3011V115.969H41.0977V120.587H46.9515V122.604H38.6261V107.514H46.9515V109.53H41.0977ZM49.1719 116.576C49.1719 115.377 49.4176 114.314 49.909 113.389C50.4149 112.464 51.0943 111.749 51.947 111.243C52.8143 110.723 53.7682 110.463 54.8089 110.463C55.7484 110.463 56.5651 110.65 57.2588 111.026C57.9671 111.388 58.5308 111.843 58.9499 112.392V110.658H61.4432V122.604H58.9499V120.826C58.5308 121.39 57.9598 121.859 57.2372 122.235C56.5145 122.611 55.6906 122.799 54.7655 122.799C53.7393 122.799 52.7998 122.539 51.947 122.018C51.0943 121.484 50.4149 120.746 49.909 119.807C49.4176 118.853 49.1719 117.776 49.1719 116.576ZM58.9499 116.62C58.9499 115.796 58.7765 115.081 58.4296 114.473C58.0972 113.866 57.6563 113.404 57.1071 113.086C56.5578 112.768 55.9652 112.609 55.3292 112.609C54.6933 112.609 54.1007 112.768 53.5514 113.086C53.0022 113.389 52.5541 113.845 52.2072 114.452C51.8748 115.044 51.7086 115.753 51.7086 116.576C51.7086 117.4 51.8748 118.123 52.2072 118.745C52.5541 119.366 53.0022 119.843 53.5514 120.176C54.1151 120.493 54.7077 120.652 55.3292 120.652C55.9652 120.652 56.5578 120.493 57.1071 120.176C57.6563 119.858 58.0972 119.395 58.4296 118.788C58.7765 118.166 58.9499 117.444 58.9499 116.62ZM69.0257 122.799C68.0862 122.799 67.2407 122.633 66.4891 122.3C65.7519 121.953 65.1666 121.491 64.733 120.913C64.2993 120.32 64.0681 119.662 64.0392 118.94H66.5975C66.6409 119.446 66.8793 119.872 67.313 120.219C67.761 120.551 68.3175 120.718 68.9824 120.718C69.6762 120.718 70.211 120.587 70.5868 120.327C70.977 120.053 71.1721 119.706 71.1721 119.287C71.1721 118.839 70.9553 118.506 70.5217 118.289C70.1026 118.072 69.4305 117.834 68.5054 117.574C67.6093 117.328 66.8793 117.09 66.3156 116.858C65.7519 116.627 65.2605 116.273 64.8414 115.796C64.4366 115.319 64.2343 114.69 64.2343 113.91C64.2343 113.274 64.4222 112.696 64.798 112.175C65.1738 111.641 65.7086 111.221 66.4024 110.918C67.1106 110.614 67.92 110.463 68.8306 110.463C70.1893 110.463 71.2806 110.809 72.1044 111.503C72.9427 112.183 73.3908 113.115 73.4486 114.3H70.977C70.9337 113.765 70.7168 113.339 70.3266 113.021C69.9363 112.703 69.4088 112.544 68.7439 112.544C68.0935 112.544 67.5948 112.667 67.2479 112.912C66.901 113.158 66.7276 113.483 66.7276 113.888C66.7276 114.206 66.8432 114.473 67.0745 114.69C67.3057 114.907 67.5876 115.081 67.92 115.211C68.2525 115.326 68.7439 115.478 69.3943 115.666C70.2616 115.897 70.9698 116.136 71.519 116.381C72.0827 116.613 72.5669 116.96 72.9717 117.422C73.3764 117.885 73.5859 118.499 73.6004 119.265C73.6004 119.944 73.4125 120.551 73.0367 121.086C72.6609 121.621 72.1261 122.04 71.4323 122.344C70.753 122.647 69.9508 122.799 69.0257 122.799ZM87.0247 110.658L79.6966 128.219H77.1383L79.5665 122.409L74.8618 110.658H77.6152L80.9758 119.764L84.4664 110.658H87.0247ZM99.7086 110.658V122.604H97.237V121.195C96.8468 121.686 96.3337 122.076 95.6977 122.365C95.0762 122.64 94.4113 122.777 93.7031 122.777C92.7636 122.777 91.918 122.582 91.1664 122.192C90.4293 121.802 89.8439 121.223 89.4103 120.457C88.9911 119.691 88.7815 118.766 88.7815 117.682V110.658H91.2315V117.314C91.2315 118.383 91.4988 119.207 92.0336 119.785C92.5684 120.349 93.2984 120.631 94.2234 120.631C95.1484 120.631 95.8784 120.349 96.4132 119.785C96.9624 119.207 97.237 118.383 97.237 117.314V110.658H99.7086ZM117.431 110.463C118.37 110.463 119.209 110.658 119.946 111.048C120.697 111.438 121.283 112.016 121.702 112.782C122.136 113.548 122.352 114.473 122.352 115.558V122.604H119.902V115.926C119.902 114.856 119.635 114.04 119.1 113.476C118.565 112.898 117.836 112.609 116.91 112.609C115.985 112.609 115.248 112.898 114.699 113.476C114.164 114.04 113.897 114.856 113.897 115.926V122.604H111.447V115.926C111.447 114.856 111.18 114.04 110.645 113.476C110.11 112.898 109.38 112.609 108.455 112.609C107.53 112.609 106.793 112.898 106.244 113.476C105.709 114.04 105.441 114.856 105.441 115.926V122.604H102.97V110.658H105.441V112.024C105.846 111.532 106.359 111.149 106.981 110.874C107.602 110.6 108.267 110.463 108.975 110.463C109.929 110.463 110.782 110.665 111.534 111.07C112.285 111.474 112.863 112.06 113.268 112.826C113.629 112.103 114.193 111.532 114.959 111.113C115.725 110.679 116.549 110.463 117.431 110.463ZM127.687 120.587H133.107V122.604H124.825V120.587L130.267 112.674H124.825V110.658H133.107V112.674L127.687 120.587ZM146.521 110.658V122.604H144.05V121.195C143.66 121.686 143.146 122.076 142.51 122.365C141.889 122.64 141.224 122.777 140.516 122.777C139.576 122.777 138.731 122.582 137.979 122.192C137.242 121.802 136.657 121.223 136.223 120.457C135.804 119.691 135.594 118.766 135.594 117.682V110.658H138.044V117.314C138.044 118.383 138.312 119.207 138.846 119.785C139.381 120.349 140.111 120.631 141.036 120.631C141.961 120.631 142.691 120.349 143.226 119.785C143.775 119.207 144.05 118.383 144.05 117.314V110.658H146.521ZM154.596 110.463C155.521 110.463 156.337 110.65 157.046 111.026C157.768 111.388 158.332 111.843 158.737 112.392V110.658H161.23V122.799C161.23 123.897 160.999 124.873 160.536 125.726C160.074 126.593 159.402 127.272 158.52 127.764C157.653 128.255 156.612 128.501 155.398 128.501C153.779 128.501 152.435 128.118 151.365 127.352C150.296 126.6 149.689 125.574 149.544 124.273H151.994C152.182 124.895 152.579 125.393 153.186 125.769C153.808 126.159 154.545 126.355 155.398 126.355C156.395 126.355 157.197 126.051 157.804 125.444C158.426 124.837 158.737 123.955 158.737 122.799V120.804C158.317 121.368 157.747 121.845 157.024 122.235C156.316 122.611 155.506 122.799 154.596 122.799C153.555 122.799 152.601 122.539 151.734 122.018C150.881 121.484 150.202 120.746 149.696 119.807C149.204 118.853 148.959 117.776 148.959 116.576C148.959 115.377 149.204 114.314 149.696 113.389C150.202 112.464 150.881 111.749 151.734 111.243C152.601 110.723 153.555 110.463 154.596 110.463ZM158.737 116.62C158.737 115.796 158.563 115.081 158.216 114.473C157.884 113.866 157.443 113.404 156.894 113.086C156.345 112.768 155.752 112.609 155.116 112.609C154.48 112.609 153.887 112.768 153.338 113.086C152.789 113.389 152.341 113.845 151.994 114.452C151.661 115.044 151.495 115.753 151.495 116.576C151.495 117.4 151.661 118.123 151.994 118.745C152.341 119.366 152.789 119.843 153.338 120.176C153.902 120.493 154.494 120.652 155.116 120.652C155.752 120.652 156.345 120.493 156.894 120.176C157.443 119.858 157.884 119.395 158.216 118.788C158.563 118.166 158.737 117.444 158.737 116.62Z" fill="#11366A"/>
<path d="M89.0391 75.7093H88.5786V76.1697V104.658V105.118H89.0391H91.9175H92.378V104.658V95.9328H95.9441V104.658V105.118H96.4045H99.2407H99.7011V104.658V81.5983L101.413 90.2703L101.487 90.6415H101.865H104.109H104.488L104.561 90.2689L106.23 81.6741V90.1811V90.6415H106.691H109.527H109.987V90.1811V68V67.5395H109.527H106.225H105.851L105.775 67.9054L103.008 81.0825L100.242 67.9054L100.165 67.5395H99.791H96.4469H95.9873L95.9864 67.9992L95.9449 90.6519H92.378V76.1697V75.7093H91.9175H89.0391Z" stroke="#11366A" stroke-width="0.920908"/>
</svg>
