<svg width="46" height="1203" viewBox="0 0 46 1203" fill="none" xmlns="http://www.w3.org/2000/svg">
<path d="M21.9393 1201.06C22.5251 1201.65 23.4749 1201.65 24.0607 1201.06L33.6066 1191.51C34.1924 1190.93 34.1924 1189.98 33.6066 1189.39C33.0208 1188.81 32.0711 1188.81 31.4853 1189.39L23 1197.88L14.5147 1189.39C13.9289 1188.81 12.9792 1188.81 12.3934 1189.39C11.8076 1189.98 11.8076 1190.93 12.3934 1191.51L21.9393 1201.06ZM21.5 0V5H24.5V0L21.5 0ZM21.5 15V25H24.5V15H21.5ZM21.5 35V45H24.5V35H21.5ZM21.5 55V65H24.5V55H21.5ZM21.5 75V85H24.5V75H21.5ZM21.5 95V105H24.5V95H21.5ZM21.5 115V125H24.5V115H21.5ZM21.5 135V145H24.5V135H21.5ZM21.5 155V165H24.5V155H21.5ZM21.5 175V185H24.5V175H21.5ZM21.5 195V205H24.5L24.5 195H21.5ZM21.5 215V225H24.5V215H21.5ZM21.5 235V245H24.5V235H21.5ZM21.5 255V265H24.5V255H21.5ZM21.5 275V285H24.5V275H21.5ZM21.5 295V305H24.5V295H21.5ZM21.5 315L21.5 325H24.5L24.5 315H21.5ZM21.5 335V345H24.5V335H21.5ZM21.5 355V365H24.5V355H21.5ZM21.5 375L21.5 385H24.5L24.5 375H21.5ZM21.5 395V405H24.5V395H21.5ZM21.5 415V425H24.5V415H21.5ZM21.5 435L21.5 445H24.5L24.5 435H21.5ZM21.5 455V465H24.5V455H21.5ZM21.5 475V485H24.5V475H21.5ZM21.5 495L21.5 505H24.5L24.5 495H21.5ZM21.5 515V525H24.5V515H21.5ZM21.5 535V545H24.5V535H21.5ZM21.5 555L21.5 565H24.5L24.5 555H21.5ZM21.5 575V585H24.5V575H21.5ZM21.5 595V605H24.5V595H21.5ZM21.5 615L21.5 625H24.5L24.5 615H21.5ZM21.5 635V645H24.5V635H21.5ZM21.5 655V665H24.5V655H21.5ZM21.5 675V685H24.5V675H21.5ZM21.5 695V705H24.5V695H21.5ZM21.5 715V725H24.5V715H21.5ZM21.5 735V745H24.5V735H21.5ZM21.5 755V765H24.5V755H21.5ZM21.5 775V785H24.5V775H21.5ZM21.5 795V805H24.5V795H21.5ZM21.5 815V825H24.5V815H21.5ZM21.5 835V845H24.5V835H21.5ZM21.5 855V865H24.5V855H21.5ZM21.5 875V885H24.5V875H21.5ZM21.5 895V905H24.5V895H21.5ZM21.5 915V925H24.5V915H21.5ZM21.5 935V945H24.5V935H21.5ZM21.5 955V965H24.5V955H21.5ZM21.5 975V985H24.5V975H21.5ZM21.5 995V1005H24.5V995H21.5ZM21.5 1015L21.5 1025H24.5L24.5 1015H21.5ZM21.5 1035V1045H24.5V1035H21.5ZM21.5 1055V1065H24.5V1055H21.5ZM21.5 1075V1085H24.5V1075H21.5ZM21.5 1095V1105H24.5V1095H21.5ZM21.5 1115V1125H24.5V1115H21.5ZM21.5 1135L21.5 1145H24.5L24.5 1135H21.5ZM21.5 1155V1165H24.5V1155H21.5ZM21.5 1175V1185H24.5V1175H21.5ZM21.5 1195V1200H24.5V1195H21.5ZM20.8787 1202.12C22.0503 1203.29 23.9497 1203.29 25.1213 1202.12L44.2132 1183.03C45.3848 1181.86 45.3848 1179.96 44.2132 1178.79C43.0416 1177.62 41.1421 1177.62 39.9706 1178.79L23 1195.76L6.02944 1178.79C4.85786 1177.62 2.95837 1177.62 1.7868 1178.79C0.615224 1179.96 0.615224 1181.86 1.7868 1183.03L20.8787 1202.12ZM20 0V5H26V0L20 0ZM20 15V25H26V15H20ZM20 35L20 45H26V35H20ZM20 55V65H26V55H20ZM20 75L20 85H26L26 75H20ZM20 95V105H26V95H20ZM20 115V125H26V115H20ZM20 135V145H26V135H20ZM20 155L20 165H26V155H20ZM20 175V185H26V175H20ZM20 195V205H26V195H20ZM20 215V225H26V215H20ZM20 235V245H26V235H20ZM20 255V265H26V255H20ZM20 275V285H26V275H20ZM20 295V305H26V295H20ZM20 315V325H26V315H20ZM20 335V345H26V335H20ZM20 355V365H26V355H20ZM20 375L20 385H26L26 375H20ZM20 395V405H26V395H20ZM20 415V425H26V415H20ZM20 435L20 445H26L26 435H20ZM20 455V465H26V455H20ZM20 475V485H26V475H20ZM20 495L20 505H26L26 495H20ZM20 515V525H26V515H20ZM20 535V545H26V535H20ZM20 555V565H26V555H20ZM20 575V585H26V575H20ZM20 595V605H26V595H20ZM20 615L20 625H26L26 615H20ZM20 635V645H26V635H20ZM20 655V665H26V655H20ZM20 675V685H26V675H20ZM20 695V705H26V695H20ZM20 715V725H26V715H20ZM20 735L20 745H26L26 735H20ZM20 755V765H26V755H20ZM20 775V785H26V775H20ZM20 795V805H26V795H20ZM20 815V825H26V815H20ZM20 835V845H26V835H20ZM20 855V865H26V855H20ZM20 875V885H26V875H20ZM20 895V905H26V895H20ZM20 915V925H26V915H20ZM20 935V945H26V935H20ZM20 955V965H26V955H20ZM20 975V985H26V975H20ZM20 995V1005H26V995H20ZM20 1015L20 1025H26L26 1015H20ZM20 1035V1045H26V1035H20ZM20 1055V1065H26V1055H20ZM20 1075V1085H26V1075H20ZM20 1095V1105H26V1095H20ZM20 1115V1125H26V1115H20ZM20 1135L20 1145H26L26 1135H20ZM20 1155V1165H26V1155H20ZM20 1175V1185H26V1175H20ZM20 1195V1200H26V1195H20Z" fill="#959595"/>
</svg>
