<svg width="130" height="175" viewBox="0 0 130 175" fill="none" xmlns="http://www.w3.org/2000/svg">
<mask id="mask0_718_342" style="mask-type:luminance" maskUnits="userSpaceOnUse" x="0" y="0" width="130" height="174">
<path d="M130 0H0V173.25H130V0Z" fill="white"/>
</mask>
<g mask="url(#mask0_718_342)">
<path d="M131.364 -1.03979H-1.95117V174.974H131.364V-1.03979Z" fill="white"/>
<path d="M76.7625 106.169L57.7501 79.1795V106.169H41.9551V40.9072H57.7501V66.9207L75.3001 40.9072H91.7775L69.4501 72.6761L92.8175 106.169H76.7625Z" fill="#333333"/>
<path d="M91.2274 16.9421L81.25 31.1519H97.7274V106.169H114.465V16.9421H91.2274Z" fill="#333333"/>
<path d="M15.5332 16.8768V132.507H114.366V115.761H32.2707V31.1517H69.7433L79.4607 16.8768H15.5332Z" fill="#E13632"/>
<path d="M15.793 142.36H20.278C20.8533 142.263 21.4429 142.294 22.0046 142.452C22.5664 142.609 23.0866 142.888 23.528 143.27C24.0967 143.878 24.4109 144.681 24.4054 145.514C24.4338 146.161 24.2395 146.798 23.8549 147.318C23.4706 147.839 22.9192 148.212 22.293 148.375C23.0458 148.496 23.7242 148.9 24.1894 149.504C24.6545 150.109 24.8713 150.868 24.7954 151.627C24.8136 152.196 24.682 152.76 24.4139 153.262C24.1459 153.764 23.7507 154.187 23.268 154.488C22.4076 154.969 21.4206 155.173 20.4405 155.074H15.793V142.36ZM17.483 147.66H19.9205C20.5055 147.66 22.5205 147.66 22.5205 145.676C22.5205 143.693 20.9605 143.79 19.9855 143.79H17.483V147.66ZM17.483 153.546H20.473C20.7843 153.582 21.0998 153.553 21.3987 153.458C21.6976 153.364 21.9731 153.207 22.2066 152.998C22.4402 152.788 22.6267 152.532 22.7537 152.245C22.8806 151.958 22.9451 151.648 22.943 151.334C22.9446 151.028 22.8817 150.725 22.7584 150.444C22.635 150.164 22.4539 149.913 22.227 149.707C22 149.502 21.7323 149.346 21.4413 149.251C21.1502 149.156 20.8425 149.124 20.538 149.156H17.483V153.546Z" fill="#333333"/>
<path d="M27.591 146.327V151.952C27.591 152.798 27.786 153.87 29.476 153.87C29.8783 153.891 30.2792 153.806 30.6385 153.623C30.9975 153.441 31.3026 153.167 31.5236 152.83C31.8011 152.335 31.9255 151.77 31.881 151.204V146.327H33.6036V153.448C33.6036 153.61 33.6036 154.586 33.6036 155.074H31.946V153.578C31.7189 154.106 31.327 154.546 30.8292 154.834C30.3314 155.121 29.7542 155.239 29.1836 155.171C28.7634 155.242 28.3325 155.216 27.9238 155.095C27.5154 154.973 27.14 154.76 26.8264 154.472C26.5127 154.183 26.2693 153.826 26.1145 153.429C25.9599 153.032 25.898 152.605 25.9336 152.18V146.327H27.591Z" fill="#333333"/>
<path d="M36.9176 152.343C36.9176 152.993 37.2426 153.936 38.8352 153.936C39.1151 153.969 39.399 153.936 39.6639 153.84C39.9291 153.744 40.1683 153.588 40.3626 153.383C40.546 153.139 40.6484 152.843 40.6552 152.538C40.6552 151.692 40.0376 151.53 38.7376 151.237C36.8852 150.815 35.4876 150.457 35.4876 148.636C35.4876 146.815 36.8852 145.969 38.7376 145.969C39.3515 145.894 39.9743 145.98 40.5446 146.219C41.1147 146.459 41.6123 146.843 41.9876 147.335C42.1623 147.734 42.2403 148.169 42.2152 148.603H40.5576C40.5576 147.27 39.4526 147.173 38.8676 147.173C38.2826 147.173 37.0802 147.173 37.0802 148.441C37.0802 149.709 37.8602 149.416 38.3152 149.546C40.7526 150.132 41.2726 150.262 41.7926 150.75C42.0075 150.961 42.1762 151.214 42.288 151.494C42.4001 151.774 42.4525 152.074 42.4426 152.375C42.4492 152.813 42.3452 153.244 42.1408 153.631C41.9363 154.017 41.6378 154.346 41.2726 154.587C40.4817 155.034 39.5803 155.248 38.6726 155.204C36.8852 155.204 35.2276 154.456 35.2602 152.343H36.9176Z" fill="#333333"/>
<path d="M43.7441 142.392H45.7268V144.18H43.7441V142.392ZM43.7441 146.196H45.4991V154.943H43.8418L43.7441 146.196Z" fill="#333333"/>
<path d="M47.6113 147.205V146.327H49.2687V147.726C49.6294 147.154 50.1591 146.71 50.784 146.453C51.409 146.197 52.0982 146.142 52.756 146.296C53.4136 146.45 54.0071 146.805 54.4538 147.311C54.9005 147.818 55.1785 148.452 55.2487 149.124V155.074H53.5913V149.384C53.6225 149.114 53.5951 148.841 53.511 148.583C53.4268 148.325 53.2878 148.088 53.1037 147.888C52.9047 147.687 52.6664 147.528 52.4038 147.421C52.141 147.315 51.8595 147.264 51.5763 147.27C51.2454 147.272 50.9188 147.345 50.6179 147.482C50.3172 147.62 50.0487 147.819 49.8308 148.068C49.6126 148.317 49.4498 148.61 49.3531 148.926C49.2562 149.242 49.2273 149.576 49.2687 149.904V154.944H47.6437L47.6113 147.205Z" fill="#333333"/>
<path d="M58.4991 150.846C58.4991 152.667 59.2141 154.098 61.0341 154.098C61.2886 154.116 61.5441 154.082 61.7857 154C62.027 153.917 62.2497 153.787 62.4404 153.618C62.6309 153.448 62.786 153.242 62.8961 153.012C63.0063 152.782 63.0694 152.532 63.0817 152.277H64.7391C64.6935 152.955 64.4183 153.597 63.9591 154.098C63.579 154.503 63.1134 154.818 62.5962 155.021C62.079 155.223 61.5231 155.308 60.9691 155.269C58.2067 155.269 56.9067 153.545 56.9067 150.781C56.7843 150.004 56.8665 149.208 57.1459 148.472C57.4253 147.736 57.8916 147.087 58.4991 146.587C59.2101 146.147 60.0369 145.932 60.8717 145.969C64.8041 145.969 64.7067 149.415 64.6741 150.846H58.4991ZM63.0491 149.578C63.0491 148.733 63.0491 147.009 60.8717 147.009C60.5401 146.998 60.2099 147.058 59.9035 147.186C59.5975 147.314 59.3223 147.506 59.0971 147.75C58.8718 147.994 58.7019 148.283 58.5988 148.599C58.4955 148.914 58.4615 149.248 58.4991 149.578H63.0491Z" fill="#333333"/>
<path d="M67.2729 152.343C67.2729 152.993 67.5979 153.936 69.1903 153.936C69.4704 153.969 69.754 153.936 70.0192 153.84C70.2842 153.744 70.5234 153.588 70.7179 153.383C70.9013 153.139 71.0035 152.843 71.0103 152.538C71.0103 151.692 70.3929 151.53 69.0929 151.237C67.2403 150.815 65.8429 150.457 65.8429 148.636C65.8429 146.815 67.2403 145.969 69.2553 145.969C69.8691 145.894 70.4922 145.98 71.0623 146.219C71.6324 146.459 72.13 146.843 72.5053 147.335C72.68 147.734 72.758 148.169 72.7329 148.603H70.8479C70.8479 147.27 69.7429 147.173 69.1579 147.173C68.5729 147.173 67.3703 147.173 67.3703 148.441C67.3703 149.709 68.1503 149.416 68.6053 149.546C71.0429 150.132 71.5629 150.262 72.0829 150.75C72.2978 150.961 72.4665 151.214 72.5783 151.494C72.6901 151.774 72.7429 152.074 72.7329 152.375C72.7393 152.813 72.6355 153.244 72.4311 153.631C72.2266 154.017 71.9279 154.346 71.5629 154.587C70.7721 155.034 69.8706 155.248 68.9629 155.204C67.1753 155.204 65.5179 154.456 65.7129 152.343H67.2729Z" fill="#333333"/>
<path d="M75.2045 152.343C75.2045 152.993 75.5295 153.936 77.1221 153.936C77.4019 153.969 77.6858 153.936 77.9508 153.84C78.216 153.744 78.4552 153.588 78.6495 153.383C78.8329 153.139 78.9352 152.843 78.9421 152.538C78.9421 151.692 78.3245 151.53 77.0245 151.237C75.1721 150.815 73.7745 150.457 73.7745 148.636C73.7745 146.815 75.1721 145.969 77.1871 145.969C77.8007 145.894 78.4237 145.98 78.9938 146.219C79.5639 146.459 80.0615 146.843 80.4371 147.335C80.6117 147.734 80.6895 148.169 80.6645 148.603H79.0071C79.0071 147.27 77.9021 147.173 77.3171 147.173C76.7321 147.173 75.5295 147.173 75.5295 148.441C75.5295 149.709 76.3095 149.416 76.7645 149.546C79.2021 150.132 79.7221 150.262 80.2421 150.75C80.4569 150.961 80.6257 151.214 80.7375 151.494C80.8493 151.774 80.902 152.074 80.8921 152.375C80.8984 152.813 80.7947 153.244 80.5902 153.631C80.3855 154.017 80.087 154.346 79.7221 154.587C78.9312 155.034 78.0297 155.248 77.1221 155.204C75.3345 155.204 73.6771 154.456 73.7095 152.343H75.2045Z" fill="#333333"/>
<path d="M89.7631 145.741C89.7352 145.415 89.6414 145.099 89.4872 144.81C89.3331 144.522 89.1218 144.268 88.8663 144.064C88.6108 143.86 88.3165 143.711 88.0012 143.625C87.6862 143.538 87.3567 143.517 87.0331 143.562C84.0105 143.562 83.4581 146.814 83.4581 148.765C83.4581 150.716 84.1405 153.708 87.0331 153.708C87.4072 153.729 87.7816 153.673 88.1336 153.545C88.4855 153.416 88.8077 153.217 89.0805 152.96C89.4085 152.583 89.6227 152.121 89.6981 151.627H91.6155C91.4169 152.699 90.8213 153.656 89.9475 154.307C89.0736 154.958 87.9863 155.255 86.9031 155.138C82.4505 155.138 81.6055 151.236 81.6055 148.635C81.6055 146.034 82.6455 142.132 87.1305 142.132C87.6621 142.068 88.201 142.111 88.7162 142.256C89.2315 142.402 89.7127 142.648 90.1325 142.98C90.5523 143.313 90.9024 143.725 91.1624 144.193C91.4226 144.661 91.5876 145.176 91.6481 145.709L89.7631 145.741Z" fill="#333333"/>
<path d="M93.0469 142.361H94.7045V154.945H93.0469V142.361Z" fill="#333333"/>
<path d="M98.1803 146.327V151.952C98.1803 152.798 98.3752 153.87 100.065 153.87C100.461 153.895 100.857 153.818 101.215 153.647C101.573 153.477 101.882 153.218 102.113 152.895C102.39 152.4 102.515 151.835 102.47 151.269V146.327H104.16V153.448C104.16 153.61 104.16 154.586 104.16 155.074H102.438V153.578C102.197 154.102 101.797 154.538 101.296 154.824C100.795 155.109 100.217 155.231 99.6426 155.171C99.2224 155.242 98.7917 155.216 98.383 155.095C97.9746 154.973 97.599 154.76 97.2856 154.472C96.972 154.183 96.7285 153.826 96.5737 153.429C96.4189 153.032 96.3569 152.605 96.3926 152.18V146.327H98.1803Z" fill="#333333"/>
<path d="M107.8 147.466C108.071 146.957 108.489 146.543 109 146.276C109.51 146.009 110.089 145.903 110.66 145.97C111.174 145.943 111.686 146.028 112.164 146.219C112.64 146.41 113.07 146.702 113.423 147.076C114.169 147.989 114.541 149.151 114.463 150.327C114.546 151.475 114.249 152.618 113.618 153.579C113.241 154.076 112.747 154.472 112.18 154.733C111.613 154.994 110.991 155.112 110.368 155.075C109.679 155.079 109.003 154.887 108.418 154.522C108.074 154.283 107.786 153.972 107.573 153.612V154.945H105.98V142.361H107.638L107.8 147.466ZM110.27 147.076C107.768 147.076 107.768 150.002 107.768 150.555C107.768 151.108 107.768 153.807 110.205 153.807C112.643 153.807 112.74 151.856 112.74 150.555C112.74 149.579 112.545 147.076 110.27 147.076Z" fill="#333333"/>
<path d="M3.89844 5.13855V168.113H126.099V5.13855H3.89844ZM121.711 163.756H8.28594V9.49581H121.711V163.756Z" fill="#333333"/>
</g>
</svg>
