<svg width="250" height="124" viewBox="0 0 250 124" fill="none" xmlns="http://www.w3.org/2000/svg">
<path d="M61.0586 40.1615C73.9331 31.6878 87.596 23.3774 101.677 20.8421C125.37 16.5727 155.369 28.5311 170.436 24.7568C183.062 21.3065 193.972 13.0523 204.276 3.55151C193.501 18.5696 173.71 39.0654 143.139 36.8874C125.083 35.6025 113.198 28.6357 90.5025 32.5287C80.5283 34.2436 70.9552 37.9337 61.0586 40.1615Z" fill="#054991"/>
<path d="M49.3962 20.9113C23.2308 20.9113 3.5 36.1705 3.5 56.406C3.5 76.6428 23.2308 91.9021 49.3962 91.9021C75.5617 91.9021 95.2925 76.6428 95.2925 56.406C95.2925 36.1705 75.5617 20.9113 49.3962 20.9113ZM74.1441 78.9855C68.7589 86.085 60.4328 89.6857 49.3962 89.6857C38.3597 89.6857 30.0323 86.085 24.6484 78.9855C19.2186 71.8286 18.0787 62.7565 18.0787 56.406C18.0787 50.0568 19.2186 40.9847 24.6484 33.8266C30.0323 26.7271 38.3597 23.1276 49.3962 23.1276C60.4328 23.1276 68.7589 26.7271 74.1441 33.8266C79.5738 40.9847 80.7138 50.0568 80.7138 56.406C80.7138 62.7565 79.5738 71.8286 74.1441 78.9855Z" fill="#054991"/>
<path d="M105.594 50.5815V86.163H111.369V72.7295H119.678L119.734 72.8132L128.841 86.1629H135.472L125.47 71.8104L125.697 71.7187C130.209 69.8826 133.126 65.871 133.126 61.497C133.126 55.3762 127.507 50.5816 120.339 50.5816L105.594 50.5815ZM144.139 50.5815V86.163H149.914V72.7913H158.183C165.432 72.7913 171.111 67.9131 171.111 61.6864C171.111 55.4584 165.432 50.5815 158.183 50.5815H144.139ZM177.227 50.5815V86.163H200.701V81.3582H183.002V69.8287H199.162V65.0239H183.002V55.4481H200.281V50.5815H177.227ZM225.01 50.5815L207.539 86.163H213.639L217.627 78.0905H236.412L240.4 86.163H246.5L229.028 50.5815H225.01ZM111.369 55.4481H120.13C124.246 55.4481 127.35 58.0494 127.35 61.497C127.35 65.2215 124.166 67.9247 119.78 67.9247H111.369V55.4481ZM149.914 55.4481H157.974C162.239 55.4481 165.336 58.0716 165.336 61.6864C165.336 65.2425 162.17 67.9247 157.974 67.9247H149.914V55.4481ZM227.02 58.7278L234.054 73.2857H219.983L227.02 58.7278Z" fill="#054991"/>
<path d="M101.856 107.258C100.289 107.258 99.0777 107.742 98.1479 108.58C96.7546 109.837 96.7031 111.13 96.7031 113.853C96.7031 116.576 96.7541 117.87 98.1479 119.127C99.0777 119.964 100.29 120.448 101.877 120.448C103.403 120.448 104.564 120.011 105.565 119.109C106.686 118.098 106.928 116.985 106.928 114.872V114.683C106.928 114.39 106.928 114.045 106.616 113.762C106.301 113.48 105.919 113.479 105.595 113.479H103.008C102.543 113.479 102.341 113.498 102.118 113.606C101.856 113.743 101.675 114.008 101.675 114.354C101.675 114.701 101.856 114.965 102.118 115.101C102.341 115.21 102.543 115.229 103.008 115.229H104.827C104.827 116.594 104.674 117.296 104.007 117.914C103.452 118.416 102.726 118.698 101.877 118.698C100.999 118.698 100.259 118.399 99.7341 117.889C99.0157 117.206 98.8843 116.422 98.8843 113.853C98.8843 111.386 98.9862 110.556 99.7441 109.818C100.269 109.308 100.966 109.009 101.816 109.009C103.17 109.009 103.968 109.654 104.495 110.765C104.655 111.102 104.797 111.339 105.03 111.503C105.181 111.612 105.403 111.694 105.677 111.694C105.98 111.694 106.22 111.603 106.433 111.421C106.634 111.239 106.727 111.02 106.727 110.683C106.727 110.219 106.434 109.381 105.625 108.598C104.746 107.752 103.664 107.258 101.856 107.258ZM136.182 107.258C134.596 107.258 133.383 107.743 132.454 108.58C131.059 109.837 131.007 111.13 131.007 113.853C131.007 116.576 131.059 117.87 132.454 119.127C133.383 119.964 134.596 120.446 136.182 120.446C137.758 120.446 138.97 119.964 139.901 119.127C141.295 117.87 141.356 116.576 141.356 113.853C141.356 111.13 141.295 109.837 139.901 108.58C138.97 107.743 137.758 107.258 136.182 107.258ZM149.5 107.296C149.065 107.296 148.732 107.479 148.57 107.743C148.419 107.997 148.409 108.151 148.409 108.634V115.967C148.409 118.644 150.631 120.446 153.562 120.446C156.492 120.446 158.716 118.644 158.716 115.967V108.634C158.716 108.151 158.705 107.997 158.553 107.743C158.391 107.479 158.058 107.296 157.623 107.296C157.189 107.296 156.856 107.479 156.694 107.743C156.542 107.997 156.533 108.151 156.533 108.634V115.875C156.533 117.615 155.36 118.698 153.562 118.698C151.763 118.698 150.592 117.615 150.592 115.875V108.634C150.592 108.151 150.581 107.997 150.429 107.743C150.266 107.479 149.934 107.296 149.5 107.296ZM115.538 107.368C115.214 107.368 114.83 107.369 114.517 107.651C114.204 107.934 114.204 108.279 114.204 108.57V119.071C114.204 119.553 114.215 119.71 114.366 119.964C114.527 120.228 114.861 120.411 115.295 120.411C115.729 120.411 116.064 120.228 116.224 119.964C116.377 119.71 116.388 119.553 116.388 119.071V114.874H119.116L122.115 119.609C122.398 120.065 122.651 120.411 123.198 120.411C123.39 120.411 123.601 120.374 123.783 120.273C124.156 120.073 124.328 119.783 124.318 119.464C124.308 119.217 124.229 119.055 123.976 118.654L121.397 114.599C123.004 114.189 124.249 113.007 124.249 111.158C124.249 108.954 122.509 107.368 119.781 107.368H115.538ZM167.608 107.368C167.284 107.368 166.9 107.369 166.587 107.651C166.274 107.934 166.275 108.279 166.275 108.57V119.071C166.275 119.553 166.285 119.71 166.436 119.964C166.598 120.228 166.931 120.411 167.365 120.411C167.8 120.411 168.131 120.228 168.295 119.964C168.446 119.71 168.456 119.553 168.456 119.071V115.219H171.73C174.538 115.219 176.337 113.562 176.337 111.303C176.337 109.044 174.538 107.368 171.73 107.368H167.608ZM136.182 109.009C137.05 109.009 137.79 109.308 138.325 109.818C139.033 110.501 139.173 111.285 139.173 113.853C139.173 116.422 139.033 117.196 138.325 117.879C137.79 118.389 137.05 118.698 136.182 118.698C135.303 118.698 134.566 118.389 134.04 117.879C133.323 117.196 133.19 116.422 133.19 113.853C133.19 111.285 133.323 110.501 134.04 109.818C134.566 109.308 135.303 109.009 136.182 109.009ZM116.388 109.116H119.62C121.075 109.116 122.066 109.891 122.066 111.176C122.066 112.45 121.075 113.197 119.62 113.197H116.388V109.116ZM168.456 109.116H171.608C173.146 109.116 174.156 109.91 174.156 111.303C174.156 112.669 173.146 113.47 171.608 113.47H168.456V109.116Z" fill="#054991"/>
</svg>
