<svg width="300" height="78" viewBox="0 0 300 78" fill="none" xmlns="http://www.w3.org/2000/svg">
<path d="M204.575 39.6098C195.585 39.6098 188.238 32.2628 188.238 23.273C188.238 14.2832 195.585 6.93627 204.575 6.93627C213.565 6.93627 220.911 14.2832 220.911 23.273C220.957 32.3084 213.656 39.6098 204.575 39.6098ZM204.575 0C191.752 0 181.302 10.45 181.302 23.273C181.302 36.096 191.752 46.546 204.575 46.546C217.398 46.546 227.848 36.096 227.848 23.273C227.848 10.45 217.443 0 204.575 0ZM263.853 39.7467H270.698V26.3761C270.698 22.1778 269.694 19.0747 267.731 17.1125C266.134 15.5153 263.853 14.6939 260.978 14.6939C257.327 14.6939 255.091 15.9717 252.9 19.2573L252.672 19.5767L252.49 19.2116C251.166 16.2455 248.793 14.6939 245.462 14.6939C243.774 14.6939 240.762 15.1046 239.119 17.9339L238.8 18.4815L238.207 15.2415H232.274V39.6554H239.074V26.6043C239.074 23.775 240.671 20.9001 243.774 20.9001C246.694 20.9001 248.292 22.908 248.292 26.5586V39.6554H255.045V26.5586C255.045 23.8206 256.688 21.037 259.837 21.037C262.62 21.037 263.807 22.6798 263.807 26.4217L263.853 39.7467ZM293.651 24.8246H281.376L281.467 24.5508C282.197 21.9953 284.524 20.3981 287.536 20.3981C290.274 20.3981 293.514 21.4933 293.697 24.5964L293.651 24.8246ZM287.491 14.6939C283.612 14.6939 280.326 15.926 277.999 18.2077C275.717 20.4894 274.531 23.5925 274.531 27.2888C274.531 31.2132 275.763 34.4532 278.044 36.7349C280.417 39.0622 283.931 40.2943 288.221 40.2943C292.419 40.2943 296.252 39.0165 298.579 36.8261L294.792 32.6279C292.602 34.3619 289.362 34.4988 288.358 34.4988C284.524 34.4988 281.786 32.7191 281.421 29.9355V29.6617H299.766C300.45 25.0071 299.629 21.1739 297.347 18.5271C295.111 16.0173 291.78 14.6939 287.491 14.6939ZM170.578 39.7467H177.377V26.6499C177.377 22.4973 176.465 19.4398 174.685 17.5232C173.088 15.8348 170.76 14.9677 167.703 14.9677C165.923 14.9677 162.592 15.4241 160.31 18.3446L159.9 18.8466V4.97404H153.055V39.7467H159.854V27.38C159.854 23.5925 162.181 21.0826 165.604 21.0826C168.707 21.0826 170.532 23.1818 170.532 26.6955V39.7467H170.578Z" fill="#94C351"/>
<path d="M91.86 39.7467H98.705V26.7868C98.705 22.406 97.701 19.166 95.6932 17.2038C94.0504 15.561 91.6318 14.7396 88.5744 14.7396C85.2431 14.694 82.642 15.8804 80.6798 18.4359L80.3147 18.8922L80.0409 15.3785H73.9261V39.7923H80.6342V27.1975C80.6342 25.3722 81.3187 23.6837 82.5508 22.4516C83.6003 21.4021 84.9237 20.8545 86.4296 20.8545H86.5209C90.0803 20.8545 91.86 22.8623 91.86 26.8781V39.7467ZM55.2164 34.2707C51.2463 34.2707 48.4626 31.487 48.4626 27.5169C48.4626 23.5012 51.2463 20.7176 55.2164 20.7176C59.9166 20.7176 62.0157 24.3682 62.0157 27.7907C62.0614 30.9851 59.4603 34.2707 55.2164 34.2707ZM54.2581 14.7852C50.653 14.7852 47.4587 16.0173 45.2227 18.2077C42.8954 20.4894 41.6633 23.7294 41.6633 27.5169C41.6633 31.3501 42.8497 34.5901 45.177 36.8718C47.4131 39.1078 50.5161 40.2486 54.1668 40.2486H54.2581C56.8592 40.203 60.1904 39.0622 61.742 36.6892L62.0614 36.1873L62.5177 39.701H68.6326V15.3328H62.2439L61.9701 18.6641L61.605 18.0708C60.4186 16.0173 57.6349 14.7396 54.4406 14.7396C54.3493 14.7852 54.3037 14.7852 54.2581 14.7852ZM30.8025 39.7467H37.5563V5.01968H30.8025V39.7467ZM13.8725 34.1794C10.45 34.1794 6.98191 31.8977 6.98191 27.5626C6.98191 25.3265 7.71204 23.5925 9.17231 22.4516C10.3588 21.4933 12.0472 20.9914 13.8725 20.9914C17.6601 20.9914 20.1699 23.6381 20.1699 27.6082C20.1699 31.5327 17.6601 34.1794 13.8725 34.1794ZM0 50.6987H6.84501V36.3698L7.25571 36.8718C9.03541 39.0622 11.819 40.2943 14.8765 40.2943C22.2691 40.2943 27.015 35.3202 27.015 27.6082C27.015 20.0331 22.1778 14.9678 14.9677 14.9678C12.321 14.9678 9.30921 15.3785 6.89064 18.5272L6.57121 18.9379L6.06924 15.4241H0V50.6987ZM136.991 38.2864C138.497 39.7467 140.779 40.4312 143.699 40.2943C145.57 40.203 146.985 39.9292 148.674 39.2903L147.122 33.6774C146.301 33.9969 145.068 34.1794 144.247 34.1794C143.106 34.1794 141.19 33.7231 141.19 30.62V21.037H147.533V15.4697H141.235V8.57909L134.436 9.35485V15.5154H130.055V21.1283H134.482V30.7113C134.482 34.1338 135.349 36.6892 136.991 38.2864ZM121.75 24.8246H109.474L109.566 24.5508C110.296 21.9953 112.623 20.3981 115.635 20.3981C118.373 20.3981 121.613 21.4933 121.795 24.5964L121.75 24.8246ZM115.589 14.694C111.71 14.694 108.425 15.9261 106.098 18.2077C103.816 20.4894 102.629 23.5925 102.629 27.2888C102.629 31.2132 103.862 34.4532 106.143 36.7349C108.516 39.0622 112.03 40.2943 116.319 40.2943C120.518 40.2943 124.351 39.0165 126.678 36.8261L122.891 32.6279C120.7 34.3619 117.46 34.4988 116.456 34.4988C112.623 34.4988 109.885 32.7191 109.52 29.9355L109.474 29.6617H127.819C128.504 25.0071 127.682 21.1739 125.401 18.5272C123.301 16.0173 119.879 14.694 115.589 14.694Z" fill="#004C99"/>
<path d="M86.8418 60.3274H88.9409V77.2574H86.8418V60.3274Z" fill="#004C99"/>
<path d="M109.065 69.7735C109.065 68.0851 108.472 66.5792 106.556 66.5792C104.958 66.5792 103.909 67.9026 103.909 69.8648V77.303H101.81V69.8192C101.81 68.1307 101.262 66.6248 99.3455 66.6248C97.7027 66.6248 96.6987 67.8569 96.6987 69.8192V77.3487H94.5996V64.982H96.6987V66.1229C97.4289 65.1189 98.6153 64.6626 99.9387 64.6626C101.262 64.6626 102.54 65.2558 103.27 66.4879C104 65.3927 105.232 64.6626 106.829 64.6626C109.294 64.6626 111.165 66.2141 111.165 69.2259V77.303H109.065V69.7735Z" fill="#004C99"/>
<path d="M130.786 69.7735C130.786 68.0851 130.193 66.5792 128.276 66.5792C126.679 66.5792 125.63 67.9026 125.63 69.8648V77.303H123.53V69.8192C123.53 68.1307 122.983 66.6248 121.066 66.6248C119.423 66.6248 118.419 67.8569 118.419 69.8192V77.3487H116.32V64.982H118.419V66.1229C119.15 65.1189 120.336 64.6626 121.659 64.6626C122.983 64.6626 124.261 65.2558 124.991 66.4879C125.721 65.3927 126.953 64.6626 128.55 64.6626C131.014 64.6626 132.885 66.2141 132.885 69.2259V77.303H130.786V69.7735Z" fill="#004C99"/>
<path d="M137.268 71.0968C137.268 67.0354 139.412 64.6169 142.744 64.6169C146.075 64.6169 148.22 66.9898 148.22 71.0512C148.22 75.1126 146.075 77.5311 142.744 77.5311C139.412 77.5311 137.268 75.1582 137.268 71.0968ZM146.075 71.0512C146.075 68.2675 144.843 66.5335 142.744 66.5335C140.644 66.5335 139.412 68.2219 139.412 71.0968C139.412 73.8805 140.644 75.6145 142.744 75.6145C144.797 75.5689 146.075 73.8805 146.075 71.0512Z" fill="#004C99"/>
<path d="M154.835 76.2078V77.2574H152.736V60.7837L154.835 59.7798V65.9403C155.52 65.1645 156.661 64.5713 157.939 64.5713C160.996 64.5713 163.049 66.9442 163.049 71.0056C163.049 75.2039 161.133 77.4855 157.984 77.4855C156.433 77.5312 155.611 76.8923 154.835 76.2078ZM160.95 71.0512C160.95 68.1307 159.855 66.5335 157.756 66.5335C156.341 66.5335 155.292 67.4918 154.881 68.1763V73.9261C155.474 74.9757 156.615 75.6146 157.756 75.6146C159.81 75.5689 160.95 73.8349 160.95 71.0512Z" fill="#004C99"/>
<path d="M167.338 61.3313C167.338 60.6012 167.931 59.9623 168.661 59.9623C169.391 59.9623 169.985 60.5556 169.985 61.3313C169.985 62.0615 169.391 62.6547 168.661 62.6547C167.931 62.6547 167.338 62.0615 167.338 61.3313ZM167.566 64.8907H169.665V77.2574H167.566V64.8907Z" fill="#004C99"/>
<path d="M175.096 60.7837L177.195 59.7798V77.2117H175.096V60.7837Z" fill="#004C99"/>
<path d="M182.354 61.3313C182.354 60.6012 182.947 59.9623 183.677 59.9623C184.407 59.9623 185 60.5556 185 61.3313C185 62.0615 184.407 62.6547 183.677 62.6547C182.901 62.6547 182.354 62.0615 182.354 61.3313ZM182.627 64.8907H184.726V77.2574H182.627V64.8907Z" fill="#004C99"/>
<path d="M189.244 71.0512C189.244 66.9442 191.435 64.6169 194.72 64.6169C197.504 64.6169 199.831 66.4422 199.831 70.5036C199.831 70.8687 199.785 71.4163 199.74 71.9182H191.389C191.571 74.1999 192.895 75.6602 194.766 75.6602C195.724 75.6602 196.637 75.3407 197.413 74.565L198.69 75.9796C197.778 76.8923 196.363 77.5768 194.72 77.5768C191.343 77.5311 189.244 74.8388 189.244 71.0512ZM197.686 70.0929C197.641 67.3093 195.998 66.4878 194.72 66.4878C192.94 66.4878 191.48 67.5831 191.343 70.0929H197.686Z" fill="#004C99"/>
<path d="M211.832 69.7734C211.832 67.4461 210.691 66.5335 209.185 66.5335C207.588 66.5335 206.31 67.3092 206.31 69.7278V77.2573H204.211V64.8907H206.31V66.1684C207.086 65.1188 208.181 64.6169 209.504 64.6169C212.288 64.6169 213.931 66.1684 213.931 70.1385V77.2573H211.832V69.7734Z" fill="#004C99"/>
</svg>
