<svg width="300" height="71" viewBox="0 0 300 71" fill="none" xmlns="http://www.w3.org/2000/svg">
<g clip-path="url(#clip0_717_320)">
<path d="M174.044 62.0727C174.044 62.6385 174.224 62.9667 174.554 62.9667C174.833 62.9667 175.064 62.818 175.274 62.6684L268.775 2.38413C270.355 1.28712 272.247 0.722938 274.174 0.774615H294.722C297.872 0.774615 300.001 2.86021 300.001 5.98948V44.9673C300.001 49.6752 298.951 52.4173 294.752 54.92L269.825 69.8202C269.576 69.9918 269.282 70.1185 268.985 70.1185C268.688 70.1185 268.385 69.88 268.385 69.0158V23.5419C268.385 23.0051 268.235 22.6479 267.875 22.6479C267.612 22.6479 267.362 22.7816 267.155 22.9462L198.821 67.0499C197.261 68.0927 195.431 68.6594 193.572 68.6295H148.276C145.096 68.6295 142.996 66.5439 142.996 63.3847V7.21269C142.996 6.79557 142.817 6.40837 142.456 6.40837C142.194 6.40837 141.945 6.54476 141.736 6.70668L96.6518 33.5845C96.2018 33.8828 96.0822 34.0914 96.0822 34.2999C96.0822 34.4786 96.1725 34.6572 96.4719 34.9854L128.689 66.9602C129.108 67.3773 129.409 67.7055 129.409 68.0628C129.409 68.3611 128.929 68.5996 128.359 68.5996H99.2614C96.9813 68.5996 95.2114 68.2714 93.9819 67.0499L74.4538 47.6803C74.3041 47.5025 74.0889 47.382 73.8541 47.382C73.6424 47.382 73.436 47.4532 73.2544 47.5606L40.618 67.0499C38.6381 68.2423 37.2881 68.5697 35.3384 68.5697H5.3116C2.10225 68.5996 0.00195312 66.4841 0.00195312 63.3548V25.1215C0.00195312 20.3836 1.05166 17.6715 5.28147 15.1688L30.3592 0.209658C30.5541 0.0779373 30.7834 0.00546663 31.0191 0.00109863C31.4089 0.00109863 31.6189 0.388295 31.6189 1.25245V52.4481C31.6189 52.9849 31.7384 53.2225 32.1291 53.2225C32.3948 53.2225 32.6393 53.0738 32.8794 52.9242L117.591 2.29438C119.211 1.19174 121.191 0.655818 123.171 0.744698H168.766C171.916 0.744698 174.045 2.83029 174.045 5.95956L174.015 62.0727H174.044Z" fill="#C6192D"/>
</g>
<defs>
<clipPath id="clip0_717_320">
<rect width="300" height="70.1183" fill="white"/>
</clipPath>
</defs>
</svg>
