<svg width="300" height="88" viewBox="0 0 300 88" fill="none" xmlns="http://www.w3.org/2000/svg">
<path d="M56.2479 76.083C55.6165 76.1259 55.0035 76.1647 54.37 76.1647C53.6549 76.1647 52.9622 76.1034 52.247 76.083L54.3292 71.0625L56.2479 76.083ZM58.5548 81.7778C58.9226 81.7574 59.4948 81.6573 60.0649 81.6573C60.637 81.6573 61.3522 81.7574 61.6587 81.7778C60.7392 79.7978 59.3906 76.7144 58.6161 74.9387C57.8805 73.2264 56.6565 70.3677 55.6778 67.5704C55.453 67.6317 55.2466 67.6746 55.0239 67.6746C54.7787 67.6746 54.5744 67.6317 54.3496 67.5704C53.8612 69.2439 52.674 71.8982 50.6143 76.5141L48.2461 81.7778C48.5301 81.737 48.8182 81.6573 49.1636 81.6573C49.4905 81.6573 49.8808 81.737 50.1444 81.7778C50.4693 80.6152 51.1231 78.9192 51.775 77.3499C52.5923 77.307 53.4097 77.2681 54.225 77.2681C55.1036 77.2681 55.9618 77.307 56.8425 77.3499L57.6966 79.5138L58.5548 81.7778Z" fill="#505967"/>
<path d="M63.4474 72.4905C63.4474 75.9806 63.4474 79.3501 63.2227 81.7776C63.6742 81.7592 64.2443 81.657 64.6918 81.657C65.1618 81.657 65.6522 81.7592 66.1222 81.7776C65.9587 80.1245 65.9178 77.9197 65.9178 74.8792C65.9178 72.8154 65.9178 69.2865 66.1426 67.7745C65.6522 67.8358 65.1434 67.8991 64.6918 67.8991C64.3874 67.8991 63.6293 67.8174 63.2431 67.7745C63.4474 69.7524 63.4474 71.2032 63.4474 72.4905Z" fill="#505967"/>
<path d="M75.589 74.8382C77.4484 74.4908 79.1424 73.3261 79.1424 71.062C79.1424 70.2038 78.8154 69.3661 78.2045 68.7735C77.3279 67.9378 76.3246 67.7743 74.9985 67.7743C74.5285 67.7743 72.1602 67.8764 71.631 67.8764C70.5889 67.8764 70.0576 67.8172 69.5897 67.7743C69.7307 70.4082 69.7307 70.6942 69.7307 73.369C69.7307 77.3065 69.7103 77.7561 69.5488 81.7774C69.9984 81.7181 70.4888 81.6568 70.9547 81.6568C71.4675 81.6568 71.915 81.7365 72.3237 81.7774C72.3237 81.2482 72.242 78.6143 72.242 78.0217V75.1242H72.7324C73.8358 76.6751 75.0986 78.4713 76.1407 80.0855C76.4472 80.5534 76.8967 81.3095 77.2032 81.7774C77.8162 81.6957 78.0615 81.6568 78.8584 81.6568C79.5919 81.6568 80.1028 81.7181 80.6729 81.7774C79.3876 80.1672 78.8338 79.4521 77.2237 77.186C76.9172 76.7569 76.4676 76.0826 76.1611 75.6555L75.589 74.8382ZM72.242 68.8777C72.5485 68.8552 73.3045 68.7735 73.6928 68.7735C74.365 68.7735 75.0414 68.8777 75.589 69.2864C76.3042 69.8156 76.4472 70.5512 76.4472 71.4094C76.4472 72.7335 75.6932 74.2272 73.6519 74.2272C73.1206 74.2272 72.6302 74.1843 72.242 74.1639V68.8777Z" fill="#505967"/>
<path d="M86.2213 77.0027C85.265 74.1645 83.9368 70.184 83.3034 67.7749C82.7925 67.8566 82.345 67.8975 81.8751 67.8975C81.3847 67.8975 80.6899 67.8178 80.2812 67.7749C81.119 69.9797 81.8322 71.9372 82.3859 73.4902C83.3259 76.1445 83.9368 77.9835 84.6724 80.2251L85.1812 81.778C85.4673 81.7188 85.7922 81.6575 86.019 81.6575C86.2438 81.6575 86.4481 81.6963 86.7934 81.778C87.1204 80.7175 87.5086 79.4118 87.7967 78.574C88.5895 76.2466 88.6937 75.9197 89.7359 73.0222L90.3468 71.3283C90.5716 71.9801 90.9598 73.0222 91.1826 73.6741C91.4073 74.3075 92.4494 77.4318 92.6946 78.1265C93.0216 79.044 93.1013 79.3076 93.8573 81.778C94.0412 81.7576 94.4274 81.6575 94.736 81.6575C95.022 81.6575 95.2447 81.7188 95.5513 81.778C96.3277 79.3505 96.4095 79.1053 97.5517 75.838C98.6755 72.6524 99.3682 70.8379 100.592 67.7749C100.286 67.8566 99.9833 67.8975 99.6747 67.8975C99.2865 67.8975 98.9616 67.8362 98.7368 67.7749C98.0012 70.4292 97.6355 71.7165 97.0429 73.4697C96.0825 76.3263 95.9599 76.6533 95.3694 78.2062C94.7155 76.451 94.0821 74.6733 93.4895 72.8792C93.1646 71.8984 91.9161 67.8178 91.8977 67.7749C91.6137 67.8362 91.4073 67.8975 90.9987 67.8975C90.6349 67.8975 90.3652 67.8178 90.1016 67.7749C89.4886 70.2657 87.3247 76.2671 87.1204 76.8188L86.6095 78.1449L86.2213 77.0027Z" fill="#505967"/>
<path d="M106.82 76.083C106.187 76.1259 105.576 76.1647 104.94 76.1647C104.227 76.1647 103.532 76.1034 102.819 76.083L104.899 71.0625L106.82 76.083ZM109.125 81.7778C109.495 81.7574 110.067 81.6573 110.637 81.6573C111.209 81.6573 111.925 81.7574 112.229 81.7778C111.312 79.7978 109.963 76.7144 109.186 74.9387C108.451 73.2264 107.227 70.3677 106.248 67.5704C106.023 67.6317 105.819 67.6746 105.594 67.6746C105.351 67.6746 105.145 67.6317 104.92 67.5704C104.432 69.2439 103.246 71.8982 101.185 76.5141L98.8164 81.7778C99.1045 81.737 99.3885 81.6573 99.7359 81.6573C100.063 81.6573 100.449 81.737 100.717 81.7778C101.042 80.6152 101.698 78.9192 102.349 77.3499C103.165 77.307 103.982 77.2681 104.797 77.2681C105.676 77.2681 106.532 77.307 107.411 77.3499L108.269 79.5138L109.125 81.7778Z" fill="#505967"/>
<path d="M117.695 76.3075C117.695 76.1257 117.817 75.9009 117.96 75.6536C118.819 74.1845 119.614 72.652 120.533 71.1828C120.838 70.6924 122.329 68.3262 122.638 67.7745C122.411 67.8562 122.186 67.8991 121.779 67.8991C121.328 67.8991 120.919 67.8358 120.592 67.7745C119.123 71.0009 118.796 71.6936 117.063 74.6749C115.329 71.6344 114.552 70.0222 113.49 67.7745C112.899 67.8766 112.304 67.8991 111.816 67.8991C111.367 67.8991 110.897 67.8562 110.143 67.7745C111.203 69.5501 112.94 72.3679 113.98 74.164L115.184 76.2462C115.184 77.5131 115.122 80.1858 115.063 81.7776C115.449 81.7367 116.021 81.657 116.428 81.657C116.898 81.657 117.37 81.7367 117.84 81.7776C117.756 79.8793 117.695 78.7779 117.695 77.0615V76.3075Z" fill="#505967"/>
<path d="M123.814 78.7177C123.714 79.6964 123.691 79.9621 123.344 81.0226C124.079 81.3904 125.408 82.0647 127.161 82.0647C130.898 82.0647 132.347 79.6781 132.347 77.5938C132.347 77.0217 132.204 75.8161 131.348 74.8986C130.755 74.2448 130.142 74.022 128.571 73.409C126.777 72.7143 125.732 72.3056 125.732 70.816C125.732 69.6125 126.529 68.6112 128.142 68.6112C129.427 68.6112 130.512 69.2242 130.816 70.3869H131.102C131.286 69.6125 131.327 69.449 131.736 68.4478C130.735 68.0003 129.835 67.612 128.346 67.612C124.649 67.612 123.589 69.8986 123.589 71.6926C123.589 73.3886 124.184 74.4307 126.162 75.3073C126.732 75.5525 127.694 75.9183 128.264 76.1655C128.652 76.327 129.94 76.897 129.94 78.5113C129.94 79.9825 128.875 81.0655 127.265 81.0655C126.059 81.0655 125.038 80.759 124.1 78.7177H123.814Z" fill="#505967"/>
<path d="M10.4037 40.99C10.4037 25.5585 18.6711 21.3921 24.9197 21.3921C34.9628 21.3921 39.3111 29.7229 39.3111 38.6033C39.3111 43.6852 38.698 48.4625 36.1868 52.3224C33.6755 56.1782 29.5132 58.5077 24.979 58.5077C13.6506 58.5077 10.4037 47.7269 10.4037 40.99ZM40.9028 72.5333C42.7398 71.2459 45.6189 69.6542 47.7011 68.7347L33.8614 60.1587C42.372 57.159 47.7011 49.5639 47.7011 39.2143C47.7011 24.5185 36.4933 18.2699 25.0403 18.2699C12.6718 18.2699 2.01367 25.1294 2.01367 40.6855C2.01367 43.9896 2.74928 50.2382 7.89241 55.4447C13.2215 60.835 19.5293 61.6299 24.8584 61.6299C25.5307 61.6299 26.2029 61.6299 26.8793 61.5707L40.9028 72.5333Z" fill="#5C0632"/>
<path d="M76.2712 43.6858C74.3708 43.8104 72.5359 43.933 70.6335 43.933C68.4921 43.933 66.4099 43.7471 64.2685 43.6858L70.515 28.6201L76.2712 43.6858ZM83.192 60.7723C84.2934 60.711 86.0098 60.4045 87.7221 60.4045C89.4406 60.4045 91.58 60.711 92.5015 60.7723C89.7451 54.8323 85.7033 45.5841 83.3739 40.255C81.1691 35.1119 77.4951 26.5359 74.5568 18.1459C73.8825 18.3318 73.2695 18.4544 72.5972 18.4544C71.8616 18.4544 71.2486 18.3318 70.5763 18.1459C69.1051 23.1705 65.5538 31.1314 59.3685 44.9711L52.2617 60.7723C53.1199 60.6518 53.9781 60.4045 55.0182 60.4045C55.997 60.4045 57.1637 60.6518 57.9586 60.7723C58.9374 57.2802 60.901 52.1984 62.8586 47.4823C65.3065 47.3618 67.7565 47.2392 70.2065 47.2392C72.8404 47.2392 75.4129 47.3618 78.0489 47.4823L80.6174 53.9761L83.192 60.7723Z" fill="#5C0632"/>
<path d="M110.369 29.7231C110.369 27.3957 110.429 25.0683 110.49 22.8615C114.716 22.8615 119.066 22.9249 122.679 23.2906C122.495 22.3119 122.372 21.7622 122.372 21.0879C122.372 20.5975 122.495 19.7985 122.679 18.7605C116.8 19.065 111.41 19.1263 106.326 19.1263C101.61 19.1263 94.8113 19.065 89.9727 18.7605C90.1586 19.4961 90.2792 20.291 90.2792 21.0266C90.2792 21.7622 90.1586 22.5571 89.9727 23.2906C93.099 22.9862 98.9777 22.8615 99.5274 22.8615H102.59C102.652 25.2522 102.713 27.3957 102.713 29.6618L102.774 46.7463C102.774 51.4031 102.409 56.1192 102.161 60.7719C104.366 60.5288 105.286 60.4062 106.326 60.4062C107.061 60.4062 109.021 60.5901 110.799 60.7719C110.613 59.0596 110.369 57.0367 110.369 52.3839V29.7231Z" fill="#5C0632"/>
<path d="M144.457 43.6858C142.558 43.8104 140.721 43.933 138.823 43.933C136.678 43.933 134.597 43.7471 132.452 43.6858L138.7 28.6201L144.457 43.6858ZM151.377 60.7723C152.479 60.711 154.195 60.4045 155.91 60.4045C157.624 60.4045 159.767 60.711 160.687 60.7723C157.931 54.8323 153.889 45.5841 151.561 40.255C149.357 35.1119 145.681 26.5359 142.742 18.1459C142.068 18.3318 141.455 18.4544 140.783 18.4544C140.047 18.4544 139.434 18.3318 138.76 18.1459C137.293 23.1705 133.739 31.1314 127.552 44.9711L120.449 60.7723C121.305 60.6518 122.166 60.4045 123.206 60.4045C124.184 60.4045 125.347 60.6518 126.146 60.7723C127.127 57.2802 129.084 52.1984 131.044 47.4823C133.492 47.3618 135.942 47.2392 138.394 47.2392C141.028 47.2392 143.6 47.3618 146.232 47.4823L148.805 53.9761L151.377 60.7723Z" fill="#5C0632"/>
<path d="M185.353 39.9524C190.926 38.9103 196.009 35.4202 196.009 28.6199C196.009 26.0474 195.029 23.5361 193.19 21.7624C190.558 19.2511 187.556 18.7607 183.576 18.7607C182.166 18.7607 175.063 19.0652 173.469 19.0652C170.345 19.0652 168.753 18.8813 167.347 18.7607C167.774 26.6604 167.774 27.5165 167.774 35.5387C167.774 47.3616 167.713 48.7061 167.225 60.7722C168.571 60.5903 170.04 60.4044 171.448 60.4044C172.979 60.4044 174.327 60.6516 175.551 60.7722C175.551 59.1783 175.308 51.2808 175.308 49.503V40.8065H176.779C180.085 45.4613 183.884 50.8517 187.006 55.6903C187.924 57.1002 189.27 59.3663 190.188 60.7722C192.027 60.529 192.762 60.4044 195.149 60.4044C197.354 60.4044 198.886 60.5903 200.601 60.7722C196.743 55.9355 195.092 53.792 190.251 46.9938C189.332 45.7065 187.985 43.6856 187.066 42.4003L185.353 39.9524ZM175.308 22.0669C176.226 22.0076 178.492 21.7624 179.656 21.7624C181.677 21.7624 183.696 22.0669 185.353 23.2909C187.495 24.8847 187.924 27.0874 187.924 29.6621C187.924 33.6425 185.658 38.1134 179.534 38.1134C177.94 38.1134 176.471 37.9887 175.308 37.9315V22.0669Z" fill="#5C0632"/>
<path d="M276.903 40.0686C276.903 40.463 271.359 40.8328 263.446 41.1434C262.048 40.3506 260.987 39.5537 260.211 38.8671C269.809 39.2063 276.903 39.6252 276.903 40.0686Z" fill="#747F8A"/>
<path d="M271.217 26.7077C271.217 27.0367 266.571 27.3453 259.928 27.6109C260.88 27.0551 261.861 26.4952 262.891 25.9333C267.909 26.1642 271.217 26.4319 271.217 26.7077Z" fill="#747F8A"/>
<path d="M221.721 55.4516C218.646 55.4884 215.949 55.5027 213.842 55.5027C210.81 55.5027 208.354 54.5689 208.354 53.4103C208.354 52.2578 210.81 51.324 213.842 51.324C216.527 51.324 220.164 51.3526 224.337 51.4058C222.722 53.7352 221.956 55.1349 221.885 55.2227C221.838 55.2902 221.778 55.3699 221.721 55.4516Z" fill="#747F8A"/>
<path d="M223.378 58.25C224.391 59.4739 225.364 60.5038 226.665 61.6297C226.665 61.6297 227.156 62.3306 228.645 61.7298C230.161 61.1127 231.447 60.2729 232.895 58.3297C237.125 58.4012 241.61 58.4952 246.026 58.5953C246.39 59.1245 247.127 60.2198 248.037 61.5704C235.728 61.8892 222.368 62.0792 215.525 62.0792C212.674 62.0792 210.361 61.1945 210.361 60.1115C210.361 59.0224 212.674 58.1437 215.525 58.1437C217.609 58.1437 220.294 58.158 223.367 58.1928C223.365 58.2214 223.378 58.25 223.378 58.25Z" fill="#747F8A"/>
<path d="M218.616 68.5152C216.087 68.5152 214.037 67.7367 214.037 66.7763C214.037 65.8139 216.087 65.0333 218.616 65.0333C225.308 65.0333 239.027 65.2377 250.777 65.5707C251.343 66.3819 251.909 67.1891 252.446 67.9308C240.349 68.2863 225.625 68.5152 218.616 68.5152Z" fill="#747F8A"/>
<path d="M257.637 74.0973C247.77 74.5305 230.804 74.8206 223.755 74.8206C221.77 74.8206 220.158 74.2015 220.158 73.4516C220.158 72.6955 221.77 72.0805 223.755 72.0805C230.498 72.0805 246.334 72.3461 256.328 72.7446C256.779 73.2288 257.221 73.6845 257.637 74.0973Z" fill="#747F8A"/>
<path d="M231.895 77.7982C237.717 77.7982 255.439 78.2375 255.439 78.7688C255.439 79.3082 237.715 79.7435 231.895 79.7435C230.761 79.7435 229.844 79.3082 229.844 78.7688C229.844 78.2375 230.761 77.7982 231.895 77.7982Z" fill="#747F8A"/>
<path d="M231.96 41.9646C224.633 42.0893 218.068 42.1588 213.842 42.1588C210.812 42.1588 208.354 41.2249 208.354 40.0684C208.354 38.9139 210.812 37.976 213.842 37.976C218.75 37.976 226.815 38.07 235.559 38.2355C234.259 39.5208 233.058 40.7713 231.96 41.9646Z" fill="#747F8A"/>
<path d="M267.901 32.6189C272.194 32.8519 274.895 33.1073 274.895 33.3729C274.895 33.6651 271.626 33.945 266.566 34.1943C267.647 33.3811 267.884 32.672 267.901 32.6189Z" fill="#747F8A"/>
<path d="M215.525 35.3375C212.672 35.3375 210.359 34.4588 210.359 33.3718C210.359 32.2867 212.672 31.404 215.525 31.404C221.375 31.404 231.986 31.547 242.63 31.782C241.324 32.8834 240.086 33.9725 238.917 35.0412C229.575 35.2292 220.695 35.3375 215.525 35.3375Z" fill="#747F8A"/>
<path d="M247.336 28.004C236.453 28.2799 224.663 28.4495 218.614 28.4495C216.085 28.4495 214.037 27.6709 214.037 26.7085C214.037 25.7461 216.085 24.9635 218.614 24.9635C225.29 24.9635 238.976 25.1719 250.709 25.5029C250.125 25.928 249.536 26.353 248.94 26.7984C248.396 27.203 247.861 27.6015 247.336 28.004Z" fill="#747F8A"/>
<path d="M223.755 21.3999C221.77 21.3999 220.158 20.7889 220.158 20.0309C220.158 19.2748 221.77 18.6598 223.755 18.6598C231.239 18.6598 249.907 18.9908 259.389 19.4628C258.784 19.8592 258.179 20.2699 257.568 20.6827C247.686 21.1097 230.79 21.3999 223.755 21.3999Z" fill="#747F8A"/>
<path d="M213.276 48.8679C210.191 48.8679 207.686 47.9178 207.686 46.7387C207.686 45.5679 210.191 44.6137 213.276 44.6137C217.144 44.6137 222.933 44.6709 229.48 44.771C228.25 46.2177 227.181 47.5581 226.266 48.7596C221.053 48.8291 216.497 48.8679 213.276 48.8679Z" fill="#747F8A"/>
<path d="M229.844 14.7118C229.844 14.1744 230.761 13.7391 231.895 13.7391C237.715 13.7391 255.439 14.1744 255.439 14.7118C255.439 15.2451 237.717 15.6824 231.895 15.6824C230.761 15.6824 229.844 15.2451 229.844 14.7118Z" fill="#747F8A"/>
<path d="M277.484 45.1651C277.525 46.2256 277.519 47.278 277.466 48.3099C267.155 48.7185 257.377 49.3397 257.377 50.0385C257.377 50.7251 266.936 51.3402 277.128 51.7468C276.949 52.9238 276.718 54.0783 276.436 55.2103C266.389 55.621 257.065 56.2258 257.065 56.9063C257.065 57.5622 265.769 58.1527 275.408 58.5634C274.967 59.7935 274.466 60.9889 273.904 62.1332C265.626 62.5316 258.785 63.0629 258.785 63.6432C258.785 64.1847 264.762 64.6853 272.296 65.0715C271.873 65.7601 271.432 66.4344 270.97 67.072C270.479 67.7667 269.946 68.4553 269.382 69.1317C264.672 69.4893 261.44 69.8959 261.44 70.3311C261.44 70.7051 263.755 71.0545 267.322 71.3671C265.375 73.294 263.074 75.0942 260.363 76.6655C260.363 76.6655 257.169 73.9152 254.533 70.703C252.183 67.8382 247.197 60.286 246.025 58.5961C244.85 56.9063 244.077 56.4118 242.704 56.9022C240.863 57.554 238.724 57.881 238.066 57.881C237.408 57.881 237.046 57.6255 238.149 57.1883C239.249 56.7448 243.595 54.6933 245.734 50.4534C248.137 45.678 246.025 39.0841 246.025 39.0841C245.217 42.6089 243.382 43.9248 243.382 43.9248C243.975 40.6514 243.329 37.6844 241.713 35.6022L240.812 39.7462C240.812 39.7462 240.248 39.7176 238.852 40.8904C237.459 42.0654 237.075 43.7777 237.075 43.7777C238.172 44.2191 239.492 43.1177 239.492 43.1177C237.806 49.4255 235.389 54.5605 233.625 57.2761C231.864 59.9917 230.411 61.0155 228.646 61.7327C227.156 62.3293 226.666 61.6285 226.666 61.6285C225.364 60.5046 224.391 59.4748 223.378 58.2508C223.378 58.2508 223.296 58.1078 223.57 58.1119C224.295 58.1221 225.587 56.8818 225.869 56.3668C226.192 55.7763 226.157 55.3247 225.996 55.2941C225.836 55.2675 225.56 55.7354 224.161 56.6182C222.769 57.4988 222.13 56.8879 221.666 56.3975C221.306 56.0072 221.66 55.525 221.884 55.2225C222.097 54.9528 229.459 41.2235 248.94 26.7995C274.47 7.89637 290.774 2.79206 291.708 2.42426C292.325 2.1811 293.332 1.86029 293.561 2.09528C293.815 2.36092 293.939 2.57342 293.904 2.88197C293.872 3.18847 293.708 3.34582 292.527 3.86687C282.727 8.18448 271.287 15.3812 264.787 19.5701C256.793 23.4647 249.161 29.0267 248.883 29.1595C248.268 29.5416 248.722 30.0974 249.094 29.8645C262.592 20.886 278.418 14.7702 295.907 9.75991C296.743 9.52288 297.2 9.52287 297.339 9.70678C297.497 9.91112 297.564 10.1441 297.589 10.4015C297.611 10.7223 297.345 10.8919 296.628 11.1719C277.84 18.152 263.992 24.6355 255.085 30.6287C255.085 30.6287 254.163 31.1845 254.151 31.8282C254.147 32.0734 254.645 32.102 254.645 32.102C259.104 32.1817 265.065 32.4432 267.901 32.6087C267.901 32.6087 267.496 34.0452 264.78 35.2017C262.684 36.0967 260.743 35.9537 258.822 35.97C258.395 35.9619 258.033 36.393 258.375 36.8528C258.546 37.0816 262.633 43.6612 277.484 45.1651Z" fill="#5C0632"/>
<path d="M141.332 79.5724H138.814C138.814 79.5724 138.475 78.0236 139.386 77.431C140.302 76.8303 141.332 76.3685 141.332 76.3685V79.5724ZM153.277 73.7734C153.277 73.7734 151.747 74.652 150.778 75.5143C149.816 76.3685 150.976 76.6934 150.976 76.6934V79.5724H143.671V69.4967C143.671 69.4967 141.009 71.9446 140.759 72.2695C140.502 72.6169 141.393 72.9315 141.393 72.9315L141.242 73.8858C141.242 73.8858 140.181 74.4354 138.894 75.3059C137.615 76.1662 136.667 77.2635 136.667 78.0236C136.667 78.7858 136.344 81.7772 136.344 81.7772H153.277V73.7734ZM138.154 70.0892C138.988 70.0892 139.576 69.7602 139.576 69.0962C139.576 68.43 139.186 67.9662 138.154 67.9662C137.237 67.9662 136.991 68.3667 136.991 69.0962C136.991 69.8318 137.31 70.0892 138.154 70.0892ZM141.268 70.0892C142.11 70.0892 142.68 69.7602 142.68 69.0962C142.68 68.43 142.294 67.9662 141.268 67.9662C140.347 67.9662 140.106 68.3667 140.106 69.0962C140.106 69.8318 140.422 70.0892 141.268 70.0892ZM145.986 82.6436C145.075 82.6436 144.824 83.0339 144.824 83.7675C144.824 84.4949 145.147 84.7605 145.986 84.7605C146.82 84.7605 147.411 84.4295 147.411 83.7675C147.411 83.0993 147.026 82.6436 145.986 82.6436ZM149.223 82.6436C148.312 82.6436 148.062 83.0339 148.062 83.7675C148.062 84.4949 148.393 84.7605 149.223 84.7605C150.069 84.7605 150.649 84.4295 150.649 83.7675C150.649 83.0993 150.267 82.6436 149.223 82.6436ZM185.711 69.891C186.551 69.891 187.14 69.5702 187.14 68.9061C187.14 68.2461 186.751 67.7741 185.711 67.7741C184.802 67.7741 184.555 68.1746 184.555 68.9061C184.555 69.6376 184.88 69.891 185.711 69.891ZM188.946 69.891C189.78 69.891 190.364 69.5702 190.364 68.9061C190.364 68.2461 189.976 67.7741 188.946 67.7741C188.03 67.7741 187.787 68.1746 187.787 68.9061C187.787 69.6376 188.1 69.891 188.946 69.891ZM197.875 70.1648C197.42 70.5592 197.552 71.0312 198.131 70.9658V81.7915H200.53V68.3156C200.53 68.3156 198.323 69.7725 197.875 70.1648ZM188.235 76.2356H186.682C186.682 75.3836 188.235 74.9116 188.235 74.9116V76.2356ZM178.012 78.0236C178.012 78.4159 177.993 79.0555 177.975 79.5724H164.422V77.1899C164.775 76.2724 165.372 76.1662 166.295 76.1662H176.204C178.343 76.1662 178.012 77.2921 178.012 78.0236ZM193.862 70.9536V79.5724H190.636V71.7464C190.636 71.7464 189.976 71.9998 189.071 72.4003C188.173 72.8069 184.929 74.1249 184.929 75.9067V77.9664H188.235V79.5724H180.392C180.399 79.1944 180.407 78.6386 180.407 77.8233C180.407 75.2548 178.218 73.8572 176.271 73.8572H167.205C165.617 73.8572 164.851 74.2413 164.422 74.6807V68.0459C164.422 68.0459 163.005 69.041 161.965 69.8318C160.927 70.6225 161.965 71.1538 161.965 71.1538V79.5724H158.994L158.931 72.3471C158.931 72.3471 156.863 73.8572 156.271 74.3169C155.692 74.7746 156.013 75.1833 156.661 75.1833C156.661 75.1833 156.542 80.5185 156.542 81.7772C156.542 83.0441 155.494 84.4908 153.293 83.8328C153.293 83.8328 152.595 83.9677 153.175 84.4949C153.753 85.02 154.452 85.4205 155.235 85.4205C156.013 85.4205 158.866 84.8831 158.866 81.7772H196.253V68.3074C196.253 68.3074 194.052 69.7602 193.599 70.1546C193.143 70.549 193.276 71.023 193.862 70.9536Z" fill="#5C0632"/>
</svg>
