<svg width="300" height="55" viewBox="0 0 300 55" fill="none" xmlns="http://www.w3.org/2000/svg">
<g clip-path="url(#clip0_717_311)">
<g clip-path="url(#clip1_717_311)">
<path d="M274.999 43.299C274.791 41.0091 275.416 39.1356 276.666 37.6784C279.791 39.1356 283.332 39.9683 286.249 39.9683C290.416 39.9683 292.916 38.5111 292.916 35.5968C292.916 28.519 276.249 32.2661 276.249 19.5678C276.249 13.5309 280.832 9.36757 287.499 9.36757C291.874 9.36757 295.624 11.0329 298.124 14.1554C297.499 16.2371 296.249 17.9025 294.582 18.527C292.916 16.6535 290.624 15.6126 288.332 15.6126C284.999 15.6126 283.124 16.8616 283.124 19.3596C283.124 25.8128 299.791 22.6903 299.791 34.9722C299.791 42.05 294.999 46.2133 286.874 46.2133C282.707 46.2133 278.332 45.1725 274.999 43.299ZM253.957 26.6455C258.541 26.6455 260.832 24.772 260.832 20.8168C260.832 17.278 258.749 15.1963 254.791 15.1963C253.124 15.1963 251.457 15.4044 250.207 16.0289V26.021C251.041 26.2292 252.707 26.6455 253.957 26.6455ZM268.957 45.797C266.666 46.4215 263.957 46.4215 261.666 45.797C259.582 40.801 257.082 36.0131 254.582 32.4742C253.124 32.4742 251.457 32.2661 249.999 31.8497V45.797C247.916 46.4215 245.416 46.4215 243.332 45.797V11.8656C246.457 10.4084 250.416 9.36757 254.374 9.36757C262.499 9.36757 267.291 13.5309 267.291 20.8168C267.291 26.021 264.791 29.768 260.624 31.4334C263.332 34.7641 266.249 39.9683 268.957 45.797ZM233.332 45.797H210.624V9.7839H232.707C233.332 11.6574 233.332 13.9473 232.707 16.0289H217.499V24.5638H231.249C231.874 26.4374 231.874 28.7272 231.249 30.6007H217.499V39.5519H233.332C233.957 41.6336 233.957 43.9235 233.332 45.797ZM170.207 9.7839C172.499 9.1594 174.999 9.1594 177.291 9.7839C179.374 19.5678 182.707 30.1844 186.457 39.3438C189.999 30.1844 193.332 19.5678 195.624 9.7839C197.916 9.1594 200.416 9.1594 202.707 9.7839C199.999 21.6495 195.832 34.7641 191.041 45.797C188.124 46.4215 184.791 46.4215 181.874 45.797C177.082 34.9722 172.916 21.8577 170.207 9.7839ZM157.499 27.8945C157.499 19.776 154.791 15.8208 149.166 15.8208C147.499 15.8208 145.832 16.0289 144.791 16.6535V39.5519C146.041 39.7601 147.499 39.9683 149.166 39.9683C154.582 39.7601 157.499 35.8049 157.499 27.8945ZM138.332 44.7561V11.8656C141.249 10.4084 144.999 9.36757 148.541 9.36757C158.332 9.36757 163.957 16.0289 163.957 27.6864C163.957 39.3438 158.332 46.0052 148.541 46.0052C144.999 46.2133 141.249 45.797 138.332 44.7561ZM100.207 32.8906V9.7839C102.499 9.1594 104.999 9.1594 107.291 9.7839V32.4742C107.291 37.2621 109.374 39.7601 113.749 39.7601C118.124 39.7601 120.207 37.4703 120.207 32.4742V9.7839C122.499 9.1594 124.999 9.1594 127.291 9.7839V32.8906C127.291 41.6336 122.499 46.2133 113.749 46.2133C105.207 46.2133 100.207 41.6336 100.207 32.8906ZM117.082 0.624506C118.957 1.82962e-06 121.249 1.82962e-06 123.124 0.624506C123.749 2.28985 123.749 4.37153 123.124 6.03688C121.249 6.66138 118.957 6.66138 117.082 6.03688C116.457 4.37153 116.457 2.28985 117.082 0.624506ZM104.791 0.624506C106.666 1.82962e-06 108.957 1.82962e-06 110.832 0.624506C111.249 2.28985 111.249 4.37153 110.832 6.03688C108.957 6.66138 106.666 6.66138 104.791 6.03688C104.374 4.37153 104.374 2.28985 104.791 0.624506ZM65.8324 43.299C65.6241 41.0091 66.2491 38.9274 67.4991 37.6784C70.6241 39.1356 74.1658 39.9683 77.0824 39.9683C81.2491 39.9683 83.7491 38.5111 83.7491 35.5968C83.7491 28.519 67.0824 32.2661 67.0824 19.5678C67.0824 13.5309 71.6658 9.36757 78.3324 9.36757C82.7074 9.36757 86.4575 11.2411 88.9575 14.1554C88.3325 16.2371 87.0824 17.9025 85.4158 18.527C83.7491 16.6535 81.4574 15.6126 79.1658 15.6126C75.8324 15.6126 73.9574 16.8616 73.9574 19.3596C73.9574 25.8128 90.6241 22.6903 90.6241 34.9722C90.6241 42.05 85.8324 46.2133 77.7074 46.2133C73.5408 46.2133 69.1658 45.1725 65.8324 43.299Z" fill="#50A052"/>
<path d="M45.2083 21.8576C45.2083 21.0249 44.5833 20.4004 43.75 20.1923H16.0417C13.5417 20.1923 11.4583 22.0658 11.25 24.5638V42.4662C11.25 43.5071 11.4583 44.7561 9.375 46.4214L0.416667 52.8747C0.208333 52.8747 0 53.0828 0 53.291C0 53.7073 0.416667 54.1237 0.833333 54.1237H35.625C40.8333 54.1237 45.2083 49.7521 45.2083 44.3398V21.8576Z" fill="#0078BE"/>
<path d="M0 32.266C0 33.0987 0.625 33.7232 1.45833 33.9314H29.1667C31.6667 33.9314 33.75 32.0579 33.9583 29.5599V29.3517V12.6982V11.6574C33.9583 10.6166 33.75 9.36754 35.8333 7.7022L44.7917 1.24899C45 1.04082 45.2083 0.83265 45.2083 0.624482C45.2083 0.208145 44.7917 -0.208191 44.375 -0.208191H9.58333C4.375 -2.27897e-05 0 4.37151 0 9.78388V32.266Z" fill="#50A052"/>
<path d="M16.0417 20.1923C13.5417 20.1923 11.4583 22.0658 11.25 24.5638V33.9314H29.1667C31.6667 33.9314 33.75 32.0578 33.9583 29.5598V29.3517V20.1923H16.0417Z" fill="#234637"/>
</g>
</g>
<defs>
<clipPath id="clip0_717_311">
<rect width="300" height="54.1237" fill="white"/>
</clipPath>
<clipPath id="clip1_717_311">
<rect width="300" height="54.1237" fill="white"/>
</clipPath>
</defs>
</svg>
