<svg width="247" height="42" viewBox="0 0 247 42" fill="none" xmlns="http://www.w3.org/2000/svg">
<g clip-path="url(#clip0_632_80)">
<path d="M22.0326 33.6438L35.6487 41.8619L32.0354 26.373L44.0652 15.9516L28.2237 14.6076L22.0326 0L15.8414 14.6076L0 15.9516L12.0298 26.373L8.41645 41.8619L22.0326 33.6438Z" fill="#FBBC04"/>
</g>
<g clip-path="url(#clip1_632_80)">
<path d="M70.8724 33.6438L84.4886 41.8619L80.8752 26.373L92.905 15.9516L77.0636 14.6076L70.8724 0L64.6813 14.6076L48.8398 15.9516L60.8696 26.373L57.2563 41.8619L70.8724 33.6438Z" fill="#FBBC04"/>
</g>
<g clip-path="url(#clip2_632_80)">
<path d="M119.71 33.6438L133.326 41.8619L129.713 26.373L141.743 15.9516L125.901 14.6076L119.71 0L113.519 14.6076L97.6777 15.9516L109.708 26.373L106.094 41.8619L119.71 33.6438Z" fill="#FBBC04"/>
</g>
<g clip-path="url(#clip3_632_80)">
<path d="M168.55 33.6438L182.166 41.8619L178.553 26.373L190.583 15.9516L174.741 14.6076L168.55 0L162.359 14.6076L146.518 15.9516L158.547 26.373L154.934 41.8619L168.55 33.6438Z" fill="#FBBC04"/>
</g>
<g clip-path="url(#clip4_632_80)">
<path d="M217.388 33.6438L231.004 41.8619L227.391 26.373L239.421 15.9516L223.579 14.6076L217.388 0L211.197 14.6076L195.355 15.9516L207.385 26.373L203.772 41.8619L217.388 33.6438Z" fill="#FBBC04"/>
</g>
<defs>
<clipPath id="clip0_632_80">
<rect width="51.6444" height="41.8619" fill="white"/>
</clipPath>
<clipPath id="clip1_632_80">
<rect width="51.6444" height="41.8619" fill="white" transform="translate(48.8398)"/>
</clipPath>
<clipPath id="clip2_632_80">
<rect width="51.6444" height="41.8619" fill="white" transform="translate(97.6777)"/>
</clipPath>
<clipPath id="clip3_632_80">
<rect width="51.6444" height="41.8619" fill="white" transform="translate(146.518)"/>
</clipPath>
<clipPath id="clip4_632_80">
<rect width="51.6444" height="41.8619" fill="white" transform="translate(195.355)"/>
</clipPath>
</defs>
</svg>
