<svg width="36" height="36" viewBox="0 0 36 36" fill="none" xmlns="http://www.w3.org/2000/svg">
<path opacity="0.5" d="M25.5 9H4.5C3.6 9 3 9.6 3 10.5V31.5C3 32.4 3.6 33 4.5 33H25.5C26.4 33 27 32.4 27 31.5V10.5C27 9.6 26.4 9 25.5 9Z" fill="#CAF0F8"/>
<path d="M26.7 7.19995L13.95 19.95C13.35 20.55 13.35 21.45 13.95 22.05C14.25 22.35 14.7 22.5 15 22.5C15.3 22.5 15.75 22.35 16.05 22.05L28.8 9.29999L26.7 7.19995Z" fill="white"/>
<path d="M33.0001 13.65V4.5C33.0001 3.6 32.4001 3 31.5001 3H22.3501L33.0001 13.65Z" fill="white"/>
</svg>
