<svg width="36" height="36" viewBox="0 0 36 36" fill="none" xmlns="http://www.w3.org/2000/svg">
<path opacity="0.5" d="M31.5 33H4.5C3.6 33 3 32.4 3 31.5V7.5C3 6.6 3.6 6 4.5 6H31.5C32.4 6 33 6.6 33 7.5V31.5C33 32.4 32.4 33 31.5 33Z" fill="#CAF0F8"/>
<path d="M9 9C8.1 9 7.5 8.4 7.5 7.5V4.5C7.5 3.6 8.1 3 9 3C9.9 3 10.5 3.6 10.5 4.5V7.5C10.5 8.4 9.9 9 9 9ZM16.5 7.5V4.5C16.5 3.6 15.9 3 15 3C14.1 3 13.5 3.6 13.5 4.5V7.5C13.5 8.4 14.1 9 15 9C15.9 9 16.5 8.4 16.5 7.5ZM22.5 7.5V4.5C22.5 3.6 21.9 3 21 3C20.1 3 19.5 3.6 19.5 4.5V7.5C19.5 8.4 20.1 9 21 9C21.9 9 22.5 8.4 22.5 7.5ZM28.5 7.5V4.5C28.5 3.6 27.9 3 27 3C26.1 3 25.5 3.6 25.5 4.5V7.5C25.5 8.4 26.1 9 27 9C27.9 9 28.5 8.4 28.5 7.5Z" fill="white"/>
<path d="M13.1999 19.65C13.7999 19.65 14.2499 19.5 14.5499 19.2C14.8499 18.9 15.1499 18.45 15.1499 17.85C15.1499 17.4 14.9999 16.95 14.6999 16.65C14.3999 16.35 13.9499 16.2 13.4999 16.2C13.1999 16.2 12.8999 16.2 12.5999 16.35C12.2999 16.5 12.1499 16.65 11.9999 16.8C11.8499 16.95 11.6999 17.1 11.5499 17.4C11.3999 17.7 11.2499 17.85 11.2499 18.15C11.2499 18.3 11.0999 18.3 10.9499 18.45C10.7999 18.6 10.6499 18.6 10.3499 18.6C10.0499 18.6 9.89989 18.45 9.74989 18.3C9.59989 18.15 9.4499 17.85 9.4499 17.55C9.4499 17.25 9.59989 16.95 9.74989 16.65C9.89989 16.35 10.1999 16.05 10.4999 15.75C10.7999 15.45 11.2499 15.15 11.8499 15C12.4499 14.85 12.8999 14.7 13.6499 14.7C14.2499 14.7 14.6999 14.85 15.1499 15C15.5999 15.15 16.0499 15.45 16.3499 15.6C16.6499 15.75 16.9499 16.2 17.0999 16.65C17.2499 17.1 17.3999 17.4 17.3999 17.85C17.3999 18.45 17.2499 18.9 16.9499 19.35C16.6499 19.8 16.3499 20.25 15.8999 20.55C16.3499 20.85 16.7999 21.15 17.0999 21.45C17.3999 21.75 17.6999 22.05 17.8499 22.5C17.9999 22.95 18.1499 23.25 18.1499 23.7C18.1499 24.3 17.9999 24.75 17.8499 25.2C17.6999 25.65 17.2499 26.1 16.9499 26.55C16.6499 27 16.0499 27.3 15.4499 27.45C14.8499 27.6 14.2499 27.75 13.4999 27.75C12.7499 27.75 12.1499 27.6 11.5499 27.3C10.9499 27 10.4999 26.7 10.1999 26.4C9.8999 26.1 9.5999 25.65 9.4499 25.2C9.2999 24.75 9.1499 24.45 9.1499 24.15C9.1499 23.85 9.2999 23.55 9.4499 23.4C9.5999 23.25 9.8999 23.1 10.1999 23.1C10.3499 23.1 10.4999 23.1 10.6499 23.25C10.7999 23.4 10.9499 23.4 10.9499 23.55C11.2499 24.3 11.5499 24.9 11.9999 25.35C12.4499 25.8 12.8999 25.95 13.4999 25.95C13.7999 25.95 14.2499 25.8 14.5499 25.65C14.8499 25.5 15.1499 25.2 15.4499 24.9C15.7499 24.6 15.7499 24.15 15.7499 23.7C15.7499 22.95 15.5999 22.5 15.1499 22.05C14.6999 21.6 14.2499 21.45 13.6499 21.45C13.4999 21.45 13.3499 21.45 13.0499 21.45C12.7499 21.45 12.5999 21.45 12.5999 21.45C12.2999 21.45 11.9999 21.3 11.8499 21.15C11.6999 21 11.5499 20.7 11.5499 20.55C11.5499 20.25 11.6999 20.1 11.8499 19.8C11.9999 19.5 12.2999 19.5 12.7499 19.5H13.1999V19.65ZM22.9499 26.25V18.3C21.4499 19.5 20.3999 19.95 19.9499 19.95C19.6499 19.95 19.4999 19.8 19.3499 19.65C19.1999 19.5 19.0499 19.2 19.0499 18.9C19.0499 18.6 19.1999 18.45 19.3499 18.3C19.4999 18.15 19.7999 18 20.3999 17.7C21.1499 17.4 21.7499 16.95 22.0499 16.65C22.3499 16.35 22.7999 15.9 23.2499 15.45C23.6999 15 23.8499 14.7 23.8499 14.55C23.8499 14.4 24.1499 14.4 24.4499 14.4C24.7499 14.4 25.0499 14.55 25.1999 14.7C25.3499 14.85 25.4999 15.3 25.4999 15.75V25.8C25.4999 27 25.0499 27.6 24.2999 27.6C23.9999 27.6 23.6999 27.45 23.3999 27.3C23.0999 27.15 22.9499 26.7 22.9499 26.25Z" fill="white"/>
</svg>
