<svg width="64" height="64" viewBox="0 0 64 64" fill="none" xmlns="http://www.w3.org/2000/svg">
<circle cx="32" cy="32" r="31.5" fill="white" stroke="#11366A"/>
<path d="M42.35 35.7986H21.6725C21.425 35.7986 21.2225 36.0011 21.2225 36.2486L21.2169 38.9486C21.2169 39.1961 21.4194 39.3986 21.6669 39.3986H42.35C42.5975 39.3986 42.8 39.1961 42.8 38.9486V36.2486C42.8 36.0011 42.5975 35.7986 42.35 35.7986ZM42.35 41.1986H21.6556C21.4081 41.1986 21.2056 41.4011 21.2056 41.6486L21.2 44.3486C21.2 44.5961 21.4025 44.7986 21.65 44.7986H42.35C42.5975 44.7986 42.8 44.5961 42.8 44.3486V41.6486C42.8 41.4011 42.5975 41.1986 42.35 41.1986ZM42.35 30.3986H21.6838C21.4363 30.3986 21.2338 30.6011 21.2338 30.8486L21.2281 33.5486C21.2281 33.7961 21.4306 33.9986 21.6781 33.9986H42.35C42.5975 33.9986 42.8 33.7961 42.8 33.5486V30.8486C42.8 30.6011 42.5975 30.3986 42.35 30.3986ZM48.3406 22.5798L33.035 16.2067C32.706 16.0702 32.3534 16 31.9972 16C31.641 16 31.2884 16.0702 30.9594 16.2067L15.6594 22.5798C14.6581 23.0017 14 23.9805 14 25.0717V44.3486C14 44.5961 14.2025 44.7986 14.45 44.7986H18.95C19.1975 44.7986 19.4 44.5961 19.4 44.3486V30.3986C19.4 29.4086 20.2213 28.5986 21.2338 28.5986H42.7663C43.7788 28.5986 44.6 29.4086 44.6 30.3986V44.3486C44.6 44.5961 44.8025 44.7986 45.05 44.7986H49.55C49.7975 44.7986 50 44.5961 50 44.3486V25.0717C50 23.9805 49.3419 23.0017 48.3406 22.5798Z" fill="#11366A"/>
<path d="M21.6725 35.7986H42.35C42.5975 35.7986 42.8 36.0011 42.8 36.2486V38.9486C42.8 39.1961 42.5975 39.3986 42.35 39.3986H21.6669C21.4194 39.3986 21.2169 39.1961 21.2169 38.9486L21.2225 36.2486C21.2225 36.0011 21.425 35.7986 21.6725 35.7986Z" fill="#6D93B1"/>
<path d="M21.6556 41.1986H42.35C42.5975 41.1986 42.8 41.4011 42.8 41.6486V44.3486C42.8 44.5961 42.5975 44.7986 42.35 44.7986H21.65C21.4025 44.7986 21.2 44.5961 21.2 44.3486L21.2056 41.6486C21.2056 41.4011 21.4081 41.1986 21.6556 41.1986Z" fill="#6D93B1"/>
<path d="M21.6838 30.3986H42.35C42.5975 30.3986 42.8 30.6011 42.8 30.8486V33.5486C42.8 33.7961 42.5975 33.9986 42.35 33.9986H21.6781C21.4306 33.9986 21.2281 33.7961 21.2281 33.5486L21.2338 30.8486C21.2338 30.6011 21.4363 30.3986 21.6838 30.3986Z" fill="#6D93B1"/>
</svg>
