<svg width="50" height="40" viewBox="0 0 50 40" fill="none" xmlns="http://www.w3.org/2000/svg">
<path d="M36.3266 14.0576C36.3266 6.29078 28.1966 0 18.1628 0C8.12907 0 -0.000976562 6.29078 -0.000976562 14.0576C-0.000976562 17.0712 1.23032 19.8476 3.31741 22.1407C2.14724 24.7941 0.217338 26.9028 0.191141 26.9291C-0.000976458 27.1312 -0.0533722 27.4299 0.0601515 27.6935C0.173675 27.9571 0.418188 28.1152 0.697631 28.1152C3.89376 28.1152 6.53974 27.0345 8.44344 25.9187C11.2553 27.2981 14.5825 28.1152 18.1628 28.1152C28.1966 28.1152 36.3266 21.8244 36.3266 14.0576Z" fill="#6D93B1"/>
<path d="M46.6805 33.4991C48.7676 31.2148 49.9989 28.4296 49.9989 25.416C49.9989 19.5382 45.327 14.5038 38.7077 12.4039C38.7863 12.9838 38.8212 13.5725 38.8212 14.1699C38.8212 23.4743 29.4162 31.039 17.863 31.039C16.9198 31.039 16.0029 30.9688 15.0947 30.8721C17.8455 35.9241 24.3076 39.4736 31.8351 39.4736C35.4155 39.4736 38.7426 38.6653 41.5545 37.2771C43.4582 38.3929 46.1042 39.4736 49.3003 39.4736C49.5797 39.4736 49.833 39.3067 49.9378 39.0519C50.0513 38.7971 49.9989 38.4984 49.8068 38.2875C49.7806 38.2611 47.8507 36.1613 46.6805 33.4991Z" fill="#11366A"/>
</svg>
