<svg width="64" height="64" viewBox="0 0 64 64" fill="none" xmlns="http://www.w3.org/2000/svg">
<circle cx="32" cy="32" r="31.5" fill="url(#paint0_radial_90_51)" stroke="white"/>
<path d="M40.8414 27.6838C40.8414 21.781 34.6626 17 27.0369 17C19.4113 17 13.2324 21.781 13.2324 27.6838C13.2324 29.9741 14.1682 32.0842 15.7544 33.827C14.8651 35.8435 13.3983 37.4461 13.3784 37.4661C13.2324 37.6197 13.1926 37.8467 13.2789 38.0471C13.3652 38.2474 13.551 38.3676 13.7634 38.3676C16.1924 38.3676 18.2034 37.5463 19.6502 36.6982C21.7872 37.7466 24.3158 38.3676 27.0369 38.3676C34.6626 38.3676 40.8414 33.5866 40.8414 27.6838Z" fill="white"/>
<path d="M48.7103 42.4594C50.2965 40.7233 51.2323 38.6066 51.2323 36.3162C51.2323 31.8491 47.6816 28.023 42.6509 26.4271C42.7106 26.8678 42.7372 27.3152 42.7372 27.7692C42.7372 34.8405 35.5894 40.5898 26.8089 40.5898C26.0922 40.5898 25.3953 40.5363 24.7051 40.4629C26.7957 44.3024 31.7069 47 37.4278 47C40.1488 47 42.6775 46.3857 44.8145 45.3307C46.2613 46.1787 48.2723 47 50.7013 47C50.9137 47 51.1062 46.8732 51.1858 46.6795C51.2721 46.4859 51.2323 46.2588 51.0862 46.0986C51.0663 46.0785 49.5996 44.4827 48.7103 42.4594Z" fill="#6D93B1"/>
<defs>
<radialGradient id="paint0_radial_90_51" cx="0" cy="0" r="1" gradientUnits="userSpaceOnUse" gradientTransform="translate(-32.5 -28.5) rotate(42.3532) scale(145.466)">
<stop stop-color="#087AA6"/>
<stop offset="1" stop-color="#113D70"/>
</radialGradient>
</defs>
</svg>
