<svg width="41" height="50" viewBox="0 0 41 50" fill="none" xmlns="http://www.w3.org/2000/svg">
<path d="M39.1725 38.1709L30.3518 34.3906C29.975 34.23 29.5562 34.1961 29.1585 34.2941C28.7608 34.3922 28.4057 34.6167 28.1467 34.934L24.2403 39.7066C18.1098 36.8161 13.1761 31.8824 10.2856 25.7518L15.0582 21.8455C15.3761 21.5869 15.6011 21.2318 15.6992 20.8339C15.7972 20.436 15.763 20.017 15.6016 19.6403L11.8213 10.8196C11.6442 10.4136 11.3309 10.0821 10.9356 9.88221C10.5402 9.68237 10.0875 9.62675 9.6555 9.72494L1.46486 11.6151C1.04838 11.7113 0.676787 11.9458 0.410741 12.2803C0.144695 12.6149 -9.59415e-05 13.0297 4.76963e-08 13.4572C4.76963e-08 33.6581 16.3734 50 36.5428 50C36.9704 50.0003 37.3855 49.8556 37.7202 49.5895C38.0549 49.3235 38.2895 48.9518 38.3857 48.5352L40.2759 40.3445C40.3734 39.9104 40.3166 39.4559 40.1153 39.0592C39.9139 38.6625 39.5805 38.3483 39.1725 38.1709Z" fill="#6D93B1"/>
<path d="M17.923 11.1611C19.402 12.2444 20.1773 14.0509 19.9437 15.8693C19.8657 16.4764 19.2423 16.8524 18.6692 16.6375L18.0589 16.4087C17.6595 16.2589 17.4132 15.8612 17.4477 15.436C17.4807 15.0264 17.4133 14.6148 17.2512 14.2372C17.0891 13.8595 16.8373 13.5271 16.5176 13.2688C16.1855 13.001 16.067 12.5485 16.2336 12.1557L16.4882 11.5557C16.7271 10.9923 17.4292 10.7994 17.923 11.1611ZM21.7334 1.71068C28.31 5.02476 31.5456 12.5731 29.4189 19.6175C29.2606 20.142 28.6906 20.4226 28.1776 20.2302L27.5854 20.0082C27.1196 19.8335 26.8671 19.3284 27.0093 18.8517C28.7559 12.9994 26.0694 6.74813 20.6286 3.98488C20.1851 3.75959 19.9928 3.22863 20.1871 2.77062L20.4341 2.18835C20.6481 1.68403 21.2441 1.46412 21.7334 1.71068ZM19.8023 6.39111C23.8501 8.62376 25.8679 13.3136 24.6959 17.793C24.5534 18.3376 23.9711 18.6398 23.4441 18.442L22.8498 18.219C22.4003 18.0503 22.1434 17.5713 22.2619 17.1059C23.1088 13.7802 21.6174 10.3059 18.6235 8.62873C18.2046 8.39407 18.0343 7.87794 18.2217 7.43586L18.4695 6.85138C18.6892 6.33311 19.3093 6.11922 19.8023 6.39111Z" fill="#11366A"/>
</svg>
