<svg width="40" height="40" viewBox="0 0 40 40" fill="none" xmlns="http://www.w3.org/2000/svg">
<path d="M13.75 16.8751H26.25C26.9406 16.8751 27.5 16.3158 27.5 15.6251V14.3752C27.5 13.6845 26.9406 13.1252 26.25 13.1252H13.75C13.0594 13.1252 12.5 13.6845 12.5 14.3752V15.6251C12.5 16.3158 13.0594 16.8751 13.75 16.8751ZM12.5 23.1251C12.5 23.8157 13.0594 24.3751 13.75 24.3751H26.25C26.9406 24.3751 27.5 23.8157 27.5 23.1251V21.8751C27.5 21.1845 26.9406 20.6251 26.25 20.6251H13.75C13.0594 20.6251 12.5 21.1845 12.5 21.8751V23.1251ZM20 32.5883C18.7172 32.5883 17.4344 32.193 16.3391 31.4016L0 19.5986V36.25C0 38.3211 1.67891 40 3.75 40H36.25C38.3211 40 40 38.3211 40 36.25V19.5986L23.6609 31.4016C22.5656 32.1922 21.2828 32.5883 20 32.5883ZM38.5633 12.7306C37.8719 12.1884 37.2164 11.6783 36.25 10.9486V7.50019C36.25 5.42911 34.5711 3.75022 32.5 3.75022H26.4414C26.2039 3.57834 25.9828 3.41741 25.7352 3.23772C24.4219 2.27913 21.8125 -0.0271025 20 0.000241043C18.1875 -0.0271025 15.5789 2.27913 14.2648 3.23772C14.0172 3.41741 13.7961 3.57834 13.5586 3.75022H7.5C5.42891 3.75022 3.75 5.42911 3.75 7.50019V10.9486C2.78359 11.6775 2.12812 12.1884 1.43672 12.7306C0.989186 13.0814 0.627277 13.5293 0.37837 14.0405C0.129463 14.5517 7.70161e-05 15.1128 0 15.6814L0 16.5134L7.5 21.9314V7.50019H32.5V21.9314L40 16.5134V15.6814C40 14.5298 39.4703 13.4416 38.5633 12.7306Z" fill="#11366A"/>
<path d="M36.1846 14.6881V10.8826V7.43422C36.1846 5.36313 34.5057 3.68424 32.4346 3.68424H26.376H23.4376L20.0536 3.6842L13.4932 3.68424H7.43457C5.36348 3.68424 3.68457 5.36313 3.68457 7.43422V10.8826V19.1564L7.43457 21.8654C7.43457 21.8654 15.0165 27.475 16.328 28.4586C17.6395 29.4422 18.4208 29.4422 19.9346 29.4422C21.4483 29.4422 21.9018 29.4422 23.2133 28.4586C24.5247 27.475 31.41 22.557 31.41 22.557L36.1846 19.1564V17.3111V14.6881Z" fill="#6D93B1"/>
<path d="M26.25 16.8751H13.75C13.0594 16.8751 12.5 16.3157 12.5 15.6251V14.3751C12.5 13.6845 13.0594 13.1251 13.75 13.1251H26.25C26.9406 13.1251 27.5 13.6845 27.5 14.3751V15.6251C27.5 16.3157 26.9406 16.8751 26.25 16.8751Z" fill="#11366A"/>
<path d="M13.75 24.375C13.0594 24.375 12.5 23.8157 12.5 23.1251V21.8751C12.5 21.1844 13.0594 20.6251 13.75 20.6251H26.25C26.9406 20.6251 27.5 21.1844 27.5 21.8751V23.1251C27.5 23.8157 26.9406 24.375 26.25 24.375H13.75Z" fill="#11366A"/>
</svg>
