<svg width="64" height="64" viewBox="0 0 64 64" fill="none" xmlns="http://www.w3.org/2000/svg">
<circle cx="32" cy="32" r="31.5" fill="white" stroke="#11366A"/>
<path d="M32 17C32.9956 17 33.8 17.8083 33.8 18.8088V30.5662C33.8 31.0636 34.205 31.4706 34.7 31.4706C35.195 31.4706 35.6 31.0636 35.6 30.5662V20.6176C35.6 19.6171 36.4044 18.8088 37.4 18.8088C38.3956 18.8088 39.2 19.6171 39.2 20.6176V30.5662C39.2 31.0636 39.605 31.4706 40.1 31.4706C40.595 31.4706 41 31.0636 41 30.5662V24.2353C41 23.2348 41.8044 22.4265 42.8 22.4265C43.7956 22.4265 44.6 23.2348 44.6 24.2353V35.2635C43.9306 35.5348 43.4019 36.1057 43.1937 36.8349L42.6931 38.5985L40.9381 39.1016C39.9087 39.4011 39.2 40.3451 39.2 41.4191C39.2 42.4875 39.9031 43.4314 40.9212 43.731C39.2225 45.1159 37.0569 45.9412 34.7 45.9412H33.62C30.2675 45.9412 27.0444 44.6467 24.62 42.3235L18.2975 36.2753C17.3975 35.4161 17.3638 33.9803 18.2188 33.0759C19.0737 32.1715 20.5025 32.1376 21.4025 32.9968L24.8056 36.2527C24.8056 36.1679 24.8 36.0774 24.8 35.9926V20.6176C24.8 19.6171 25.6044 18.8088 26.6 18.8088C27.5956 18.8088 28.4 19.6171 28.4 20.6176V30.5662C28.4 31.0636 28.805 31.4706 29.3 31.4706C29.795 31.4706 30.2 31.0636 30.2 30.5662V18.8088C30.2 17.8083 31.0044 17 32 17ZM31.5894 35.4613C31.5275 35.2409 31.325 35.0882 31.1 35.0882C30.875 35.0882 30.6725 35.2409 30.6106 35.4613L30.2 36.8971L28.7712 37.3097C28.5519 37.3719 28.4 37.5754 28.4 37.8015C28.4 38.0276 28.5519 38.2311 28.7712 38.2932L30.2 38.7059L30.6106 40.1416C30.6725 40.3621 30.875 40.5147 31.1 40.5147C31.325 40.5147 31.5275 40.3621 31.5894 40.1416L32 38.7059L33.4287 38.2932C33.6481 38.2311 33.8 38.0276 33.8 37.8015C33.8 37.5754 33.6481 37.3719 33.4287 37.3097L32 36.8971L31.5894 35.4613ZM19.85 23.7831L22.5669 24.5631C22.8256 24.6366 23 24.874 23 25.1397C23 25.4054 22.8256 25.6428 22.5669 25.7163L19.85 26.4963L19.0737 29.2265C19.0006 29.4865 18.7644 29.6618 18.5 29.6618C18.2356 29.6618 17.9994 29.4865 17.9262 29.2265L17.15 26.4963L14.4331 25.7163C14.1744 25.6428 14 25.4054 14 25.1397C14 24.874 14.1744 24.6366 14.4331 24.5631L17.15 23.7831L17.9262 21.0529C17.9994 20.7929 18.2356 20.6176 18.5 20.6176C18.7644 20.6176 19.0006 20.7929 19.0737 21.0529L19.85 23.7831ZM46.85 40.0625L49.5669 40.8426C49.8256 40.916 50 41.1534 50 41.4191C50 41.6848 49.8256 41.9222 49.5669 41.9957L46.85 42.7757L46.0737 45.5059C46.0006 45.7659 45.7644 45.9412 45.5 45.9412C45.2356 45.9412 44.9994 45.7659 44.9262 45.5059L44.15 42.7757L41.4331 41.9957C41.1744 41.9222 41 41.6848 41 41.4191C41 41.1534 41.1744 40.916 41.4331 40.8426L44.15 40.0625L44.9262 37.3323C44.9994 37.0723 45.2356 36.8971 45.5 36.8971C45.7644 36.8971 46.0006 37.0723 46.0737 37.3323L46.85 40.0625Z" fill="#11366A"/>
<path d="M22.5669 24.5632L19.85 23.7831L19.0737 21.0529C19.0006 20.7929 18.7644 20.6177 18.5 20.6177C18.2356 20.6177 17.9994 20.7929 17.9262 21.0529L17.15 23.7831L14.4331 24.5632C14.1744 24.6367 14 24.8741 14 25.1397C14 25.4054 14.1744 25.6428 14.4331 25.7163L17.15 26.4964L17.9262 29.2265C17.9994 29.4866 18.2356 29.6618 18.5 29.6618C18.7644 29.6618 19.0006 29.4866 19.0737 29.2265L19.85 26.4964L22.5669 25.7163C22.8256 25.6428 23 25.4054 23 25.1397C23 24.8741 22.8256 24.6367 22.5669 24.5632Z" fill="#6D93B1"/>
<path d="M49.5669 40.8425L46.85 40.0624L46.0737 37.3322C46.0006 37.0722 45.7644 36.897 45.5 36.897C45.2356 36.897 44.9994 37.0722 44.9262 37.3322L44.15 40.0624L41.4331 40.8425C41.1744 40.916 41 41.1534 41 41.419C41 41.6847 41.1744 41.9221 41.4331 41.9956L44.15 42.7756L44.9262 45.5058C44.9994 45.7659 45.2356 45.9411 45.5 45.9411C45.7644 45.9411 46.0006 45.7659 46.0737 45.5058L46.85 42.7756L49.5669 41.9956C49.8256 41.9221 50 41.6847 50 41.419C50 41.1534 49.8256 40.916 49.5669 40.8425Z" fill="#6D93B1"/>
</svg>
