<svg width="64" height="64" viewBox="0 0 64 64" fill="none" xmlns="http://www.w3.org/2000/svg">
<circle cx="32" cy="32" r="31.5" fill="url(#paint0_radial_90_53)" stroke="white"/>
<path d="M42.9375 16.75H37C37 14.1301 34.8699 12 32.25 12C29.6301 12 27.5 14.1301 27.5 16.75H21.5625C19.5957 16.75 18 18.3457 18 20.3125V46.4375C18 48.4043 19.5957 50 21.5625 50H42.9375C44.9043 50 46.5 48.4043 46.5 46.4375V20.3125C46.5 18.3457 44.9043 16.75 42.9375 16.75Z" fill="white"/>
<path d="M42.9375 16.75H37C37 14.1301 34.8699 12 32.25 12C29.6301 12 27.5 14.1301 27.5 16.75H21.5625C19.5957 16.75 18 18.3457 18 20.3125V46.4375C18 48.4043 19.5957 50 21.5625 50H42.9375C44.9043 50 46.5 48.4043 46.5 46.4375V20.3125C46.5 18.3457 44.9043 16.75 42.9375 16.75ZM25.125 43.4688C24.1379 43.4688 23.3438 42.6746 23.3438 41.6875C23.3438 40.7004 24.1379 39.9062 25.125 39.9062C26.1121 39.9062 26.9062 40.7004 26.9062 41.6875C26.9062 42.6746 26.1121 43.4688 25.125 43.4688ZM25.125 36.3438C24.1379 36.3438 23.3438 35.5496 23.3438 34.5625C23.3438 33.5754 24.1379 32.7812 25.125 32.7812C26.1121 32.7812 26.9062 33.5754 26.9062 34.5625C26.9062 35.5496 26.1121 36.3438 25.125 36.3438ZM25.125 29.2188C24.1379 29.2188 23.3438 28.4246 23.3438 27.4375C23.3438 26.4504 24.1379 25.6562 25.125 25.6562C26.1121 25.6562 26.9062 26.4504 26.9062 27.4375C26.9062 28.4246 26.1121 29.2188 25.125 29.2188ZM32.25 14.9688C33.2371 14.9688 34.0312 15.7629 34.0312 16.75C34.0312 17.7371 33.2371 18.5312 32.25 18.5312C31.2629 18.5312 30.4688 17.7371 30.4688 16.75C30.4688 15.7629 31.2629 14.9688 32.25 14.9688ZM41.75 42.2812C41.75 42.6078 41.4828 42.875 41.1562 42.875H30.4688C30.1422 42.875 29.875 42.6078 29.875 42.2812V41.0938C29.875 40.7672 30.1422 40.5 30.4688 40.5H41.1562C41.4828 40.5 41.75 40.7672 41.75 41.0938V42.2812ZM41.75 35.1562C41.75 35.4828 41.4828 35.75 41.1562 35.75H30.4688C30.1422 35.75 29.875 35.4828 29.875 35.1562V33.9688C29.875 33.6422 30.1422 33.375 30.4688 33.375H41.1562C41.4828 33.375 41.75 33.6422 41.75 33.9688V35.1562ZM41.75 28.0312C41.75 28.3578 41.4828 28.625 41.1562 28.625H30.4688C30.1422 28.625 29.875 28.3578 29.875 28.0312V26.8438C29.875 26.5172 30.1422 26.25 30.4688 26.25H41.1562C41.4828 26.25 41.75 26.5172 41.75 26.8438V28.0312Z" fill="#6D93B1"/>
<defs>
<radialGradient id="paint0_radial_90_53" cx="0" cy="0" r="1" gradientUnits="userSpaceOnUse" gradientTransform="translate(-32.5 -28.5) rotate(42.3532) scale(145.466)">
<stop stop-color="#087AA6"/>
<stop offset="1" stop-color="#113D70"/>
</radialGradient>
</defs>
</svg>
