<svg width="162" height="162" viewBox="0 0 162 162" fill="none" xmlns="http://www.w3.org/2000/svg">
<circle cx="81" cy="81" r="81" fill="white"/>
<circle cx="81" cy="81" r="80.5" stroke="#959595" stroke-opacity="0.1"/>
<circle cx="81" cy="81" r="81" fill="#6D93B1" fill-opacity="0.15"/>
<circle cx="81" cy="81" r="80.5" stroke="#959595" stroke-opacity="0.1"/>
<path d="M100.865 80.8775L100.883 80.8954L100.9 80.8775L116.844 64.5276C117.498 63.8567 118.559 63.8567 119.213 64.5276L121.617 66.993C122.272 67.6643 122.272 68.753 121.617 69.4244L102.067 89.4724C101.413 90.1433 100.352 90.1433 99.6982 89.4723L88.6482 78.1409C87.9936 77.4696 87.9936 76.3809 88.6482 75.7095L91.0523 73.2441C91.7066 72.5731 92.7672 72.5731 93.4215 73.2441L100.865 80.8775Z" fill="#6D93B1" stroke="#11366A" stroke-width="0.0488281"/>
<path d="M87.3584 65C87.3584 73.2717 80.6545 79.9756 72.3828 79.9756C64.1111 79.9756 57.4072 73.2717 57.4072 65C57.4072 56.7283 64.1111 50.0244 72.3828 50.0244C80.6545 50.0244 87.3584 56.7283 87.3584 65ZM72.3828 85.6494C75.4315 85.6494 78.3278 84.9697 80.9311 83.7744H82.8828C91.5646 83.7744 98.6084 90.8182 98.6084 99.5V104.375C98.6084 107.467 96.0998 109.976 93.0078 109.976H51.7578C48.6658 109.976 46.1572 107.467 46.1572 104.375V99.5C46.1572 90.8182 53.201 83.7744 61.8828 83.7744H63.8345C66.4495 84.9697 69.3341 85.6494 72.3828 85.6494Z" fill="#6D93B1" stroke="#11366A" stroke-width="0.0488281"/>
</svg>
