<svg width="64" height="64" viewBox="0 0 64 64" fill="none" xmlns="http://www.w3.org/2000/svg">
<path d="M63.5 32C63.5 49.397 49.397 63.5 32 63.5C14.603 63.5 0.5 49.397 0.5 32C0.5 14.603 14.603 0.5 32 0.5C49.397 0.5 63.5 14.603 63.5 32Z" fill="white" stroke="#EF233C"/>
<path d="M50.7168 27.7947L49.2228 26.3018C48.8102 25.8894 48.1414 25.8894 47.7288 26.3018L46.9821 27.0479L45.0742 25.1413C45.4458 23.7354 45.0979 22.1791 43.9948 21.0767L41.0074 18.0915C36.8826 13.9695 30.1943 13.9695 26.0688 18.0915L32.0441 21.0767V22.3137C32.0441 23.4333 32.4891 24.5073 33.282 25.299L36.5261 28.5409C37.6293 29.6433 39.1866 29.991 40.5935 29.6195L42.5014 31.5261L41.7548 32.2723C41.3421 32.6846 41.3421 33.3529 41.7548 33.7652L43.2488 35.2582C43.6614 35.6705 44.3301 35.6705 44.7428 35.2582L50.7181 29.287C51.1294 28.8754 51.1294 28.2071 50.7168 27.7947ZM31.788 26.7919C31.5437 26.5478 31.3364 26.278 31.1377 26.0036L14.2964 41.7163C12.6083 43.2917 12.5627 45.951 14.1954 47.5832C15.828 49.2154 18.4899 49.1698 20.0664 47.4823L35.7874 30.6546C35.5259 30.4627 35.2658 30.2674 35.0321 30.0338L31.788 26.7919Z" fill="#F7919D"/>
<path d="M31.1377 26.0036C31.3364 26.278 31.5437 26.5478 31.788 26.7919L35.0321 30.0338C35.2658 30.2674 35.5259 30.4627 35.7874 30.6546L20.0664 47.4823C18.4899 49.1698 15.828 49.2154 14.1954 47.5832C12.5627 45.951 12.6083 43.2917 14.2964 41.7163L31.1377 26.0036Z" fill="#EF233C"/>
</svg>
