<svg width="64" height="64" viewBox="0 0 64 64" fill="none" xmlns="http://www.w3.org/2000/svg">
<path d="M63.5 32C63.5 49.397 49.397 63.5 32 63.5C14.603 63.5 0.5 49.397 0.5 32C0.5 14.603 14.603 0.5 32 0.5C49.397 0.5 63.5 14.603 63.5 32Z" fill="white" stroke="#EF233C"/>
<path opacity="0.5" d="M20.6058 22.625C22.1803 22.625 23.4577 21.3652 23.4577 19.8125C23.4577 18.2598 22.1803 17 20.6058 17C19.0314 17 17.754 18.2598 17.754 19.8125C17.754 21.3652 19.0314 22.625 20.6058 22.625ZM43.4206 22.625C44.995 22.625 46.2724 21.3652 46.2724 19.8125C46.2724 18.2598 44.995 17 43.4206 17C41.8461 17 40.5687 18.2598 40.5687 19.8125C40.5687 21.3652 41.8461 22.625 43.4206 22.625ZM50.8889 44.4277L48.2747 37.9824L45.8328 40.7012L45.7139 41.7676L47.3597 45.8223C47.6568 46.5547 48.3697 47 49.1243 47C49.3619 47 49.5996 46.959 49.8313 46.8652C50.8057 46.4785 51.281 45.3887 50.8889 44.4277ZM48.8569 32.1348L47.7578 27.4355C47.4845 26.2637 46.6527 25.2793 45.5298 24.8047C44.4306 24.3359 43.2126 24.4121 42.1967 24.998C40.848 25.7832 39.8379 27.0195 39.3389 28.4785L38.6675 30.4648L37.7169 31.0625V25.4375C37.7169 24.9219 37.2891 24.5 36.7663 24.5H27.2601C26.7373 24.5 26.3095 24.9219 26.3095 25.4375V31.0625L25.3529 30.4648L24.6816 28.4785C24.1884 27.0137 23.1725 25.7832 21.8238 24.998C20.8019 24.4121 19.5898 24.3359 18.4907 24.8047C17.3678 25.2793 16.536 26.2637 16.2627 27.4355L15.1695 32.1348C14.8962 33.3066 15.2111 34.5488 16.025 35.457L20.0176 39.9043L20.6177 45.3301C20.7246 46.2852 21.5445 47 22.507 47C22.5783 47 22.6437 46.9941 22.715 46.9883C23.7607 46.877 24.5093 45.9512 24.3964 44.9199L23.7963 39.4824C23.7072 38.7207 23.3864 38.0117 22.8695 37.4316L20.2969 34.5605L21.3425 30.4414L21.7466 31.6367C21.9901 32.3691 22.4536 33.0078 23.2022 33.5469L26.2382 35.4512C26.5115 35.6211 26.9571 35.7207 27.2601 35.7441H36.7663C37.0693 35.7207 37.5149 35.6211 37.7882 35.4512L40.8242 33.5469C41.5728 33.0078 42.0362 32.375 42.2798 31.6367L42.6839 30.4414L43.7295 34.5605L41.1569 37.4316C40.64 38.0117 40.3192 38.7207 40.2301 39.4824L39.63 44.9199C39.5171 45.9512 40.2717 46.877 41.3114 46.9883C41.3827 46.9941 41.4481 47 41.5194 47C42.4759 47 43.3018 46.291 43.4087 45.3301L44.0088 39.9043L48.0014 35.457C48.8094 34.5488 49.1302 33.3066 48.8569 32.1348ZM15.7517 37.9824L13.1375 44.4277C12.7454 45.3887 13.2207 46.4785 14.1951 46.8652C15.1932 47.252 16.2805 46.7656 16.6667 45.8223L18.3125 41.7676L18.1936 40.7012L15.7517 37.9824Z" fill="#EF233C"/>
<path d="M37.716 31.0625V35.4512C37.4427 35.6211 37.0684 35.7207 36.7654 35.7441H27.2592C26.9562 35.7207 26.5106 35.6211 26.2373 35.4512L26.3086 31.0625V25.4375C26.3086 24.9219 26.7364 24.5 27.2592 24.5H36.7654C37.2882 24.5 37.716 24.9219 37.716 25.4375V31.0625Z" fill="#EF233C"/>
</svg>
