<svg width="64" height="64" viewBox="0 0 64 64" fill="none" xmlns="http://www.w3.org/2000/svg">
<circle cx="32" cy="32" r="31.5" fill="white" stroke="#77999E"/>
<path d="M42.35 35.7986H21.6725C21.425 35.7986 21.2225 36.0011 21.2225 36.2486L21.2169 38.9486C21.2169 39.1961 21.4194 39.3986 21.6669 39.3986H42.35C42.5975 39.3986 42.8 39.1961 42.8 38.9486V36.2486C42.8 36.0011 42.5975 35.7986 42.35 35.7986ZM42.35 41.1986H21.6556C21.4081 41.1986 21.2056 41.4011 21.2056 41.6486L21.2 44.3486C21.2 44.5961 21.4025 44.7986 21.65 44.7986H42.35C42.5975 44.7986 42.8 44.5961 42.8 44.3486V41.6486C42.8 41.4011 42.5975 41.1986 42.35 41.1986ZM42.35 30.3986H21.6838C21.4363 30.3986 21.2338 30.6011 21.2338 30.8486L21.2281 33.5486C21.2281 33.7961 21.4306 33.9986 21.6781 33.9986H42.35C42.5975 33.9986 42.8 33.7961 42.8 33.5486V30.8486C42.8 30.6011 42.5975 30.3986 42.35 30.3986ZM48.3406 22.5798L33.035 16.2067C32.706 16.0702 32.3534 16 31.9972 16C31.641 16 31.2884 16.0702 30.9594 16.2067L15.6594 22.5798C14.6581 23.0017 14 23.9805 14 25.0717V44.3486C14 44.5961 14.2025 44.7986 14.45 44.7986H18.95C19.1975 44.7986 19.4 44.5961 19.4 44.3486V30.3986C19.4 29.4086 20.2213 28.5986 21.2338 28.5986H42.7663C43.7788 28.5986 44.6 29.4086 44.6 30.3986V44.3486C44.6 44.5961 44.8025 44.7986 45.05 44.7986H49.55C49.7975 44.7986 50 44.5961 50 44.3486V25.0717C50 23.9805 49.3419 23.0017 48.3406 22.5798Z" fill="#77999E"/>
<path d="M21.6725 35.7986H42.35C42.5975 35.7986 42.8 36.0011 42.8 36.2486V38.9486C42.8 39.1961 42.5975 39.3986 42.35 39.3986H21.6669C21.4194 39.3986 21.2169 39.1961 21.2169 38.9486L21.2225 36.2486C21.2225 36.0011 21.425 35.7986 21.6725 35.7986Z" fill="#BBCCCE"/>
<path d="M21.6556 41.1986H42.35C42.5975 41.1986 42.8 41.4011 42.8 41.6486V44.3486C42.8 44.5961 42.5975 44.7986 42.35 44.7986H21.65C21.4025 44.7986 21.2 44.5961 21.2 44.3486L21.2056 41.6486C21.2056 41.4011 21.4081 41.1986 21.6556 41.1986Z" fill="#BBCCCE"/>
<path d="M21.6838 30.3986H42.35C42.5975 30.3986 42.8 30.6011 42.8 30.8486V33.5486C42.8 33.7961 42.5975 33.9986 42.35 33.9986H21.6781C21.4306 33.9986 21.2281 33.7961 21.2281 33.5486L21.2338 30.8486C21.2338 30.6011 21.4363 30.3986 21.6838 30.3986Z" fill="#BBCCCE"/>
<path d="M48.333 22.5978L33.0275 16.2248C32.7009 16.0893 32.3508 16.0195 31.9972 16.0195C31.6436 16.0195 31.2935 16.0893 30.9669 16.2248L15.667 22.5978H48.333ZM48.333 22.5978C49.3271 23.0167 49.9805 23.9884 49.9805 25.0717V44.3486C49.9805 44.5853 49.7867 44.7791 49.55 44.7791H45.05C44.8133 44.7791 44.6195 44.5853 44.6195 44.3486V30.3986C44.6195 29.3975 43.7892 28.5791 42.7663 28.5791H21.2338C20.2108 28.5791 19.3805 29.3975 19.3805 30.3986V44.3486C19.3805 44.5853 19.1867 44.7791 18.95 44.7791H14.45C14.2133 44.7791 14.0195 44.5853 14.0195 44.3486V25.0717C14.0195 23.9884 14.6728 23.0168 15.6669 22.5979L48.333 22.5978ZM21.242 36.2486V36.2486C21.242 36.0119 21.4358 35.8181 21.6725 35.8181H42.35C42.5867 35.8181 42.7805 36.0119 42.7805 36.2486V38.9486C42.7805 39.1853 42.5867 39.3791 42.35 39.3791H21.6669C21.4302 39.3791 21.2364 39.1853 21.2364 38.9486C21.2364 38.9486 21.2364 38.9486 21.2364 38.9486L21.242 36.2486ZM21.2252 41.6486V41.6486C21.2252 41.4119 21.4189 41.2181 21.6556 41.2181H42.35C42.5867 41.2181 42.7805 41.4119 42.7805 41.6486V44.3486C42.7805 44.5853 42.5867 44.7791 42.35 44.7791H21.65C21.4133 44.7791 21.2196 44.5853 21.2195 44.3486C21.2195 44.3486 21.2195 44.3486 21.2195 44.3486L21.2252 41.6486ZM21.2533 30.8486V30.8486C21.2533 30.6119 21.447 30.4181 21.6838 30.4181H42.35C42.5867 30.4181 42.7805 30.6119 42.7805 30.8486V33.5486C42.7805 33.7853 42.5867 33.9791 42.35 33.9791H21.6781C21.4414 33.9791 21.2477 33.7853 21.2477 33.5486C21.2477 33.5486 21.2477 33.5486 21.2477 33.5486L21.2533 30.8486Z" stroke="#11366A" stroke-width="0.0390625"/>
</svg>
