<svg width="64" height="64" viewBox="0 0 64 64" fill="none" xmlns="http://www.w3.org/2000/svg">
<circle cx="32" cy="32" r="31.5" fill="white" stroke="#77999E"/>
<rect x="15" y="25" width="33" height="23" rx="1" fill="#77999E"/>
<path d="M19.625 45.9756C19.192 45.9756 18.8369 45.5747 18.8369 45.0714V36.7387H30.1631V45.0714C30.1631 45.5747 29.808 45.9756 29.375 45.9756H19.625ZM23.1797 38.547C22.9957 38.547 22.8506 38.7178 22.8506 38.9196V39.1518C22.8506 39.3536 22.9957 39.5244 23.1797 39.5244H25.8203C26.0043 39.5244 26.1494 39.3536 26.1494 39.1518V38.9196C26.1494 38.7178 26.0043 38.547 25.8203 38.547H23.1797ZM18.8125 33.0244H30.1875C30.6205 33.0244 30.9756 33.4253 30.9756 33.9286V35.3214C30.9756 35.5665 30.8007 35.7613 30.5938 35.7613H18.4062C18.1993 35.7613 18.0244 35.5665 18.0244 35.3214V33.9286C18.0244 33.4253 18.3795 33.0244 18.8125 33.0244Z" fill="#BBCCCE" stroke="#77999E" stroke-width="0.0488281"/>
<path d="M33.625 45.9756C33.192 45.9756 32.8369 45.5747 32.8369 45.0714V36.7387H44.1631V45.0714C44.1631 45.5747 43.808 45.9756 43.375 45.9756H33.625ZM37.1797 38.547C36.9957 38.547 36.8506 38.7178 36.8506 38.9196V39.1518C36.8506 39.3536 36.9957 39.5244 37.1797 39.5244H39.8203C40.0043 39.5244 40.1494 39.3536 40.1494 39.1518V38.9196C40.1494 38.7178 40.0043 38.547 39.8203 38.547H37.1797ZM32.8125 33.0244H44.1875C44.6205 33.0244 44.9756 33.4253 44.9756 33.9286V35.3214C44.9756 35.5665 44.8007 35.7613 44.5938 35.7613H32.4062C32.1993 35.7613 32.0244 35.5665 32.0244 35.3214V33.9286C32.0244 33.4253 32.3795 33.0244 32.8125 33.0244Z" fill="#BBCCCE" stroke="#77999E" stroke-width="0.0488281"/>
<path d="M30.1914 22.7809H19.8086C19.1114 22.7809 18.7623 21.938 19.2552 21.445L24.4466 16.2536C24.7522 15.948 25.2478 15.948 25.5533 16.2536L30.7447 21.445C31.2378 21.938 30.8886 22.7809 30.1914 22.7809Z" fill="#77999E" stroke="#77999E" stroke-width="0.0488281"/>
<path d="M32.8086 17.0242H43.1914C43.8886 17.0242 44.2377 17.8672 43.7448 18.3602L38.5534 23.5516C38.2478 23.8572 37.7522 23.8572 37.4467 23.5516L32.2553 18.3602C31.7622 17.8672 32.1114 17.0242 32.8086 17.0242Z" fill="#77999E" stroke="#77999E" stroke-width="0.0488281"/>
</svg>
