<svg width="162" height="162" viewBox="0 0 162 162" fill="none" xmlns="http://www.w3.org/2000/svg">
<circle cx="81" cy="81" r="81" fill="white"/>
<circle cx="81" cy="81" r="80.5" stroke="#959595" stroke-opacity="0.1"/>
<circle cx="81" cy="81" r="81" fill="#F0F0F0"/>
<circle cx="81" cy="81" r="80.5" stroke="#959595" stroke-opacity="0.2"/>
<path d="M102.5 51H90C90 45.4844 85.5156 41 80 41C74.4844 41 70 45.4844 70 51H57.5C53.3594 51 50 54.3594 50 58.5V113.5C50 117.641 53.3594 121 57.5 121H102.5C106.641 121 110 117.641 110 113.5V58.5C110 54.3594 106.641 51 102.5 51Z" fill="#F0F0F0"/>
<path d="M102.5 51H90C90 45.4844 85.5156 41 80 41C74.4844 41 70 45.4844 70 51H57.5C53.3594 51 50 54.3594 50 58.5V113.5C50 117.641 53.3594 121 57.5 121H102.5C106.641 121 110 117.641 110 113.5V58.5C110 54.3594 106.641 51 102.5 51ZM65 107.25C62.9219 107.25 61.25 105.578 61.25 103.5C61.25 101.422 62.9219 99.75 65 99.75C67.0781 99.75 68.75 101.422 68.75 103.5C68.75 105.578 67.0781 107.25 65 107.25ZM65 92.25C62.9219 92.25 61.25 90.5781 61.25 88.5C61.25 86.4219 62.9219 84.75 65 84.75C67.0781 84.75 68.75 86.4219 68.75 88.5C68.75 90.5781 67.0781 92.25 65 92.25ZM65 77.25C62.9219 77.25 61.25 75.5781 61.25 73.5C61.25 71.4219 62.9219 69.75 65 69.75C67.0781 69.75 68.75 71.4219 68.75 73.5C68.75 75.5781 67.0781 77.25 65 77.25ZM80 47.25C82.0781 47.25 83.75 48.9219 83.75 51C83.75 53.0781 82.0781 54.75 80 54.75C77.9219 54.75 76.25 53.0781 76.25 51C76.25 48.9219 77.9219 47.25 80 47.25ZM100 104.75C100 105.438 99.4375 106 98.75 106H76.25C75.5625 106 75 105.438 75 104.75V102.25C75 101.563 75.5625 101 76.25 101H98.75C99.4375 101 100 101.563 100 102.25V104.75ZM100 89.75C100 90.4375 99.4375 91 98.75 91H76.25C75.5625 91 75 90.4375 75 89.75V87.25C75 86.5625 75.5625 86 76.25 86H98.75C99.4375 86 100 86.5625 100 87.25V89.75ZM100 74.75C100 75.4375 99.4375 76 98.75 76H76.25C75.5625 76 75 75.4375 75 74.75V72.25C75 71.5625 75.5625 71 76.25 71H98.75C99.4375 71 100 71.5625 100 72.25V74.75Z" fill="#959595"/>
</svg>
