<svg width="64" height="64" viewBox="0 0 64 64" fill="none" xmlns="http://www.w3.org/2000/svg">
<circle cx="32" cy="32" r="31.5" fill="white" stroke="#77999E"/>
<path d="M43 27V21C43 19.8956 42.1044 19 41 19H19C17.8956 19 17 19.8956 17 21V27C17 28.1044 17.8956 29 19 29H41C42.1044 29 43 28.1044 43 27ZM45 23V31C45 32.1044 44.1044 33 43 33H33C30.7906 33 29 34.7906 29 37V39C27.8956 39 27 39.8956 27 41V49C27 50.1044 27.8956 51 29 51H33C34.1044 51 35 50.1044 35 49V41C35 39.8956 34.1044 39 33 39V37H43C46.3138 37 49 34.3138 49 31V27C49 24.7906 47.2094 23 45 23Z" fill="#77999E"/>
<path d="M43 21V27C43 28.1044 42.1044 29 41 29H19C17.8956 29 17 28.1044 17 27V21C17 19.8956 17.8956 19 19 19H41C42.1044 19 43 19.8956 43 21Z" fill="#BBCCCE"/>
</svg>
