<svg width="64" height="64" viewBox="0 0 64 64" fill="none" xmlns="http://www.w3.org/2000/svg">
<circle cx="32" cy="32" r="31.5" fill="url(#paint0_radial_90_52)" stroke="white"/>
<path d="M20.6005 22.625C22.1739 22.625 23.4504 21.3652 23.4504 19.8125C23.4504 18.2598 22.1739 17 20.6005 17C19.0272 17 17.7507 18.2598 17.7507 19.8125C17.7507 21.3652 19.0272 22.625 20.6005 22.625ZM43.3995 22.625C44.9728 22.625 46.2493 21.3652 46.2493 19.8125C46.2493 18.2598 44.9728 17 43.3995 17C41.8261 17 40.5496 18.2598 40.5496 19.8125C40.5496 21.3652 41.8261 22.625 43.3995 22.625ZM50.8626 44.4277L48.2502 37.9824L45.81 40.7012L45.6912 41.7676L47.3358 45.8223C47.6327 46.5547 48.3452 47 49.0992 47C49.3367 47 49.5742 46.959 49.8057 46.8652C50.7794 46.4785 51.2544 45.3887 50.8626 44.4277ZM48.832 32.1348L47.7336 27.4355C47.4605 26.2637 46.6293 25.2793 45.5072 24.8047C44.4088 24.3359 43.1917 24.4121 42.1764 24.998C40.8287 25.7832 39.8193 27.0195 39.3206 28.4785L38.6497 30.4648L37.6997 31.0625V25.4375C37.6997 24.9219 37.2723 24.5 36.7498 24.5H27.2502C26.7277 24.5 26.3003 24.9219 26.3003 25.4375V31.0625L25.3444 30.4648L24.6735 28.4785C24.1807 27.0137 23.1654 25.7832 21.8177 24.998C20.7965 24.4121 19.5853 24.3359 18.4869 24.8047C17.3647 25.2793 16.5335 26.2637 16.2604 27.4355L15.168 32.1348C14.8949 33.3066 15.2095 34.5488 16.0229 35.457L20.0127 39.9043L20.6124 45.3301C20.7193 46.2852 21.5386 47 22.5004 47C22.5717 47 22.637 46.9941 22.7082 46.9883C23.7532 46.877 24.5013 45.9512 24.3885 44.9199L23.7888 39.4824C23.6998 38.7207 23.3792 38.0117 22.8626 37.4316L20.2918 34.5605L21.3367 30.4414L21.7405 31.6367C21.9839 32.3691 22.447 33.0078 23.1951 33.5469L26.229 35.4512C26.5021 35.6211 26.9474 35.7207 27.2502 35.7441H36.7498C37.0526 35.7207 37.4979 35.6211 37.771 35.4512L40.8049 33.5469C41.553 33.0078 42.0161 32.375 42.2595 31.6367L42.6633 30.4414L43.7082 34.5605L41.1374 37.4316C40.6208 38.0117 40.3002 38.7207 40.2112 39.4824L39.6115 44.9199C39.4987 45.9512 40.2527 46.877 41.2918 46.9883C41.363 46.9941 41.4283 47 41.4996 47C42.4555 47 43.2807 46.291 43.3876 45.3301L43.9873 39.9043L47.9771 35.457C48.7845 34.5488 49.1051 33.3066 48.832 32.1348ZM15.7498 37.9824L13.1374 44.4277C12.7456 45.3887 13.2206 46.4785 14.1943 46.8652C15.1917 47.252 16.2782 46.7656 16.6642 45.8223L18.3088 41.7676L18.19 40.7012L15.7498 37.9824Z" fill="#6D93B1"/>
<path d="M37.6992 31.0624V35.4511C37.4261 35.621 37.0521 35.7206 36.7493 35.7441H27.2497C26.9469 35.7206 26.5016 35.621 26.2285 35.4511L26.2998 31.0624V25.4374C26.2998 24.9218 26.7272 24.4999 27.2497 24.4999H36.7493C37.2717 24.4999 37.6992 24.9218 37.6992 25.4374V31.0624Z" fill="white"/>
<defs>
<radialGradient id="paint0_radial_90_52" cx="0" cy="0" r="1" gradientUnits="userSpaceOnUse" gradientTransform="translate(-32.5 -28.5) rotate(42.3532) scale(145.466)">
<stop stop-color="#087AA6"/>
<stop offset="1" stop-color="#113D70"/>
</radialGradient>
</defs>
</svg>
