<svg width="64" height="64" viewBox="0 0 64 64" fill="none" xmlns="http://www.w3.org/2000/svg">
<path d="M63.5 32C63.5 49.397 49.397 63.5 32 63.5C14.603 63.5 0.5 49.397 0.5 32C0.5 14.603 14.603 0.5 32 0.5C49.397 0.5 63.5 14.603 63.5 32Z" fill="white" stroke="#A08F67"/>
<path d="M38.2944 32.3014C37.2903 32.3014 36.3457 31.767 35.8347 30.9121L32.0145 24.5831L28.2002 30.9121C27.6833 31.773 26.7387 32.3073 25.7346 32.3073C25.4673 32.3073 25.1999 32.2717 24.9444 32.1945L16.8049 29.8671V40.4352C16.8049 41.308 17.399 42.0679 18.2427 42.2757L31.0877 45.4877C31.6937 45.6361 32.3294 45.6361 32.9295 45.4877L45.7863 42.2757C46.63 42.062 47.2241 41.302 47.2241 40.4352V29.8671L39.0846 32.1885C38.8291 32.2657 38.5618 32.3014 38.2944 32.3014ZM50.9255 25.6399L47.8658 19.5365C47.6816 19.1684 47.2835 18.9547 46.8736 19.0081L32.0145 20.9021L37.4626 29.9324C37.6884 30.3065 38.1399 30.4846 38.5618 30.3659L50.3195 27.0114C50.9077 26.8392 51.1929 26.1861 50.9255 25.6399ZM16.1633 19.5365L13.1035 25.6399C12.8302 26.1861 13.1213 26.8392 13.7036 27.0054L25.4613 30.3599C25.8831 30.4787 26.3347 30.3005 26.5604 29.9265L32.0145 20.9021L17.1495 19.0081C16.7396 18.9606 16.3474 19.1684 16.1633 19.5365Z" fill="#A08F67"/>
<path d="M47.8658 19.5365L50.9255 25.6399C51.1929 26.1861 50.9077 26.8392 50.3195 27.0114L38.5618 30.3659C38.1399 30.4846 37.6884 30.3065 37.4626 29.9324L32.0145 20.9021L26.5604 29.9265C26.3347 30.3005 25.8831 30.4787 25.4613 30.3599L13.7036 27.0054C13.1213 26.8392 12.8302 26.1861 13.1035 25.6399L16.1633 19.5365C16.3474 19.1684 16.7396 18.9606 17.1495 19.0081L32.0145 20.9021L46.8736 19.0081C47.2835 18.9547 47.6816 19.1684 47.8658 19.5365Z" fill="#CDC1A0"/>
</svg>
