<svg width="38" height="30" viewBox="0 0 38 30" fill="none" xmlns="http://www.w3.org/2000/svg">
<path d="M27.6091 10.6838C27.6091 4.78102 21.4302 0 13.8046 0C6.17886 0 0 4.78102 0 10.6838C0 12.9742 0.935789 15.0842 2.52199 16.827C1.63265 18.8436 0.16592 20.4462 0.14601 20.4662C7.97498e-08 20.6198 -0.0398209 20.8468 0.0464576 21.0472C0.132736 21.2475 0.318567 21.3677 0.530944 21.3677C2.96001 21.3677 4.97097 20.5464 6.41779 19.6983C8.55484 20.7467 11.0835 21.3677 13.8046 21.3677C21.4302 21.3677 27.6091 16.5867 27.6091 10.6838Z" fill="white"/>
<path d="M35.478 25.4594C37.0642 23.7233 38 21.6066 38 19.3162C38 14.849 34.4493 11.0229 29.4186 9.427C29.4783 9.86771 29.5049 10.3151 29.5049 10.7692C29.5049 17.8405 22.357 23.5898 13.5765 23.5898C12.8597 23.5898 12.1629 23.5363 11.4727 23.4629C13.5632 27.3024 18.4745 30.0001 24.1954 30.0001C26.9165 30.0001 29.4451 29.3857 31.5822 28.3307C33.029 29.1787 35.04 30.0001 37.469 30.0001C37.6814 30.0001 37.8739 29.8732 37.9535 29.6795C38.0398 29.4859 38 29.2589 37.854 29.0986C37.834 29.0786 36.3673 27.4827 35.478 25.4594Z" fill="#11366A"/>
</svg>
