<svg width="162" height="162" viewBox="0 0 162 162" fill="none" xmlns="http://www.w3.org/2000/svg">
<circle cx="81" cy="81" r="81" fill="white"/>
<circle cx="81" cy="81" r="80.5" stroke="#959595" stroke-opacity="0.1"/>
<circle cx="81" cy="81" r="81" fill="#BBCCCE" fill-opacity="0.4"/>
<circle cx="81" cy="81" r="80.5" stroke="#959595" stroke-opacity="0.1"/>
<path d="M58.2011 62.25C61.3478 62.25 63.9008 59.7305 63.9008 56.625C63.9008 53.5195 61.3478 51 58.2011 51C55.0543 51 52.5013 53.5195 52.5013 56.625C52.5013 59.7305 55.0543 62.25 58.2011 62.25ZM103.799 62.25C106.946 62.25 109.499 59.7305 109.499 56.625C109.499 53.5195 106.946 51 103.799 51C100.652 51 98.0992 53.5195 98.0992 56.625C98.0992 59.7305 100.652 62.25 103.799 62.25ZM118.725 105.855L113.5 92.9648L108.62 98.4023L108.382 100.535L111.672 108.645C112.265 110.109 113.69 111 115.198 111C115.673 111 116.148 110.918 116.611 110.73C118.559 109.957 119.509 107.777 118.725 105.855ZM114.664 81.2695L112.467 71.8711C111.921 69.5273 110.259 67.5586 108.014 66.6094C105.818 65.6719 103.383 65.8242 101.353 66.9961C98.6573 68.5664 96.6386 71.0391 95.6412 73.957L94.2994 77.9297L92.3995 79.125V67.875C92.3995 66.8437 91.5445 66 90.4996 66H71.5004C70.4555 66 69.6005 66.8437 69.6005 67.875V79.125L67.6888 77.9297L66.3469 73.957C65.3614 71.0273 63.3308 68.5664 60.6353 66.9961C58.5929 65.8242 56.1705 65.6719 53.9738 66.6094C51.7295 67.5586 50.0671 69.5273 49.5208 71.8711L47.336 81.2695C46.7897 83.6133 47.4191 86.0977 49.0459 87.9141L57.0255 96.8086L58.2248 107.66C58.4386 109.57 60.0772 111 62.0009 111C62.1434 111 62.274 110.988 62.4165 110.977C64.5064 110.754 66.0026 108.902 65.777 106.84L64.5776 95.9648C64.3995 94.4414 63.7583 93.0234 62.7252 91.8633L57.5836 86.1211L59.6735 77.8828L60.481 80.2734C60.9678 81.7383 61.894 83.0156 63.3902 84.0937L69.458 87.9023C70.0043 88.2422 70.8948 88.4414 71.5004 88.4883H90.4996C91.1052 88.4414 91.9957 88.2422 92.542 87.9023L98.6098 84.0937C100.106 83.0156 101.032 81.75 101.519 80.2734L102.327 77.8828L104.416 86.1211L99.2748 91.8633C98.2417 93.0234 97.6005 94.4414 97.4224 95.9648L96.223 106.84C95.9974 108.902 97.5055 110.754 99.5835 110.977C99.726 110.988 99.8566 111 99.9991 111C101.911 111 103.561 109.582 103.775 107.66L104.975 96.8086L112.954 87.9141C114.569 86.0977 115.21 83.6133 114.664 81.2695ZM48.4996 92.9648L43.2749 105.855C42.4912 107.777 43.4411 109.957 45.3885 110.73C47.3834 111.504 49.5565 110.531 50.3283 108.645L53.6175 100.535L53.38 98.4023L48.4996 92.9648Z" fill="#77999E"/>
<path d="M92.3985 79.125V87.9023C91.8522 88.2422 91.1041 88.4414 90.4985 88.4883H71.4994C70.8938 88.4414 70.0033 88.2422 69.457 87.9023L69.5995 79.125V67.875C69.5995 66.8438 70.4545 66 71.4994 66H90.4985C91.5435 66 92.3985 66.8438 92.3985 67.875V79.125Z" fill="#77999E"/>
</svg>
