<svg width="64" height="64" viewBox="0 0 64 64" fill="none" xmlns="http://www.w3.org/2000/svg">
<circle cx="32" cy="32" r="31.5" fill="url(#paint0_radial_90_54)" stroke="white"/>
<path d="M39.774 36.7447L34.2489 31.079C33.917 30.7386 33.917 30.1867 34.2489 29.8462L35.451 28.6135C35.7829 28.2731 36.3212 28.2731 36.6531 28.6135L40.375 32.4302L48.3469 24.2553C48.6788 23.9149 49.2171 23.9149 49.549 24.2553L50.7511 25.488C51.083 25.8284 51.083 26.3803 50.7511 26.7207L40.976 36.7447C40.6441 37.0851 40.1059 37.0851 39.774 36.7447V36.7447Z" fill="white"/>
<path d="M26.125 32C30.2676 32 33.625 28.6426 33.625 24.5C33.625 20.3574 30.2676 17 26.125 17C21.9824 17 18.625 20.3574 18.625 24.5C18.625 28.6426 21.9824 32 26.125 32ZM31.375 33.875H30.3965C29.0957 34.4727 27.6484 34.8125 26.125 34.8125C24.6016 34.8125 23.1602 34.4727 21.8535 33.875H20.875C16.5273 33.875 13 37.4023 13 41.75V44.1875C13 45.7402 14.2598 47 15.8125 47H36.4375C37.9902 47 39.25 45.7402 39.25 44.1875V41.75C39.25 37.4023 35.7227 33.875 31.375 33.875Z" fill="#6D93B1"/>
<defs>
<radialGradient id="paint0_radial_90_54" cx="0" cy="0" r="1" gradientUnits="userSpaceOnUse" gradientTransform="translate(-32.5 -28.5) rotate(42.3532) scale(145.466)">
<stop stop-color="#087AA6"/>
<stop offset="1" stop-color="#113D70"/>
</radialGradient>
</defs>
</svg>
