<svg width="64" height="64" viewBox="0 0 64 64" fill="none" xmlns="http://www.w3.org/2000/svg">
<circle cx="32" cy="32" r="31.5" fill="white" stroke="#11366A"/>
<rect x="15" y="25" width="33" height="23" rx="1" fill="#11366A"/>
<path d="M18.8125 45.0714C18.8125 45.585 19.1756 46 19.625 46H29.375C29.8244 46 30.1875 45.585 30.1875 45.0714V36.7143H18.8125V45.0714ZM22.875 38.9196C22.875 38.7281 23.0121 38.5714 23.1797 38.5714H25.8203C25.9879 38.5714 26.125 38.7281 26.125 38.9196V39.1518C26.125 39.3433 25.9879 39.5 25.8203 39.5H23.1797C23.0121 39.5 22.875 39.3433 22.875 39.1518V38.9196ZM30.1875 33H18.8125C18.3631 33 18 33.415 18 33.9286V35.3214C18 35.5768 18.1828 35.7857 18.4062 35.7857H30.5938C30.8172 35.7857 31 35.5768 31 35.3214V33.9286C31 33.415 30.6369 33 30.1875 33Z" fill="#6D93B1"/>
<path d="M32.8125 45.0714C32.8125 45.585 33.1756 46 33.625 46H43.375C43.8244 46 44.1875 45.585 44.1875 45.0714V36.7143H32.8125V45.0714ZM36.875 38.9196C36.875 38.7281 37.0121 38.5714 37.1797 38.5714H39.8203C39.9879 38.5714 40.125 38.7281 40.125 38.9196V39.1518C40.125 39.3433 39.9879 39.5 39.8203 39.5H37.1797C37.0121 39.5 36.875 39.3433 36.875 39.1518V38.9196ZM44.1875 33H32.8125C32.3631 33 32 33.415 32 33.9286V35.3214C32 35.5768 32.1828 35.7857 32.4062 35.7857H44.5938C44.8172 35.7857 45 35.5768 45 35.3214V33.9286C45 33.415 44.6369 33 44.1875 33Z" fill="#6D93B1"/>
<path d="M30.1914 22.8053H19.8086C19.0896 22.8053 18.7296 21.9361 19.238 21.4277L24.4294 16.2363C24.7445 15.9212 25.2555 15.9212 25.5706 16.2363L30.762 21.4277C31.2704 21.9361 30.9103 22.8053 30.1914 22.8053Z" fill="#11366A"/>
<path d="M32.8086 16.9998H43.1914C43.9104 16.9998 44.2704 17.8691 43.762 18.3774L38.5706 23.5688C38.2555 23.884 37.7445 23.884 37.4294 23.5688L32.238 18.3774C31.7296 17.8691 32.0897 16.9998 32.8086 16.9998Z" fill="#11366A"/>
</svg>
