<svg width="64" height="64" viewBox="0 0 64 64" fill="none" xmlns="http://www.w3.org/2000/svg">
<circle cx="32" cy="32" r="31.5" fill="white" stroke="#77999E"/>
<path d="M49 41.7583C48.9973 42.3431 48.9927 48.4304 48.8897 48.4328C48.8825 48.4328 15.0294 48.4328 15.0294 48.4328C15.0294 48.4328 14.9856 48.1899 15.0049 44.8037C15.0361 39.3833 15.0541 32.2024 15.0541 26.4033C15.0541 24.9576 15.4147 23.5454 15.7854 22.1512C17.3244 16.3572 24.8115 15.0108 26.773 15.0001C31.0838 14.9776 34.0098 17.6414 34.5531 18.308C35.0486 18.9148 35.3827 19.5674 35.7168 20.2469C36.5816 22.0058 37.1416 24.0662 38.8493 25.2575C39.8596 25.9622 41.1974 26.3419 42.3491 26.7401C43.0386 26.9796 43.742 27.1708 44.4381 27.392C45.5301 27.7384 46.8718 28.2751 47.5759 29.1974C48.4833 30.387 48.9682 31.8683 48.9682 33.3624C48.9682 36.1611 48.9894 38.9595 49 41.7583Z" fill="#77999E"/>
<path d="M18.0225 41H16.2632C16.1179 41 16 41.067 16 41.1496V46.7604C16 46.843 16.1179 46.91 16.2632 46.91H18.0225C18.1679 46.91 18.2857 46.843 18.2857 46.7604V41.1496C18.2857 41.067 18.1679 41 18.0225 41Z" fill="white" stroke="#77999E" stroke-width="0.211498" stroke-linejoin="round"/>
<path d="M20.3086 41H18.5494C18.404 41 18.2861 41.067 18.2861 41.1496V46.7604C18.2861 46.843 18.404 46.91 18.5494 46.91H20.3086C20.454 46.91 20.5719 46.843 20.5719 46.7604V41.1496C20.5719 41.067 20.454 41 20.3086 41Z" fill="white" stroke="#77999E" stroke-width="0.211498" stroke-linejoin="round"/>
<path d="M22.5938 41H20.8345C20.6891 41 20.5713 41.067 20.5713 41.1496V46.7604C20.5713 46.843 20.6891 46.91 20.8345 46.91H22.5938C22.7392 46.91 22.857 46.843 22.857 46.7604V41.1496C22.857 41.067 22.7392 41 22.5938 41Z" fill="white" stroke="#77999E" stroke-width="0.211498" stroke-linejoin="round"/>
<path d="M24.8789 41H23.1197C22.9743 41 22.8564 41.067 22.8564 41.1496V46.7604C22.8564 46.843 22.9743 46.91 23.1197 46.91H24.8789C25.0243 46.91 25.1422 46.843 25.1422 46.7604V41.1496C25.1422 41.067 25.0243 41 24.8789 41Z" fill="white" stroke="#77999E" stroke-width="0.211498" stroke-linejoin="round"/>
<path d="M27.1661 41H25.4068C25.2614 41 25.1436 41.067 25.1436 41.1496V46.7604C25.1436 46.843 25.2614 46.91 25.4068 46.91H27.1661C27.3114 46.91 27.4293 46.843 27.4293 46.7604V41.1496C27.4293 41.067 27.3114 41 27.1661 41Z" fill="white" stroke="#77999E" stroke-width="0.211498" stroke-linejoin="round"/>
<path d="M29.4512 41H27.692C27.5466 41 27.4287 41.067 27.4287 41.1496V46.7604C27.4287 46.843 27.5466 46.91 27.692 46.91H29.4512C29.5966 46.91 29.7144 46.843 29.7144 46.7604V41.1496C29.7144 41.067 29.5966 41 29.4512 41Z" fill="white" stroke="#77999E" stroke-width="0.211498" stroke-linejoin="round"/>
<path d="M31.7364 41H29.9771C29.8317 41 29.7139 41.067 29.7139 41.1496V46.7604C29.7139 46.843 29.8317 46.91 29.9771 46.91H31.7364C31.8817 46.91 31.9996 46.843 31.9996 46.7604V41.1496C31.9996 41.067 31.8817 41 31.7364 41Z" fill="white" stroke="#77999E" stroke-width="0.211498" stroke-linejoin="round"/>
<path d="M18.5572 41.0007H18.0201C17.8747 41.0007 17.7568 41.0677 17.7568 41.1504V44.3908C17.7568 44.4734 17.8747 44.5404 18.0201 44.5404H18.5572C18.7026 44.5404 18.8205 44.4734 18.8205 44.3908V41.1504C18.8205 41.0677 18.7026 41.0007 18.5572 41.0007Z" fill="#77999E" stroke="#77999E" stroke-width="0.215431" stroke-linejoin="round"/>
<path d="M20.8414 41.0007H20.3043C20.1589 41.0007 20.041 41.0677 20.041 41.1504V44.3908C20.041 44.4734 20.1589 44.5404 20.3043 44.5404H20.8414C20.9868 44.5404 21.1047 44.4734 21.1047 44.3908V41.1504C21.1047 41.0677 20.9868 41.0007 20.8414 41.0007Z" fill="#77999E" stroke="#77999E" stroke-width="0.215431" stroke-linejoin="round"/>
<path d="M25.4127 41.0007H24.8755C24.7302 41.0007 24.6123 41.0677 24.6123 41.1504V44.3908C24.6123 44.4734 24.7302 44.5404 24.8755 44.5404H25.4127C25.5581 44.5404 25.676 44.4734 25.676 44.3908V41.1504C25.676 41.0677 25.5581 41.0007 25.4127 41.0007Z" fill="#77999E" stroke="#77999E" stroke-width="0.215431" stroke-linejoin="round"/>
<path d="M27.6969 41.0007H27.1597C27.0143 41.0007 26.8965 41.0677 26.8965 41.1504V44.3908C26.8965 44.4734 27.0143 44.5404 27.1597 44.5404H27.6969C27.8423 44.5404 27.9601 44.4734 27.9601 44.3908V41.1504C27.9601 41.0677 27.8423 41.0007 27.6969 41.0007Z" fill="#77999E" stroke="#77999E" stroke-width="0.215431" stroke-linejoin="round"/>
<path d="M29.983 41.0007H29.4459C29.3005 41.0007 29.1826 41.0677 29.1826 41.1504V44.3908C29.1826 44.4734 29.3005 44.5404 29.4459 44.5404H29.983C30.1284 44.5404 30.2463 44.4734 30.2463 44.3908V41.1504C30.2463 41.0677 30.1284 41.0007 29.983 41.0007Z" fill="#77999E" stroke="#77999E" stroke-width="0.215431" stroke-linejoin="round"/>
<path d="M34.0225 41H32.2632C32.1179 41 32 41.067 32 41.1496V46.7604C32 46.843 32.1179 46.91 32.2632 46.91H34.0225C34.1679 46.91 34.2857 46.843 34.2857 46.7604V41.1496C34.2857 41.067 34.1679 41 34.0225 41Z" fill="white" stroke="#77999E" stroke-width="0.211498" stroke-linejoin="round"/>
<path d="M36.3086 41H34.5494C34.404 41 34.2861 41.067 34.2861 41.1496V46.7604C34.2861 46.843 34.404 46.91 34.5494 46.91H36.3086C36.454 46.91 36.5719 46.843 36.5719 46.7604V41.1496C36.5719 41.067 36.454 41 36.3086 41Z" fill="white" stroke="#77999E" stroke-width="0.211498" stroke-linejoin="round"/>
<path d="M38.5938 41H36.8345C36.6891 41 36.5713 41.067 36.5713 41.1496V46.7604C36.5713 46.843 36.6891 46.91 36.8345 46.91H38.5938C38.7392 46.91 38.857 46.843 38.857 46.7604V41.1496C38.857 41.067 38.7392 41 38.5938 41Z" fill="white" stroke="#77999E" stroke-width="0.211498" stroke-linejoin="round"/>
<path d="M40.8789 41H39.1197C38.9743 41 38.8564 41.067 38.8564 41.1496V46.7604C38.8564 46.843 38.9743 46.91 39.1197 46.91H40.8789C41.0243 46.91 41.1422 46.843 41.1422 46.7604V41.1496C41.1422 41.067 41.0243 41 40.8789 41Z" fill="white" stroke="#77999E" stroke-width="0.211498" stroke-linejoin="round"/>
<path d="M43.1661 41H41.4068C41.2614 41 41.1436 41.067 41.1436 41.1496V46.7604C41.1436 46.843 41.2614 46.91 41.4068 46.91H43.1661C43.3114 46.91 43.4293 46.843 43.4293 46.7604V41.1496C43.4293 41.067 43.3114 41 43.1661 41Z" fill="white" stroke="#77999E" stroke-width="0.211498" stroke-linejoin="round"/>
<path d="M45.4512 41H43.692C43.5466 41 43.4287 41.067 43.4287 41.1496V46.7604C43.4287 46.843 43.5466 46.91 43.692 46.91H45.4512C45.5966 46.91 45.7144 46.843 45.7144 46.7604V41.1496C45.7144 41.067 45.5966 41 45.4512 41Z" fill="white" stroke="#77999E" stroke-width="0.211498" stroke-linejoin="round"/>
<path d="M47.7364 41H45.9771C45.8317 41 45.7139 41.067 45.7139 41.1496V46.7604C45.7139 46.843 45.8317 46.91 45.9771 46.91H47.7364C47.8817 46.91 47.9996 46.843 47.9996 46.7604V41.1496C47.9996 41.067 47.8817 41 47.7364 41Z" fill="white" stroke="#77999E" stroke-width="0.211498" stroke-linejoin="round"/>
<path d="M34.5572 41.0007H34.0201C33.8747 41.0007 33.7568 41.0677 33.7568 41.1504V44.3908C33.7568 44.4734 33.8747 44.5404 34.0201 44.5404H34.5572C34.7026 44.5404 34.8205 44.4734 34.8205 44.3908V41.1504C34.8205 41.0677 34.7026 41.0007 34.5572 41.0007Z" fill="#77999E" stroke="#77999E" stroke-width="0.215431" stroke-linejoin="round"/>
<path d="M36.8414 41.0007H36.3043C36.1589 41.0007 36.041 41.0677 36.041 41.1504V44.3908C36.041 44.4734 36.1589 44.5404 36.3043 44.5404H36.8414C36.9868 44.5404 37.1047 44.4734 37.1047 44.3908V41.1504C37.1047 41.0677 36.9868 41.0007 36.8414 41.0007Z" fill="#77999E" stroke="#77999E" stroke-width="0.215431" stroke-linejoin="round"/>
<path d="M41.4127 41.0007H40.8755C40.7302 41.0007 40.6123 41.0677 40.6123 41.1504V44.3908C40.6123 44.4734 40.7302 44.5404 40.8755 44.5404H41.4127C41.5581 44.5404 41.676 44.4734 41.676 44.3908V41.1504C41.676 41.0677 41.5581 41.0007 41.4127 41.0007Z" fill="#77999E" stroke="#77999E" stroke-width="0.215431" stroke-linejoin="round"/>
<path d="M43.6969 41.0007H43.1597C43.0143 41.0007 42.8965 41.0677 42.8965 41.1504V44.3908C42.8965 44.4734 43.0143 44.5404 43.1597 44.5404H43.6969C43.8423 44.5404 43.9601 44.4734 43.9601 44.3908V41.1504C43.9601 41.0677 43.8423 41.0007 43.6969 41.0007Z" fill="#77999E" stroke="#77999E" stroke-width="0.215431" stroke-linejoin="round"/>
<path d="M45.983 41.0007H45.4459C45.3005 41.0007 45.1826 41.0677 45.1826 41.1504V44.3908C45.1826 44.4734 45.3005 44.5404 45.4459 44.5404H45.983C46.1284 44.5404 46.2463 44.4734 46.2463 44.3908V41.1504C46.2463 41.0677 46.1284 41.0007 45.983 41.0007Z" fill="#77999E" stroke="#77999E" stroke-width="0.215431" stroke-linejoin="round"/>
</svg>
