<svg width="64" height="64" viewBox="0 0 64 64" fill="none" xmlns="http://www.w3.org/2000/svg">
<circle cx="32" cy="32" r="31.5" fill="white" stroke="#11366A"/>
<path d="M40.3575 32.4473L40.375 32.4652L40.3925 32.4473L48.3644 24.2723C48.6867 23.9418 49.2092 23.9418 49.5315 24.2723L50.7336 25.505C51.0563 25.8359 51.0563 26.3727 50.7336 26.7037L40.9586 36.7277C40.6362 37.0582 40.1138 37.0582 39.7914 36.7276L34.2664 31.0619C33.9437 30.731 33.9437 30.1942 34.2664 29.8633L35.4685 28.6306C35.7908 28.3 36.3133 28.3 36.6356 28.6306L36.6531 28.6135L36.6356 28.6306L40.3575 32.4473Z" fill="#11366A" stroke="#11366A" stroke-width="0.0488281"/>
<path d="M33.6006 24.5C33.6006 28.6291 30.2541 31.9756 26.125 31.9756C21.9959 31.9756 18.6494 28.6291 18.6494 24.5C18.6494 20.3709 21.9959 17.0244 26.125 17.0244C30.2541 17.0244 33.6006 20.3709 33.6006 24.5ZM26.125 34.8369C27.6502 34.8369 29.0992 34.4971 30.4018 33.8994H31.375C35.7092 33.8994 39.2256 37.4158 39.2256 41.75V44.1875C39.2256 45.7268 37.9768 46.9756 36.4375 46.9756H15.8125C14.2732 46.9756 13.0244 45.7268 13.0244 44.1875V41.75C13.0244 37.4158 16.5408 33.8994 20.875 33.8994H21.8482C23.1566 34.4971 24.5998 34.8369 26.125 34.8369Z" fill="#6D93B1" stroke="#11366A" stroke-width="0.0488281"/>
</svg>
