<svg width="162" height="162" viewBox="0 0 162 162" fill="none" xmlns="http://www.w3.org/2000/svg">
<circle cx="81" cy="81" r="81" fill="white"/>
<circle cx="81" cy="81" r="80.5" stroke="#959595" stroke-opacity="0.2"/>
<circle cx="81" cy="81" r="81" fill="#11366A" fill-opacity="0.25"/>
<circle cx="81" cy="81" r="80.5" stroke="#959595" stroke-opacity="0.2"/>
<path d="M108.289 95.5581L95.1637 89.933C94.603 89.6941 93.9798 89.6437 93.388 89.7896C92.7962 89.9354 92.2678 90.2695 91.8824 90.7416L86.0698 97.8433C76.9474 93.5422 69.606 86.2009 65.305 77.0785L72.4066 71.2659C72.8797 70.8812 73.2145 70.3528 73.3604 69.7607C73.5063 69.1686 73.4554 68.5451 73.2152 67.9846L67.5901 54.8594C67.3266 54.2552 66.8605 53.7618 66.2722 53.4645C65.6839 53.1671 65.0102 53.0844 64.3674 53.2305L52.1797 56.043C51.56 56.1861 51.0071 56.5351 50.6112 57.0329C50.2153 57.5307 49.9999 58.148 50 58.7841C50 88.8432 74.3637 113.16 104.376 113.16C105.012 113.16 105.63 112.945 106.128 112.549C106.626 112.153 106.975 111.6 107.118 110.98L109.931 98.7926C110.076 98.1466 109.991 97.4703 109.692 96.88C109.392 96.2896 108.896 95.8222 108.289 95.5581Z" fill="#11366A"/>
<path d="M76.6685 55.3675C78.8693 56.9795 80.023 59.6676 79.6754 62.3733C79.5593 63.2767 78.6316 63.8363 77.7789 63.5164L76.8708 63.1759C76.2764 62.9531 75.9099 62.3613 75.9613 61.7286C76.0104 61.1191 75.9101 60.5067 75.6689 59.9447C75.4277 59.3828 75.053 58.8882 74.5773 58.5039C74.0832 58.1053 73.9068 57.4319 74.1547 56.8475L74.5335 55.9547C74.8891 55.1163 75.9338 54.8293 76.6685 55.3675ZM82.3384 41.3053C92.1244 46.2366 96.939 57.4685 93.7745 67.9507C93.5389 68.7312 92.6907 69.1487 91.9275 68.8625L91.0462 68.532C90.3531 68.2721 89.9774 67.5205 90.189 66.8112C92.788 58.103 88.7904 48.801 80.6945 44.6893C80.0345 44.354 79.7484 43.564 80.0376 42.8824L80.4051 42.016C80.7235 41.2656 81.6104 40.9384 82.3384 41.3053ZM79.4649 48.2698C85.4881 51.5919 88.4906 58.5705 86.7466 65.2359C86.5346 66.0463 85.6682 66.4959 84.884 66.2016L83.9996 65.8697C83.3307 65.6187 82.9485 64.9059 83.1249 64.2135C84.385 59.2648 82.1658 54.0949 77.7109 51.5993C77.0876 51.2502 76.8342 50.4822 77.113 49.8243L77.4817 48.9546C77.8086 48.1834 78.7314 47.8652 79.4649 48.2698Z" fill="#11366A"/>
</svg>
