<svg width="64" height="64" viewBox="0 0 64 64" fill="none" xmlns="http://www.w3.org/2000/svg">
<circle cx="32" cy="32" r="31.5" fill="white" stroke="#77999E"/>
<rect x="24.3955" y="27.4476" width="17.5263" height="18.3684" fill="#BBCCCE" stroke="#77999E"/>
<path d="M20 45C20 45.7956 20.3161 46.5587 20.8787 47.1213C21.4413 47.6839 22.2044 48 23 48H41C41.7956 48 42.5587 47.6839 43.1213 47.1213C43.6839 46.5587 44 45.7956 44 45V24H20V45ZM37 29C37 28.7348 37.1053 28.4804 37.2929 28.2929C37.4804 28.1054 37.7348 28 38 28C38.2652 28 38.5195 28.1054 38.7071 28.2929C38.8946 28.4804 39 28.7348 39 29V43C39 43.2652 38.8946 43.5196 38.7071 43.7071C38.5195 43.8946 38.2652 44 38 44C37.7348 44 37.4804 43.8946 37.2929 43.7071C37.1053 43.5196 37 43.2652 37 43V29ZM31 29C31 28.7348 31.1053 28.4804 31.2929 28.2929C31.4804 28.1054 31.7348 28 32 28C32.2652 28 32.5195 28.1054 32.7071 28.2929C32.8946 28.4804 33 28.7348 33 29V43C33 43.2652 32.8946 43.5196 32.7071 43.7071C32.5195 43.8946 32.2652 44 32 44C31.7348 44 31.4804 43.8946 31.2929 43.7071C31.1053 43.5196 31 43.2652 31 43V29ZM25 29C25 28.7348 25.1054 28.4804 25.2929 28.2929C25.4804 28.1054 25.7348 28 26 28C26.2652 28 26.5196 28.1054 26.7071 28.2929C26.8946 28.4804 27 28.7348 27 29V43C27 43.2652 26.8946 43.5196 26.7071 43.7071C26.5196 43.8946 26.2652 44 26 44C25.7348 44 25.4804 43.8946 25.2929 43.7071C25.1054 43.5196 25 43.2652 25 43V29ZM45 18H37.5L36.9125 16.8313C36.788 16.5814 36.5963 16.3712 36.3589 16.2244C36.1215 16.0775 35.8479 15.9998 35.5687 16H28.425C28.1465 15.9989 27.8733 16.0763 27.6368 16.2234C27.4002 16.3704 27.2098 16.5811 27.0875 16.8313L26.5 18H19C18.7348 18 18.4804 18.1054 18.2929 18.2929C18.1054 18.4804 18 18.7348 18 19V21C18 21.2652 18.1054 21.5196 18.2929 21.7071C18.4804 21.8947 18.7348 22 19 22H45C45.2652 22 45.5195 21.8947 45.7071 21.7071C45.8946 21.5196 46 21.2652 46 21V19C46 18.7348 45.8946 18.4804 45.7071 18.2929C45.5195 18.1054 45.2652 18 45 18Z" fill="#77999E"/>
<path d="M37.5 18H45C45.2652 18 45.5195 18.1054 45.7071 18.2929C45.8946 18.4804 46 18.7348 46 19V21C46 21.2652 45.8946 21.5196 45.7071 21.7071C45.5195 21.8947 45.2652 22 45 22H19C18.7348 22 18.4804 21.8947 18.2929 21.7071C18.1054 21.5196 18 21.2652 18 21V19C18 18.7348 18.1054 18.4804 18.2929 18.2929C18.4804 18.1054 18.7348 18 19 18H26.5L27.0875 16.8313C27.2098 16.5811 27.4002 16.3704 27.6368 16.2234C27.8733 16.0763 28.1465 15.9989 28.425 16H35.5687C35.8479 15.9998 36.1215 16.0775 36.3589 16.2244C36.5963 16.3712 36.788 16.5814 36.9125 16.8313L37.5 18Z" fill="#77999E"/>
<path d="M37.5 18H45C45.2652 18 45.5195 18.1054 45.7071 18.2929C45.8946 18.4804 46 18.7348 46 19V21C46 21.2652 45.8946 21.5196 45.7071 21.7071C45.5195 21.8947 45.2652 22 45 22H19C18.7348 22 18.4804 21.8947 18.2929 21.7071C18.1054 21.5196 18 21.2652 18 21V19C18 18.7348 18.1054 18.4804 18.2929 18.2929C18.4804 18.1054 18.7348 18 19 18H26.5L27.0875 16.8313C27.2098 16.5811 27.4002 16.3704 27.6368 16.2234C27.8733 16.0763 28.1465 15.9989 28.425 16H35.5687C35.8479 15.9998 36.1215 16.0775 36.3589 16.2244C36.5963 16.3712 36.788 16.5814 36.9125 16.8313L37.5 18Z" fill="#77999E"/>
<path d="M37.5 18H45C45.2652 18 45.5195 18.1054 45.7071 18.2929C45.8946 18.4804 46 18.7348 46 19V21C46 21.2652 45.8946 21.5196 45.7071 21.7071C45.5195 21.8947 45.2652 22 45 22H19C18.7348 22 18.4804 21.8947 18.2929 21.7071C18.1054 21.5196 18 21.2652 18 21V19C18 18.7348 18.1054 18.4804 18.2929 18.2929C18.4804 18.1054 18.7348 18 19 18H26.5L27.0875 16.8313C27.2098 16.5811 27.4002 16.3704 27.6368 16.2234C27.8733 16.0763 28.1465 15.9989 28.425 16H35.5687C35.8479 15.9998 36.1215 16.0775 36.3589 16.2244C36.5963 16.3712 36.788 16.5814 36.9125 16.8313L37.5 18Z" fill="#77999E"/>
<path d="M37.5 18H45C45.2652 18 45.5195 18.1054 45.7071 18.2929C45.8946 18.4804 46 18.7348 46 19V21C46 21.2652 45.8946 21.5196 45.7071 21.7071C45.5195 21.8947 45.2652 22 45 22H19C18.7348 22 18.4804 21.8947 18.2929 21.7071C18.1054 21.5196 18 21.2652 18 21V19C18 18.7348 18.1054 18.4804 18.2929 18.2929C18.4804 18.1054 18.7348 18 19 18H26.5L27.0875 16.8313C27.2098 16.5811 27.4002 16.3704 27.6368 16.2234C27.8733 16.0763 28.1465 15.9989 28.425 16H35.5687C35.8479 15.9998 36.1215 16.0775 36.3589 16.2244C36.5963 16.3712 36.788 16.5814 36.9125 16.8313L37.5 18Z" fill="#77999E"/>
<path d="M37.5 18H45C45.2652 18 45.5195 18.1054 45.7071 18.2929C45.8946 18.4804 46 18.7348 46 19V21C46 21.2652 45.8946 21.5196 45.7071 21.7071C45.5195 21.8947 45.2652 22 45 22H19C18.7348 22 18.4804 21.8947 18.2929 21.7071C18.1054 21.5196 18 21.2652 18 21V19C18 18.7348 18.1054 18.4804 18.2929 18.2929C18.4804 18.1054 18.7348 18 19 18H26.5L27.0875 16.8313C27.2098 16.5811 27.4002 16.3704 27.6368 16.2234C27.8733 16.0763 28.1465 15.9989 28.425 16H35.5687C35.8479 15.9998 36.1215 16.0775 36.3589 16.2244C36.5963 16.3712 36.788 16.5814 36.9125 16.8313L37.5 18Z" fill="#77999E"/>
<path d="M37.5 18H45C45.2652 18 45.5195 18.1054 45.7071 18.2929C45.8946 18.4804 46 18.7348 46 19V21C46 21.2652 45.8946 21.5196 45.7071 21.7071C45.5195 21.8947 45.2652 22 45 22H19C18.7348 22 18.4804 21.8947 18.2929 21.7071C18.1054 21.5196 18 21.2652 18 21V19C18 18.7348 18.1054 18.4804 18.2929 18.2929C18.4804 18.1054 18.7348 18 19 18H26.5L27.0875 16.8313C27.2098 16.5811 27.4002 16.3704 27.6368 16.2234C27.8733 16.0763 28.1465 15.9989 28.425 16H35.5687C35.8479 15.9998 36.1215 16.0775 36.3589 16.2244C36.5963 16.3712 36.788 16.5814 36.9125 16.8313L37.5 18Z" fill="#77999E"/>
<path d="M37.5 18H45C45.2652 18 45.5195 18.1054 45.7071 18.2929C45.8946 18.4804 46 18.7348 46 19V21C46 21.2652 45.8946 21.5196 45.7071 21.7071C45.5195 21.8947 45.2652 22 45 22H19C18.7348 22 18.4804 21.8947 18.2929 21.7071C18.1054 21.5196 18 21.2652 18 21V19C18 18.7348 18.1054 18.4804 18.2929 18.2929C18.4804 18.1054 18.7348 18 19 18H26.5L27.0875 16.8313C27.2098 16.5811 27.4002 16.3704 27.6368 16.2234C27.8733 16.0763 28.1465 15.9989 28.425 16H35.5687C35.8479 15.9998 36.1215 16.0775 36.3589 16.2244C36.5963 16.3712 36.788 16.5814 36.9125 16.8313L37.5 18Z" fill="#77999E"/>
<path d="M37.5 18H45C45.2652 18 45.5195 18.1054 45.7071 18.2929C45.8946 18.4804 46 18.7348 46 19V21C46 21.2652 45.8946 21.5196 45.7071 21.7071C45.5195 21.8947 45.2652 22 45 22H19C18.7348 22 18.4804 21.8947 18.2929 21.7071C18.1054 21.5196 18 21.2652 18 21V19C18 18.7348 18.1054 18.4804 18.2929 18.2929C18.4804 18.1054 18.7348 18 19 18H26.5L27.0875 16.8313C27.2098 16.5811 27.4002 16.3704 27.6368 16.2234C27.8733 16.0763 28.1465 15.9989 28.425 16H35.5687C35.8479 15.9998 36.1215 16.0775 36.3589 16.2244C36.5963 16.3712 36.788 16.5814 36.9125 16.8313L37.5 18Z" fill="#77999E"/>
<path d="M37.5 18H45C45.2652 18 45.5195 18.1054 45.7071 18.2929C45.8946 18.4804 46 18.7348 46 19V21C46 21.2652 45.8946 21.5196 45.7071 21.7071C45.5195 21.8947 45.2652 22 45 22H19C18.7348 22 18.4804 21.8947 18.2929 21.7071C18.1054 21.5196 18 21.2652 18 21V19C18 18.7348 18.1054 18.4804 18.2929 18.2929C18.4804 18.1054 18.7348 18 19 18H26.5L27.0875 16.8313C27.2098 16.5811 27.4002 16.3704 27.6368 16.2234C27.8733 16.0763 28.1465 15.9989 28.425 16H35.5687C35.8479 15.9998 36.1215 16.0775 36.3589 16.2244C36.5963 16.3712 36.788 16.5814 36.9125 16.8313L37.5 18Z" fill="#77999E"/>
<path d="M37.5 18H45C45.2652 18 45.5195 18.1054 45.7071 18.2929C45.8946 18.4804 46 18.7348 46 19V21C46 21.2652 45.8946 21.5196 45.7071 21.7071C45.5195 21.8947 45.2652 22 45 22H19C18.7348 22 18.4804 21.8947 18.2929 21.7071C18.1054 21.5196 18 21.2652 18 21V19C18 18.7348 18.1054 18.4804 18.2929 18.2929C18.4804 18.1054 18.7348 18 19 18H26.5L27.0875 16.8313C27.2098 16.5811 27.4002 16.3704 27.6368 16.2234C27.8733 16.0763 28.1465 15.9989 28.425 16H35.5687C35.8479 15.9998 36.1215 16.0775 36.3589 16.2244C36.5963 16.3712 36.788 16.5814 36.9125 16.8313L37.5 18Z" fill="#77999E"/>
<path d="M37.5 18H45C45.2652 18 45.5195 18.1054 45.7071 18.2929C45.8946 18.4804 46 18.7348 46 19V21C46 21.2652 45.8946 21.5196 45.7071 21.7071C45.5195 21.8947 45.2652 22 45 22H19C18.7348 22 18.4804 21.8947 18.2929 21.7071C18.1054 21.5196 18 21.2652 18 21V19C18 18.7348 18.1054 18.4804 18.2929 18.2929C18.4804 18.1054 18.7348 18 19 18H26.5L27.0875 16.8313C27.2098 16.5811 27.4002 16.3704 27.6368 16.2234C27.8733 16.0763 28.1465 15.9989 28.425 16H35.5687C35.8479 15.9998 36.1215 16.0775 36.3589 16.2244C36.5963 16.3712 36.788 16.5814 36.9125 16.8313L37.5 18Z" fill="#77999E"/>
<path d="M37.5 18H45C45.2652 18 45.5195 18.1054 45.7071 18.2929C45.8946 18.4804 46 18.7348 46 19V21C46 21.2652 45.8946 21.5196 45.7071 21.7071C45.5195 21.8947 45.2652 22 45 22H19C18.7348 22 18.4804 21.8947 18.2929 21.7071C18.1054 21.5196 18 21.2652 18 21V19C18 18.7348 18.1054 18.4804 18.2929 18.2929C18.4804 18.1054 18.7348 18 19 18H26.5L27.0875 16.8313C27.2098 16.5811 27.4002 16.3704 27.6368 16.2234C27.8733 16.0763 28.1465 15.9989 28.425 16H35.5687C35.8479 15.9998 36.1215 16.0775 36.3589 16.2244C36.5963 16.3712 36.788 16.5814 36.9125 16.8313L37.5 18Z" fill="#77999E"/>
<path d="M37.5 18H45C45.2652 18 45.5195 18.1054 45.7071 18.2929C45.8946 18.4804 46 18.7348 46 19V21C46 21.2652 45.8946 21.5196 45.7071 21.7071C45.5195 21.8947 45.2652 22 45 22H19C18.7348 22 18.4804 21.8947 18.2929 21.7071C18.1054 21.5196 18 21.2652 18 21V19C18 18.7348 18.1054 18.4804 18.2929 18.2929C18.4804 18.1054 18.7348 18 19 18H26.5L27.0875 16.8313C27.2098 16.5811 27.4002 16.3704 27.6368 16.2234C27.8733 16.0763 28.1465 15.9989 28.425 16H35.5687C35.8479 15.9998 36.1215 16.0775 36.3589 16.2244C36.5963 16.3712 36.788 16.5814 36.9125 16.8313L37.5 18Z" fill="#77999E"/>
<path d="M37.5 18H45C45.2652 18 45.5195 18.1054 45.7071 18.2929C45.8946 18.4804 46 18.7348 46 19V21C46 21.2652 45.8946 21.5196 45.7071 21.7071C45.5195 21.8947 45.2652 22 45 22H19C18.7348 22 18.4804 21.8947 18.2929 21.7071C18.1054 21.5196 18 21.2652 18 21V19C18 18.7348 18.1054 18.4804 18.2929 18.2929C18.4804 18.1054 18.7348 18 19 18H26.5L27.0875 16.8313C27.2098 16.5811 27.4002 16.3704 27.6368 16.2234C27.8733 16.0763 28.1465 15.9989 28.425 16H35.5687C35.8479 15.9998 36.1215 16.0775 36.3589 16.2244C36.5963 16.3712 36.788 16.5814 36.9125 16.8313L37.5 18Z" fill="#77999E"/>
<path d="M37.5 18H45C45.2652 18 45.5195 18.1054 45.7071 18.2929C45.8946 18.4804 46 18.7348 46 19V21C46 21.2652 45.8946 21.5196 45.7071 21.7071C45.5195 21.8947 45.2652 22 45 22H19C18.7348 22 18.4804 21.8947 18.2929 21.7071C18.1054 21.5196 18 21.2652 18 21V19C18 18.7348 18.1054 18.4804 18.2929 18.2929C18.4804 18.1054 18.7348 18 19 18H26.5L27.0875 16.8313C27.2098 16.5811 27.4002 16.3704 27.6368 16.2234C27.8733 16.0763 28.1465 15.9989 28.425 16H35.5687C35.8479 15.9998 36.1215 16.0775 36.3589 16.2244C36.5963 16.3712 36.788 16.5814 36.9125 16.8313L37.5 18Z" fill="#77999E"/>
<path d="M37.5 18H45C45.2652 18 45.5195 18.1054 45.7071 18.2929C45.8946 18.4804 46 18.7348 46 19V21C46 21.2652 45.8946 21.5196 45.7071 21.7071C45.5195 21.8947 45.2652 22 45 22H19C18.7348 22 18.4804 21.8947 18.2929 21.7071C18.1054 21.5196 18 21.2652 18 21V19C18 18.7348 18.1054 18.4804 18.2929 18.2929C18.4804 18.1054 18.7348 18 19 18H26.5L27.0875 16.8313C27.2098 16.5811 27.4002 16.3704 27.6368 16.2234C27.8733 16.0763 28.1465 15.9989 28.425 16H35.5687C35.8479 15.9998 36.1215 16.0775 36.3589 16.2244C36.5963 16.3712 36.788 16.5814 36.9125 16.8313L37.5 18Z" fill="#77999E"/>
<path d="M20 45C20 45.7956 20.3161 46.5587 20.8787 47.1213C21.4413 47.6839 22.2044 48 23 48H41C41.7956 48 42.5587 47.6839 43.1213 47.1213C43.6839 46.5587 44 45.7956 44 45V24H20V45ZM37 29C37 28.7348 37.1053 28.4804 37.2929 28.2929C37.4804 28.1054 37.7348 28 38 28C38.2652 28 38.5195 28.1054 38.7071 28.2929C38.8946 28.4804 39 28.7348 39 29V43C39 43.2652 38.8946 43.5196 38.7071 43.7071C38.5195 43.8946 38.2652 44 38 44C37.7348 44 37.4804 43.8946 37.2929 43.7071C37.1053 43.5196 37 43.2652 37 43V29ZM31 29C31 28.7348 31.1053 28.4804 31.2929 28.2929C31.4804 28.1054 31.7348 28 32 28C32.2652 28 32.5195 28.1054 32.7071 28.2929C32.8946 28.4804 33 28.7348 33 29V43C33 43.2652 32.8946 43.5196 32.7071 43.7071C32.5195 43.8946 32.2652 44 32 44C31.7348 44 31.4804 43.8946 31.2929 43.7071C31.1053 43.5196 31 43.2652 31 43V29ZM25 29C25 28.7348 25.1054 28.4804 25.2929 28.2929C25.4804 28.1054 25.7348 28 26 28C26.2652 28 26.5196 28.1054 26.7071 28.2929C26.8946 28.4804 27 28.7348 27 29V43C27 43.2652 26.8946 43.5196 26.7071 43.7071C26.5196 43.8946 26.2652 44 26 44C25.7348 44 25.4804 43.8946 25.2929 43.7071C25.1054 43.5196 25 43.2652 25 43V29ZM45 18H37.5L36.9125 16.8313C36.788 16.5814 36.5963 16.3712 36.3589 16.2244C36.1215 16.0775 35.8479 15.9998 35.5687 16H28.425C28.1465 15.9989 27.8733 16.0763 27.6368 16.2234C27.4002 16.3704 27.2098 16.5811 27.0875 16.8313L26.5 18H19C18.7348 18 18.4804 18.1054 18.2929 18.2929C18.1054 18.4804 18 18.7348 18 19V21C18 21.2652 18.1054 21.5196 18.2929 21.7071C18.4804 21.8947 18.7348 22 19 22H45C45.2652 22 45.5195 21.8947 45.7071 21.7071C45.8946 21.5196 46 21.2652 46 21V19C46 18.7348 45.8946 18.4804 45.7071 18.2929C45.5195 18.1054 45.2652 18 45 18Z" fill="#77999E"/>
<path d="M37.5 18H45C45.2652 18 45.5195 18.1054 45.7071 18.2929C45.8946 18.4804 46 18.7348 46 19V21C46 21.2652 45.8946 21.5196 45.7071 21.7071C45.5195 21.8947 45.2652 22 45 22H19C18.7348 22 18.4804 21.8947 18.2929 21.7071C18.1054 21.5196 18 21.2652 18 21V19C18 18.7348 18.1054 18.4804 18.2929 18.2929C18.4804 18.1054 18.7348 18 19 18H26.5L27.0875 16.8313C27.2098 16.5811 27.4002 16.3704 27.6368 16.2234C27.8733 16.0763 28.1465 15.9989 28.425 16H35.5687C35.8479 15.9998 36.1215 16.0775 36.3589 16.2244C36.5963 16.3712 36.788 16.5814 36.9125 16.8313L37.5 18Z" fill="#77999E"/>
<path d="M37.5 18H45C45.2652 18 45.5195 18.1054 45.7071 18.2929C45.8946 18.4804 46 18.7348 46 19V21C46 21.2652 45.8946 21.5196 45.7071 21.7071C45.5195 21.8947 45.2652 22 45 22H19C18.7348 22 18.4804 21.8947 18.2929 21.7071C18.1054 21.5196 18 21.2652 18 21V19C18 18.7348 18.1054 18.4804 18.2929 18.2929C18.4804 18.1054 18.7348 18 19 18H26.5L27.0875 16.8313C27.2098 16.5811 27.4002 16.3704 27.6368 16.2234C27.8733 16.0763 28.1465 15.9989 28.425 16H35.5687C35.8479 15.9998 36.1215 16.0775 36.3589 16.2244C36.5963 16.3712 36.788 16.5814 36.9125 16.8313L37.5 18Z" fill="#77999E"/>
<path d="M37.5 18H45C45.2652 18 45.5195 18.1054 45.7071 18.2929C45.8946 18.4804 46 18.7348 46 19V21C46 21.2652 45.8946 21.5196 45.7071 21.7071C45.5195 21.8947 45.2652 22 45 22H19C18.7348 22 18.4804 21.8947 18.2929 21.7071C18.1054 21.5196 18 21.2652 18 21V19C18 18.7348 18.1054 18.4804 18.2929 18.2929C18.4804 18.1054 18.7348 18 19 18H26.5L27.0875 16.8313C27.2098 16.5811 27.4002 16.3704 27.6368 16.2234C27.8733 16.0763 28.1465 15.9989 28.425 16H35.5687C35.8479 15.9998 36.1215 16.0775 36.3589 16.2244C36.5963 16.3712 36.788 16.5814 36.9125 16.8313L37.5 18Z" fill="#77999E"/>
<path d="M37.5 18H45C45.2652 18 45.5195 18.1054 45.7071 18.2929C45.8946 18.4804 46 18.7348 46 19V21C46 21.2652 45.8946 21.5196 45.7071 21.7071C45.5195 21.8947 45.2652 22 45 22H19C18.7348 22 18.4804 21.8947 18.2929 21.7071C18.1054 21.5196 18 21.2652 18 21V19C18 18.7348 18.1054 18.4804 18.2929 18.2929C18.4804 18.1054 18.7348 18 19 18H26.5L27.0875 16.8313C27.2098 16.5811 27.4002 16.3704 27.6368 16.2234C27.8733 16.0763 28.1465 15.9989 28.425 16H35.5687C35.8479 15.9998 36.1215 16.0775 36.3589 16.2244C36.5963 16.3712 36.788 16.5814 36.9125 16.8313L37.5 18Z" fill="#77999E"/>
<path d="M37.5 18H45C45.2652 18 45.5195 18.1054 45.7071 18.2929C45.8946 18.4804 46 18.7348 46 19V21C46 21.2652 45.8946 21.5196 45.7071 21.7071C45.5195 21.8947 45.2652 22 45 22H19C18.7348 22 18.4804 21.8947 18.2929 21.7071C18.1054 21.5196 18 21.2652 18 21V19C18 18.7348 18.1054 18.4804 18.2929 18.2929C18.4804 18.1054 18.7348 18 19 18H26.5L27.0875 16.8313C27.2098 16.5811 27.4002 16.3704 27.6368 16.2234C27.8733 16.0763 28.1465 15.9989 28.425 16H35.5687C35.8479 15.9998 36.1215 16.0775 36.3589 16.2244C36.5963 16.3712 36.788 16.5814 36.9125 16.8313L37.5 18Z" fill="#77999E"/>
<path d="M37.5 18H45C45.2652 18 45.5195 18.1054 45.7071 18.2929C45.8946 18.4804 46 18.7348 46 19V21C46 21.2652 45.8946 21.5196 45.7071 21.7071C45.5195 21.8947 45.2652 22 45 22H19C18.7348 22 18.4804 21.8947 18.2929 21.7071C18.1054 21.5196 18 21.2652 18 21V19C18 18.7348 18.1054 18.4804 18.2929 18.2929C18.4804 18.1054 18.7348 18 19 18H26.5L27.0875 16.8313C27.2098 16.5811 27.4002 16.3704 27.6368 16.2234C27.8733 16.0763 28.1465 15.9989 28.425 16H35.5687C35.8479 15.9998 36.1215 16.0775 36.3589 16.2244C36.5963 16.3712 36.788 16.5814 36.9125 16.8313L37.5 18Z" fill="#77999E"/>
<path d="M37.5 18H45C45.2652 18 45.5195 18.1054 45.7071 18.2929C45.8946 18.4804 46 18.7348 46 19V21C46 21.2652 45.8946 21.5196 45.7071 21.7071C45.5195 21.8947 45.2652 22 45 22H19C18.7348 22 18.4804 21.8947 18.2929 21.7071C18.1054 21.5196 18 21.2652 18 21V19C18 18.7348 18.1054 18.4804 18.2929 18.2929C18.4804 18.1054 18.7348 18 19 18H26.5L27.0875 16.8313C27.2098 16.5811 27.4002 16.3704 27.6368 16.2234C27.8733 16.0763 28.1465 15.9989 28.425 16H35.5687C35.8479 15.9998 36.1215 16.0775 36.3589 16.2244C36.5963 16.3712 36.788 16.5814 36.9125 16.8313L37.5 18Z" fill="#77999E"/>
<path d="M37.5 18H45C45.2652 18 45.5195 18.1054 45.7071 18.2929C45.8946 18.4804 46 18.7348 46 19V21C46 21.2652 45.8946 21.5196 45.7071 21.7071C45.5195 21.8947 45.2652 22 45 22H19C18.7348 22 18.4804 21.8947 18.2929 21.7071C18.1054 21.5196 18 21.2652 18 21V19C18 18.7348 18.1054 18.4804 18.2929 18.2929C18.4804 18.1054 18.7348 18 19 18H26.5L27.0875 16.8313C27.2098 16.5811 27.4002 16.3704 27.6368 16.2234C27.8733 16.0763 28.1465 15.9989 28.425 16H35.5687C35.8479 15.9998 36.1215 16.0775 36.3589 16.2244C36.5963 16.3712 36.788 16.5814 36.9125 16.8313L37.5 18Z" fill="#77999E"/>
<path d="M37.5 18H45C45.2652 18 45.5195 18.1054 45.7071 18.2929C45.8946 18.4804 46 18.7348 46 19V21C46 21.2652 45.8946 21.5196 45.7071 21.7071C45.5195 21.8947 45.2652 22 45 22H19C18.7348 22 18.4804 21.8947 18.2929 21.7071C18.1054 21.5196 18 21.2652 18 21V19C18 18.7348 18.1054 18.4804 18.2929 18.2929C18.4804 18.1054 18.7348 18 19 18H26.5L27.0875 16.8313C27.2098 16.5811 27.4002 16.3704 27.6368 16.2234C27.8733 16.0763 28.1465 15.9989 28.425 16H35.5687C35.8479 15.9998 36.1215 16.0775 36.3589 16.2244C36.5963 16.3712 36.788 16.5814 36.9125 16.8313L37.5 18Z" fill="#77999E"/>
<path d="M37.5 18H45C45.2652 18 45.5195 18.1054 45.7071 18.2929C45.8946 18.4804 46 18.7348 46 19V21C46 21.2652 45.8946 21.5196 45.7071 21.7071C45.5195 21.8947 45.2652 22 45 22H19C18.7348 22 18.4804 21.8947 18.2929 21.7071C18.1054 21.5196 18 21.2652 18 21V19C18 18.7348 18.1054 18.4804 18.2929 18.2929C18.4804 18.1054 18.7348 18 19 18H26.5L27.0875 16.8313C27.2098 16.5811 27.4002 16.3704 27.6368 16.2234C27.8733 16.0763 28.1465 15.9989 28.425 16H35.5687C35.8479 15.9998 36.1215 16.0775 36.3589 16.2244C36.5963 16.3712 36.788 16.5814 36.9125 16.8313L37.5 18Z" fill="#77999E"/>
<path d="M37.5 18H45C45.2652 18 45.5195 18.1054 45.7071 18.2929C45.8946 18.4804 46 18.7348 46 19V21C46 21.2652 45.8946 21.5196 45.7071 21.7071C45.5195 21.8947 45.2652 22 45 22H19C18.7348 22 18.4804 21.8947 18.2929 21.7071C18.1054 21.5196 18 21.2652 18 21V19C18 18.7348 18.1054 18.4804 18.2929 18.2929C18.4804 18.1054 18.7348 18 19 18H26.5L27.0875 16.8313C27.2098 16.5811 27.4002 16.3704 27.6368 16.2234C27.8733 16.0763 28.1465 15.9989 28.425 16H35.5687C35.8479 15.9998 36.1215 16.0775 36.3589 16.2244C36.5963 16.3712 36.788 16.5814 36.9125 16.8313L37.5 18Z" fill="#77999E"/>
<path d="M37.5 18H45C45.2652 18 45.5195 18.1054 45.7071 18.2929C45.8946 18.4804 46 18.7348 46 19V21C46 21.2652 45.8946 21.5196 45.7071 21.7071C45.5195 21.8947 45.2652 22 45 22H19C18.7348 22 18.4804 21.8947 18.2929 21.7071C18.1054 21.5196 18 21.2652 18 21V19C18 18.7348 18.1054 18.4804 18.2929 18.2929C18.4804 18.1054 18.7348 18 19 18H26.5L27.0875 16.8313C27.2098 16.5811 27.4002 16.3704 27.6368 16.2234C27.8733 16.0763 28.1465 15.9989 28.425 16H35.5687C35.8479 15.9998 36.1215 16.0775 36.3589 16.2244C36.5963 16.3712 36.788 16.5814 36.9125 16.8313L37.5 18Z" fill="#77999E"/>
<path d="M37.5 18H45C45.2652 18 45.5195 18.1054 45.7071 18.2929C45.8946 18.4804 46 18.7348 46 19V21C46 21.2652 45.8946 21.5196 45.7071 21.7071C45.5195 21.8947 45.2652 22 45 22H19C18.7348 22 18.4804 21.8947 18.2929 21.7071C18.1054 21.5196 18 21.2652 18 21V19C18 18.7348 18.1054 18.4804 18.2929 18.2929C18.4804 18.1054 18.7348 18 19 18H26.5L27.0875 16.8313C27.2098 16.5811 27.4002 16.3704 27.6368 16.2234C27.8733 16.0763 28.1465 15.9989 28.425 16H35.5687C35.8479 15.9998 36.1215 16.0775 36.3589 16.2244C36.5963 16.3712 36.788 16.5814 36.9125 16.8313L37.5 18Z" fill="#77999E"/>
<path d="M37.5 18H45C45.2652 18 45.5195 18.1054 45.7071 18.2929C45.8946 18.4804 46 18.7348 46 19V21C46 21.2652 45.8946 21.5196 45.7071 21.7071C45.5195 21.8947 45.2652 22 45 22H19C18.7348 22 18.4804 21.8947 18.2929 21.7071C18.1054 21.5196 18 21.2652 18 21V19C18 18.7348 18.1054 18.4804 18.2929 18.2929C18.4804 18.1054 18.7348 18 19 18H26.5L27.0875 16.8313C27.2098 16.5811 27.4002 16.3704 27.6368 16.2234C27.8733 16.0763 28.1465 15.9989 28.425 16H35.5687C35.8479 15.9998 36.1215 16.0775 36.3589 16.2244C36.5963 16.3712 36.788 16.5814 36.9125 16.8313L37.5 18Z" fill="#77999E"/>
<path d="M37.5 18H45C45.2652 18 45.5195 18.1054 45.7071 18.2929C45.8946 18.4804 46 18.7348 46 19V21C46 21.2652 45.8946 21.5196 45.7071 21.7071C45.5195 21.8947 45.2652 22 45 22H19C18.7348 22 18.4804 21.8947 18.2929 21.7071C18.1054 21.5196 18 21.2652 18 21V19C18 18.7348 18.1054 18.4804 18.2929 18.2929C18.4804 18.1054 18.7348 18 19 18H26.5L27.0875 16.8313C27.2098 16.5811 27.4002 16.3704 27.6368 16.2234C27.8733 16.0763 28.1465 15.9989 28.425 16H35.5687C35.8479 15.9998 36.1215 16.0775 36.3589 16.2244C36.5963 16.3712 36.788 16.5814 36.9125 16.8313L37.5 18Z" fill="#77999E"/>
<path d="M37.5 18H45C45.2652 18 45.5195 18.1054 45.7071 18.2929C45.8946 18.4804 46 18.7348 46 19V21C46 21.2652 45.8946 21.5196 45.7071 21.7071C45.5195 21.8947 45.2652 22 45 22H19C18.7348 22 18.4804 21.8947 18.2929 21.7071C18.1054 21.5196 18 21.2652 18 21V19C18 18.7348 18.1054 18.4804 18.2929 18.2929C18.4804 18.1054 18.7348 18 19 18H26.5L27.0875 16.8313C27.2098 16.5811 27.4002 16.3704 27.6368 16.2234C27.8733 16.0763 28.1465 15.9989 28.425 16H35.5687C35.8479 15.9998 36.1215 16.0775 36.3589 16.2244C36.5963 16.3712 36.788 16.5814 36.9125 16.8313L37.5 18Z" fill="#77999E"/>
<path d="M37.5 18H45C45.2652 18 45.5195 18.1054 45.7071 18.2929C45.8946 18.4804 46 18.7348 46 19V21C46 21.2652 45.8946 21.5196 45.7071 21.7071C45.5195 21.8947 45.2652 22 45 22H19C18.7348 22 18.4804 21.8947 18.2929 21.7071C18.1054 21.5196 18 21.2652 18 21V19C18 18.7348 18.1054 18.4804 18.2929 18.2929C18.4804 18.1054 18.7348 18 19 18H26.5L27.0875 16.8313C27.2098 16.5811 27.4002 16.3704 27.6368 16.2234C27.8733 16.0763 28.1465 15.9989 28.425 16H35.5687C35.8479 15.9998 36.1215 16.0775 36.3589 16.2244C36.5963 16.3712 36.788 16.5814 36.9125 16.8313L37.5 18Z" fill="#77999E"/>
<path d="M37.5 18H45C45.2652 18 45.5195 18.1054 45.7071 18.2929C45.8946 18.4804 46 18.7348 46 19V21C46 21.2652 45.8946 21.5196 45.7071 21.7071C45.5195 21.8947 45.2652 22 45 22H19C18.7348 22 18.4804 21.8947 18.2929 21.7071C18.1054 21.5196 18 21.2652 18 21V19C18 18.7348 18.1054 18.4804 18.2929 18.2929C18.4804 18.1054 18.7348 18 19 18H26.5L27.0875 16.8313C27.2098 16.5811 27.4002 16.3704 27.6368 16.2234C27.8733 16.0763 28.1465 15.9989 28.425 16H35.5687C35.8479 15.9998 36.1215 16.0775 36.3589 16.2244C36.5963 16.3712 36.788 16.5814 36.9125 16.8313L37.5 18Z" fill="#77999E"/>
<path d="M37.5 18H45C45.2652 18 45.5195 18.1054 45.7071 18.2929C45.8946 18.4804 46 18.7348 46 19V21C46 21.2652 45.8946 21.5196 45.7071 21.7071C45.5195 21.8947 45.2652 22 45 22H19C18.7348 22 18.4804 21.8947 18.2929 21.7071C18.1054 21.5196 18 21.2652 18 21V19C18 18.7348 18.1054 18.4804 18.2929 18.2929C18.4804 18.1054 18.7348 18 19 18H26.5L27.0875 16.8313C27.2098 16.5811 27.4002 16.3704 27.6368 16.2234C27.8733 16.0763 28.1465 15.9989 28.425 16H35.5687C35.8479 15.9998 36.1215 16.0775 36.3589 16.2244C36.5963 16.3712 36.788 16.5814 36.9125 16.8313L37.5 18Z" fill="#77999E"/>
<path d="M37.5 18H45C45.2652 18 45.5195 18.1054 45.7071 18.2929C45.8946 18.4804 46 18.7348 46 19V21C46 21.2652 45.8946 21.5196 45.7071 21.7071C45.5195 21.8947 45.2652 22 45 22H19C18.7348 22 18.4804 21.8947 18.2929 21.7071C18.1054 21.5196 18 21.2652 18 21V19C18 18.7348 18.1054 18.4804 18.2929 18.2929C18.4804 18.1054 18.7348 18 19 18H26.5L27.0875 16.8313C27.2098 16.5811 27.4002 16.3704 27.6368 16.2234C27.8733 16.0763 28.1465 15.9989 28.425 16H35.5687C35.8479 15.9998 36.1215 16.0775 36.3589 16.2244C36.5963 16.3712 36.788 16.5814 36.9125 16.8313L37.5 18Z" fill="#77999E"/>
<path d="M37.5 18H45C45.2652 18 45.5195 18.1054 45.7071 18.2929C45.8946 18.4804 46 18.7348 46 19V21C46 21.2652 45.8946 21.5196 45.7071 21.7071C45.5195 21.8947 45.2652 22 45 22H19C18.7348 22 18.4804 21.8947 18.2929 21.7071C18.1054 21.5196 18 21.2652 18 21V19C18 18.7348 18.1054 18.4804 18.2929 18.2929C18.4804 18.1054 18.7348 18 19 18H26.5L27.0875 16.8313C27.2098 16.5811 27.4002 16.3704 27.6368 16.2234C27.8733 16.0763 28.1465 15.9989 28.425 16H35.5687C35.8479 15.9998 36.1215 16.0775 36.3589 16.2244C36.5963 16.3712 36.788 16.5814 36.9125 16.8313L37.5 18Z" fill="#77999E"/>
<path d="M37.5 18H45C45.2652 18 45.5195 18.1054 45.7071 18.2929C45.8946 18.4804 46 18.7348 46 19V21C46 21.2652 45.8946 21.5196 45.7071 21.7071C45.5195 21.8947 45.2652 22 45 22H19C18.7348 22 18.4804 21.8947 18.2929 21.7071C18.1054 21.5196 18 21.2652 18 21V19C18 18.7348 18.1054 18.4804 18.2929 18.2929C18.4804 18.1054 18.7348 18 19 18H26.5L27.0875 16.8313C27.2098 16.5811 27.4002 16.3704 27.6368 16.2234C27.8733 16.0763 28.1465 15.9989 28.425 16H35.5687C35.8479 15.9998 36.1215 16.0775 36.3589 16.2244C36.5963 16.3712 36.788 16.5814 36.9125 16.8313L37.5 18Z" fill="#77999E"/>
<path d="M37.5 18H45C45.2652 18 45.5195 18.1054 45.7071 18.2929C45.8946 18.4804 46 18.7348 46 19V21C46 21.2652 45.8946 21.5196 45.7071 21.7071C45.5195 21.8947 45.2652 22 45 22H19C18.7348 22 18.4804 21.8947 18.2929 21.7071C18.1054 21.5196 18 21.2652 18 21V19C18 18.7348 18.1054 18.4804 18.2929 18.2929C18.4804 18.1054 18.7348 18 19 18H26.5L27.0875 16.8313C27.2098 16.5811 27.4002 16.3704 27.6368 16.2234C27.8733 16.0763 28.1465 15.9989 28.425 16H35.5687C35.8479 15.9998 36.1215 16.0775 36.3589 16.2244C36.5963 16.3712 36.788 16.5814 36.9125 16.8313L37.5 18Z" fill="#77999E"/>
<path d="M37.5 18H45C45.2652 18 45.5195 18.1054 45.7071 18.2929C45.8946 18.4804 46 18.7348 46 19V21C46 21.2652 45.8946 21.5196 45.7071 21.7071C45.5195 21.8947 45.2652 22 45 22H19C18.7348 22 18.4804 21.8947 18.2929 21.7071C18.1054 21.5196 18 21.2652 18 21V19C18 18.7348 18.1054 18.4804 18.2929 18.2929C18.4804 18.1054 18.7348 18 19 18H26.5L27.0875 16.8313C27.2098 16.5811 27.4002 16.3704 27.6368 16.2234C27.8733 16.0763 28.1465 15.9989 28.425 16H35.5687C35.8479 15.9998 36.1215 16.0775 36.3589 16.2244C36.5963 16.3712 36.788 16.5814 36.9125 16.8313L37.5 18Z" fill="#77999E"/>
<path d="M37.5 18H45C45.2652 18 45.5195 18.1054 45.7071 18.2929C45.8946 18.4804 46 18.7348 46 19V21C46 21.2652 45.8946 21.5196 45.7071 21.7071C45.5195 21.8947 45.2652 22 45 22H19C18.7348 22 18.4804 21.8947 18.2929 21.7071C18.1054 21.5196 18 21.2652 18 21V19C18 18.7348 18.1054 18.4804 18.2929 18.2929C18.4804 18.1054 18.7348 18 19 18H26.5L27.0875 16.8313C27.2098 16.5811 27.4002 16.3704 27.6368 16.2234C27.8733 16.0763 28.1465 15.9989 28.425 16H35.5687C35.8479 15.9998 36.1215 16.0775 36.3589 16.2244C36.5963 16.3712 36.788 16.5814 36.9125 16.8313L37.5 18Z" fill="#77999E"/>
<path d="M37.5 18H45C45.2652 18 45.5195 18.1054 45.7071 18.2929C45.8946 18.4804 46 18.7348 46 19V21C46 21.2652 45.8946 21.5196 45.7071 21.7071C45.5195 21.8947 45.2652 22 45 22H19C18.7348 22 18.4804 21.8947 18.2929 21.7071C18.1054 21.5196 18 21.2652 18 21V19C18 18.7348 18.1054 18.4804 18.2929 18.2929C18.4804 18.1054 18.7348 18 19 18H26.5L27.0875 16.8313C27.2098 16.5811 27.4002 16.3704 27.6368 16.2234C27.8733 16.0763 28.1465 15.9989 28.425 16H35.5687C35.8479 15.9998 36.1215 16.0775 36.3589 16.2244C36.5963 16.3712 36.788 16.5814 36.9125 16.8313L37.5 18Z" fill="#77999E"/>
<path d="M37.5 18H45C45.2652 18 45.5195 18.1054 45.7071 18.2929C45.8946 18.4804 46 18.7348 46 19V21C46 21.2652 45.8946 21.5196 45.7071 21.7071C45.5195 21.8947 45.2652 22 45 22H19C18.7348 22 18.4804 21.8947 18.2929 21.7071C18.1054 21.5196 18 21.2652 18 21V19C18 18.7348 18.1054 18.4804 18.2929 18.2929C18.4804 18.1054 18.7348 18 19 18H26.5L27.0875 16.8313C27.2098 16.5811 27.4002 16.3704 27.6368 16.2234C27.8733 16.0763 28.1465 15.9989 28.425 16H35.5687C35.8479 15.9998 36.1215 16.0775 36.3589 16.2244C36.5963 16.3712 36.788 16.5814 36.9125 16.8313L37.5 18Z" fill="#77999E"/>
<path d="M37.5 18H45C45.2652 18 45.5195 18.1054 45.7071 18.2929C45.8946 18.4804 46 18.7348 46 19V21C46 21.2652 45.8946 21.5196 45.7071 21.7071C45.5195 21.8947 45.2652 22 45 22H19C18.7348 22 18.4804 21.8947 18.2929 21.7071C18.1054 21.5196 18 21.2652 18 21V19C18 18.7348 18.1054 18.4804 18.2929 18.2929C18.4804 18.1054 18.7348 18 19 18H26.5L27.0875 16.8313C27.2098 16.5811 27.4002 16.3704 27.6368 16.2234C27.8733 16.0763 28.1465 15.9989 28.425 16H35.5687C35.8479 15.9998 36.1215 16.0775 36.3589 16.2244C36.5963 16.3712 36.788 16.5814 36.9125 16.8313L37.5 18Z" fill="#77999E"/>
<path d="M37.5 18H45C45.2652 18 45.5195 18.1054 45.7071 18.2929C45.8946 18.4804 46 18.7348 46 19V21C46 21.2652 45.8946 21.5196 45.7071 21.7071C45.5195 21.8947 45.2652 22 45 22H19C18.7348 22 18.4804 21.8947 18.2929 21.7071C18.1054 21.5196 18 21.2652 18 21V19C18 18.7348 18.1054 18.4804 18.2929 18.2929C18.4804 18.1054 18.7348 18 19 18H26.5L27.0875 16.8313C27.2098 16.5811 27.4002 16.3704 27.6368 16.2234C27.8733 16.0763 28.1465 15.9989 28.425 16H35.5687C35.8479 15.9998 36.1215 16.0775 36.3589 16.2244C36.5963 16.3712 36.788 16.5814 36.9125 16.8313L37.5 18Z" fill="#77999E"/>
<path d="M37.5 18H45C45.2652 18 45.5195 18.1054 45.7071 18.2929C45.8946 18.4804 46 18.7348 46 19V21C46 21.2652 45.8946 21.5196 45.7071 21.7071C45.5195 21.8947 45.2652 22 45 22H19C18.7348 22 18.4804 21.8947 18.2929 21.7071C18.1054 21.5196 18 21.2652 18 21V19C18 18.7348 18.1054 18.4804 18.2929 18.2929C18.4804 18.1054 18.7348 18 19 18H26.5L27.0875 16.8313C27.2098 16.5811 27.4002 16.3704 27.6368 16.2234C27.8733 16.0763 28.1465 15.9989 28.425 16H35.5687C35.8479 15.9998 36.1215 16.0775 36.3589 16.2244C36.5963 16.3712 36.788 16.5814 36.9125 16.8313L37.5 18Z" fill="#77999E"/>
<path d="M37.5 18H45C45.2652 18 45.5195 18.1054 45.7071 18.2929C45.8946 18.4804 46 18.7348 46 19V21C46 21.2652 45.8946 21.5196 45.7071 21.7071C45.5195 21.8947 45.2652 22 45 22H19C18.7348 22 18.4804 21.8947 18.2929 21.7071C18.1054 21.5196 18 21.2652 18 21V19C18 18.7348 18.1054 18.4804 18.2929 18.2929C18.4804 18.1054 18.7348 18 19 18H26.5L27.0875 16.8313C27.2098 16.5811 27.4002 16.3704 27.6368 16.2234C27.8733 16.0763 28.1465 15.9989 28.425 16H35.5687C35.8479 15.9998 36.1215 16.0775 36.3589 16.2244C36.5963 16.3712 36.788 16.5814 36.9125 16.8313L37.5 18Z" fill="#77999E"/>
<path d="M37.5 18H45C45.2652 18 45.5195 18.1054 45.7071 18.2929C45.8946 18.4804 46 18.7348 46 19V21C46 21.2652 45.8946 21.5196 45.7071 21.7071C45.5195 21.8947 45.2652 22 45 22H19C18.7348 22 18.4804 21.8947 18.2929 21.7071C18.1054 21.5196 18 21.2652 18 21V19C18 18.7348 18.1054 18.4804 18.2929 18.2929C18.4804 18.1054 18.7348 18 19 18H26.5L27.0875 16.8313C27.2098 16.5811 27.4002 16.3704 27.6368 16.2234C27.8733 16.0763 28.1465 15.9989 28.425 16H35.5687C35.8479 15.9998 36.1215 16.0775 36.3589 16.2244C36.5963 16.3712 36.788 16.5814 36.9125 16.8313L37.5 18Z" fill="#77999E"/>
<path d="M37.5 18H45C45.2652 18 45.5195 18.1054 45.7071 18.2929C45.8946 18.4804 46 18.7348 46 19V21C46 21.2652 45.8946 21.5196 45.7071 21.7071C45.5195 21.8947 45.2652 22 45 22H19C18.7348 22 18.4804 21.8947 18.2929 21.7071C18.1054 21.5196 18 21.2652 18 21V19C18 18.7348 18.1054 18.4804 18.2929 18.2929C18.4804 18.1054 18.7348 18 19 18H26.5L27.0875 16.8313C27.2098 16.5811 27.4002 16.3704 27.6368 16.2234C27.8733 16.0763 28.1465 15.9989 28.425 16H35.5687C35.8479 15.9998 36.1215 16.0775 36.3589 16.2244C36.5963 16.3712 36.788 16.5814 36.9125 16.8313L37.5 18Z" fill="#77999E"/>
<path d="M37.5 18H45C45.2652 18 45.5195 18.1054 45.7071 18.2929C45.8946 18.4804 46 18.7348 46 19V21C46 21.2652 45.8946 21.5196 45.7071 21.7071C45.5195 21.8947 45.2652 22 45 22H19C18.7348 22 18.4804 21.8947 18.2929 21.7071C18.1054 21.5196 18 21.2652 18 21V19C18 18.7348 18.1054 18.4804 18.2929 18.2929C18.4804 18.1054 18.7348 18 19 18H26.5L27.0875 16.8313C27.2098 16.5811 27.4002 16.3704 27.6368 16.2234C27.8733 16.0763 28.1465 15.9989 28.425 16H35.5687C35.8479 15.9998 36.1215 16.0775 36.3589 16.2244C36.5963 16.3712 36.788 16.5814 36.9125 16.8313L37.5 18Z" fill="#77999E"/>
<path d="M37.5 18H45C45.2652 18 45.5195 18.1054 45.7071 18.2929C45.8946 18.4804 46 18.7348 46 19V21C46 21.2652 45.8946 21.5196 45.7071 21.7071C45.5195 21.8947 45.2652 22 45 22H19C18.7348 22 18.4804 21.8947 18.2929 21.7071C18.1054 21.5196 18 21.2652 18 21V19C18 18.7348 18.1054 18.4804 18.2929 18.2929C18.4804 18.1054 18.7348 18 19 18H26.5L27.0875 16.8313C27.2098 16.5811 27.4002 16.3704 27.6368 16.2234C27.8733 16.0763 28.1465 15.9989 28.425 16H35.5687C35.8479 15.9998 36.1215 16.0775 36.3589 16.2244C36.5963 16.3712 36.788 16.5814 36.9125 16.8313L37.5 18Z" fill="#77999E"/>
<path d="M37.5 18H45C45.2652 18 45.5195 18.1054 45.7071 18.2929C45.8946 18.4804 46 18.7348 46 19V21C46 21.2652 45.8946 21.5196 45.7071 21.7071C45.5195 21.8947 45.2652 22 45 22H19C18.7348 22 18.4804 21.8947 18.2929 21.7071C18.1054 21.5196 18 21.2652 18 21V19C18 18.7348 18.1054 18.4804 18.2929 18.2929C18.4804 18.1054 18.7348 18 19 18H26.5L27.0875 16.8313C27.2098 16.5811 27.4002 16.3704 27.6368 16.2234C27.8733 16.0763 28.1465 15.9989 28.425 16H35.5687C35.8479 15.9998 36.1215 16.0775 36.3589 16.2244C36.5963 16.3712 36.788 16.5814 36.9125 16.8313L37.5 18Z" fill="#77999E"/>
<path d="M37.5 18H45C45.2652 18 45.5195 18.1054 45.7071 18.2929C45.8946 18.4804 46 18.7348 46 19V21C46 21.2652 45.8946 21.5196 45.7071 21.7071C45.5195 21.8947 45.2652 22 45 22H19C18.7348 22 18.4804 21.8947 18.2929 21.7071C18.1054 21.5196 18 21.2652 18 21V19C18 18.7348 18.1054 18.4804 18.2929 18.2929C18.4804 18.1054 18.7348 18 19 18H26.5L27.0875 16.8313C27.2098 16.5811 27.4002 16.3704 27.6368 16.2234C27.8733 16.0763 28.1465 15.9989 28.425 16H35.5687C35.8479 15.9998 36.1215 16.0775 36.3589 16.2244C36.5963 16.3712 36.788 16.5814 36.9125 16.8313L37.5 18Z" fill="#77999E"/>
<path d="M37.5 18H45C45.2652 18 45.5195 18.1054 45.7071 18.2929C45.8946 18.4804 46 18.7348 46 19V21C46 21.2652 45.8946 21.5196 45.7071 21.7071C45.5195 21.8947 45.2652 22 45 22H19C18.7348 22 18.4804 21.8947 18.2929 21.7071C18.1054 21.5196 18 21.2652 18 21V19C18 18.7348 18.1054 18.4804 18.2929 18.2929C18.4804 18.1054 18.7348 18 19 18H26.5L27.0875 16.8313C27.2098 16.5811 27.4002 16.3704 27.6368 16.2234C27.8733 16.0763 28.1465 15.9989 28.425 16H35.5687C35.8479 15.9998 36.1215 16.0775 36.3589 16.2244C36.5963 16.3712 36.788 16.5814 36.9125 16.8313L37.5 18Z" fill="#77999E"/>
<path d="M37.5 18H45C45.2652 18 45.5195 18.1054 45.7071 18.2929C45.8946 18.4804 46 18.7348 46 19V21C46 21.2652 45.8946 21.5196 45.7071 21.7071C45.5195 21.8947 45.2652 22 45 22H19C18.7348 22 18.4804 21.8947 18.2929 21.7071C18.1054 21.5196 18 21.2652 18 21V19C18 18.7348 18.1054 18.4804 18.2929 18.2929C18.4804 18.1054 18.7348 18 19 18H26.5L27.0875 16.8313C27.2098 16.5811 27.4002 16.3704 27.6368 16.2234C27.8733 16.0763 28.1465 15.9989 28.425 16H35.5687C35.8479 15.9998 36.1215 16.0775 36.3589 16.2244C36.5963 16.3712 36.788 16.5814 36.9125 16.8313L37.5 18Z" fill="#77999E"/>
<path d="M37.5 18H45C45.2652 18 45.5195 18.1054 45.7071 18.2929C45.8946 18.4804 46 18.7348 46 19V21C46 21.2652 45.8946 21.5196 45.7071 21.7071C45.5195 21.8947 45.2652 22 45 22H19C18.7348 22 18.4804 21.8947 18.2929 21.7071C18.1054 21.5196 18 21.2652 18 21V19C18 18.7348 18.1054 18.4804 18.2929 18.2929C18.4804 18.1054 18.7348 18 19 18H26.5L27.0875 16.8313C27.2098 16.5811 27.4002 16.3704 27.6368 16.2234C27.8733 16.0763 28.1465 15.9989 28.425 16H35.5687C35.8479 15.9998 36.1215 16.0775 36.3589 16.2244C36.5963 16.3712 36.788 16.5814 36.9125 16.8313L37.5 18Z" fill="#77999E"/>
<path d="M37.5 18H45C45.2652 18 45.5195 18.1054 45.7071 18.2929C45.8946 18.4804 46 18.7348 46 19V21C46 21.2652 45.8946 21.5196 45.7071 21.7071C45.5195 21.8947 45.2652 22 45 22H19C18.7348 22 18.4804 21.8947 18.2929 21.7071C18.1054 21.5196 18 21.2652 18 21V19C18 18.7348 18.1054 18.4804 18.2929 18.2929C18.4804 18.1054 18.7348 18 19 18H26.5L27.0875 16.8313C27.2098 16.5811 27.4002 16.3704 27.6368 16.2234C27.8733 16.0763 28.1465 15.9989 28.425 16H35.5687C35.8479 15.9998 36.1215 16.0775 36.3589 16.2244C36.5963 16.3712 36.788 16.5814 36.9125 16.8313L37.5 18Z" fill="#77999E"/>
<path d="M37.5 18H45C45.2652 18 45.5195 18.1054 45.7071 18.2929C45.8946 18.4804 46 18.7348 46 19V21C46 21.2652 45.8946 21.5196 45.7071 21.7071C45.5195 21.8947 45.2652 22 45 22H19C18.7348 22 18.4804 21.8947 18.2929 21.7071C18.1054 21.5196 18 21.2652 18 21V19C18 18.7348 18.1054 18.4804 18.2929 18.2929C18.4804 18.1054 18.7348 18 19 18H26.5L27.0875 16.8313C27.2098 16.5811 27.4002 16.3704 27.6368 16.2234C27.8733 16.0763 28.1465 15.9989 28.425 16H35.5687C35.8479 15.9998 36.1215 16.0775 36.3589 16.2244C36.5963 16.3712 36.788 16.5814 36.9125 16.8313L37.5 18Z" fill="#77999E"/>
<path d="M37.5 18H45C45.2652 18 45.5195 18.1054 45.7071 18.2929C45.8946 18.4804 46 18.7348 46 19V21C46 21.2652 45.8946 21.5196 45.7071 21.7071C45.5195 21.8947 45.2652 22 45 22H19C18.7348 22 18.4804 21.8947 18.2929 21.7071C18.1054 21.5196 18 21.2652 18 21V19C18 18.7348 18.1054 18.4804 18.2929 18.2929C18.4804 18.1054 18.7348 18 19 18H26.5L27.0875 16.8313C27.2098 16.5811 27.4002 16.3704 27.6368 16.2234C27.8733 16.0763 28.1465 15.9989 28.425 16H35.5687C35.8479 15.9998 36.1215 16.0775 36.3589 16.2244C36.5963 16.3712 36.788 16.5814 36.9125 16.8313L37.5 18Z" fill="#77999E"/>
<path d="M37.5 18H45C45.2652 18 45.5195 18.1054 45.7071 18.2929C45.8946 18.4804 46 18.7348 46 19V21C46 21.2652 45.8946 21.5196 45.7071 21.7071C45.5195 21.8947 45.2652 22 45 22H19C18.7348 22 18.4804 21.8947 18.2929 21.7071C18.1054 21.5196 18 21.2652 18 21V19C18 18.7348 18.1054 18.4804 18.2929 18.2929C18.4804 18.1054 18.7348 18 19 18H26.5L27.0875 16.8313C27.2098 16.5811 27.4002 16.3704 27.6368 16.2234C27.8733 16.0763 28.1465 15.9989 28.425 16H35.5687C35.8479 15.9998 36.1215 16.0775 36.3589 16.2244C36.5963 16.3712 36.788 16.5814 36.9125 16.8313L37.5 18Z" fill="#77999E"/>
<path d="M37.5 18H45C45.2652 18 45.5195 18.1054 45.7071 18.2929C45.8946 18.4804 46 18.7348 46 19V21C46 21.2652 45.8946 21.5196 45.7071 21.7071C45.5195 21.8947 45.2652 22 45 22H19C18.7348 22 18.4804 21.8947 18.2929 21.7071C18.1054 21.5196 18 21.2652 18 21V19C18 18.7348 18.1054 18.4804 18.2929 18.2929C18.4804 18.1054 18.7348 18 19 18H26.5L27.0875 16.8313C27.2098 16.5811 27.4002 16.3704 27.6368 16.2234C27.8733 16.0763 28.1465 15.9989 28.425 16H35.5687C35.8479 15.9998 36.1215 16.0775 36.3589 16.2244C36.5963 16.3712 36.788 16.5814 36.9125 16.8313L37.5 18Z" fill="#77999E"/>
<path d="M37.5 18H45C45.2652 18 45.5195 18.1054 45.7071 18.2929C45.8946 18.4804 46 18.7348 46 19V21C46 21.2652 45.8946 21.5196 45.7071 21.7071C45.5195 21.8947 45.2652 22 45 22H19C18.7348 22 18.4804 21.8947 18.2929 21.7071C18.1054 21.5196 18 21.2652 18 21V19C18 18.7348 18.1054 18.4804 18.2929 18.2929C18.4804 18.1054 18.7348 18 19 18H26.5L27.0875 16.8313C27.2098 16.5811 27.4002 16.3704 27.6368 16.2234C27.8733 16.0763 28.1465 15.9989 28.425 16H35.5687C35.8479 15.9998 36.1215 16.0775 36.3589 16.2244C36.5963 16.3712 36.788 16.5814 36.9125 16.8313L37.5 18Z" fill="#77999E"/>
<path d="M37.5 18H45C45.2652 18 45.5195 18.1054 45.7071 18.2929C45.8946 18.4804 46 18.7348 46 19V21C46 21.2652 45.8946 21.5196 45.7071 21.7071C45.5195 21.8947 45.2652 22 45 22H19C18.7348 22 18.4804 21.8947 18.2929 21.7071C18.1054 21.5196 18 21.2652 18 21V19C18 18.7348 18.1054 18.4804 18.2929 18.2929C18.4804 18.1054 18.7348 18 19 18H26.5L27.0875 16.8313C27.2098 16.5811 27.4002 16.3704 27.6368 16.2234C27.8733 16.0763 28.1465 15.9989 28.425 16H35.5687C35.8479 15.9998 36.1215 16.0775 36.3589 16.2244C36.5963 16.3712 36.788 16.5814 36.9125 16.8313L37.5 18Z" fill="#77999E"/>
<path d="M37.5 18H45C45.2652 18 45.5195 18.1054 45.7071 18.2929C45.8946 18.4804 46 18.7348 46 19V21C46 21.2652 45.8946 21.5196 45.7071 21.7071C45.5195 21.8947 45.2652 22 45 22H19C18.7348 22 18.4804 21.8947 18.2929 21.7071C18.1054 21.5196 18 21.2652 18 21V19C18 18.7348 18.1054 18.4804 18.2929 18.2929C18.4804 18.1054 18.7348 18 19 18H26.5L27.0875 16.8313C27.2098 16.5811 27.4002 16.3704 27.6368 16.2234C27.8733 16.0763 28.1465 15.9989 28.425 16H35.5687C35.8479 15.9998 36.1215 16.0775 36.3589 16.2244C36.5963 16.3712 36.788 16.5814 36.9125 16.8313L37.5 18Z" fill="#77999E"/>
<path d="M37.5 18H45C45.2652 18 45.5195 18.1054 45.7071 18.2929C45.8946 18.4804 46 18.7348 46 19V21C46 21.2652 45.8946 21.5196 45.7071 21.7071C45.5195 21.8947 45.2652 22 45 22H19C18.7348 22 18.4804 21.8947 18.2929 21.7071C18.1054 21.5196 18 21.2652 18 21V19C18 18.7348 18.1054 18.4804 18.2929 18.2929C18.4804 18.1054 18.7348 18 19 18H26.5L27.0875 16.8313C27.2098 16.5811 27.4002 16.3704 27.6368 16.2234C27.8733 16.0763 28.1465 15.9989 28.425 16H35.5687C35.8479 15.9998 36.1215 16.0775 36.3589 16.2244C36.5963 16.3712 36.788 16.5814 36.9125 16.8313L37.5 18Z" fill="#77999E"/>
<path d="M37.5 18H45C45.2652 18 45.5195 18.1054 45.7071 18.2929C45.8946 18.4804 46 18.7348 46 19V21C46 21.2652 45.8946 21.5196 45.7071 21.7071C45.5195 21.8947 45.2652 22 45 22H19C18.7348 22 18.4804 21.8947 18.2929 21.7071C18.1054 21.5196 18 21.2652 18 21V19C18 18.7348 18.1054 18.4804 18.2929 18.2929C18.4804 18.1054 18.7348 18 19 18H26.5L27.0875 16.8313C27.2098 16.5811 27.4002 16.3704 27.6368 16.2234C27.8733 16.0763 28.1465 15.9989 28.425 16H35.5687C35.8479 15.9998 36.1215 16.0775 36.3589 16.2244C36.5963 16.3712 36.788 16.5814 36.9125 16.8313L37.5 18Z" fill="#77999E"/>
<path d="M37.5 18H45C45.2652 18 45.5195 18.1054 45.7071 18.2929C45.8946 18.4804 46 18.7348 46 19V21C46 21.2652 45.8946 21.5196 45.7071 21.7071C45.5195 21.8947 45.2652 22 45 22H19C18.7348 22 18.4804 21.8947 18.2929 21.7071C18.1054 21.5196 18 21.2652 18 21V19C18 18.7348 18.1054 18.4804 18.2929 18.2929C18.4804 18.1054 18.7348 18 19 18H26.5L27.0875 16.8313C27.2098 16.5811 27.4002 16.3704 27.6368 16.2234C27.8733 16.0763 28.1465 15.9989 28.425 16H35.5687C35.8479 15.9998 36.1215 16.0775 36.3589 16.2244C36.5963 16.3712 36.788 16.5814 36.9125 16.8313L37.5 18Z" fill="#77999E"/>
<path d="M37.5 18H45C45.2652 18 45.5195 18.1054 45.7071 18.2929C45.8946 18.4804 46 18.7348 46 19V21C46 21.2652 45.8946 21.5196 45.7071 21.7071C45.5195 21.8947 45.2652 22 45 22H19C18.7348 22 18.4804 21.8947 18.2929 21.7071C18.1054 21.5196 18 21.2652 18 21V19C18 18.7348 18.1054 18.4804 18.2929 18.2929C18.4804 18.1054 18.7348 18 19 18H26.5L27.0875 16.8313C27.2098 16.5811 27.4002 16.3704 27.6368 16.2234C27.8733 16.0763 28.1465 15.9989 28.425 16H35.5687C35.8479 15.9998 36.1215 16.0775 36.3589 16.2244C36.5963 16.3712 36.788 16.5814 36.9125 16.8313L37.5 18Z" fill="#77999E"/>
<path d="M37.5 18H45C45.2652 18 45.5195 18.1054 45.7071 18.2929C45.8946 18.4804 46 18.7348 46 19V21C46 21.2652 45.8946 21.5196 45.7071 21.7071C45.5195 21.8947 45.2652 22 45 22H19C18.7348 22 18.4804 21.8947 18.2929 21.7071C18.1054 21.5196 18 21.2652 18 21V19C18 18.7348 18.1054 18.4804 18.2929 18.2929C18.4804 18.1054 18.7348 18 19 18H26.5L27.0875 16.8313C27.2098 16.5811 27.4002 16.3704 27.6368 16.2234C27.8733 16.0763 28.1465 15.9989 28.425 16H35.5687C35.8479 15.9998 36.1215 16.0775 36.3589 16.2244C36.5963 16.3712 36.788 16.5814 36.9125 16.8313L37.5 18Z" fill="#77999E"/>
<path d="M37.5 18H45C45.2652 18 45.5195 18.1054 45.7071 18.2929C45.8946 18.4804 46 18.7348 46 19V21C46 21.2652 45.8946 21.5196 45.7071 21.7071C45.5195 21.8947 45.2652 22 45 22H19C18.7348 22 18.4804 21.8947 18.2929 21.7071C18.1054 21.5196 18 21.2652 18 21V19C18 18.7348 18.1054 18.4804 18.2929 18.2929C18.4804 18.1054 18.7348 18 19 18H26.5L27.0875 16.8313C27.2098 16.5811 27.4002 16.3704 27.6368 16.2234C27.8733 16.0763 28.1465 15.9989 28.425 16H35.5687C35.8479 15.9998 36.1215 16.0775 36.3589 16.2244C36.5963 16.3712 36.788 16.5814 36.9125 16.8313L37.5 18Z" fill="#77999E"/>
<path d="M37.5 18H45C45.2652 18 45.5195 18.1054 45.7071 18.2929C45.8946 18.4804 46 18.7348 46 19V21C46 21.2652 45.8946 21.5196 45.7071 21.7071C45.5195 21.8947 45.2652 22 45 22H19C18.7348 22 18.4804 21.8947 18.2929 21.7071C18.1054 21.5196 18 21.2652 18 21V19C18 18.7348 18.1054 18.4804 18.2929 18.2929C18.4804 18.1054 18.7348 18 19 18H26.5L27.0875 16.8313C27.2098 16.5811 27.4002 16.3704 27.6368 16.2234C27.8733 16.0763 28.1465 15.9989 28.425 16H35.5687C35.8479 15.9998 36.1215 16.0775 36.3589 16.2244C36.5963 16.3712 36.788 16.5814 36.9125 16.8313L37.5 18Z" fill="#77999E"/>
<path d="M37.5 18H45C45.2652 18 45.5195 18.1054 45.7071 18.2929C45.8946 18.4804 46 18.7348 46 19V21C46 21.2652 45.8946 21.5196 45.7071 21.7071C45.5195 21.8947 45.2652 22 45 22H19C18.7348 22 18.4804 21.8947 18.2929 21.7071C18.1054 21.5196 18 21.2652 18 21V19C18 18.7348 18.1054 18.4804 18.2929 18.2929C18.4804 18.1054 18.7348 18 19 18H26.5L27.0875 16.8313C27.2098 16.5811 27.4002 16.3704 27.6368 16.2234C27.8733 16.0763 28.1465 15.9989 28.425 16H35.5687C35.8479 15.9998 36.1215 16.0775 36.3589 16.2244C36.5963 16.3712 36.788 16.5814 36.9125 16.8313L37.5 18Z" fill="#77999E"/>
<path d="M37.5 18H45C45.2652 18 45.5195 18.1054 45.7071 18.2929C45.8946 18.4804 46 18.7348 46 19V21C46 21.2652 45.8946 21.5196 45.7071 21.7071C45.5195 21.8947 45.2652 22 45 22H19C18.7348 22 18.4804 21.8947 18.2929 21.7071C18.1054 21.5196 18 21.2652 18 21V19C18 18.7348 18.1054 18.4804 18.2929 18.2929C18.4804 18.1054 18.7348 18 19 18H26.5L27.0875 16.8313C27.2098 16.5811 27.4002 16.3704 27.6368 16.2234C27.8733 16.0763 28.1465 15.9989 28.425 16H35.5687C35.8479 15.9998 36.1215 16.0775 36.3589 16.2244C36.5963 16.3712 36.788 16.5814 36.9125 16.8313L37.5 18Z" fill="#77999E"/>
<path d="M37.5 18H45C45.2652 18 45.5195 18.1054 45.7071 18.2929C45.8946 18.4804 46 18.7348 46 19V21C46 21.2652 45.8946 21.5196 45.7071 21.7071C45.5195 21.8947 45.2652 22 45 22H19C18.7348 22 18.4804 21.8947 18.2929 21.7071C18.1054 21.5196 18 21.2652 18 21V19C18 18.7348 18.1054 18.4804 18.2929 18.2929C18.4804 18.1054 18.7348 18 19 18H26.5L27.0875 16.8313C27.2098 16.5811 27.4002 16.3704 27.6368 16.2234C27.8733 16.0763 28.1465 15.9989 28.425 16H35.5687C35.8479 15.9998 36.1215 16.0775 36.3589 16.2244C36.5963 16.3712 36.788 16.5814 36.9125 16.8313L37.5 18Z" fill="#77999E"/>
<path d="M37.5 18H45C45.2652 18 45.5195 18.1054 45.7071 18.2929C45.8946 18.4804 46 18.7348 46 19V21C46 21.2652 45.8946 21.5196 45.7071 21.7071C45.5195 21.8947 45.2652 22 45 22H19C18.7348 22 18.4804 21.8947 18.2929 21.7071C18.1054 21.5196 18 21.2652 18 21V19C18 18.7348 18.1054 18.4804 18.2929 18.2929C18.4804 18.1054 18.7348 18 19 18H26.5L27.0875 16.8313C27.2098 16.5811 27.4002 16.3704 27.6368 16.2234C27.8733 16.0763 28.1465 15.9989 28.425 16H35.5687C35.8479 15.9998 36.1215 16.0775 36.3589 16.2244C36.5963 16.3712 36.788 16.5814 36.9125 16.8313L37.5 18Z" fill="#77999E"/>
<path d="M37.5 18H45C45.2652 18 45.5195 18.1054 45.7071 18.2929C45.8946 18.4804 46 18.7348 46 19V21C46 21.2652 45.8946 21.5196 45.7071 21.7071C45.5195 21.8947 45.2652 22 45 22H19C18.7348 22 18.4804 21.8947 18.2929 21.7071C18.1054 21.5196 18 21.2652 18 21V19C18 18.7348 18.1054 18.4804 18.2929 18.2929C18.4804 18.1054 18.7348 18 19 18H26.5L27.0875 16.8313C27.2098 16.5811 27.4002 16.3704 27.6368 16.2234C27.8733 16.0763 28.1465 15.9989 28.425 16H35.5687C35.8479 15.9998 36.1215 16.0775 36.3589 16.2244C36.5963 16.3712 36.788 16.5814 36.9125 16.8313L37.5 18Z" fill="#77999E"/>
<path d="M37.5 18H45C45.2652 18 45.5195 18.1054 45.7071 18.2929C45.8946 18.4804 46 18.7348 46 19V21C46 21.2652 45.8946 21.5196 45.7071 21.7071C45.5195 21.8947 45.2652 22 45 22H19C18.7348 22 18.4804 21.8947 18.2929 21.7071C18.1054 21.5196 18 21.2652 18 21V19C18 18.7348 18.1054 18.4804 18.2929 18.2929C18.4804 18.1054 18.7348 18 19 18H26.5L27.0875 16.8313C27.2098 16.5811 27.4002 16.3704 27.6368 16.2234C27.8733 16.0763 28.1465 15.9989 28.425 16H35.5687C35.8479 15.9998 36.1215 16.0775 36.3589 16.2244C36.5963 16.3712 36.788 16.5814 36.9125 16.8313L37.5 18Z" fill="#77999E"/>
<path d="M37.5 18H45C45.2652 18 45.5195 18.1054 45.7071 18.2929C45.8946 18.4804 46 18.7348 46 19V21C46 21.2652 45.8946 21.5196 45.7071 21.7071C45.5195 21.8947 45.2652 22 45 22H19C18.7348 22 18.4804 21.8947 18.2929 21.7071C18.1054 21.5196 18 21.2652 18 21V19C18 18.7348 18.1054 18.4804 18.2929 18.2929C18.4804 18.1054 18.7348 18 19 18H26.5L27.0875 16.8313C27.2098 16.5811 27.4002 16.3704 27.6368 16.2234C27.8733 16.0763 28.1465 15.9989 28.425 16H35.5687C35.8479 15.9998 36.1215 16.0775 36.3589 16.2244C36.5963 16.3712 36.788 16.5814 36.9125 16.8313L37.5 18Z" fill="#77999E"/>
<path d="M37.5 18H45C45.2652 18 45.5195 18.1054 45.7071 18.2929C45.8946 18.4804 46 18.7348 46 19V21C46 21.2652 45.8946 21.5196 45.7071 21.7071C45.5195 21.8947 45.2652 22 45 22H19C18.7348 22 18.4804 21.8947 18.2929 21.7071C18.1054 21.5196 18 21.2652 18 21V19C18 18.7348 18.1054 18.4804 18.2929 18.2929C18.4804 18.1054 18.7348 18 19 18H26.5L27.0875 16.8313C27.2098 16.5811 27.4002 16.3704 27.6368 16.2234C27.8733 16.0763 28.1465 15.9989 28.425 16H35.5687C35.8479 15.9998 36.1215 16.0775 36.3589 16.2244C36.5963 16.3712 36.788 16.5814 36.9125 16.8313L37.5 18Z" fill="#77999E"/>
<path d="M37.5 18H45C45.2652 18 45.5195 18.1054 45.7071 18.2929C45.8946 18.4804 46 18.7348 46 19V21C46 21.2652 45.8946 21.5196 45.7071 21.7071C45.5195 21.8947 45.2652 22 45 22H19C18.7348 22 18.4804 21.8947 18.2929 21.7071C18.1054 21.5196 18 21.2652 18 21V19C18 18.7348 18.1054 18.4804 18.2929 18.2929C18.4804 18.1054 18.7348 18 19 18H26.5L27.0875 16.8313C27.2098 16.5811 27.4002 16.3704 27.6368 16.2234C27.8733 16.0763 28.1465 15.9989 28.425 16H35.5687C35.8479 15.9998 36.1215 16.0775 36.3589 16.2244C36.5963 16.3712 36.788 16.5814 36.9125 16.8313L37.5 18Z" fill="#77999E"/>
<path d="M37.5 18H45C45.2652 18 45.5195 18.1054 45.7071 18.2929C45.8946 18.4804 46 18.7348 46 19V21C46 21.2652 45.8946 21.5196 45.7071 21.7071C45.5195 21.8947 45.2652 22 45 22H19C18.7348 22 18.4804 21.8947 18.2929 21.7071C18.1054 21.5196 18 21.2652 18 21V19C18 18.7348 18.1054 18.4804 18.2929 18.2929C18.4804 18.1054 18.7348 18 19 18H26.5L27.0875 16.8313C27.2098 16.5811 27.4002 16.3704 27.6368 16.2234C27.8733 16.0763 28.1465 15.9989 28.425 16H35.5687C35.8479 15.9998 36.1215 16.0775 36.3589 16.2244C36.5963 16.3712 36.788 16.5814 36.9125 16.8313L37.5 18Z" fill="#77999E"/>
<path d="M37.5 18H45C45.2652 18 45.5195 18.1054 45.7071 18.2929C45.8946 18.4804 46 18.7348 46 19V21C46 21.2652 45.8946 21.5196 45.7071 21.7071C45.5195 21.8947 45.2652 22 45 22H19C18.7348 22 18.4804 21.8947 18.2929 21.7071C18.1054 21.5196 18 21.2652 18 21V19C18 18.7348 18.1054 18.4804 18.2929 18.2929C18.4804 18.1054 18.7348 18 19 18H26.5L27.0875 16.8313C27.2098 16.5811 27.4002 16.3704 27.6368 16.2234C27.8733 16.0763 28.1465 15.9989 28.425 16H35.5687C35.8479 15.9998 36.1215 16.0775 36.3589 16.2244C36.5963 16.3712 36.788 16.5814 36.9125 16.8313L37.5 18Z" fill="#77999E"/>
<path d="M37.5 18H45C45.2652 18 45.5195 18.1054 45.7071 18.2929C45.8946 18.4804 46 18.7348 46 19V21C46 21.2652 45.8946 21.5196 45.7071 21.7071C45.5195 21.8947 45.2652 22 45 22H19C18.7348 22 18.4804 21.8947 18.2929 21.7071C18.1054 21.5196 18 21.2652 18 21V19C18 18.7348 18.1054 18.4804 18.2929 18.2929C18.4804 18.1054 18.7348 18 19 18H26.5L27.0875 16.8313C27.2098 16.5811 27.4002 16.3704 27.6368 16.2234C27.8733 16.0763 28.1465 15.9989 28.425 16H35.5687C35.8479 15.9998 36.1215 16.0775 36.3589 16.2244C36.5963 16.3712 36.788 16.5814 36.9125 16.8313L37.5 18Z" fill="#77999E"/>
<path d="M37.5 18H45C45.2652 18 45.5195 18.1054 45.7071 18.2929C45.8946 18.4804 46 18.7348 46 19V21C46 21.2652 45.8946 21.5196 45.7071 21.7071C45.5195 21.8947 45.2652 22 45 22H19C18.7348 22 18.4804 21.8947 18.2929 21.7071C18.1054 21.5196 18 21.2652 18 21V19C18 18.7348 18.1054 18.4804 18.2929 18.2929C18.4804 18.1054 18.7348 18 19 18H26.5L27.0875 16.8313C27.2098 16.5811 27.4002 16.3704 27.6368 16.2234C27.8733 16.0763 28.1465 15.9989 28.425 16H35.5687C35.8479 15.9998 36.1215 16.0775 36.3589 16.2244C36.5963 16.3712 36.788 16.5814 36.9125 16.8313L37.5 18Z" fill="#77999E"/>
<path d="M37.5 18H45C45.2652 18 45.5195 18.1054 45.7071 18.2929C45.8946 18.4804 46 18.7348 46 19V21C46 21.2652 45.8946 21.5196 45.7071 21.7071C45.5195 21.8947 45.2652 22 45 22H19C18.7348 22 18.4804 21.8947 18.2929 21.7071C18.1054 21.5196 18 21.2652 18 21V19C18 18.7348 18.1054 18.4804 18.2929 18.2929C18.4804 18.1054 18.7348 18 19 18H26.5L27.0875 16.8313C27.2098 16.5811 27.4002 16.3704 27.6368 16.2234C27.8733 16.0763 28.1465 15.9989 28.425 16H35.5687C35.8479 15.9998 36.1215 16.0775 36.3589 16.2244C36.5963 16.3712 36.788 16.5814 36.9125 16.8313L37.5 18Z" fill="#77999E"/>
<path d="M37.5 18H45C45.2652 18 45.5195 18.1054 45.7071 18.2929C45.8946 18.4804 46 18.7348 46 19V21C46 21.2652 45.8946 21.5196 45.7071 21.7071C45.5195 21.8947 45.2652 22 45 22H19C18.7348 22 18.4804 21.8947 18.2929 21.7071C18.1054 21.5196 18 21.2652 18 21V19C18 18.7348 18.1054 18.4804 18.2929 18.2929C18.4804 18.1054 18.7348 18 19 18H26.5L27.0875 16.8313C27.2098 16.5811 27.4002 16.3704 27.6368 16.2234C27.8733 16.0763 28.1465 15.9989 28.425 16H35.5687C35.8479 15.9998 36.1215 16.0775 36.3589 16.2244C36.5963 16.3712 36.788 16.5814 36.9125 16.8313L37.5 18Z" fill="#77999E"/>
<path d="M37.5 18H45C45.2652 18 45.5195 18.1054 45.7071 18.2929C45.8946 18.4804 46 18.7348 46 19V21C46 21.2652 45.8946 21.5196 45.7071 21.7071C45.5195 21.8947 45.2652 22 45 22H19C18.7348 22 18.4804 21.8947 18.2929 21.7071C18.1054 21.5196 18 21.2652 18 21V19C18 18.7348 18.1054 18.4804 18.2929 18.2929C18.4804 18.1054 18.7348 18 19 18H26.5L27.0875 16.8313C27.2098 16.5811 27.4002 16.3704 27.6368 16.2234C27.8733 16.0763 28.1465 15.9989 28.425 16H35.5687C35.8479 15.9998 36.1215 16.0775 36.3589 16.2244C36.5963 16.3712 36.788 16.5814 36.9125 16.8313L37.5 18Z" fill="#77999E"/>
<path d="M37.5 18H45C45.2652 18 45.5195 18.1054 45.7071 18.2929C45.8946 18.4804 46 18.7348 46 19V21C46 21.2652 45.8946 21.5196 45.7071 21.7071C45.5195 21.8947 45.2652 22 45 22H19C18.7348 22 18.4804 21.8947 18.2929 21.7071C18.1054 21.5196 18 21.2652 18 21V19C18 18.7348 18.1054 18.4804 18.2929 18.2929C18.4804 18.1054 18.7348 18 19 18H26.5L27.0875 16.8313C27.2098 16.5811 27.4002 16.3704 27.6368 16.2234C27.8733 16.0763 28.1465 15.9989 28.425 16H35.5687C35.8479 15.9998 36.1215 16.0775 36.3589 16.2244C36.5963 16.3712 36.788 16.5814 36.9125 16.8313L37.5 18Z" fill="#77999E"/>
<path d="M37.5 18H45C45.2652 18 45.5195 18.1054 45.7071 18.2929C45.8946 18.4804 46 18.7348 46 19V21C46 21.2652 45.8946 21.5196 45.7071 21.7071C45.5195 21.8947 45.2652 22 45 22H19C18.7348 22 18.4804 21.8947 18.2929 21.7071C18.1054 21.5196 18 21.2652 18 21V19C18 18.7348 18.1054 18.4804 18.2929 18.2929C18.4804 18.1054 18.7348 18 19 18H26.5L27.0875 16.8313C27.2098 16.5811 27.4002 16.3704 27.6368 16.2234C27.8733 16.0763 28.1465 15.9989 28.425 16H35.5687C35.8479 15.9998 36.1215 16.0775 36.3589 16.2244C36.5963 16.3712 36.788 16.5814 36.9125 16.8313L37.5 18Z" fill="#77999E"/>
<path d="M37.5 18H45C45.2652 18 45.5195 18.1054 45.7071 18.2929C45.8946 18.4804 46 18.7348 46 19V21C46 21.2652 45.8946 21.5196 45.7071 21.7071C45.5195 21.8947 45.2652 22 45 22H19C18.7348 22 18.4804 21.8947 18.2929 21.7071C18.1054 21.5196 18 21.2652 18 21V19C18 18.7348 18.1054 18.4804 18.2929 18.2929C18.4804 18.1054 18.7348 18 19 18H26.5L27.0875 16.8313C27.2098 16.5811 27.4002 16.3704 27.6368 16.2234C27.8733 16.0763 28.1465 15.9989 28.425 16H35.5687C35.8479 15.9998 36.1215 16.0775 36.3589 16.2244C36.5963 16.3712 36.788 16.5814 36.9125 16.8313L37.5 18Z" fill="#77999E"/>
<path d="M37.5 18H45C45.2652 18 45.5195 18.1054 45.7071 18.2929C45.8946 18.4804 46 18.7348 46 19V21C46 21.2652 45.8946 21.5196 45.7071 21.7071C45.5195 21.8947 45.2652 22 45 22H19C18.7348 22 18.4804 21.8947 18.2929 21.7071C18.1054 21.5196 18 21.2652 18 21V19C18 18.7348 18.1054 18.4804 18.2929 18.2929C18.4804 18.1054 18.7348 18 19 18H26.5L27.0875 16.8313C27.2098 16.5811 27.4002 16.3704 27.6368 16.2234C27.8733 16.0763 28.1465 15.9989 28.425 16H35.5687C35.8479 15.9998 36.1215 16.0775 36.3589 16.2244C36.5963 16.3712 36.788 16.5814 36.9125 16.8313L37.5 18Z" fill="#77999E"/>
<path d="M37.5 18H45C45.2652 18 45.5195 18.1054 45.7071 18.2929C45.8946 18.4804 46 18.7348 46 19V21C46 21.2652 45.8946 21.5196 45.7071 21.7071C45.5195 21.8947 45.2652 22 45 22H19C18.7348 22 18.4804 21.8947 18.2929 21.7071C18.1054 21.5196 18 21.2652 18 21V19C18 18.7348 18.1054 18.4804 18.2929 18.2929C18.4804 18.1054 18.7348 18 19 18H26.5L27.0875 16.8313C27.2098 16.5811 27.4002 16.3704 27.6368 16.2234C27.8733 16.0763 28.1465 15.9989 28.425 16H35.5687C35.8479 15.9998 36.1215 16.0775 36.3589 16.2244C36.5963 16.3712 36.788 16.5814 36.9125 16.8313L37.5 18Z" fill="#77999E"/>
<path d="M37.5 18H45C45.2652 18 45.5195 18.1054 45.7071 18.2929C45.8946 18.4804 46 18.7348 46 19V21C46 21.2652 45.8946 21.5196 45.7071 21.7071C45.5195 21.8947 45.2652 22 45 22H19C18.7348 22 18.4804 21.8947 18.2929 21.7071C18.1054 21.5196 18 21.2652 18 21V19C18 18.7348 18.1054 18.4804 18.2929 18.2929C18.4804 18.1054 18.7348 18 19 18H26.5L27.0875 16.8313C27.2098 16.5811 27.4002 16.3704 27.6368 16.2234C27.8733 16.0763 28.1465 15.9989 28.425 16H35.5687C35.8479 15.9998 36.1215 16.0775 36.3589 16.2244C36.5963 16.3712 36.788 16.5814 36.9125 16.8313L37.5 18Z" fill="#77999E"/>
<path d="M37.5 18H45C45.2652 18 45.5195 18.1054 45.7071 18.2929C45.8946 18.4804 46 18.7348 46 19V21C46 21.2652 45.8946 21.5196 45.7071 21.7071C45.5195 21.8947 45.2652 22 45 22H19C18.7348 22 18.4804 21.8947 18.2929 21.7071C18.1054 21.5196 18 21.2652 18 21V19C18 18.7348 18.1054 18.4804 18.2929 18.2929C18.4804 18.1054 18.7348 18 19 18H26.5L27.0875 16.8313C27.2098 16.5811 27.4002 16.3704 27.6368 16.2234C27.8733 16.0763 28.1465 15.9989 28.425 16H35.5687C35.8479 15.9998 36.1215 16.0775 36.3589 16.2244C36.5963 16.3712 36.788 16.5814 36.9125 16.8313L37.5 18Z" fill="#77999E"/>
<path d="M37.5 18H45C45.2652 18 45.5195 18.1054 45.7071 18.2929C45.8946 18.4804 46 18.7348 46 19V21C46 21.2652 45.8946 21.5196 45.7071 21.7071C45.5195 21.8947 45.2652 22 45 22H19C18.7348 22 18.4804 21.8947 18.2929 21.7071C18.1054 21.5196 18 21.2652 18 21V19C18 18.7348 18.1054 18.4804 18.2929 18.2929C18.4804 18.1054 18.7348 18 19 18H26.5L27.0875 16.8313C27.2098 16.5811 27.4002 16.3704 27.6368 16.2234C27.8733 16.0763 28.1465 15.9989 28.425 16H35.5687C35.8479 15.9998 36.1215 16.0775 36.3589 16.2244C36.5963 16.3712 36.788 16.5814 36.9125 16.8313L37.5 18Z" fill="#77999E"/>
<path d="M37.5 18H45C45.2652 18 45.5195 18.1054 45.7071 18.2929C45.8946 18.4804 46 18.7348 46 19V21C46 21.2652 45.8946 21.5196 45.7071 21.7071C45.5195 21.8947 45.2652 22 45 22H19C18.7348 22 18.4804 21.8947 18.2929 21.7071C18.1054 21.5196 18 21.2652 18 21V19C18 18.7348 18.1054 18.4804 18.2929 18.2929C18.4804 18.1054 18.7348 18 19 18H26.5L27.0875 16.8313C27.2098 16.5811 27.4002 16.3704 27.6368 16.2234C27.8733 16.0763 28.1465 15.9989 28.425 16H35.5687C35.8479 15.9998 36.1215 16.0775 36.3589 16.2244C36.5963 16.3712 36.788 16.5814 36.9125 16.8313L37.5 18Z" fill="#77999E"/>
<path d="M37.5 18H45C45.2652 18 45.5195 18.1054 45.7071 18.2929C45.8946 18.4804 46 18.7348 46 19V21C46 21.2652 45.8946 21.5196 45.7071 21.7071C45.5195 21.8947 45.2652 22 45 22H19C18.7348 22 18.4804 21.8947 18.2929 21.7071C18.1054 21.5196 18 21.2652 18 21V19C18 18.7348 18.1054 18.4804 18.2929 18.2929C18.4804 18.1054 18.7348 18 19 18H26.5L27.0875 16.8313C27.2098 16.5811 27.4002 16.3704 27.6368 16.2234C27.8733 16.0763 28.1465 15.9989 28.425 16H35.5687C35.8479 15.9998 36.1215 16.0775 36.3589 16.2244C36.5963 16.3712 36.788 16.5814 36.9125 16.8313L37.5 18Z" fill="#77999E"/>
<path d="M37.5 18H45C45.2652 18 45.5195 18.1054 45.7071 18.2929C45.8946 18.4804 46 18.7348 46 19V21C46 21.2652 45.8946 21.5196 45.7071 21.7071C45.5195 21.8947 45.2652 22 45 22H19C18.7348 22 18.4804 21.8947 18.2929 21.7071C18.1054 21.5196 18 21.2652 18 21V19C18 18.7348 18.1054 18.4804 18.2929 18.2929C18.4804 18.1054 18.7348 18 19 18H26.5L27.0875 16.8313C27.2098 16.5811 27.4002 16.3704 27.6368 16.2234C27.8733 16.0763 28.1465 15.9989 28.425 16H35.5687C35.8479 15.9998 36.1215 16.0775 36.3589 16.2244C36.5963 16.3712 36.788 16.5814 36.9125 16.8313L37.5 18Z" fill="#77999E"/>
<path d="M37.5 18H45C45.2652 18 45.5195 18.1054 45.7071 18.2929C45.8946 18.4804 46 18.7348 46 19V21C46 21.2652 45.8946 21.5196 45.7071 21.7071C45.5195 21.8947 45.2652 22 45 22H19C18.7348 22 18.4804 21.8947 18.2929 21.7071C18.1054 21.5196 18 21.2652 18 21V19C18 18.7348 18.1054 18.4804 18.2929 18.2929C18.4804 18.1054 18.7348 18 19 18H26.5L27.0875 16.8313C27.2098 16.5811 27.4002 16.3704 27.6368 16.2234C27.8733 16.0763 28.1465 15.9989 28.425 16H35.5687C35.8479 15.9998 36.1215 16.0775 36.3589 16.2244C36.5963 16.3712 36.788 16.5814 36.9125 16.8313L37.5 18Z" fill="#77999E"/>
<path d="M37.5 18H45C45.2652 18 45.5195 18.1054 45.7071 18.2929C45.8946 18.4804 46 18.7348 46 19V21C46 21.2652 45.8946 21.5196 45.7071 21.7071C45.5195 21.8947 45.2652 22 45 22H19C18.7348 22 18.4804 21.8947 18.2929 21.7071C18.1054 21.5196 18 21.2652 18 21V19C18 18.7348 18.1054 18.4804 18.2929 18.2929C18.4804 18.1054 18.7348 18 19 18H26.5L27.0875 16.8313C27.2098 16.5811 27.4002 16.3704 27.6368 16.2234C27.8733 16.0763 28.1465 15.9989 28.425 16H35.5687C35.8479 15.9998 36.1215 16.0775 36.3589 16.2244C36.5963 16.3712 36.788 16.5814 36.9125 16.8313L37.5 18Z" fill="#77999E"/>
<path d="M37.5 18H45C45.2652 18 45.5195 18.1054 45.7071 18.2929C45.8946 18.4804 46 18.7348 46 19V21C46 21.2652 45.8946 21.5196 45.7071 21.7071C45.5195 21.8947 45.2652 22 45 22H19C18.7348 22 18.4804 21.8947 18.2929 21.7071C18.1054 21.5196 18 21.2652 18 21V19C18 18.7348 18.1054 18.4804 18.2929 18.2929C18.4804 18.1054 18.7348 18 19 18H26.5L27.0875 16.8313C27.2098 16.5811 27.4002 16.3704 27.6368 16.2234C27.8733 16.0763 28.1465 15.9989 28.425 16H35.5687C35.8479 15.9998 36.1215 16.0775 36.3589 16.2244C36.5963 16.3712 36.788 16.5814 36.9125 16.8313L37.5 18Z" fill="#77999E"/>
<path d="M37.5 18H45C45.2652 18 45.5195 18.1054 45.7071 18.2929C45.8946 18.4804 46 18.7348 46 19V21C46 21.2652 45.8946 21.5196 45.7071 21.7071C45.5195 21.8947 45.2652 22 45 22H19C18.7348 22 18.4804 21.8947 18.2929 21.7071C18.1054 21.5196 18 21.2652 18 21V19C18 18.7348 18.1054 18.4804 18.2929 18.2929C18.4804 18.1054 18.7348 18 19 18H26.5L27.0875 16.8313C27.2098 16.5811 27.4002 16.3704 27.6368 16.2234C27.8733 16.0763 28.1465 15.9989 28.425 16H35.5687C35.8479 15.9998 36.1215 16.0775 36.3589 16.2244C36.5963 16.3712 36.788 16.5814 36.9125 16.8313L37.5 18Z" fill="#77999E"/>
<path d="M37.5 18H45C45.2652 18 45.5195 18.1054 45.7071 18.2929C45.8946 18.4804 46 18.7348 46 19V21C46 21.2652 45.8946 21.5196 45.7071 21.7071C45.5195 21.8947 45.2652 22 45 22H19C18.7348 22 18.4804 21.8947 18.2929 21.7071C18.1054 21.5196 18 21.2652 18 21V19C18 18.7348 18.1054 18.4804 18.2929 18.2929C18.4804 18.1054 18.7348 18 19 18H26.5L27.0875 16.8313C27.2098 16.5811 27.4002 16.3704 27.6368 16.2234C27.8733 16.0763 28.1465 15.9989 28.425 16H35.5687C35.8479 15.9998 36.1215 16.0775 36.3589 16.2244C36.5963 16.3712 36.788 16.5814 36.9125 16.8313L37.5 18Z" fill="#77999E"/>
<path d="M37.5 18H45C45.2652 18 45.5195 18.1054 45.7071 18.2929C45.8946 18.4804 46 18.7348 46 19V21C46 21.2652 45.8946 21.5196 45.7071 21.7071C45.5195 21.8947 45.2652 22 45 22H19C18.7348 22 18.4804 21.8947 18.2929 21.7071C18.1054 21.5196 18 21.2652 18 21V19C18 18.7348 18.1054 18.4804 18.2929 18.2929C18.4804 18.1054 18.7348 18 19 18H26.5L27.0875 16.8313C27.2098 16.5811 27.4002 16.3704 27.6368 16.2234C27.8733 16.0763 28.1465 15.9989 28.425 16H35.5687C35.8479 15.9998 36.1215 16.0775 36.3589 16.2244C36.5963 16.3712 36.788 16.5814 36.9125 16.8313L37.5 18Z" fill="#77999E"/>
<path d="M37.5 18H45C45.2652 18 45.5195 18.1054 45.7071 18.2929C45.8946 18.4804 46 18.7348 46 19V21C46 21.2652 45.8946 21.5196 45.7071 21.7071C45.5195 21.8947 45.2652 22 45 22H19C18.7348 22 18.4804 21.8947 18.2929 21.7071C18.1054 21.5196 18 21.2652 18 21V19C18 18.7348 18.1054 18.4804 18.2929 18.2929C18.4804 18.1054 18.7348 18 19 18H26.5L27.0875 16.8313C27.2098 16.5811 27.4002 16.3704 27.6368 16.2234C27.8733 16.0763 28.1465 15.9989 28.425 16H35.5687C35.8479 15.9998 36.1215 16.0775 36.3589 16.2244C36.5963 16.3712 36.788 16.5814 36.9125 16.8313L37.5 18Z" fill="#77999E"/>
<path d="M37.5 18H45C45.2652 18 45.5195 18.1054 45.7071 18.2929C45.8946 18.4804 46 18.7348 46 19V21C46 21.2652 45.8946 21.5196 45.7071 21.7071C45.5195 21.8947 45.2652 22 45 22H19C18.7348 22 18.4804 21.8947 18.2929 21.7071C18.1054 21.5196 18 21.2652 18 21V19C18 18.7348 18.1054 18.4804 18.2929 18.2929C18.4804 18.1054 18.7348 18 19 18H26.5L27.0875 16.8313C27.2098 16.5811 27.4002 16.3704 27.6368 16.2234C27.8733 16.0763 28.1465 15.9989 28.425 16H35.5687C35.8479 15.9998 36.1215 16.0775 36.3589 16.2244C36.5963 16.3712 36.788 16.5814 36.9125 16.8313L37.5 18Z" fill="#77999E"/>
<path d="M37.5 18H45C45.2652 18 45.5195 18.1054 45.7071 18.2929C45.8946 18.4804 46 18.7348 46 19V21C46 21.2652 45.8946 21.5196 45.7071 21.7071C45.5195 21.8947 45.2652 22 45 22H19C18.7348 22 18.4804 21.8947 18.2929 21.7071C18.1054 21.5196 18 21.2652 18 21V19C18 18.7348 18.1054 18.4804 18.2929 18.2929C18.4804 18.1054 18.7348 18 19 18H26.5L27.0875 16.8313C27.2098 16.5811 27.4002 16.3704 27.6368 16.2234C27.8733 16.0763 28.1465 15.9989 28.425 16H35.5687C35.8479 15.9998 36.1215 16.0775 36.3589 16.2244C36.5963 16.3712 36.788 16.5814 36.9125 16.8313L37.5 18Z" fill="#77999E"/>
<path d="M37.5 18H45C45.2652 18 45.5195 18.1054 45.7071 18.2929C45.8946 18.4804 46 18.7348 46 19V21C46 21.2652 45.8946 21.5196 45.7071 21.7071C45.5195 21.8947 45.2652 22 45 22H19C18.7348 22 18.4804 21.8947 18.2929 21.7071C18.1054 21.5196 18 21.2652 18 21V19C18 18.7348 18.1054 18.4804 18.2929 18.2929C18.4804 18.1054 18.7348 18 19 18H26.5L27.0875 16.8313C27.2098 16.5811 27.4002 16.3704 27.6368 16.2234C27.8733 16.0763 28.1465 15.9989 28.425 16H35.5687C35.8479 15.9998 36.1215 16.0775 36.3589 16.2244C36.5963 16.3712 36.788 16.5814 36.9125 16.8313L37.5 18Z" fill="#77999E"/>
<path d="M37.5 18H45C45.2652 18 45.5195 18.1054 45.7071 18.2929C45.8946 18.4804 46 18.7348 46 19V21C46 21.2652 45.8946 21.5196 45.7071 21.7071C45.5195 21.8947 45.2652 22 45 22H19C18.7348 22 18.4804 21.8947 18.2929 21.7071C18.1054 21.5196 18 21.2652 18 21V19C18 18.7348 18.1054 18.4804 18.2929 18.2929C18.4804 18.1054 18.7348 18 19 18H26.5L27.0875 16.8313C27.2098 16.5811 27.4002 16.3704 27.6368 16.2234C27.8733 16.0763 28.1465 15.9989 28.425 16H35.5687C35.8479 15.9998 36.1215 16.0775 36.3589 16.2244C36.5963 16.3712 36.788 16.5814 36.9125 16.8313L37.5 18Z" fill="#77999E"/>
<path d="M37.5 18H45C45.2652 18 45.5195 18.1054 45.7071 18.2929C45.8946 18.4804 46 18.7348 46 19V21C46 21.2652 45.8946 21.5196 45.7071 21.7071C45.5195 21.8947 45.2652 22 45 22H19C18.7348 22 18.4804 21.8947 18.2929 21.7071C18.1054 21.5196 18 21.2652 18 21V19C18 18.7348 18.1054 18.4804 18.2929 18.2929C18.4804 18.1054 18.7348 18 19 18H26.5L27.0875 16.8313C27.2098 16.5811 27.4002 16.3704 27.6368 16.2234C27.8733 16.0763 28.1465 15.9989 28.425 16H35.5687C35.8479 15.9998 36.1215 16.0775 36.3589 16.2244C36.5963 16.3712 36.788 16.5814 36.9125 16.8313L37.5 18Z" fill="#77999E"/>
<path d="M37.5 18H45C45.2652 18 45.5195 18.1054 45.7071 18.2929C45.8946 18.4804 46 18.7348 46 19V21C46 21.2652 45.8946 21.5196 45.7071 21.7071C45.5195 21.8947 45.2652 22 45 22H19C18.7348 22 18.4804 21.8947 18.2929 21.7071C18.1054 21.5196 18 21.2652 18 21V19C18 18.7348 18.1054 18.4804 18.2929 18.2929C18.4804 18.1054 18.7348 18 19 18H26.5L27.0875 16.8313C27.2098 16.5811 27.4002 16.3704 27.6368 16.2234C27.8733 16.0763 28.1465 15.9989 28.425 16H35.5687C35.8479 15.9998 36.1215 16.0775 36.3589 16.2244C36.5963 16.3712 36.788 16.5814 36.9125 16.8313L37.5 18Z" fill="#77999E"/>
<path d="M37.5 18H45C45.2652 18 45.5195 18.1054 45.7071 18.2929C45.8946 18.4804 46 18.7348 46 19V21C46 21.2652 45.8946 21.5196 45.7071 21.7071C45.5195 21.8947 45.2652 22 45 22H19C18.7348 22 18.4804 21.8947 18.2929 21.7071C18.1054 21.5196 18 21.2652 18 21V19C18 18.7348 18.1054 18.4804 18.2929 18.2929C18.4804 18.1054 18.7348 18 19 18H26.5L27.0875 16.8313C27.2098 16.5811 27.4002 16.3704 27.6368 16.2234C27.8733 16.0763 28.1465 15.9989 28.425 16H35.5687C35.8479 15.9998 36.1215 16.0775 36.3589 16.2244C36.5963 16.3712 36.788 16.5814 36.9125 16.8313L37.5 18Z" fill="#77999E"/>
<path d="M37.5 18H45C45.2652 18 45.5195 18.1054 45.7071 18.2929C45.8946 18.4804 46 18.7348 46 19V21C46 21.2652 45.8946 21.5196 45.7071 21.7071C45.5195 21.8947 45.2652 22 45 22H19C18.7348 22 18.4804 21.8947 18.2929 21.7071C18.1054 21.5196 18 21.2652 18 21V19C18 18.7348 18.1054 18.4804 18.2929 18.2929C18.4804 18.1054 18.7348 18 19 18H26.5L27.0875 16.8313C27.2098 16.5811 27.4002 16.3704 27.6368 16.2234C27.8733 16.0763 28.1465 15.9989 28.425 16H35.5687C35.8479 15.9998 36.1215 16.0775 36.3589 16.2244C36.5963 16.3712 36.788 16.5814 36.9125 16.8313L37.5 18Z" fill="#77999E"/>
<path d="M37.5 18H45C45.2652 18 45.5195 18.1054 45.7071 18.2929C45.8946 18.4804 46 18.7348 46 19V21C46 21.2652 45.8946 21.5196 45.7071 21.7071C45.5195 21.8947 45.2652 22 45 22H19C18.7348 22 18.4804 21.8947 18.2929 21.7071C18.1054 21.5196 18 21.2652 18 21V19C18 18.7348 18.1054 18.4804 18.2929 18.2929C18.4804 18.1054 18.7348 18 19 18H26.5L27.0875 16.8313C27.2098 16.5811 27.4002 16.3704 27.6368 16.2234C27.8733 16.0763 28.1465 15.9989 28.425 16H35.5687C35.8479 15.9998 36.1215 16.0775 36.3589 16.2244C36.5963 16.3712 36.788 16.5814 36.9125 16.8313L37.5 18Z" fill="#77999E"/>
<path d="M37.5 18H45C45.2652 18 45.5195 18.1054 45.7071 18.2929C45.8946 18.4804 46 18.7348 46 19V21C46 21.2652 45.8946 21.5196 45.7071 21.7071C45.5195 21.8947 45.2652 22 45 22H19C18.7348 22 18.4804 21.8947 18.2929 21.7071C18.1054 21.5196 18 21.2652 18 21V19C18 18.7348 18.1054 18.4804 18.2929 18.2929C18.4804 18.1054 18.7348 18 19 18H26.5L27.0875 16.8313C27.2098 16.5811 27.4002 16.3704 27.6368 16.2234C27.8733 16.0763 28.1465 15.9989 28.425 16H35.5687C35.8479 15.9998 36.1215 16.0775 36.3589 16.2244C36.5963 16.3712 36.788 16.5814 36.9125 16.8313L37.5 18Z" fill="#77999E"/>
<path d="M37.5 18H45C45.2652 18 45.5195 18.1054 45.7071 18.2929C45.8946 18.4804 46 18.7348 46 19V21C46 21.2652 45.8946 21.5196 45.7071 21.7071C45.5195 21.8947 45.2652 22 45 22H19C18.7348 22 18.4804 21.8947 18.2929 21.7071C18.1054 21.5196 18 21.2652 18 21V19C18 18.7348 18.1054 18.4804 18.2929 18.2929C18.4804 18.1054 18.7348 18 19 18H26.5L27.0875 16.8313C27.2098 16.5811 27.4002 16.3704 27.6368 16.2234C27.8733 16.0763 28.1465 15.9989 28.425 16H35.5687C35.8479 15.9998 36.1215 16.0775 36.3589 16.2244C36.5963 16.3712 36.788 16.5814 36.9125 16.8313L37.5 18Z" fill="#77999E"/>
<path d="M37.5 18H45C45.2652 18 45.5195 18.1054 45.7071 18.2929C45.8946 18.4804 46 18.7348 46 19V21C46 21.2652 45.8946 21.5196 45.7071 21.7071C45.5195 21.8947 45.2652 22 45 22H19C18.7348 22 18.4804 21.8947 18.2929 21.7071C18.1054 21.5196 18 21.2652 18 21V19C18 18.7348 18.1054 18.4804 18.2929 18.2929C18.4804 18.1054 18.7348 18 19 18H26.5L27.0875 16.8313C27.2098 16.5811 27.4002 16.3704 27.6368 16.2234C27.8733 16.0763 28.1465 15.9989 28.425 16H35.5687C35.8479 15.9998 36.1215 16.0775 36.3589 16.2244C36.5963 16.3712 36.788 16.5814 36.9125 16.8313L37.5 18Z" fill="#77999E"/>
<path d="M37.5 18H45C45.2652 18 45.5195 18.1054 45.7071 18.2929C45.8946 18.4804 46 18.7348 46 19V21C46 21.2652 45.8946 21.5196 45.7071 21.7071C45.5195 21.8947 45.2652 22 45 22H19C18.7348 22 18.4804 21.8947 18.2929 21.7071C18.1054 21.5196 18 21.2652 18 21V19C18 18.7348 18.1054 18.4804 18.2929 18.2929C18.4804 18.1054 18.7348 18 19 18H26.5L27.0875 16.8313C27.2098 16.5811 27.4002 16.3704 27.6368 16.2234C27.8733 16.0763 28.1465 15.9989 28.425 16H35.5687C35.8479 15.9998 36.1215 16.0775 36.3589 16.2244C36.5963 16.3712 36.788 16.5814 36.9125 16.8313L37.5 18Z" fill="#77999E"/>
<path d="M37.5 18H45C45.2652 18 45.5195 18.1054 45.7071 18.2929C45.8946 18.4804 46 18.7348 46 19V21C46 21.2652 45.8946 21.5196 45.7071 21.7071C45.5195 21.8947 45.2652 22 45 22H19C18.7348 22 18.4804 21.8947 18.2929 21.7071C18.1054 21.5196 18 21.2652 18 21V19C18 18.7348 18.1054 18.4804 18.2929 18.2929C18.4804 18.1054 18.7348 18 19 18H26.5L27.0875 16.8313C27.2098 16.5811 27.4002 16.3704 27.6368 16.2234C27.8733 16.0763 28.1465 15.9989 28.425 16H35.5687C35.8479 15.9998 36.1215 16.0775 36.3589 16.2244C36.5963 16.3712 36.788 16.5814 36.9125 16.8313L37.5 18Z" fill="#77999E"/>
<path d="M37.5 18H45C45.2652 18 45.5195 18.1054 45.7071 18.2929C45.8946 18.4804 46 18.7348 46 19V21C46 21.2652 45.8946 21.5196 45.7071 21.7071C45.5195 21.8947 45.2652 22 45 22H19C18.7348 22 18.4804 21.8947 18.2929 21.7071C18.1054 21.5196 18 21.2652 18 21V19C18 18.7348 18.1054 18.4804 18.2929 18.2929C18.4804 18.1054 18.7348 18 19 18H26.5L27.0875 16.8313C27.2098 16.5811 27.4002 16.3704 27.6368 16.2234C27.8733 16.0763 28.1465 15.9989 28.425 16H35.5687C35.8479 15.9998 36.1215 16.0775 36.3589 16.2244C36.5963 16.3712 36.788 16.5814 36.9125 16.8313L37.5 18Z" fill="#77999E"/>
<path d="M37.5 18H45C45.2652 18 45.5195 18.1054 45.7071 18.2929C45.8946 18.4804 46 18.7348 46 19V21C46 21.2652 45.8946 21.5196 45.7071 21.7071C45.5195 21.8947 45.2652 22 45 22H19C18.7348 22 18.4804 21.8947 18.2929 21.7071C18.1054 21.5196 18 21.2652 18 21V19C18 18.7348 18.1054 18.4804 18.2929 18.2929C18.4804 18.1054 18.7348 18 19 18H26.5L27.0875 16.8313C27.2098 16.5811 27.4002 16.3704 27.6368 16.2234C27.8733 16.0763 28.1465 15.9989 28.425 16H35.5687C35.8479 15.9998 36.1215 16.0775 36.3589 16.2244C36.5963 16.3712 36.788 16.5814 36.9125 16.8313L37.5 18Z" fill="#77999E"/>
<path d="M37.5 18H45C45.2652 18 45.5195 18.1054 45.7071 18.2929C45.8946 18.4804 46 18.7348 46 19V21C46 21.2652 45.8946 21.5196 45.7071 21.7071C45.5195 21.8947 45.2652 22 45 22H19C18.7348 22 18.4804 21.8947 18.2929 21.7071C18.1054 21.5196 18 21.2652 18 21V19C18 18.7348 18.1054 18.4804 18.2929 18.2929C18.4804 18.1054 18.7348 18 19 18H26.5L27.0875 16.8313C27.2098 16.5811 27.4002 16.3704 27.6368 16.2234C27.8733 16.0763 28.1465 15.9989 28.425 16H35.5687C35.8479 15.9998 36.1215 16.0775 36.3589 16.2244C36.5963 16.3712 36.788 16.5814 36.9125 16.8313L37.5 18Z" fill="#77999E"/>
<path d="M37.5 18H45C45.2652 18 45.5195 18.1054 45.7071 18.2929C45.8946 18.4804 46 18.7348 46 19V21C46 21.2652 45.8946 21.5196 45.7071 21.7071C45.5195 21.8947 45.2652 22 45 22H19C18.7348 22 18.4804 21.8947 18.2929 21.7071C18.1054 21.5196 18 21.2652 18 21V19C18 18.7348 18.1054 18.4804 18.2929 18.2929C18.4804 18.1054 18.7348 18 19 18H26.5L27.0875 16.8313C27.2098 16.5811 27.4002 16.3704 27.6368 16.2234C27.8733 16.0763 28.1465 15.9989 28.425 16H35.5687C35.8479 15.9998 36.1215 16.0775 36.3589 16.2244C36.5963 16.3712 36.788 16.5814 36.9125 16.8313L37.5 18Z" fill="#77999E"/>
<path d="M37.5 18H45C45.2652 18 45.5195 18.1054 45.7071 18.2929C45.8946 18.4804 46 18.7348 46 19V21C46 21.2652 45.8946 21.5196 45.7071 21.7071C45.5195 21.8947 45.2652 22 45 22H19C18.7348 22 18.4804 21.8947 18.2929 21.7071C18.1054 21.5196 18 21.2652 18 21V19C18 18.7348 18.1054 18.4804 18.2929 18.2929C18.4804 18.1054 18.7348 18 19 18H26.5L27.0875 16.8313C27.2098 16.5811 27.4002 16.3704 27.6368 16.2234C27.8733 16.0763 28.1465 15.9989 28.425 16H35.5687C35.8479 15.9998 36.1215 16.0775 36.3589 16.2244C36.5963 16.3712 36.788 16.5814 36.9125 16.8313L37.5 18Z" fill="#77999E"/>
<path d="M37.5 18H45C45.2652 18 45.5195 18.1054 45.7071 18.2929C45.8946 18.4804 46 18.7348 46 19V21C46 21.2652 45.8946 21.5196 45.7071 21.7071C45.5195 21.8947 45.2652 22 45 22H19C18.7348 22 18.4804 21.8947 18.2929 21.7071C18.1054 21.5196 18 21.2652 18 21V19C18 18.7348 18.1054 18.4804 18.2929 18.2929C18.4804 18.1054 18.7348 18 19 18H26.5L27.0875 16.8313C27.2098 16.5811 27.4002 16.3704 27.6368 16.2234C27.8733 16.0763 28.1465 15.9989 28.425 16H35.5687C35.8479 15.9998 36.1215 16.0775 36.3589 16.2244C36.5963 16.3712 36.788 16.5814 36.9125 16.8313L37.5 18Z" fill="#77999E"/>
<path d="M37.5 18H45C45.2652 18 45.5195 18.1054 45.7071 18.2929C45.8946 18.4804 46 18.7348 46 19V21C46 21.2652 45.8946 21.5196 45.7071 21.7071C45.5195 21.8947 45.2652 22 45 22H19C18.7348 22 18.4804 21.8947 18.2929 21.7071C18.1054 21.5196 18 21.2652 18 21V19C18 18.7348 18.1054 18.4804 18.2929 18.2929C18.4804 18.1054 18.7348 18 19 18H26.5L27.0875 16.8313C27.2098 16.5811 27.4002 16.3704 27.6368 16.2234C27.8733 16.0763 28.1465 15.9989 28.425 16H35.5687C35.8479 15.9998 36.1215 16.0775 36.3589 16.2244C36.5963 16.3712 36.788 16.5814 36.9125 16.8313L37.5 18Z" fill="#77999E"/>
<path d="M37.5 18H45C45.2652 18 45.5195 18.1054 45.7071 18.2929C45.8946 18.4804 46 18.7348 46 19V21C46 21.2652 45.8946 21.5196 45.7071 21.7071C45.5195 21.8947 45.2652 22 45 22H19C18.7348 22 18.4804 21.8947 18.2929 21.7071C18.1054 21.5196 18 21.2652 18 21V19C18 18.7348 18.1054 18.4804 18.2929 18.2929C18.4804 18.1054 18.7348 18 19 18H26.5L27.0875 16.8313C27.2098 16.5811 27.4002 16.3704 27.6368 16.2234C27.8733 16.0763 28.1465 15.9989 28.425 16H35.5687C35.8479 15.9998 36.1215 16.0775 36.3589 16.2244C36.5963 16.3712 36.788 16.5814 36.9125 16.8313L37.5 18Z" fill="#77999E"/>
<path d="M37.5 18H45C45.2652 18 45.5195 18.1054 45.7071 18.2929C45.8946 18.4804 46 18.7348 46 19V21C46 21.2652 45.8946 21.5196 45.7071 21.7071C45.5195 21.8947 45.2652 22 45 22H19C18.7348 22 18.4804 21.8947 18.2929 21.7071C18.1054 21.5196 18 21.2652 18 21V19C18 18.7348 18.1054 18.4804 18.2929 18.2929C18.4804 18.1054 18.7348 18 19 18H26.5L27.0875 16.8313C27.2098 16.5811 27.4002 16.3704 27.6368 16.2234C27.8733 16.0763 28.1465 15.9989 28.425 16H35.5687C35.8479 15.9998 36.1215 16.0775 36.3589 16.2244C36.5963 16.3712 36.788 16.5814 36.9125 16.8313L37.5 18Z" fill="#77999E"/>
<path d="M20 45C20 45.7956 20.3161 46.5587 20.8787 47.1213C21.4413 47.6839 22.2044 48 23 48H41C41.7956 48 42.5587 47.6839 43.1213 47.1213C43.6839 46.5587 44 45.7956 44 45V24H20V45ZM37 29C37 28.7348 37.1053 28.4804 37.2929 28.2929C37.4804 28.1054 37.7348 28 38 28C38.2652 28 38.5195 28.1054 38.7071 28.2929C38.8946 28.4804 39 28.7348 39 29V43C39 43.2652 38.8946 43.5196 38.7071 43.7071C38.5195 43.8946 38.2652 44 38 44C37.7348 44 37.4804 43.8946 37.2929 43.7071C37.1053 43.5196 37 43.2652 37 43V29ZM31 29C31 28.7348 31.1053 28.4804 31.2929 28.2929C31.4804 28.1054 31.7348 28 32 28C32.2652 28 32.5195 28.1054 32.7071 28.2929C32.8946 28.4804 33 28.7348 33 29V43C33 43.2652 32.8946 43.5196 32.7071 43.7071C32.5195 43.8946 32.2652 44 32 44C31.7348 44 31.4804 43.8946 31.2929 43.7071C31.1053 43.5196 31 43.2652 31 43V29ZM25 29C25 28.7348 25.1054 28.4804 25.2929 28.2929C25.4804 28.1054 25.7348 28 26 28C26.2652 28 26.5196 28.1054 26.7071 28.2929C26.8946 28.4804 27 28.7348 27 29V43C27 43.2652 26.8946 43.5196 26.7071 43.7071C26.5196 43.8946 26.2652 44 26 44C25.7348 44 25.4804 43.8946 25.2929 43.7071C25.1054 43.5196 25 43.2652 25 43V29ZM45 18H37.5L36.9125 16.8313C36.788 16.5814 36.5963 16.3712 36.3589 16.2244C36.1215 16.0775 35.8479 15.9998 35.5687 16H28.425C28.1465 15.9989 27.8733 16.0763 27.6368 16.2234C27.4002 16.3704 27.2098 16.5811 27.0875 16.8313L26.5 18H19C18.7348 18 18.4804 18.1054 18.2929 18.2929C18.1054 18.4804 18 18.7348 18 19V21C18 21.2652 18.1054 21.5196 18.2929 21.7071C18.4804 21.8947 18.7348 22 19 22H45C45.2652 22 45.5195 21.8947 45.7071 21.7071C45.8946 21.5196 46 21.2652 46 21V19C46 18.7348 45.8946 18.4804 45.7071 18.2929C45.5195 18.1054 45.2652 18 45 18Z" stroke="#77999E" stroke-width="0.0488281"/>
<path d="M37.4782 18.0112L37.4849 18.0247H37.5H45C45.2587 18.0247 45.5069 18.1275 45.6898 18.3104C45.8728 18.4934 45.9756 18.7415 45.9756 19.0003V21.0003C45.9756 21.259 45.8728 21.5071 45.6898 21.6901C45.5069 21.8731 45.2587 21.9758 45 21.9758H19C18.7413 21.9758 18.4931 21.8731 18.3102 21.6901C18.1272 21.5071 18.0244 21.259 18.0244 21.0003V19.0003C18.0244 18.7415 18.1272 18.4934 18.3102 18.3104C18.4931 18.1275 18.7413 18.0247 19 18.0247H26.5H26.515L26.5218 18.0112L27.1093 16.8425L27.1094 16.8422C27.2298 16.5961 27.417 16.3889 27.6496 16.2443C27.8823 16.0997 28.151 16.0236 28.4249 16.0247H28.425L35.5687 16.0247L35.5688 16.0247C35.8434 16.0245 36.1126 16.1009 36.3461 16.2454C36.5796 16.3898 36.7682 16.5966 36.8906 16.8424L36.8907 16.8425L37.4782 18.0112Z" fill="#BBCCCE" stroke="#77999E" stroke-width="0.0488281"/>
</svg>
