<svg width="64" height="64" viewBox="0 0 64 64" fill="none" xmlns="http://www.w3.org/2000/svg">
<circle cx="32" cy="32" r="31.5" fill="white" stroke="#11366A"/>
<path d="M41.8998 44.5282C44.0481 44.5282 46.1083 43.6829 47.6274 42.1782C49.1464 40.6735 49.9998 38.6327 49.9998 36.5047C49.9998 34.3767 49.1464 32.3358 47.6274 30.8311C46.1083 29.3264 44.0481 28.4811 41.8998 28.4811C39.7516 28.4811 37.6913 29.3264 36.1722 30.8311C34.6532 32.3358 33.7998 34.3767 33.7998 36.5047C33.7998 38.6327 34.6532 40.6735 36.1722 42.1782C37.6913 43.6829 39.7516 44.5282 41.8998 44.5282ZM41.8998 39.1792C42.2578 39.1792 42.6012 39.3201 42.8544 39.5709C43.1076 39.8217 43.2498 40.1618 43.2498 40.5165C43.2498 40.8711 43.1076 41.2113 42.8544 41.462C42.6012 41.7128 42.2578 41.8537 41.8998 41.8537C41.5418 41.8537 41.1984 41.7128 40.9452 41.462C40.692 41.2113 40.5498 40.8711 40.5498 40.5165C40.5498 40.1618 40.692 39.8217 40.9452 39.5709C41.1984 39.3201 41.5418 39.1792 41.8998 39.1792ZM41.8998 31.1556C42.3948 31.1556 42.7998 31.5568 42.7998 32.0471V36.5047C42.7998 36.995 42.3948 37.3962 41.8998 37.3962C41.4048 37.3962 40.9998 36.995 40.9998 36.5047V32.0471C40.9998 31.5568 41.4048 31.1556 41.8998 31.1556Z" fill="#11366A"/>
<path d="M32.0394 35.6132C32.495 30.6152 36.7362 26.6981 41.9 26.6981C42.4006 26.6981 42.89 26.7371 43.3681 26.804L31.4094 16.39C31.0719 16.1114 30.6219 16 30.2281 16C29.8344 16 29.3844 16.0557 28.9906 16.4458L14.5625 28.899C14.1688 29.2891 14 29.7348 14 30.2363C14 31.2392 14.7875 32.0249 15.8 32.0249H17.6V35.9085C17.5944 35.9587 17.5944 36.0088 17.5944 36.0645V42.2995C17.5944 43.5309 18.6013 44.5283 19.8444 44.5283H20.7444C20.8119 44.5283 20.8794 44.5227 20.9469 44.5172C21.0312 44.5227 21.1156 44.5283 21.2 44.5283H23H24.35C25.5931 44.5283 26.6 43.5309 26.6 42.2995V40.9623V37.3962C26.6 36.41 27.4044 35.6132 28.4 35.6132H32H32.0394Z" fill="#6D93B1"/>
</svg>
