<svg width="36" height="36" viewBox="0 0 36 36" fill="none" xmlns="http://www.w3.org/2000/svg">
<path d="M28.5 9V30C28.5 30.9 27.9 31.5 27 31.5H6C5.1 31.5 4.5 30.9 4.5 30V9C4.5 8.1 5.1 7.5 6 7.5H27C27.9 7.5 28.5 8.1 28.5 9Z" fill="white"/>
<path d="M28.5 9V30C28.5 30.9 27.9 31.5 27 31.5H6C5.1 31.5 4.5 30.9 4.5 30V9C4.5 8.1 5.1 7.5 6 7.5H27C27.9 7.5 28.5 8.1 28.5 9ZM12 13.35V22.5C12 23.4 12.6 24 13.5 24H22.65L12 13.35Z" fill="#6D93B1"/>
<path d="M31.0502 4.95C30.4502 4.35 29.5502 4.35 28.9502 4.95L16.2002 17.7L18.3002 19.8L31.0502 7.05004C31.6502 6.45004 31.6502 5.55 31.0502 4.95Z" fill="white"/>
</svg>
