<svg width="36" height="36" viewBox="0 0 36 36" fill="none" xmlns="http://www.w3.org/2000/svg">
<path d="M16.5 19.5H10.5C9.6 19.5 9 18.9 9 18C9 17.1 9.6 16.5 10.5 16.5H16.5V19.5ZM25.5 16.5H19.5V19.5H25.5C26.4 19.5 27 18.9 27 18C27 17.1 26.4 16.5 25.5 16.5Z" fill="white"/>
<path opacity="0.5" d="M33 18C33 26.25 26.25 33 18 33C9.75 33 3 26.25 3 18C3 9.75 9.75 3 18 3C26.25 3 33 9.75 33 18ZM25.5 16.5H19.5V10.5C19.5 9.6 18.9 9 18 9C17.1 9 16.5 9.6 16.5 10.5V16.5H10.5C9.6 16.5 9 17.1 9 18C9 18.9 9.6 19.5 10.5 19.5H16.5V25.5C16.5 26.4 17.1 27 18 27C18.9 27 19.5 26.4 19.5 25.5V19.5H25.5C26.4 19.5 27 18.9 27 18C27 17.1 26.4 16.5 25.5 16.5Z" fill="#CAF0F8"/>
<path d="M16.5 19.5V10.5C16.5 9.6 17.1 9 18 9C18.9 9 19.5 9.6 19.5 10.5L19.5 19.5H16.5ZM19.5 25.5L19.5 19.5H16.5L16.5 25.5C16.5 26.4 17.1 27 18 27C18.9 27 19.5 26.4 19.5 25.5Z" fill="white"/>
</svg>
