<svg width="36" height="36" viewBox="0 0 36 36" fill="none" xmlns="http://www.w3.org/2000/svg">
<circle cx="18" cy="18" r="15" fill="white"/>
<path d="M18 3C9.71371 3 3 9.71371 3 18C3 26.2863 9.71371 33 18 33C26.2863 33 33 26.2863 33 18C33 9.71371 26.2863 3 18 3ZM18 8.80645C20.9395 8.80645 23.3226 11.1895 23.3226 14.129C23.3226 17.0685 20.9395 19.4516 18 19.4516C15.0605 19.4516 12.6774 17.0685 12.6774 14.129C12.6774 11.1895 15.0605 8.80645 18 8.80645ZM18 29.6129C14.4496 29.6129 11.2681 28.004 9.13911 25.4879C10.2762 23.3468 12.502 21.871 15.0968 21.871C15.2419 21.871 15.3871 21.8952 15.5262 21.9375C16.3125 22.1915 17.1351 22.3548 18 22.3548C18.8649 22.3548 19.6935 22.1915 20.4738 21.9375C20.6129 21.8952 20.7581 21.871 20.9032 21.871C23.498 21.871 25.7238 23.3468 26.8609 25.4879C24.7319 28.004 21.5504 29.6129 18 29.6129Z" fill="#6D93B1"/>
</svg>
